<?xml version="1.0" encoding="UTF-8"?>
<svg width="100px" height="100px" viewBox="0 0 100 100" version="1.1" xmlns="http://www.w3.org/2000/svg" xmlns:xlink="http://www.w3.org/1999/xlink">
    <title>Logo</title>
    <g id="Logo" stroke="none" stroke-width="1" fill="none" fill-rule="evenodd">
        <path d="M80.5948286,5.35149318 C81.0198619,4.93175277 81.6574118,4.93175277 82.082445,5.35149318 C91.1139028,14.5857822 96.0017852,26.7572688 95.7892685,39.6637938 C95.7892685,56.1381123 87.7136367,71.4586373 73.3692633,81.007239 C68.0563477,84.4696048 62.1068799,86.9880473 55.8371405,88.142826 C53.7119743,88.5625664 51.6935652,88.8768791 49.5683989,88.9823069 L49.5683989,88.9823069 L49.5683989,93.2841534 C60.6192635,93.3895812 69.1189308,94.2280767 69.1189308,96.6420767 C69.1189308,99.2649616 59.2374065,100 47.0181994,100 C34.7989923,100 24.917468,99.2649616 24.917468,96.6420767 C24.917468,94.2280767 33.5238925,93.3895812 44.4679999,93.2841534 L44.4679999,93.2841534 L44.4679999,89.0867493 C32.0362761,88.7724367 20.2421022,83.9454219 11.3164039,75.4461712 C10.8913707,75.0264308 10.8913707,74.3968202 11.3164039,73.9770798 C11.9539538,73.2420414 12.9107775,72.2981182 13.5483274,71.6685075 C13.8666034,71.2487671 14.5041533,71.2487671 14.9291866,71.6685075 C22.8980612,79.1184072 33.0988592,83.4202538 43.9372072,83.8399942 C56.8997237,84.3651623 69.5439641,79.3282774 78.4696624,70.0939884 C86.438537,61.8046079 90.7956267,51.1012274 90.7956267,39.6637938 C90.7956267,28.1219178 86.438537,17.3140949 78.3639029,9.02372913 C77.9388697,8.70941647 77.9388697,8.07980586 78.3639029,7.66006544 C79.0014528,6.92502707 79.9572788,5.9811038 80.5948286,5.35149318 Z M46.5933657,42.7072074 C56.9218733,42.7072074 65.2938311,50.9758965 65.2938311,61.1748002 C65.2938311,71.3746893 56.9218733,79.6433783 46.5933657,79.6433783 C36.2648581,79.6433783 27.8929003,71.3746893 27.8929003,61.1748002 C27.8929003,50.9758965 36.2648581,42.7072074 46.5933657,42.7072074 Z M23.1110767,64.3230504 C25.2232724,64.3230504 26.9363759,66.0138357 26.9363759,68.1007141 C26.9363759,70.1866071 25.2232724,71.8783778 23.1110767,71.8783778 C20.9988809,71.8783778 19.2857774,70.1866071 19.2857774,68.1007141 C19.2857774,66.0138357 20.9988809,64.3230504 23.1110767,64.3230504 Z M73.2633043,55.7186675 C76.3143646,55.7186675 78.7887366,58.1612414 78.7887366,61.1752929 C78.7887366,64.188359 76.3143646,66.6319182 73.2633043,66.6319182 C70.212244,66.6319182 67.7378721,64.188359 67.7378721,61.1752929 C67.7378721,58.1612414 70.212244,55.7186675 73.2633043,55.7186675 Z M24.9927967,52.4755324 C26.4494834,56.5763765 24.2634556,61.0674018 20.1109006,62.5069341 C15.957348,63.945481 11.4096917,61.7866753 9.95300499,57.6858312 C8.49631826,53.5840018 10.6823461,49.0929764 14.834901,47.6544295 C18.9874559,46.2158825 23.5351122,48.3746883 24.9927967,52.4755324 Z M75.2408065,28.6813747 C82.0153975,29.3444857 86.962146,35.3036172 86.291671,41.9938458 C85.621196,48.6830891 79.5859234,53.5692222 72.8123301,52.9061112 C66.037739,52.2439854 61.0909905,46.2838687 61.7614655,39.5946254 C62.4319405,32.905382 68.4672132,28.0192489 75.2408065,28.6813747 Z M12.1233685,43.2733643 C12.3967466,44.9316345 11.2553428,46.4953154 9.57616213,46.7643039 C7.89598373,47.0332925 6.3125852,45.9070876 6.04020474,44.2478321 C5.76782428,42.5895619 6.9082304,41.025881 8.58840879,40.7568925 C10.2685872,40.4879039 11.850988,41.6141088 12.1233685,43.2733643 Z M24.3860767,13.6410707 C33.3646547,13.6410707 40.6430997,20.8288789 40.6430997,29.6956488 C40.6430997,38.5624187 33.3646547,45.7502269 24.3860767,45.7502269 C15.4074986,45.7502269 8.12905361,38.5624187 8.12905361,29.6956488 C8.12905361,20.8288789 15.4074986,13.6410707 24.3860767,13.6410707 Z M52.0219183,27.0350266 C56.0028636,27.3138683 59.0000464,30.7269687 58.7166909,34.6583402 C58.4343332,38.5887263 54.9781942,41.5495712 50.997249,41.2697443 C47.0173014,40.9899174 44.0191209,37.5778022 44.3024764,33.6464308 C44.5858319,29.7150593 48.0409731,26.7551997 52.0219183,27.0350266 Z M79.0010537,19.3073692 C81.3487139,19.3073692 83.2513862,21.186348 83.2513862,23.5047733 C83.2513862,25.8231986 81.3487139,27.7021774 79.0010537,27.7021774 C76.6533935,27.7021774 74.7507212,25.8231986 74.7507212,23.5047733 C74.7507212,21.186348 76.6533935,19.3073692 79.0010537,19.3073692 Z M63.4878388,6.0860389 C69.5320911,6.0860389 74.4319462,10.9248773 74.4319462,16.8938618 C74.4319462,22.8628464 69.5320911,27.7016848 63.4878388,27.7016848 C57.4435866,27.7016848 52.5437315,22.8628464 52.5437315,16.8938618 C52.5437315,10.9248773 57.4435866,6.0860389 63.4878388,6.0860389 Z M46.0620741,17.523571 C48.1742699,17.523571 49.8873734,19.2143563 49.8873734,21.3012347 C49.8873734,23.3871278 48.1742699,25.0788984 46.0620741,25.0788984 C43.9498784,25.0788984 42.2367749,23.3871278 42.2367749,21.3012347 C42.2367749,19.2143563 43.9498784,17.523571 46.0620741,17.523571 Z M41.8118414,0 C46.0960967,0 49.5681994,3.42985064 49.5681994,7.65976985 C49.5681994,11.8906744 46.0960967,15.3195397 41.8118414,15.3195397 C37.527586,15.3195397 34.0554834,11.8906744 34.0554834,7.65976985 C34.0554834,3.42985064 37.527586,0 41.8118414,0 Z M31.1172664,7.04671238 C31.926426,8.97397117 30.9995342,11.1840128 29.0469753,11.9821108 C27.0954142,12.7811941 24.8575044,11.8658447 24.0493426,9.93760056 C23.2411807,8.01034177 24.1680725,5.80030012 26.1196336,5.00220216 C28.0711948,4.20410419 30.3091046,5.11945359 31.1172664,7.04671238 Z M54.4561815,0.73454572 C55.9817117,0.73454572 57.2188977,1.95632532 57.2188977,3.46285839 C57.2188977,4.96939147 55.9817117,6.19117107 54.4561815,6.19117107 C52.9306514,6.19117107 51.6934654,4.96939147 51.6934654,3.46285839 C51.6934654,1.95632532 52.9306514,0.73454572 54.4561815,0.73454572 Z" fill="#FFFFFF"></path>
    </g>
</svg>