<?xml version="1.0" encoding="UTF-8"?>
<svg width="100px" height="100px" viewBox="0 0 100 100" version="1.1" xmlns="http://www.w3.org/2000/svg" xmlns:xlink="http://www.w3.org/1999/xlink">
    <title>Add to List</title>
    <g id="Add-to-List" stroke="none" stroke-width="1" fill="none" fill-rule="evenodd">
        <path d="M4,28 L44,28 C46.209139,28 48,29.790861 48,32 C48,34.209139 46.209139,36 44,36 L4,36 C1.790861,36 2.705415e-16,34.209139 0,32 C-2.705415e-16,29.790861 1.790861,28 4,28 Z M4,54 L96,54 C98.209139,54 100,55.790861 100,58 C100,60.209139 98.209139,62 96,62 L4,62 C1.790861,62 9.09765243e-13,60.209139 9.09494702e-13,58 C9.0922416e-13,55.790861 1.790861,54 4,54 Z M4,80 L96,80 C98.209139,80 100,81.790861 100,84 C100,86.209139 98.209139,88 96,88 L4,88 C1.790861,88 9.09765243e-13,86.209139 9.09494702e-13,84 C9.0922416e-13,81.790861 1.790861,80 4,80 Z M80.4356436,7 C83.0149626,7 85.119113,9.03443903 85.2309667,11.5861892 L85.2356436,11.8 L85.2346436,22.2 L95.6356436,22.2 C98.2866104,22.2 100.435644,24.3490332 100.435644,27 C100.435644,29.579319 98.4012045,31.6834694 95.8494544,31.7953232 L95.6356436,31.8 L95.6356436,31.8 L85.2346436,31.799 L85.2356436,42.2 C85.2356436,44.779319 83.2012045,46.8834694 80.6494544,46.9953232 L80.4356436,47 C77.8563245,47 75.7521742,44.965561 75.6403204,42.4138108 L75.6356436,42.2 L75.6346436,31.799 L65.2356436,31.8 C62.5846768,31.8 60.4356436,29.6509668 60.4356436,27 C60.4356436,24.3490332 62.5846768,22.2 65.2356436,22.2 L75.6346436,22.2 L75.6356436,11.8 C75.6356436,9.22068095 77.6700826,7.1165306 80.2218328,7.00467683 L80.4356436,7 Z" id="Shadow"></path>
        <path d="M4,28 L44,28 C46.209139,28 48,29.790861 48,32 C48,34.209139 46.209139,36 44,36 L4,36 C1.790861,36 2.705415e-16,34.209139 0,32 C-2.705415e-16,29.790861 1.790861,28 4,28 Z M4,54 L96,54 C98.209139,54 100,55.790861 100,58 C100,60.209139 98.209139,62 96,62 L4,62 C1.790861,62 9.09765243e-13,60.209139 9.09494702e-13,58 C9.0922416e-13,55.790861 1.790861,54 4,54 Z M4,80 L96,80 C98.209139,80 100,81.790861 100,84 C100,86.209139 98.209139,88 96,88 L4,88 C1.790861,88 9.09765243e-13,86.209139 9.09494702e-13,84 C9.0922416e-13,81.790861 1.790861,80 4,80 Z M80.4356436,7 C83.0149626,7 85.119113,9.03443903 85.2309667,11.5861892 L85.2356436,11.8 L85.2346436,22.2 L95.6356436,22.2 C98.2866104,22.2 100.435644,24.3490332 100.435644,27 C100.435644,29.579319 98.4012045,31.6834694 95.8494544,31.7953232 L95.6356436,31.8 L95.6356436,31.8 L85.2346436,31.799 L85.2356436,42.2 C85.2356436,44.779319 83.2012045,46.8834694 80.6494544,46.9953232 L80.4356436,47 C77.8563245,47 75.7521742,44.965561 75.6403204,42.4138108 L75.6356436,42.2 L75.6346436,31.799 L65.2356436,31.8 C62.5846768,31.8 60.4356436,29.6509668 60.4356436,27 C60.4356436,24.3490332 62.5846768,22.2 65.2356436,22.2 L75.6346436,22.2 L75.6356436,11.8 C75.6356436,9.22068095 77.6700826,7.1165306 80.2218328,7.00467683 L80.4356436,7 Z" id="Colour" fill="#000000"></path>
    </g>
</svg>