<?xml version="1.0" encoding="UTF-8"?>
<svg width="100px" height="100px" viewBox="0 0 100 100" version="1.1" xmlns="http://www.w3.org/2000/svg" xmlns:xlink="http://www.w3.org/1999/xlink">
    <title>Apple</title>
    <g id="Apple" stroke="none" stroke-width="1" fill="none" fill-rule="evenodd">
        <path d="M88.39974,34.0934093 C87.819682,34.5434543 77.5786579,40.3140314 77.5786579,53.1453145 C77.5786579,67.9867987 90.609961,73.2373237 91,73.3673367 C90.939994,73.6873687 88.929793,80.5580558 84.1293129,87.5587559 C79.8488849,93.7193719 75.3784378,99.869987 68.5777578,99.869987 C61.7770777,99.869987 60.0269027,95.919592 52.1761176,95.919592 C44.5253525,95.919592 41.8050805,100 35.5844584,100 C29.3638364,100 25.0234023,94.2994299 20.0329033,87.2987299 C14.2523252,79.0779078 9.58185819,66.3066307 9.58185819,54.1854185 C9.58185819,34.7434743 22.2231223,24.4324432 34.6643664,24.4324432 C41.2750275,24.4324432 46.7855786,28.7728773 50.9359936,28.7728773 C54.8863886,28.7728773 61.0470047,24.1724172 68.5677568,24.1724172 C71.4180418,24.1724172 81.6590659,24.4324432 88.39974,34.0934093 Z M64.9973997,15.9415942 C68.1077108,12.2512251 70.3079308,7.13071307 70.3079308,2.01020102 C70.3079308,1.30013001 70.2479248,0.580058006 70.1179118,0 C65.0574057,0.190019002 59.0368037,3.37033703 55.4064406,7.58075808 C52.5561556,10.8210821 49.8958896,15.9415942 49.8958896,21.1321132 C49.8958896,21.9121912 50.0259026,22.6922692 50.0859086,22.9422942 C50.4059406,23.0023002 50.9259926,23.0723072 51.4460446,23.0723072 C55.9864986,23.0723072 61.6970697,20.0320032 64.9973997,15.9415942 Z" id="Shadow"></path>
        <path d="M88.39974,34.0934093 C87.819682,34.5434543 77.5786579,40.3140314 77.5786579,53.1453145 C77.5786579,67.9867987 90.609961,73.2373237 91,73.3673367 C90.939994,73.6873687 88.929793,80.5580558 84.1293129,87.5587559 C79.8488849,93.7193719 75.3784378,99.869987 68.5777578,99.869987 C61.7770777,99.869987 60.0269027,95.919592 52.1761176,95.919592 C44.5253525,95.919592 41.8050805,100 35.5844584,100 C29.3638364,100 25.0234023,94.2994299 20.0329033,87.2987299 C14.2523252,79.0779078 9.58185819,66.3066307 9.58185819,54.1854185 C9.58185819,34.7434743 22.2231223,24.4324432 34.6643664,24.4324432 C41.2750275,24.4324432 46.7855786,28.7728773 50.9359936,28.7728773 C54.8863886,28.7728773 61.0470047,24.1724172 68.5677568,24.1724172 C71.4180418,24.1724172 81.6590659,24.4324432 88.39974,34.0934093 Z M64.9973997,15.9415942 C68.1077108,12.2512251 70.3079308,7.13071307 70.3079308,2.01020102 C70.3079308,1.30013001 70.2479248,0.580058006 70.1179118,0 C65.0574057,0.190019002 59.0368037,3.37033703 55.4064406,7.58075808 C52.5561556,10.8210821 49.8958896,15.9415942 49.8958896,21.1321132 C49.8958896,21.9121912 50.0259026,22.6922692 50.0859086,22.9422942 C50.4059406,23.0023002 50.9259926,23.0723072 51.4460446,23.0723072 C55.9864986,23.0723072 61.6970697,20.0320032 64.9973997,15.9415942 Z" id="Colour" fill="#000000"></path>
    </g>
</svg>