<?xml version="1.0" encoding="UTF-8"?>
<svg width="100px" height="100px" viewBox="0 0 100 100" version="1.1" xmlns="http://www.w3.org/2000/svg" xmlns:xlink="http://www.w3.org/1999/xlink">
    <title>Arrow Head Line Regular Down</title>
    <g id="Arrow-Head-Line-Regular-Down" stroke="none" stroke-width="1" fill="none" fill-rule="evenodd">
        <path d="M49.560398,73.9920932 L49.7972158,74.0045224 L49.7972158,74.0045224 L50.2026699,74.0045224 L50.2026699,74.0045224 L50.440886,73.9912136 L50.440886,73.9912136 C51.7872621,73.8945397 53.0999138,73.3450121 54.1316463,72.3651033 L97.8574697,35.6646349 C100.394643,33.5351406 100.725836,29.7523456 98.5973127,27.2143578 C96.5230284,24.7410433 92.876778,24.3638195 90.3445673,26.3183707 L90.1502677,26.4747978 L90.1502677,26.4747978 L49.999,60.1738301 L9.85002778,26.4750457 C7.31167267,24.3460746 3.53045609,24.6777358 1.40283503,27.2144818 C-0.67253541,29.6889298 -0.409638346,33.3467996 1.95638429,35.5018696 L2.14253025,35.6646348 L45.8683537,72.3651033 C46.9003411,73.3452542 48.2133864,73.8948112 49.560398,73.9920932 Z" id="Shadow"></path>
        <path d="M49.560398,73.9920932 L49.7972158,74.0045224 L49.7972158,74.0045224 L50.2026699,74.0045224 L50.2026699,74.0045224 L50.440886,73.9912136 L50.440886,73.9912136 C51.7872621,73.8945397 53.0999138,73.3450121 54.1316463,72.3651033 L97.8574697,35.6646349 C100.394643,33.5351406 100.725836,29.7523456 98.5973127,27.2143578 C96.5230284,24.7410433 92.876778,24.3638195 90.3445673,26.3183707 L90.1502677,26.4747978 L90.1502677,26.4747978 L49.999,60.1738301 L9.85002778,26.4750457 C7.31167267,24.3460746 3.53045609,24.6777358 1.40283503,27.2144818 C-0.67253541,29.6889298 -0.409638346,33.3467996 1.95638429,35.5018696 L2.14253025,35.6646348 L45.8683537,72.3651033 C46.9003411,73.3452542 48.2133864,73.8948112 49.560398,73.9920932 Z" id="Colour" fill="#000000"></path>
    </g>
</svg>