<?xml version="1.0" encoding="UTF-8"?>
<svg width="100px" height="100px" viewBox="0 0 100 100" version="1.1" xmlns="http://www.w3.org/2000/svg" xmlns:xlink="http://www.w3.org/1999/xlink">
    <title>Arrow Head Line Regular Up</title>
    <g id="Arrow-Head-Line-Regular-Up" stroke="none" stroke-width="1" fill="none" fill-rule="evenodd">
        <path d="M50.0726948,25.9926174 L50.1305695,25.9937708 C50.1546037,25.9943127 50.1786376,25.9949986 50.2026699,25.9958286 C50.2527985,25.9971174 50.302786,25.9993795 50.3527342,26.0022629 C50.3821948,26.0046418 50.411545,26.0066062 50.440886,26.0087864 C51.7872621,26.1054603 53.0999138,26.6549879 54.1316463,27.6348967 L97.8574697,64.3353651 C100.394643,66.4648594 100.725836,70.2476544 98.5973127,72.7856422 C96.4698416,75.322375 92.6887573,75.6541472 90.1520245,73.5266761 C90.1514388,73.5261849 90.1508532,73.5256936 90.1502677,73.5252022 L49.999,39.8261699 L9.85002778,73.5249543 L9.85002778,73.5249543 C7.31167267,75.6539254 3.53045609,75.3222642 1.40283503,72.7855182 C-0.725750036,70.2476228 -0.394619122,66.4648393 2.14253025,64.3353652 L2.14253025,64.3353652 L45.8683537,27.6348967 C46.9003411,26.6547458 48.2133864,26.1051888 49.560398,26.0079068 C49.589122,26.0065616 49.6181388,26.0046219 49.6471623,26.002893 C49.697214,25.9993795 49.7472015,25.9971174 49.7972158,25.9954776 C49.8213624,25.9949986 49.8453963,25.9943127 49.8694305,25.9937708 C49.9129526,25.9926367 49.9566675,25.9922017 50.0003899,25.9922426 L50.0726948,25.9926174 L50.0726948,25.9926174 Z" id="Shadow"></path>
        <path d="M50.0726948,25.9926174 L50.1305695,25.9937708 C50.1546037,25.9943127 50.1786376,25.9949986 50.2026699,25.9958286 C50.2527985,25.9971174 50.302786,25.9993795 50.3527342,26.0022629 C50.3821948,26.0046418 50.411545,26.0066062 50.440886,26.0087864 C51.7872621,26.1054603 53.0999138,26.6549879 54.1316463,27.6348967 L97.8574697,64.3353651 C100.394643,66.4648594 100.725836,70.2476544 98.5973127,72.7856422 C96.4698416,75.322375 92.6887573,75.6541472 90.1520245,73.5266761 C90.1514388,73.5261849 90.1508532,73.5256936 90.1502677,73.5252022 L49.999,39.8261699 L9.85002778,73.5249543 L9.85002778,73.5249543 C7.31167267,75.6539254 3.53045609,75.3222642 1.40283503,72.7855182 C-0.725750036,70.2476228 -0.394619122,66.4648393 2.14253025,64.3353652 L2.14253025,64.3353652 L45.8683537,27.6348967 C46.9003411,26.6547458 48.2133864,26.1051888 49.560398,26.0079068 C49.589122,26.0065616 49.6181388,26.0046219 49.6471623,26.002893 C49.697214,25.9993795 49.7472015,25.9971174 49.7972158,25.9954776 C49.8213624,25.9949986 49.8453963,25.9943127 49.8694305,25.9937708 C49.9129526,25.9926367 49.9566675,25.9922017 50.0003899,25.9922426 L50.0726948,25.9926174 L50.0726948,25.9926174 Z" id="Colour" fill="#000000"></path>
    </g>
</svg>