<?xml version="1.0" encoding="UTF-8"?>
<svg width="100px" height="100px" viewBox="0 0 100 100" version="1.1" xmlns="http://www.w3.org/2000/svg" xmlns:xlink="http://www.w3.org/1999/xlink">
    <title>Arrow Head Line Bold Right</title>
    <g id="Arrow-Head-Line-Bold-Right" stroke="none" stroke-width="1" fill="none" fill-rule="evenodd">
        <path d="M77.0087616,49.7538187 L77.0087616,50.2463185 L77.0087616,50.2463185 C76.9516054,52.6543954 76.0291915,55.0317833 74.2856562,56.8746145 L41.0867647,96.4282326 C37.5363156,100.658381 31.2292181,101.210181 26.9981508,97.6608265 C22.8440286,94.1760202 22.2369492,88.0317982 25.5780526,83.8063876 L25.7658758,83.575859 L53.9477614,50 L25.7658758,16.424141 C22.2160462,12.1925072 22.7684991,5.88733988 26.9981508,2.33917348 C31.1536633,-1.14679921 37.3117241,-0.676780383 40.8939525,3.34867358 L41.0867647,3.57176744 L74.2856562,43.1253855 C76.0291915,44.9682167 76.9516054,47.3456046 77.0087616,49.7538187 Z" id="Shadow"></path>
        <path d="M77.0087616,49.7538187 L77.0087616,50.2463185 L77.0087616,50.2463185 C76.9516054,52.6543954 76.0291915,55.0317833 74.2856562,56.8746145 L41.0867647,96.4282326 C37.5363156,100.658381 31.2292181,101.210181 26.9981508,97.6608265 C22.8440286,94.1760202 22.2369492,88.0317982 25.5780526,83.8063876 L25.7658758,83.575859 L53.9477614,50 L25.7658758,16.424141 C22.2160462,12.1925072 22.7684991,5.88733988 26.9981508,2.33917348 C31.1536633,-1.14679921 37.3117241,-0.676780383 40.8939525,3.34867358 L41.0867647,3.57176744 L74.2856562,43.1253855 C76.0291915,44.9682167 76.9516054,47.3456046 77.0087616,49.7538187 Z" id="Colour" fill="#000000"></path>
    </g>
</svg>