<?xml version="1.0" encoding="UTF-8"?>
<svg width="100px" height="100px" viewBox="0 0 100 100" version="1.1" xmlns="http://www.w3.org/2000/svg" xmlns:xlink="http://www.w3.org/1999/xlink">
    <title>Arrow Head Line Bold Down</title>
    <g id="Arrow-Head-Line-Bold-Down" stroke="none" stroke-width="1" fill="none" fill-rule="evenodd">
        <path d="M49.7538187,77.0087616 L50.2463185,77.0087616 L50.2463185,77.0087616 C52.6543954,76.9516054 55.0317833,76.0291915 56.8746145,74.2856562 L96.4282326,41.0867647 C100.658381,37.5363156 101.210181,31.2292181 97.6608265,26.9981508 C94.1760202,22.8440286 88.0317982,22.2369492 83.8063876,25.5780526 L83.575859,25.7658758 L50,53.9477614 L16.424141,25.7658758 C12.1925072,22.2160462 5.88733988,22.7684991 2.33917348,26.9981508 C-1.14679921,31.1536633 -0.676780383,37.3117241 3.34867358,40.8939525 L3.57176744,41.0867647 L43.1253855,74.2856562 C44.9682167,76.0291915 47.3456046,76.9516054 49.7538187,77.0087616 Z" id="Shadow"></path>
        <path d="M49.7538187,77.0087616 L50.2463185,77.0087616 L50.2463185,77.0087616 C52.6543954,76.9516054 55.0317833,76.0291915 56.8746145,74.2856562 L96.4282326,41.0867647 C100.658381,37.5363156 101.210181,31.2292181 97.6608265,26.9981508 C94.1760202,22.8440286 88.0317982,22.2369492 83.8063876,25.5780526 L83.575859,25.7658758 L50,53.9477614 L16.424141,25.7658758 C12.1925072,22.2160462 5.88733988,22.7684991 2.33917348,26.9981508 C-1.14679921,31.1536633 -0.676780383,37.3117241 3.34867358,40.8939525 L3.57176744,41.0867647 L43.1253855,74.2856562 C44.9682167,76.0291915 47.3456046,76.9516054 49.7538187,77.0087616 Z" id="Colour" fill="#000000"></path>
    </g>
</svg>