<?xml version="1.0" encoding="UTF-8"?>
<svg width="100px" height="100px" viewBox="0 0 100 100" version="1.1" xmlns="http://www.w3.org/2000/svg" xmlns:xlink="http://www.w3.org/1999/xlink">
    <title>Arrow Head Line Bold Up</title>
    <g id="Arrow-Head-Line-Bold-Up" stroke="none" stroke-width="1" fill="none" fill-rule="evenodd">
        <path d="M50.0640456,22.9885663 L50.1494196,22.9896364 C50.181719,22.9901415 50.2140191,22.9908025 50.2463185,22.9916193 C52.6543954,23.0483946 55.0317833,23.9708085 56.8746145,25.7143438 L96.4282326,58.9132353 C100.658381,62.4636844 101.210181,68.7707819 97.6608265,73.0018492 C94.1126601,77.2315009 87.8074928,77.7839538 83.5778412,74.2357874 L83.575859,74.2341242 L50,46.0522386 L16.424141,74.2341242 L16.424141,74.2341242 C12.1925072,77.7839538 5.88733988,77.2315009 2.33917348,73.0018492 C-1.21018053,68.7707819 -0.658381024,62.4636844 3.57176744,58.9132353 L3.57176744,58.9132353 L43.1253855,25.7143438 C44.9682167,23.9708085 47.3456046,23.0483946 49.7538187,22.9912384 C49.7859809,22.9908025 49.818281,22.9901415 49.8505804,22.9896364 C49.8792347,22.9890045 49.9075933,22.9887254 49.9359544,22.9885663 L50.0640456,22.9885663 L50.0640456,22.9885663 Z" id="Shadow"></path>
        <path d="M50.0640456,22.9885663 L50.1494196,22.9896364 C50.181719,22.9901415 50.2140191,22.9908025 50.2463185,22.9916193 C52.6543954,23.0483946 55.0317833,23.9708085 56.8746145,25.7143438 L96.4282326,58.9132353 C100.658381,62.4636844 101.210181,68.7707819 97.6608265,73.0018492 C94.1126601,77.2315009 87.8074928,77.7839538 83.5778412,74.2357874 L83.575859,74.2341242 L50,46.0522386 L16.424141,74.2341242 L16.424141,74.2341242 C12.1925072,77.7839538 5.88733988,77.2315009 2.33917348,73.0018492 C-1.21018053,68.7707819 -0.658381024,62.4636844 3.57176744,58.9132353 L3.57176744,58.9132353 L43.1253855,25.7143438 C44.9682167,23.9708085 47.3456046,23.0483946 49.7538187,22.9912384 C49.7859809,22.9908025 49.818281,22.9901415 49.8505804,22.9896364 C49.8792347,22.9890045 49.9075933,22.9887254 49.9359544,22.9885663 L50.0640456,22.9885663 L50.0640456,22.9885663 Z" id="Colour" fill="#000000"></path>
    </g>
</svg>