<?xml version="1.0" encoding="UTF-8"?>
<svg width="100px" height="100px" viewBox="0 0 100 100" version="1.1" xmlns="http://www.w3.org/2000/svg" xmlns:xlink="http://www.w3.org/1999/xlink">
    <title>Arrow Head Line Bold Left</title>
    <g id="Arrow-Head-Line-Bold-Left" stroke="none" stroke-width="1" fill="none" fill-rule="evenodd">
        <path d="M22.9912384,50.2461813 L22.9912384,49.7536815 L22.9912384,49.7536815 C23.0483946,47.3456046 23.9708085,44.9682167 25.7143438,43.1253855 L58.9132353,3.57176744 C62.4636844,-0.658381024 68.7707819,-1.21018053 73.0018492,2.33917348 C77.1559714,5.82397977 77.7630508,11.9682018 74.4219474,16.1936124 L74.2341242,16.424141 L46.0522386,50 L74.2341242,83.575859 C77.7839538,87.8074928 77.2315009,94.1126601 73.0018492,97.6608265 C68.8463367,101.146799 62.6882759,100.67678 59.1060475,96.6513264 L58.9132353,96.4282326 L25.7143438,56.8746145 C23.9708085,55.0317833 23.0483946,52.6543954 22.9912384,50.2461813 Z" id="Path"></path>
        <path d="M22.9912384,50.2461813 L22.9912384,49.7536815 L22.9912384,49.7536815 C23.0483946,47.3456046 23.9708085,44.9682167 25.7143438,43.1253855 L58.9132353,3.57176744 C62.4636844,-0.658381024 68.7707819,-1.21018053 73.0018492,2.33917348 C77.1559714,5.82397977 77.7630508,11.9682018 74.4219474,16.1936124 L74.2341242,16.424141 L46.0522386,50 L74.2341242,83.575859 C77.7839538,87.8074928 77.2315009,94.1126601 73.0018492,97.6608265 C68.8463367,101.146799 62.6882759,100.67678 59.1060475,96.6513264 L58.9132353,96.4282326 L25.7143438,56.8746145 C23.9708085,55.0317833 23.0483946,52.6543954 22.9912384,50.2461813 Z" id="Colour" fill="#000000"></path>
    </g>
</svg>