<?xml version="1.0" encoding="UTF-8"?>
<svg width="100px" height="100px" viewBox="0 0 100 100" version="1.1" xmlns="http://www.w3.org/2000/svg" xmlns:xlink="http://www.w3.org/1999/xlink">
    <title>Arrow Head Right Up</title>
    <g id="Arrow-Head-Right-Up" stroke="none" stroke-width="1" fill="none" fill-rule="evenodd">
        <path d="M2.19390389,41.3104695 C-0.780329117,38.3362365 -0.780329117,33.514052 2.19390389,30.539819 C3.19238378,29.5413391 4.39913007,28.8780589 5.67430852,28.5499785 L89.3631616,0.664796728 C92.1476492,-0.543713734 95.5068734,-0.00969216768 97.783427,2.26686143 C100.054585,4.53801993 100.591461,7.88672357 99.3940543,10.6673206 L71.5109326,94.334202 C71.1866683,95.6247916 70.5198472,96.8470068 69.5104695,97.8563845 C66.6008937,100.76596 61.9228388,100.829212 58.9363727,98.0461395 L58.7179151,97.8343931 L2.19390389,41.3104695 Z" id="Shadow"></path>
        <path d="M2.19390389,41.3104695 C-0.780329117,38.3362365 -0.780329117,33.514052 2.19390389,30.539819 C3.19238378,29.5413391 4.39913007,28.8780589 5.67430852,28.5499785 L89.3631616,0.664796728 C92.1476492,-0.543713734 95.5068734,-0.00969216768 97.783427,2.26686143 C100.054585,4.53801993 100.591461,7.88672357 99.3940543,10.6673206 L71.5109326,94.334202 C71.1866683,95.6247916 70.5198472,96.8470068 69.5104695,97.8563845 C66.6008937,100.76596 61.9228388,100.829212 58.9363727,98.0461395 L58.7179151,97.8343931 L2.19390389,41.3104695 Z" id="Colour" fill="#000000"></path>
    </g>
</svg>