<?xml version="1.0" encoding="UTF-8"?>
<svg width="100px" height="100px" viewBox="0 0 100 100" version="1.1" xmlns="http://www.w3.org/2000/svg" xmlns:xlink="http://www.w3.org/1999/xlink">
    <title>Arrow Head Left Padded</title>
    <g id="Arrow-Head-Left-Padded" stroke="none" stroke-width="1" fill="none" fill-rule="evenodd">
        <g id="Group" transform="translate(25.000000, 25.000000)">
            <g id="Arrow-Head-Right-Padded" transform="translate(25.000000, 25.000000) rotate(-90.000000) translate(-25.000000, -25.000000) ">
                <path d="M4,50 C1.790861,50 0,48.209139 0,46 C0,45.2619467 0.199890059,44.5705803 0.548486368,43.9770845 L21.2821873,2.52135203 C21.8702159,1.04413627 23.3131724,0 25,0 C26.6834237,0 28.1239595,1.03992652 28.7142424,2.51241454 L49.4407959,43.9589469 C49.7960097,44.5564757 50,45.2544156 50,46 C50,48.209139 48.209139,50 46,50 L45.9799285,49.9999507 L45.9799285,49.9999507 L4.04,49.999 Z" id="Shadow"></path>
                <path d="M4,50 C1.790861,50 0,48.209139 0,46 C0,45.2619467 0.199890059,44.5705803 0.548486368,43.9770845 L21.2821873,2.52135203 C21.8702159,1.04413627 23.3131724,0 25,0 C26.6834237,0 28.1239595,1.03992652 28.7142424,2.51241454 L49.4407959,43.9589469 C49.7960097,44.5564757 50,45.2544156 50,46 C50,48.209139 48.209139,50 46,50 L45.9799285,49.9999507 L45.9799285,49.9999507 L4.04,49.999 Z" id="Colour" fill="#000000"></path>
            </g>
        </g>
    </g>
</svg>