<?xml version="1.0" encoding="UTF-8"?>
<svg width="100px" height="100px" viewBox="0 0 100 100" version="1.1" xmlns="http://www.w3.org/2000/svg" xmlns:xlink="http://www.w3.org/1999/xlink">
    <title>Arrow Head Left</title>
    <g id="Arrow-Head-Left" stroke="none" stroke-width="1" fill="none" fill-rule="evenodd">
        <path d="M100,92 C100,96.418278 96.418278,100 92,100 C90.515135,100 89.1247551,99.5954616 87.9330608,98.8905855 L5.06198515,57.4432714 C2.09736223,56.2721138 3.061617e-15,53.3809895 3.061617e-15,50 C3.061617e-15,46.6266236 2.08792742,43.7409088 5.04197163,42.5646662 L87.8872915,1.1366928 C89.089094,0.414985245 90.4960845,0 92,0 C96.3349143,0 99.8645429,3.44783777 99.9961932,7.75082067 L100,8.03149727 L100,92 Z" id="Shadow"></path>
        <path d="M100,92 C100,96.418278 96.418278,100 92,100 C90.515135,100 89.1247551,99.5954616 87.9330608,98.8905855 L5.06198515,57.4432714 C2.09736223,56.2721138 3.061617e-15,53.3809895 3.061617e-15,50 C3.061617e-15,46.6266236 2.08792742,43.7409088 5.04197163,42.5646662 L87.8872915,1.1366928 C89.089094,0.414985245 90.4960845,0 92,0 C96.3349143,0 99.8645429,3.44783777 99.9961932,7.75082067 L100,8.03149727 L100,92 Z" id="Colour" fill="#000000"></path>
    </g>
</svg>