<?xml version="1.0" encoding="UTF-8"?>
<svg width="100px" height="100px" viewBox="0 0 100 100" version="1.1" xmlns="http://www.w3.org/2000/svg" xmlns:xlink="http://www.w3.org/1999/xlink">
    <title>Arrow Head Up</title>
    <g id="Arrow-Head-Up" stroke="none" stroke-width="1" fill="none" fill-rule="evenodd">
        <path d="M8,100 C3.581722,100 0,96.418278 0,92 C0,90.515135 0.404538365,89.1247551 1.10941446,87.9330608 L42.5567286,5.06198515 C43.7278862,2.09736223 46.6190105,0 50,0 C53.3733764,0 56.2590912,2.08792742 57.4353338,5.04197163 L98.8633072,87.8872915 C99.5850148,89.089094 100,90.4960845 100,92 C100,96.418278 96.418278,100 92,100 L91.9685027,99.9999393 L91.9685027,99.9999393 L8.062,99.999 Z" id="Shadow"></path>
        <path d="M8,100 C3.581722,100 0,96.418278 0,92 C0,90.515135 0.404538365,89.1247551 1.10941446,87.9330608 L42.5567286,5.06198515 C43.7278862,2.09736223 46.6190105,0 50,0 C53.3733764,0 56.2590912,2.08792742 57.4353338,5.04197163 L98.8633072,87.8872915 C99.5850148,89.089094 100,90.4960845 100,92 C100,96.418278 96.418278,100 92,100 L91.9685027,99.9999393 L91.9685027,99.9999393 L8.062,99.999 Z" id="Colour" fill="#000000"></path>
    </g>
</svg>