<?xml version="1.0" encoding="UTF-8"?>
<svg width="100px" height="100px" viewBox="0 0 100 100" version="1.1" xmlns="http://www.w3.org/2000/svg" xmlns:xlink="http://www.w3.org/1999/xlink">
    <title>Arrow Head Line Regular Right</title>
    <g id="Arrow-Head-Line-Regular-Right" stroke="none" stroke-width="1" fill="none" fill-rule="evenodd">
        <path d="M73.9920932,49.560398 L74.0045224,49.7972158 L74.0045224,49.7972158 L74.0045224,50.2026699 L74.0045224,50.2026699 L73.9912136,50.440886 L73.9912136,50.440886 C73.8945397,51.7872621 73.3450121,53.0999138 72.3651033,54.1316463 L35.6646349,97.8574697 C33.5351406,100.394643 29.7523456,100.725836 27.2143578,98.5973127 C24.7410433,96.5230284 24.3638195,92.876778 26.3183707,90.3445673 L26.4747978,90.1502677 L26.4747978,90.1502677 L60.1738301,49.999 L26.4750457,9.85002778 C24.3460746,7.31167267 24.6777358,3.53045609 27.2144818,1.40283503 C29.6889298,-0.67253541 33.3467996,-0.409638346 35.5018696,1.95638429 L35.6646348,2.14253025 L72.3651033,45.8683537 C73.3452542,46.9003411 73.8948112,48.2133864 73.9920932,49.560398 Z" id="Shadow"></path>
        <path d="M73.9920932,49.560398 L74.0045224,49.7972158 L74.0045224,49.7972158 L74.0045224,50.2026699 L74.0045224,50.2026699 L73.9912136,50.440886 L73.9912136,50.440886 C73.8945397,51.7872621 73.3450121,53.0999138 72.3651033,54.1316463 L35.6646349,97.8574697 C33.5351406,100.394643 29.7523456,100.725836 27.2143578,98.5973127 C24.7410433,96.5230284 24.3638195,92.876778 26.3183707,90.3445673 L26.4747978,90.1502677 L26.4747978,90.1502677 L60.1738301,49.999 L26.4750457,9.85002778 C24.3460746,7.31167267 24.6777358,3.53045609 27.2144818,1.40283503 C29.6889298,-0.67253541 33.3467996,-0.409638346 35.5018696,1.95638429 L35.6646348,2.14253025 L72.3651033,45.8683537 C73.3452542,46.9003411 73.8948112,48.2133864 73.9920932,49.560398 Z" id="Colour" fill="#000000"></path>
    </g>
</svg>