<?xml version="1.0" encoding="UTF-8"?>
<svg width="100px" height="100px" viewBox="0 0 100 100" version="1.1" xmlns="http://www.w3.org/2000/svg" xmlns:xlink="http://www.w3.org/1999/xlink">
    <title>Arrow Head Line Regular Left</title>
    <g id="Arrow-Head-Line-Regular-Left" stroke="none" stroke-width="1" fill="none" fill-rule="evenodd">
        <path d="M26.0079068,50.439602 L25.9954776,50.2027842 L25.9954776,50.2027842 L25.9954776,49.7973301 L25.9954776,49.7973301 L26.0087864,49.559114 L26.0087864,49.559114 C26.1054603,48.2127379 26.6549879,46.9000862 27.6348967,45.8683537 L64.3353651,2.14253028 C66.4648594,-0.394642994 70.2476544,-0.725836213 72.7856422,1.40268729 C75.2589567,3.47697159 75.6361805,7.123222 73.6816293,9.6554327 L73.5252022,9.84973234 L73.5252022,9.84973234 L39.8261699,50.001 L73.5249543,90.1499722 C75.6539254,92.6883273 75.3222642,96.4695439 72.7855182,98.597165 C70.3110702,100.672535 66.6532004,100.409638 64.4981304,98.0436157 L64.3353652,97.8574698 L27.6348967,54.1316463 C26.6547458,53.0996589 26.1051888,51.7866136 26.0079068,50.439602 Z" id="Shadow"></path>
        <path d="M26.0079068,50.439602 L25.9954776,50.2027842 L25.9954776,50.2027842 L25.9954776,49.7973301 L25.9954776,49.7973301 L26.0087864,49.559114 L26.0087864,49.559114 C26.1054603,48.2127379 26.6549879,46.9000862 27.6348967,45.8683537 L64.3353651,2.14253028 C66.4648594,-0.394642994 70.2476544,-0.725836213 72.7856422,1.40268729 C75.2589567,3.47697159 75.6361805,7.123222 73.6816293,9.6554327 L73.5252022,9.84973234 L73.5252022,9.84973234 L39.8261699,50.001 L73.5249543,90.1499722 C75.6539254,92.6883273 75.3222642,96.4695439 72.7855182,98.597165 C70.3110702,100.672535 66.6532004,100.409638 64.4981304,98.0436157 L64.3353652,97.8574698 L27.6348967,54.1316463 C26.6547458,53.0996589 26.1051888,51.7866136 26.0079068,50.439602 Z" id="Colour" fill="#000000"></path>
    </g>
</svg>