<?xml version="1.0" encoding="UTF-8"?>
<svg width="100px" height="100px" viewBox="0 0 100 100" version="1.1" xmlns="http://www.w3.org/2000/svg" xmlns:xlink="http://www.w3.org/1999/xlink">
    <title>Arrow Head Right</title>
    <g id="Arrow-Head-Right" stroke="none" stroke-width="1" fill="none" fill-rule="evenodd">
        <path d="M0,8 C0,3.581722 3.581722,-4.53366908e-15 8,-4.53366908e-15 C9.48486496,-4.53366908e-15 10.8752449,0.404538365 12.0669392,1.10941446 L94.9380148,42.5567286 C97.9026378,43.7278862 100,46.6190105 100,50 C100,53.3733764 97.9120726,56.2590912 94.9580284,57.4353338 L12.1127085,98.8633072 C10.910906,99.5850148 9.50391548,100 8,100 C3.66508574,100 0.135457134,96.5521622 0.00380682464,92.2491793 L0,91.9685027 L0,8 Z" id="Shadow"></path>
        <path d="M0,8 C0,3.581722 3.581722,-4.53366908e-15 8,-4.53366908e-15 C9.48486496,-4.53366908e-15 10.8752449,0.404538365 12.0669392,1.10941446 L94.9380148,42.5567286 C97.9026378,43.7278862 100,46.6190105 100,50 C100,53.3733764 97.9120726,56.2590912 94.9580284,57.4353338 L12.1127085,98.8633072 C10.910906,99.5850148 9.50391548,100 8,100 C3.66508574,100 0.135457134,96.5521622 0.00380682464,92.2491793 L0,91.9685027 L0,8 Z" id="Colour" fill="#000000"></path>
    </g>
</svg>