<?xml version="1.0" encoding="UTF-8"?>
<svg width="100px" height="100px" viewBox="0 0 100 100" version="1.1" xmlns="http://www.w3.org/2000/svg" xmlns:xlink="http://www.w3.org/1999/xlink">
    <title>Arrow Head Down</title>
    <g id="Arrow-Head-Down" stroke="none" stroke-width="1" fill="none" fill-rule="evenodd">
        <path d="M8,0 C3.581722,0 0,3.581722 0,8 C0,9.48486496 0.404538365,10.8752449 1.10941446,12.0669392 L42.5567286,94.9380148 C43.7278862,97.9026378 46.6190105,100 50,100 C53.3733764,100 56.2590912,97.9120726 57.4353338,94.9580284 L98.8633072,12.1127085 C99.5850148,10.910906 100,9.50391548 100,8 C100,3.66508574 96.5521622,0.135457134 92.2491793,0.00380682464 L91.9685027,0 L8,0 Z" id="Shadow"></path>
        <path d="M8,0 C3.581722,0 0,3.581722 0,8 C0,9.48486496 0.404538365,10.8752449 1.10941446,12.0669392 L42.5567286,94.9380148 C43.7278862,97.9026378 46.6190105,100 50,100 C53.3733764,100 56.2590912,97.9120726 57.4353338,94.9580284 L98.8633072,12.1127085 C99.5850148,10.910906 100,9.50391548 100,8 C100,3.66508574 96.5521622,0.135457134 92.2491793,0.00380682464 L91.9685027,0 L8,0 Z" id="Colour" fill="#000000"></path>
    </g>
</svg>