<?xml version="1.0" encoding="UTF-8"?>
<svg width="100px" height="100px" viewBox="0 0 100 100" version="1.1" xmlns="http://www.w3.org/2000/svg" xmlns:xlink="http://www.w3.org/1999/xlink">
    <title>Bar Chart Circle Border</title>
    <g id="Bar-Chart-Circle-Border" stroke="none" stroke-width="1" fill="none" fill-rule="evenodd">
        <path d="M50,0 C77.6142375,0 100,22.3857625 100,50 C100,77.6142375 77.6142375,100 50,100 C22.3857625,100 0,77.6142375 0,50 C0,22.3857625 22.3857625,0 50,0 Z M50,7 C26.2517558,7 7,26.2517558 7,50 C7,73.7482442 26.2517558,93 50,93 C73.7482442,93 93,73.7482442 93,50 C93,26.2517558 73.7482442,7 50,7 Z M34.6,52.8 C36.112,52.8 37.12,53.808 37.12,55.32 L37.12,55.32 L37.12,75.48 L37.12,75.48 L37.1151939,75.6589885 C37.0385536,77.0710272 36.05152,78 34.6,78 L34.6,78 L24.52,78 L24.52,78 L24.3410115,77.9951939 C22.9289728,77.9185536 22,76.93152 22,75.48 L22,75.48 L22,55.32 L22,55.32 L22.0048061,55.1410115 C22.0814464,53.7289728 23.06848,52.8 24.52,52.8 L24.52,52.8 Z M75.48,42.16 C76.992,42.16 78,43.184 78,44.72 L78,44.72 L78,75.44 L78,75.44 L77.9951939,75.6218296 C77.9185536,77.0562816 76.93152,78 75.48,78 L75.48,78 L65.4,78 L65.4,78 L65.2210115,77.9951176 C63.8089728,77.9172608 62.88,76.91456 62.88,75.44 L62.88,75.44 L62.88,44.72 L62.88,44.72 L62.8848061,44.5381704 C62.9614464,43.1037184 63.94848,42.16 65.4,42.16 L65.4,42.16 Z M55.32,22 C56.832,22 57.84,23.0181818 57.84,24.5454545 L57.84,24.5454545 L57.84,75.4545455 L57.84,75.4545455 L57.8351939,75.635342 C57.7585536,77.0616436 56.77152,78 55.32,78 L55.32,78 L45.24,78 L45.24,78 L45.0610115,77.9951453 C43.6489728,77.9177309 42.72,76.9207273 42.72,75.4545455 L42.72,75.4545455 L42.72,24.5454545 L42.72,24.5454545 L42.7248061,24.364658 C42.8014464,22.9383564 43.78848,22 45.24,22 L45.24,22 Z" id="Shadow"></path>
        <path d="M50,0 C77.6142375,0 100,22.3857625 100,50 C100,77.6142375 77.6142375,100 50,100 C22.3857625,100 0,77.6142375 0,50 C0,22.3857625 22.3857625,0 50,0 Z M50,7 C26.2517558,7 7,26.2517558 7,50 C7,73.7482442 26.2517558,93 50,93 C73.7482442,93 93,73.7482442 93,50 C93,26.2517558 73.7482442,7 50,7 Z M34.6,52.8 C36.112,52.8 37.12,53.808 37.12,55.32 L37.12,55.32 L37.12,75.48 L37.12,75.48 L37.1151939,75.6589885 C37.0385536,77.0710272 36.05152,78 34.6,78 L34.6,78 L24.52,78 L24.52,78 L24.3410115,77.9951939 C22.9289728,77.9185536 22,76.93152 22,75.48 L22,75.48 L22,55.32 L22,55.32 L22.0048061,55.1410115 C22.0814464,53.7289728 23.06848,52.8 24.52,52.8 L24.52,52.8 Z M75.48,42.16 C76.992,42.16 78,43.184 78,44.72 L78,44.72 L78,75.44 L78,75.44 L77.9951939,75.6218296 C77.9185536,77.0562816 76.93152,78 75.48,78 L75.48,78 L65.4,78 L65.4,78 L65.2210115,77.9951176 C63.8089728,77.9172608 62.88,76.91456 62.88,75.44 L62.88,75.44 L62.88,44.72 L62.88,44.72 L62.8848061,44.5381704 C62.9614464,43.1037184 63.94848,42.16 65.4,42.16 L65.4,42.16 Z M55.32,22 C56.832,22 57.84,23.0181818 57.84,24.5454545 L57.84,24.5454545 L57.84,75.4545455 L57.84,75.4545455 L57.8351939,75.635342 C57.7585536,77.0616436 56.77152,78 55.32,78 L55.32,78 L45.24,78 L45.24,78 L45.0610115,77.9951453 C43.6489728,77.9177309 42.72,76.9207273 42.72,75.4545455 L42.72,75.4545455 L42.72,24.5454545 L42.72,24.5454545 L42.7248061,24.364658 C42.8014464,22.9383564 43.78848,22 45.24,22 L45.24,22 Z" id="Colour" fill="#000000"></path>
    </g>
</svg>