<?xml version="1.0" encoding="UTF-8"?>
<svg width="100px" height="100px" viewBox="0 0 100 100" version="1.1" xmlns="http://www.w3.org/2000/svg" xmlns:xlink="http://www.w3.org/1999/xlink">
    <title>Bar Chart</title>
    <g id="Bar-Chart" stroke="none" stroke-width="1" fill="none" fill-rule="evenodd">
        <path d="M22.5,55 L4.5,55 C1.8,55 0,56.8 0,59.5 C0,59.5 0,59.5 0,59.5 L0,95.5 C0,98.2 1.8,100 4.5,100 C4.5,100 4.5,100 4.5,100 L22.5,100 C25.2,100 27,98.2 27,95.5 C27,95.5 27,95.5 27,95.5 L27,59.5 C27,56.8 25.2,55 22.5,55 C22.5,55 22.5,55 22.5,55 Z M95.5,36 L77.5,36 C74.8,36 73,37.8285714 73,40.5714286 C73,40.5714286 73,40.5714286 73,40.5714286 L73,95.4285714 C73,98.1714286 74.8,100 77.5,100 C77.5,100 77.5,100 77.5,100 L95.5,100 C98.2,100 100,98.1714286 100,95.4285714 C100,95.4285714 100,95.4285714 100,95.4285714 L100,40.5714286 C100,37.8285714 98.2,36 95.5,36 C95.5,36 95.5,36 95.5,36 Z M59.5,0 L41.5,0 C38.8,0 37,1.81818182 37,4.54545455 C37,4.54545455 37,4.54545455 37,4.54545455 L37,95.4545455 C37,98.1818182 38.8,100 41.5,100 C41.5,100 41.5,100 41.5,100 L59.5,100 C62.2,100 64,98.1818182 64,95.4545455 C64,95.4545455 64,95.4545455 64,95.4545455 L64,4.54545455 C64,1.81818182 62.2,0 59.5,0 C59.5,0 59.5,0 59.5,0 Z" id="Shadow"></path>
        <path d="M22.5,55 L4.5,55 C1.8,55 0,56.8 0,59.5 C0,59.5 0,59.5 0,59.5 L0,95.5 C0,98.2 1.8,100 4.5,100 C4.5,100 4.5,100 4.5,100 L22.5,100 C25.2,100 27,98.2 27,95.5 C27,95.5 27,95.5 27,95.5 L27,59.5 C27,56.8 25.2,55 22.5,55 C22.5,55 22.5,55 22.5,55 Z M95.5,36 L77.5,36 C74.8,36 73,37.8285714 73,40.5714286 C73,40.5714286 73,40.5714286 73,40.5714286 L73,95.4285714 C73,98.1714286 74.8,100 77.5,100 C77.5,100 77.5,100 77.5,100 L95.5,100 C98.2,100 100,98.1714286 100,95.4285714 C100,95.4285714 100,95.4285714 100,95.4285714 L100,40.5714286 C100,37.8285714 98.2,36 95.5,36 C95.5,36 95.5,36 95.5,36 Z M59.5,0 L41.5,0 C38.8,0 37,1.81818182 37,4.54545455 C37,4.54545455 37,4.54545455 37,4.54545455 L37,95.4545455 C37,98.1818182 38.8,100 41.5,100 C41.5,100 41.5,100 41.5,100 L59.5,100 C62.2,100 64,98.1818182 64,95.4545455 C64,95.4545455 64,95.4545455 64,95.4545455 L64,4.54545455 C64,1.81818182 62.2,0 59.5,0 C59.5,0 59.5,0 59.5,0 Z" id="Colour" fill="#000000"></path>
    </g>
</svg>