<?xml version="1.0" encoding="UTF-8"?>
<svg width="100px" height="100px" viewBox="0 0 100 100" version="1.1" xmlns="http://www.w3.org/2000/svg" xmlns:xlink="http://www.w3.org/1999/xlink">
    <title>Bell Crossed</title>
    <g id="Bell-Crossed" stroke="none" stroke-width="1" fill="none" fill-rule="evenodd">
        <path d="M79.2591653,33.4700515 C79.6941512,35.3944885 79.9443793,37.3844867 79.9917484,39.4185982 L80,40.0982397 L80,56.03729 C85.871882,58.1183848 89.838565,63.6140979 89.9952438,69.832058 L90,70.1719195 L90,80.1964795 C90,82.8918377 87.8776933,85.0902873 85.2168896,85.2041286 L85,85.2087594 L69.3,85.2087594 C66.9330109,93.9399524 59.0257013,100 50,100 C41.0996557,100 33.2868523,94.1071181 30.8018189,85.5710043 L30.7,85.2087594 L27.5184864,85.208 L35.7264864,77 L82,77 L82,70 C82,66.2199177 79.7171313,63.1396507 76.8621883,63.0046166 L76.6666667,63 L49.7264864,63 L57.7274864,55 L71,55 L70.9994864,41.728 L79.2591653,33.4700515 Z M98.0794031,1.92068651 C100.36482,4.05258052 100.492467,6.28195209 98.4623451,8.60880121 L8.61363319,98.4575131 C6.33799664,100.618307 4.10862507,100.49066 1.92551849,98.0745711 C-0.257588087,95.6584825 -0.385254446,93.4290919 1.54251942,91.3863993 L91.3912313,1.53768744 C93.5645958,-0.338873849 95.7939864,-0.211207491 98.0794031,1.92068651 Z M60,85 L41,85 C42.9613335,89.3056235 46.5772615,91.9699915 50.5,92 C54.4227385,91.9699915 58.0386665,89.3056235 60,85 Z M50,0 C52.6887547,0 54.8818181,2.12751908 54.9953805,4.79485767 L55,5.01227997 L55,10.4756651 C60.6487829,11.4328257 65.7053475,13.934811 69.7680021,17.5056554 L63.4773457,23.7947627 C59.8302246,20.8018678 55.1299205,19 50,19 C38.5191716,19 29.1901639,28.0250185 29.0028704,39.2278129 L29,39.5714286 L29,55 L32.2714864,55 L24.2714864,63 L23.3333333,63 C20.5828838,63 18.3187156,65.7326481 18.0308862,69.2422439 L9.99948638,77.272 L10,70.1719195 C10.0175036,63.928586 13.8796441,58.3585472 19.6816164,56.1541745 L20,56.03729 L20,40.0982397 C20.0146752,25.5813462 30.3667913,13.1700978 44.5684743,10.551996 L45,10.4756651 L45,5.01227997 C45,2.24407418 47.2385763,0 50,0 Z" id="Shadow" fill="#000000"></path>
        <path d="M79.2591653,33.4700515 C79.6941512,35.3944885 79.9443793,37.3844867 79.9917484,39.4185982 L80,40.0982397 L80,56.03729 C85.871882,58.1183848 89.838565,63.6140979 89.9952438,69.832058 L90,70.1719195 L90,80.1964795 C90,82.8918377 87.8776933,85.0902873 85.2168896,85.2041286 L85,85.2087594 L69.3,85.2087594 C66.9330109,93.9399524 59.0257013,100 50,100 C41.0996557,100 33.2868523,94.1071181 30.8018189,85.5710043 L30.7,85.2087594 L27.5184864,85.208 L35.7264864,77 L82,77 L82,70 C82,66.2199177 79.7171313,63.1396507 76.8621883,63.0046166 L76.6666667,63 L49.7264864,63 L57.7274864,55 L71,55 L70.9994864,41.728 L79.2591653,33.4700515 Z M98.0794031,1.92068651 C100.36482,4.05258052 100.492467,6.28195209 98.4623451,8.60880121 L8.61363319,98.4575131 C6.33799664,100.618307 4.10862507,100.49066 1.92551849,98.0745711 C-0.257588087,95.6584825 -0.385254446,93.4290919 1.54251942,91.3863993 L91.3912313,1.53768744 C93.5645958,-0.338873849 95.7939864,-0.211207491 98.0794031,1.92068651 Z M60,85 L41,85 C42.9613335,89.3056235 46.5772615,91.9699915 50.5,92 C54.4227385,91.9699915 58.0386665,89.3056235 60,85 Z M50,0 C52.6887547,0 54.8818181,2.12751908 54.9953805,4.79485767 L55,5.01227997 L55,10.4756651 C60.6487829,11.4328257 65.7053475,13.934811 69.7680021,17.5056554 L63.4773457,23.7947627 C59.8302246,20.8018678 55.1299205,19 50,19 C38.5191716,19 29.1901639,28.0250185 29.0028704,39.2278129 L29,39.5714286 L29,55 L32.2714864,55 L24.2714864,63 L23.3333333,63 C20.5828838,63 18.3187156,65.7326481 18.0308862,69.2422439 L9.99948638,77.272 L10,70.1719195 C10.0175036,63.928586 13.8796441,58.3585472 19.6816164,56.1541745 L20,56.03729 L20,40.0982397 C20.0146752,25.5813462 30.3667913,13.1700978 44.5684743,10.551996 L45,10.4756651 L45,5.01227997 C45,2.24407418 47.2385763,0 50,0 Z" id="Colour" fill="#000000"></path>
    </g>
</svg>