<?xml version="1.0" encoding="UTF-8"?>
<svg width="100px" height="100px" viewBox="0 0 100 100" version="1.1" xmlns="http://www.w3.org/2000/svg" xmlns:xlink="http://www.w3.org/1999/xlink">
    <title>Bell</title>
    <g id="Bell" stroke="none" stroke-width="1" fill="none" fill-rule="evenodd">
        <path d="M80,56.03729 L80,40.0982397 C79.9851766,25.4347109 69.4230203,12.9195803 55,10.4756651 L55,5.01227997 C55,2.24407418 52.7614237,0 50,0 C47.2385763,0 45,2.24407418 45,5.01227997 L45,10.4756651 C30.5769797,12.9195803 20.0148234,25.4347109 20,40.0982397 L20,56.03729 C14.0213565,58.1562229 10.0178218,63.8150708 10,70.1719195 L10,80.1964795 C10,82.9646853 12.2385763,85.2087594 15,85.2087594 L30.7,85.2087594 C33.0669891,93.9399524 40.9742987,100 50,100 C59.0257013,100 66.9330109,93.9399524 69.3,85.2087594 L85,85.2087594 C87.7614237,85.2087594 90,82.9646853 90,80.1964795 L90,70.1719195 C89.9821782,63.8150708 85.9786435,58.1562229 80,56.03729 Z M29,39.5714286 C29,28.2101423 38.4020203,19 50,19 C61.5979797,19 71,28.2101423 71,39.5714286 L71,55 L29,55 L29,39.5714286 Z M50.5,92 C46.5772615,91.9699915 42.9613335,89.3056235 41,85 L60,85 C58.0386665,89.3056235 54.4227385,91.9699915 50.5,92 Z M82,77 L18,77 L18,70 C18,66.1340068 20.3878147,63 23.3333333,63 L76.6666667,63 C79.6121853,63 82,66.1340068 82,70 L82,77 Z" id="Shadow" fill="#000000"></path>
        <path d="M80,56.03729 L80,40.0982397 C79.9851766,25.4347109 69.4230203,12.9195803 55,10.4756651 L55,5.01227997 C55,2.24407418 52.7614237,0 50,0 C47.2385763,0 45,2.24407418 45,5.01227997 L45,10.4756651 C30.5769797,12.9195803 20.0148234,25.4347109 20,40.0982397 L20,56.03729 C14.0213565,58.1562229 10.0178218,63.8150708 10,70.1719195 L10,80.1964795 C10,82.9646853 12.2385763,85.2087594 15,85.2087594 L30.7,85.2087594 C33.0669891,93.9399524 40.9742987,100 50,100 C59.0257013,100 66.9330109,93.9399524 69.3,85.2087594 L85,85.2087594 C87.7614237,85.2087594 90,82.9646853 90,80.1964795 L90,70.1719195 C89.9821782,63.8150708 85.9786435,58.1562229 80,56.03729 Z M29,39.5714286 C29,28.2101423 38.4020203,19 50,19 C61.5979797,19 71,28.2101423 71,39.5714286 L71,55 L29,55 L29,39.5714286 Z M50.5,92 C46.5772615,91.9699915 42.9613335,89.3056235 41,85 L60,85 C58.0386665,89.3056235 54.4227385,91.9699915 50.5,92 Z M82,77 L18,77 L18,70 C18,66.1340068 20.3878147,63 23.3333333,63 L76.6666667,63 C79.6121853,63 82,66.1340068 82,70 L82,77 Z" id="Colour" fill="#000000"></path>
    </g>
</svg>