<?xml version="1.0" encoding="UTF-8"?>
<svg width="100px" height="100px" viewBox="0 0 100 100" version="1.1" xmlns="http://www.w3.org/2000/svg" xmlns:xlink="http://www.w3.org/1999/xlink">
    <title>Block</title>
    <g id="Block" stroke="none" stroke-width="1" fill="none" fill-rule="evenodd">
        <path d="M50,0 C77.6142375,0 100,22.3857625 100,50 C100,77.6142375 77.6142375,100 50,100 C22.3857625,100 0,77.6142375 0,50 C0,22.3857625 22.3857625,0 50,0 Z M50,8 C26.8040405,8 8,26.8040405 8,50 C8,73.1959595 26.8040405,92 50,92 C73.1959595,92 92,73.1959595 92,50 C92,26.8040405 73.1959595,8 50,8 Z M73,45 C75.7614237,45 78,47.2385763 78,50 C78,52.7614237 75.7614237,55 73,55 L27,55 C24.2385763,55 22,52.7614237 22,50 C22,47.2385763 24.2385763,45 27,45 L73,45 Z" id="Shadow"></path>
        <path d="M50,0 C77.6142375,0 100,22.3857625 100,50 C100,77.6142375 77.6142375,100 50,100 C22.3857625,100 0,77.6142375 0,50 C0,22.3857625 22.3857625,0 50,0 Z M50,8 C26.8040405,8 8,26.8040405 8,50 C8,73.1959595 26.8040405,92 50,92 C73.1959595,92 92,73.1959595 92,50 C92,26.8040405 73.1959595,8 50,8 Z M73,45 C75.7614237,45 78,47.2385763 78,50 C78,52.7614237 75.7614237,55 73,55 L27,55 C24.2385763,55 22,52.7614237 22,50 C22,47.2385763 24.2385763,45 27,45 L73,45 Z" id="Colour" fill="#000000"></path>
    </g>
</svg>