<?xml version="1.0" encoding="UTF-8"?>
<svg width="100px" height="100px" viewBox="0 0 100 100" version="1.1" xmlns="http://www.w3.org/2000/svg" xmlns:xlink="http://www.w3.org/1999/xlink">
    <title>Calendar Plus</title>
    <g id="Calendar-Plus" stroke="none" stroke-width="1" fill="none" fill-rule="evenodd">
        <path d="M84.5087249,63.258505 C84.7187422,63.8386399 84.728743,63.9686702 84.7687463,69.5299634 L84.7987488,75.2012822 L90.7130963,75.2018098 C93.4535056,75.2067057 95.7223146,75.2452925 96.039674,75.3013055 C97.7798173,75.5813706 99.3699481,77.0817195 99.8399868,78.8521312 C100.540044,81.5627615 98.5798831,84.3834175 95.759651,84.7134942 C95.3696189,84.7535035 92.7394024,84.7935128 89.9191703,84.8035152 L84.7987488,84.8035152 L84.7687463,90.4848363 C84.7311432,95.6560388 84.7200503,96.134234 84.5527241,96.6299286 L84.5305005,96.6936668 C84.5266504,96.7044266 84.5227261,96.7152852 84.5187258,96.7262877 C83.6286525,99.1068413 81.1284467,100.47716 78.7982549,99.8470134 C77.03811,99.3769041 75.5379866,97.7265203 75.287966,95.9961179 C75.2379619,95.6460365 75.1879578,92.9854178 75.1879578,90.0847433 L75.1879578,84.8135175 L69.517491,84.7835105 C64.7268967,84.7491025 63.9674542,84.7442854 63.4797631,84.6036461 L63.4130986,84.5831239 C63.4021557,84.5795511 63.3912652,84.5759006 63.3803798,84.5721705 L63.281273,84.5363911 C63.2699928,84.5321641 63.2585759,84.5278511 63.2469749,84.52345 C61.2668119,83.7832779 59.9867066,81.9928616 59.9867066,79.9523871 C59.9867066,77.7518753 61.7768539,75.6513869 63.9470325,75.3013055 C64.2550579,75.2452925 66.5755155,75.2067057 69.2821976,75.2018098 L75.1879578,75.2012822 L75.1879578,69.9300564 C75.1879578,67.0193796 75.2379619,64.3587609 75.287966,64.0086795 C75.5379866,62.2482701 77.03811,60.617891 78.8382582,60.1477816 C81.1984525,59.5376397 83.6186517,60.8679491 84.5087249,63.258505 Z M56.9963793,0.00105997623 L58.9743258,0.0019143149 C72.4051977,0.00860666117 83.9513791,0.0328022877 84.9887644,0.0738118242 C86.4788871,0.143828106 87.0389332,0.203842062 87.838999,0.413890907 C91.8193267,1.44413048 95.0495925,3.72466081 97.2997777,7.06543768 C98.4298708,8.74582844 99.14993,10.4262192 99.6999753,12.6367332 L99.9299942,13.5369426 L99.9599967,32.2712991 L100,51.015658 L99.6399704,51.6758115 C99.14993,52.5660185 98.5798831,53.1361511 97.7498148,53.5562488 C97.0997613,53.8763232 97.0097539,53.8963279 96.039674,53.8963279 C95.0695942,53.8963279 94.9795868,53.8763232 94.3195324,53.5462465 C93.4894641,53.1361511 92.8294098,52.4759976 92.4093752,51.6358022 L92.1093505,51.045665 L92.0393448,33.8916759 C91.9993415,24.4594826 91.9393365,16.1075404 91.8893324,15.3373613 C91.8193267,14.0970728 91.7793234,13.8470147 91.4892995,13.1368495 C90.4892172,10.6262657 88.5990616,8.93587264 85.9388426,8.17569586 C85.6077154,8.08327437 82.5193762,8.05015667 67.1954198,8.03981163 L65.9764149,8.03905097 C65.7690647,8.03893166 65.5596093,8.03881603 65.3480278,8.03870401 L64.0528616,8.03807442 C63.8326932,8.03797648 63.6103573,8.03788198 63.3858332,8.03779084 L61.3054725,8.03705915 C61.067632,8.03698745 60.8275409,8.03691887 60.5851785,8.03685334 L56.7767995,8.03608836 C56.511205,8.03605123 56.2432354,8.03601674 55.9728699,8.03598482 L14.4329571,8.0356633 L13.7328995,8.2657168 C11.0226764,9.16592614 9.25253071,10.9163332 8.26244922,13.6869775 L8.03243028,14.3371287 L8.00242781,39.1629017 L7.97242534,63.9986771 L29.4541935,64.0186818 L50.9359616,64.0486888 L51.6060168,64.3687632 C52.5360933,64.8088655 53.1161411,65.3689958 53.5661781,66.2792075 L53.9362086,67.0393842 L53.9362086,84.9635524 L53.5661781,85.7237292 C53.1161411,86.6339408 52.5360933,87.1940711 51.6060168,87.6341734 L50.9359616,87.9542478 L44.4754299,87.9842548 L38.0148981,88.0142618 L37.9548932,90.6348712 C37.904889,92.745362 37.8548849,93.3955132 37.6948718,94.0056551 C37.0148158,96.6762761 35.0346528,98.7567599 32.3344305,99.6569692 C31.2043375,100.037058 29.1941721,100.107074 28.0840807,99.8070041 C25.633879,99.1468506 23.7537243,97.5964901 22.7436411,95.385976 C22.1135893,94.0256597 22.0635852,93.7155876 21.9935794,90.7548991 L21.9335745,88.0542711 L17.8832411,87.9942571 C13.4328748,87.9242409 13.0328419,87.8742292 11.1126838,87.254085 C6.89233644,85.8637617 3.60206563,83.0431058 1.68190758,79.152201 C0.931845844,77.6118428 0.691826089,76.9716939 0.301793986,75.4013287 L0.0417725836,74.3510845 L0.0117701141,45.7544346 C0.00693100617,42.9102248 0.00365290076,40.2192764 0.00180991063,37.7007692 L0.00114895565,36.7026087 C0.00105145361,36.5377966 0.000960255248,36.3737622 0.00087532328,36.2105113 L0.000890467056,29.8302381 C0.000973683227,29.6900377 0.00106264359,29.5507004 0.00115731084,29.4122317 L0.00179349865,28.5918897 C0.00214553551,28.1869764 0.00254826298,27.7899836 0.00300067398,27.4010648 L0.00397144227,26.634038 C0.0131264519,19.9545316 0.03757869,15.8269375 0.0717750531,15.0973054 C0.151781638,13.2968868 0.211786577,12.8967937 0.471807979,11.9365704 C1.22186972,9.19593311 2.53197755,6.87539349 4.42213312,4.9149376 C6.52230599,2.73443053 8.95250601,1.29409559 11.9127497,0.473904863 C12.8928303,0.203842062 13.2728616,0.153830432 14.9830024,0.0838141502 C16.1008944,0.0332023807 30.4681529,0.00587202524 45.9050952,0.000849497288 L55.9991924,0.000726668725 C56.3323755,0.000827332134 56.6648129,0.000938437971 56.9963793,0.00105997623 Z" id="Shadow" transform="translate(50.000000, 50.000000) scale(1, -1) translate(-50.000000, -50.000000) "></path>
        <path d="M84.5087249,63.258505 C84.7187422,63.8386399 84.728743,63.9686702 84.7687463,69.5299634 L84.7987488,75.2012822 L90.7130963,75.2018098 C93.4535056,75.2067057 95.7223146,75.2452925 96.039674,75.3013055 C97.7798173,75.5813706 99.3699481,77.0817195 99.8399868,78.8521312 C100.540044,81.5627615 98.5798831,84.3834175 95.759651,84.7134942 C95.3696189,84.7535035 92.7394024,84.7935128 89.9191703,84.8035152 L84.7987488,84.8035152 L84.7687463,90.4848363 C84.7311432,95.6560388 84.7200503,96.134234 84.5527241,96.6299286 L84.5305005,96.6936668 C84.5266504,96.7044266 84.5227261,96.7152852 84.5187258,96.7262877 C83.6286525,99.1068413 81.1284467,100.47716 78.7982549,99.8470134 C77.03811,99.3769041 75.5379866,97.7265203 75.287966,95.9961179 C75.2379619,95.6460365 75.1879578,92.9854178 75.1879578,90.0847433 L75.1879578,84.8135175 L69.517491,84.7835105 C64.7268967,84.7491025 63.9674542,84.7442854 63.4797631,84.6036461 L63.4130986,84.5831239 C63.4021557,84.5795511 63.3912652,84.5759006 63.3803798,84.5721705 L63.281273,84.5363911 C63.2699928,84.5321641 63.2585759,84.5278511 63.2469749,84.52345 C61.2668119,83.7832779 59.9867066,81.9928616 59.9867066,79.9523871 C59.9867066,77.7518753 61.7768539,75.6513869 63.9470325,75.3013055 C64.2550579,75.2452925 66.5755155,75.2067057 69.2821976,75.2018098 L75.1879578,75.2012822 L75.1879578,69.9300564 C75.1879578,67.0193796 75.2379619,64.3587609 75.287966,64.0086795 C75.5379866,62.2482701 77.03811,60.617891 78.8382582,60.1477816 C81.1984525,59.5376397 83.6186517,60.8679491 84.5087249,63.258505 Z M56.9963793,0.00105997623 L58.9743258,0.0019143149 C72.4051977,0.00860666117 83.9513791,0.0328022877 84.9887644,0.0738118242 C86.4788871,0.143828106 87.0389332,0.203842062 87.838999,0.413890907 C91.8193267,1.44413048 95.0495925,3.72466081 97.2997777,7.06543768 C98.4298708,8.74582844 99.14993,10.4262192 99.6999753,12.6367332 L99.9299942,13.5369426 L99.9599967,32.2712991 L100,51.015658 L99.6399704,51.6758115 C99.14993,52.5660185 98.5798831,53.1361511 97.7498148,53.5562488 C97.0997613,53.8763232 97.0097539,53.8963279 96.039674,53.8963279 C95.0695942,53.8963279 94.9795868,53.8763232 94.3195324,53.5462465 C93.4894641,53.1361511 92.8294098,52.4759976 92.4093752,51.6358022 L92.1093505,51.045665 L92.0393448,33.8916759 C91.9993415,24.4594826 91.9393365,16.1075404 91.8893324,15.3373613 C91.8193267,14.0970728 91.7793234,13.8470147 91.4892995,13.1368495 C90.4892172,10.6262657 88.5990616,8.93587264 85.9388426,8.17569586 C85.6077154,8.08327437 82.5193762,8.05015667 67.1954198,8.03981163 L65.9764149,8.03905097 C65.7690647,8.03893166 65.5596093,8.03881603 65.3480278,8.03870401 L64.0528616,8.03807442 C63.8326932,8.03797648 63.6103573,8.03788198 63.3858332,8.03779084 L61.3054725,8.03705915 C61.067632,8.03698745 60.8275409,8.03691887 60.5851785,8.03685334 L56.7767995,8.03608836 C56.511205,8.03605123 56.2432354,8.03601674 55.9728699,8.03598482 L14.4329571,8.0356633 L13.7328995,8.2657168 C11.0226764,9.16592614 9.25253071,10.9163332 8.26244922,13.6869775 L8.03243028,14.3371287 L8.00242781,39.1629017 L7.97242534,63.9986771 L29.4541935,64.0186818 L50.9359616,64.0486888 L51.6060168,64.3687632 C52.5360933,64.8088655 53.1161411,65.3689958 53.5661781,66.2792075 L53.9362086,67.0393842 L53.9362086,84.9635524 L53.5661781,85.7237292 C53.1161411,86.6339408 52.5360933,87.1940711 51.6060168,87.6341734 L50.9359616,87.9542478 L44.4754299,87.9842548 L38.0148981,88.0142618 L37.9548932,90.6348712 C37.904889,92.745362 37.8548849,93.3955132 37.6948718,94.0056551 C37.0148158,96.6762761 35.0346528,98.7567599 32.3344305,99.6569692 C31.2043375,100.037058 29.1941721,100.107074 28.0840807,99.8070041 C25.633879,99.1468506 23.7537243,97.5964901 22.7436411,95.385976 C22.1135893,94.0256597 22.0635852,93.7155876 21.9935794,90.7548991 L21.9335745,88.0542711 L17.8832411,87.9942571 C13.4328748,87.9242409 13.0328419,87.8742292 11.1126838,87.254085 C6.89233644,85.8637617 3.60206563,83.0431058 1.68190758,79.152201 C0.931845844,77.6118428 0.691826089,76.9716939 0.301793986,75.4013287 L0.0417725836,74.3510845 L0.0117701141,45.7544346 C0.00693100617,42.9102248 0.00365290076,40.2192764 0.00180991063,37.7007692 L0.00114895565,36.7026087 C0.00105145361,36.5377966 0.000960255248,36.3737622 0.00087532328,36.2105113 L0.000890467056,29.8302381 C0.000973683227,29.6900377 0.00106264359,29.5507004 0.00115731084,29.4122317 L0.00179349865,28.5918897 C0.00214553551,28.1869764 0.00254826298,27.7899836 0.00300067398,27.4010648 L0.00397144227,26.634038 C0.0131264519,19.9545316 0.03757869,15.8269375 0.0717750531,15.0973054 C0.151781638,13.2968868 0.211786577,12.8967937 0.471807979,11.9365704 C1.22186972,9.19593311 2.53197755,6.87539349 4.42213312,4.9149376 C6.52230599,2.73443053 8.95250601,1.29409559 11.9127497,0.473904863 C12.8928303,0.203842062 13.2728616,0.153830432 14.9830024,0.0838141502 C16.1008944,0.0332023807 30.4681529,0.00587202524 45.9050952,0.000849497288 L55.9991924,0.000726668725 C56.3323755,0.000827332134 56.6648129,0.000938437971 56.9963793,0.00105997623 Z" id="Colour" fill="#000000" transform="translate(50.000000, 50.000000) scale(1, -1) translate(-50.000000, -50.000000) "></path>
    </g>
</svg>