<?xml version="1.0" encoding="UTF-8"?>
<svg width="100px" height="100px" viewBox="0 0 100 100" version="1.1" xmlns="http://www.w3.org/2000/svg" xmlns:xlink="http://www.w3.org/1999/xlink">
    <title>Camera</title>
    <g id="Camera" stroke="none" stroke-width="1" fill="none" fill-rule="evenodd">
        <path d="M59,2 C61.5427944,2.27354746 63.5427944,2.94021412 65,4 C66.4572056,5.05978588 68.1238722,7.05978588 70,10 L74,18 L87.9996328,18 C91.9651564,17.9670347 94.9644319,18.9670347 96.9974594,21 C99.0304869,23.0329653 100.031334,26.0329653 100,30 L100.001405,86.0026681 C99.9663284,90.032967 98.965013,93.031676 96.9974594,94.998795 C95.0299058,96.9659141 92.0307527,97.9667956 88,98.0014396 L12,98 C8.03251778,98.0317145 5.03251778,97.0313128 3,94.998795 C0.96748222,92.9662773 -0.0325177796,89.9666789 -1.41880865e-13,86 L-2.85018103e-13,30 C-0.0639165244,25.8102229 0.936083476,22.8102229 3,21 C5.06391652,19.1897771 8.06459861,18.1897771 12.0020463,18 L26,18 L31,8 C32.4831462,6.04344561 33.8164795,4.71011227 35,4 C36.1835205,3.28988773 38.1835205,2.62322106 41,2 L59,2 Z M50,38 C38.954305,38 30,46.954305 30,58 C30,69.045695 38.954305,78 50,78 C61.045695,78 70,69.045695 70,58 C70,46.954305 61.045695,38 50,38 Z" id="Shadow"></path>
        <path d="M59,2 C61.5427944,2.27354746 63.5427944,2.94021412 65,4 C66.4572056,5.05978588 68.1238722,7.05978588 70,10 L74,18 L87.9996328,18 C91.9651564,17.9670347 94.9644319,18.9670347 96.9974594,21 C99.0304869,23.0329653 100.031334,26.0329653 100,30 L100.001405,86.0026681 C99.9663284,90.032967 98.965013,93.031676 96.9974594,94.998795 C95.0299058,96.9659141 92.0307527,97.9667956 88,98.0014396 L12,98 C8.03251778,98.0317145 5.03251778,97.0313128 3,94.998795 C0.96748222,92.9662773 -0.0325177796,89.9666789 -5.89521054e-13,86 L-7.32658292e-13,30 C-0.0639165244,25.8102229 0.936083476,22.8102229 3,21 C5.06391652,19.1897771 8.06459861,18.1897771 12.0020463,18 L26,18 L31,8 C32.4831462,6.04344561 33.8164795,4.71011227 35,4 C36.1835205,3.28988773 38.1835205,2.62322106 41,2 L59,2 Z M50,38 C38.954305,38 30,46.954305 30,58 C30,69.045695 38.954305,78 50,78 C61.045695,78 70,69.045695 70,58 C70,46.954305 61.045695,38 50,38 Z" id="Colour" fill="#000000"></path>
    </g>
</svg>