<?xml version="1.0" encoding="UTF-8"?><svg version="1.1" width="100px" height="100px" viewBox="0 0 100.0 100.0" xmlns="http://www.w3.org/2000/svg" xmlns:xlink="http://www.w3.org/1999/xlink"><defs><clipPath id="i0"><path d="M51.4587586,1.54636473e-06 C53.0637314,-0.00115679181 54.6031954,0.648486218 55.7374383,1.80557585 L74.2274241,20.6326816 C75.3620983,21.7884399 76,23.356176 76,24.9909887 C76,26.6258014 75.3632129,28.1937678 74.2289409,29.349936 L55.7389551,48.1894067 C54.6061142,49.3484571 53.0668798,50.0000015 51.4615343,50.0000015 C49.8561887,50.0000015 48.3169543,49.3484571 47.1841134,48.1894067 C44.8242021,45.7806731 44.8255598,41.8791798 47.1871471,39.4721522 L55.3476166,31.1583027 L29.0475457,31.1583027 C27.4429719,31.1578929 25.9042992,30.5078783 24.7701209,29.3512981 C23.6359426,28.1947179 22.999196,26.6263452 23,24.9913088 C23,21.5876829 25.7073335,18.8282597 29.0475457,18.8274062 L55.3400325,18.8274062 L47.1856302,10.5243759 C46.0506595,9.3698158 45.4126259,7.80288725 45.4120569,6.16870776 C45.4114879,4.53452827 46.0484302,2.96713877 47.1825966,1.8117583 C48.3152276,0.653030434 49.8537858,0.00116298555 51.4587586,1.54636473e-06 Z M7.50050407,18.0000015 C11.6424402,18.0002815 15,21.3580638 15,25.5000015 C15.0024171,27.4877423 14.2143838,29.3948778 12.8095517,30.8011369 C11.4047196,32.2073961 9.49838563,32.9973648 7.5106441,32.9969596 L7.49847619,33.0000015 C3.35654019,32.9991616 -0.000559957563,29.6409253 0,25.4989877 C0.000559957563,21.3570501 3.35856799,17.9997216 7.50050407,18.0000015 Z M92.7445295,18.0029468 C96.7921933,18.1519399 99.9971216,21.4602634 100,25.4924863 C100.002874,29.5247091 96.8026695,32.8375609 92.7552224,32.9922769 C90.0105727,33.0759612 87.442389,31.6655934 86.0473348,29.3147502 C84.6522805,26.963907 84.6507932,24.0440536 86.0434517,21.6918031 C87.4361103,19.3395526 90.0028558,17.9265926 92.7445295,18.0029468 Z"></path></clipPath></defs><g transform="translate(-4.476419235288631e-13 24.999998453635257)"><g clip-path="url(#i0)"><polygon points="0,-1.92962792e-14 100.000002,-1.92962792e-14 100.000002,50.0000015 0,50.0000015 0,-1.92962792e-14" stroke="none" fill="#000000"></polygon></g></g></svg>