<?xml version="1.0" encoding="UTF-8"?>
<svg width="100px" height="100px" viewBox="0 0 100 100" version="1.1" xmlns="http://www.w3.org/2000/svg" xmlns:xlink="http://www.w3.org/1999/xlink">
    <title>Clock</title>
    <g id="Clock" stroke="none" stroke-width="1" fill="none" fill-rule="evenodd">
        <path d="M50,0 C77.6142375,0 100,22.3857625 100,50 C100,77.6142375 77.6142375,100 50,100 C22.3857625,100 0,77.6142375 0,50 C0,22.3857625 22.3857625,0 50,0 Z M50,16 C47.8578046,16 46.1089211,17.6839685 46.0048953,19.8003597 L46.0048953,19.8003597 L46,20 L46,50 L46.0048953,50.1996403 C46.0475621,51.0676914 46.3669403,51.8629968 46.8773608,52.4986728 C46.8881272,52.51216 46.8989934,52.5255938 46.9092924,52.5393793 C46.944945,52.5827221 46.9814915,52.6253018 47.0194874,52.6670377 L47.0194874,52.6670377 L47.063,52.714 L47.144,52.8 L47.0975096,52.7520273 L47.0975096,52.7520273 L47.1437928,52.8003732 L59.9063492,65.5632034 L60.0657222,65.7142062 C61.6362119,67.1235649 64.0531762,67.0732307 65.5632034,65.5632034 C67.0779643,64.0484425 67.1238662,61.6210497 65.700909,60.0509777 L65.700909,60.0509777 L65.5632034,59.9063492 L54,48.343 L54,20 L53.9951047,19.8003597 C53.8910789,17.6839685 52.1421954,16 50,16 Z" id="Shadow"></path>
        <path d="M50,0 C77.6142375,0 100,22.3857625 100,50 C100,77.6142375 77.6142375,100 50,100 C22.3857625,100 0,77.6142375 0,50 C0,22.3857625 22.3857625,0 50,0 Z M50,16 C47.8578046,16 46.1089211,17.6839685 46.0048953,19.8003597 L46.0048953,19.8003597 L46,20 L46,50 L46.0048953,50.1996403 C46.0475621,51.0676914 46.3669403,51.8629968 46.8773608,52.4986728 C46.8881272,52.51216 46.8989934,52.5255938 46.9092924,52.5393793 C46.944945,52.5827221 46.9814915,52.6253018 47.0194874,52.6670377 L47.0194874,52.6670377 L47.063,52.714 L47.144,52.8 L47.0975096,52.7520273 L47.0975096,52.7520273 L47.1437928,52.8003732 L59.9063492,65.5632034 L60.0657222,65.7142062 C61.6362119,67.1235649 64.0531762,67.0732307 65.5632034,65.5632034 C67.0779643,64.0484425 67.1238662,61.6210497 65.700909,60.0509777 L65.700909,60.0509777 L65.5632034,59.9063492 L54,48.343 L54,20 L53.9951047,19.8003597 C53.8910789,17.6839685 52.1421954,16 50,16 Z" id="Colour" fill="#000000"></path>
    </g>
</svg>