<?xml version="1.0" encoding="UTF-8"?>
<svg width="100px" height="100px" viewBox="0 0 100 100" version="1.1" xmlns="http://www.w3.org/2000/svg" xmlns:xlink="http://www.w3.org/1999/xlink">
    <title>Clock Border</title>
    <g id="Clock-Border" stroke="none" stroke-width="1" fill="none" fill-rule="evenodd">
        <path d="M50,0 C77.6142375,0 100,22.3857625 100,50 C100,77.6142375 77.6142375,100 50,100 C22.3857625,100 0,77.6142375 0,50 C0,22.3857625 22.3857625,0 50,0 Z M50,7 C26.2517558,7 7,26.2517558 7,50 C7,73.7482442 26.2517558,93 50,93 C73.7482442,93 93,73.7482442 93,50 C93,26.2517558 73.7482442,7 50,7 Z M50,16 C52.1421954,16 53.8910789,17.6839685 53.9951047,19.8003597 L54,20 L54,48.343 L65.5632034,59.9063492 L65.700909,60.0509777 C67.1238662,61.6210497 67.0779643,64.0484425 65.5632034,65.5632034 C64.0531762,67.0732307 61.6362119,67.1235649 60.0657222,65.7142062 L59.9063492,65.5632034 L47.1784271,52.8352814 L47.1437928,52.8003732 C47.1094103,52.7653095 47.0756683,52.7296154 47.0425858,52.6933098 L47.1784271,52.8352814 C47.123517,52.7803713 47.0705371,52.724262 47.0194874,52.6670377 C46.9814915,52.6253018 46.944945,52.5827221 46.9092924,52.5393793 C46.8989934,52.5255938 46.8881272,52.51216 46.8773608,52.4986728 C46.3669403,51.8629968 46.0475621,51.0676914 46.0048953,50.1996403 L46,50 L46,20 L46.0048953,19.8003597 C46.1089211,17.6839685 47.8578046,16 50,16 Z" id="Shadow"></path>
        <path d="M50,0 C77.6142375,0 100,22.3857625 100,50 C100,77.6142375 77.6142375,100 50,100 C22.3857625,100 0,77.6142375 0,50 C0,22.3857625 22.3857625,0 50,0 Z M50,7 C26.2517558,7 7,26.2517558 7,50 C7,73.7482442 26.2517558,93 50,93 C73.7482442,93 93,73.7482442 93,50 C93,26.2517558 73.7482442,7 50,7 Z M50,16 C52.1421954,16 53.8910789,17.6839685 53.9951047,19.8003597 L54,20 L54,48.343 L65.5632034,59.9063492 L65.700909,60.0509777 C67.1238662,61.6210497 67.0779643,64.0484425 65.5632034,65.5632034 C64.0531762,67.0732307 61.6362119,67.1235649 60.0657222,65.7142062 L59.9063492,65.5632034 L47.1784271,52.8352814 L47.1437928,52.8003732 C47.1094103,52.7653095 47.0756683,52.7296154 47.0425858,52.6933098 L47.1784271,52.8352814 C47.123517,52.7803713 47.0705371,52.724262 47.0194874,52.6670377 C46.9814915,52.6253018 46.944945,52.5827221 46.9092924,52.5393793 C46.8989934,52.5255938 46.8881272,52.51216 46.8773608,52.4986728 C46.3669403,51.8629968 46.0475621,51.0676914 46.0048953,50.1996403 L46,50 L46,20 L46.0048953,19.8003597 C46.1089211,17.6839685 47.8578046,16 50,16 Z" id="Colour" fill="#000000"></path>
    </g>
</svg>