<?xml version="1.0" encoding="UTF-8"?>
<svg width="100px" height="100px" viewBox="0 0 100 100" version="1.1" xmlns="http://www.w3.org/2000/svg" xmlns:xlink="http://www.w3.org/1999/xlink">
    <title>Copy</title>
    <g id="Copy" stroke="none" stroke-width="1" fill="none" fill-rule="evenodd">
        <path d="M87.2,0 C94.2692448,0 100,5.7307552 100,12.8 L100,67.2 C100,74.008548 94.6841242,79.5755067 87.9764092,79.9768395 C87.9922266,79.7189017 88,79.4603587 88,79.2 L88,79.2 L88,24.8 C88,17.7307552 82.2692448,12 75.2,12 L75.2,12 L20.8,12 L20.4889368,12.0037057 C20.3331779,12.0074205 20.1781079,12.0139177 20.0237747,12.0231495 C20.4179684,5.41870252 25.8223727,0.162701414 32.4889368,0.00370568124 L32.8,0 L87.2,0 Z M12.8,100 L12.4934983,99.9964023 C5.56585004,99.83361 4.61852778e-14,94.166792 4.61852778e-14,87.2 L4.61852778e-14,87.2 L0,32.8 L0.00359769157,32.4934983 C0.166389983,25.56585 5.83320803,20 12.8,20 L12.8,20 L67.2,20 C74.2692448,20 80,25.7307552 80,32.8 L80,32.8 L80,87.2 C80,94.2692448 74.2692448,100 67.2,100 L67.2,100 L12.8,100 Z M17,32 L63,32 C65.7614237,32 68,34.2385763 68,37 L68,83 C68,85.7614237 65.7614237,88 63,88 L17,88 C14.2385763,88 12,85.7614237 12,83 L12,37 C12,34.2385763 14.2385763,32 17,32 Z" id="Shadow"></path>
        <path d="M87.2,0 C94.2692448,0 100,5.7307552 100,12.8 L100,67.2 C100,74.008548 94.6841242,79.5755067 87.9764092,79.9768395 C87.9922266,79.7189017 88,79.4603587 88,79.2 L88,79.2 L88,24.8 C88,17.7307552 82.2692448,12 75.2,12 L75.2,12 L20.8,12 L20.4889368,12.0037057 C20.3331779,12.0074205 20.1781079,12.0139177 20.0237747,12.0231495 C20.4179684,5.41870252 25.8223727,0.162701414 32.4889368,0.00370568124 L32.8,0 L87.2,0 Z M12.8,100 L12.4934983,99.9964023 C5.56585004,99.83361 4.61852778e-14,94.166792 4.61852778e-14,87.2 L4.61852778e-14,87.2 L0,32.8 L0.00359769157,32.4934983 C0.166389983,25.56585 5.83320803,20 12.8,20 L12.8,20 L67.2,20 C74.2692448,20 80,25.7307552 80,32.8 L80,32.8 L80,87.2 C80,94.2692448 74.2692448,100 67.2,100 L67.2,100 L12.8,100 Z M17,32 L63,32 C65.7614237,32 68,34.2385763 68,37 L68,83 C68,85.7614237 65.7614237,88 63,88 L17,88 C14.2385763,88 12,85.7614237 12,83 L12,37 C12,34.2385763 14.2385763,32 17,32 Z" id="Colour" fill="#000000"></path>
    </g>
</svg>