<?xml version="1.0" encoding="UTF-8"?>
<svg width="100px" height="100px" viewBox="0 0 100 100" version="1.1" xmlns="http://www.w3.org/2000/svg" xmlns:xlink="http://www.w3.org/1999/xlink">
    <title>Cross Circle</title>
    <g id="Cross-Circle" stroke="none" stroke-width="1" fill="none" fill-rule="evenodd">
        <path d="M50,0 C77.6142375,0 100,22.3857625 100,50 C100,77.6142375 77.6142375,100 50,100 C22.3857625,100 0,77.6142375 0,50 C0,22.3857625 22.3857625,0 50,0 Z M66.5235741,33.4764259 C64.5550063,31.507858 61.3633272,31.507858 59.3947594,33.4764259 L59.3947594,33.4764259 L50,42.871 L40.6052406,33.4764259 C38.6366728,31.507858 35.4449937,31.507858 33.4764259,33.4764259 C31.507858,35.4449937 31.507858,38.6366728 33.4764259,40.6052406 L33.4764259,40.6052406 L42.871,50 L33.4764259,59.3947594 L33.3078374,59.5715685 C31.509561,61.550015 31.5657571,64.6129054 33.4764259,66.5235741 L33.4764259,66.5235741 L33.653235,66.6921626 C35.6316815,68.490439 38.6945718,68.4342429 40.6052406,66.5235741 L40.6052406,66.5235741 L50,57.129 L59.3947594,66.5235741 C61.3633272,68.492142 64.5550063,68.492142 66.5235741,66.5235741 C68.492142,64.5550063 68.492142,61.3633272 66.5235741,59.3947594 L66.5235741,59.3947594 L57.129,50 L66.5235741,40.6052406 L66.6921626,40.4284315 C68.490439,38.449985 68.4342429,35.3870946 66.5235741,33.4764259 Z" id="Shadow"></path>
        <path d="M50,0 C77.6142375,0 100,22.3857625 100,50 C100,77.6142375 77.6142375,100 50,100 C22.3857625,100 0,77.6142375 0,50 C0,22.3857625 22.3857625,0 50,0 Z M66.5235741,33.4764259 C64.5550063,31.507858 61.3633272,31.507858 59.3947594,33.4764259 L59.3947594,33.4764259 L50,42.871 L40.6052406,33.4764259 C38.6366728,31.507858 35.4449937,31.507858 33.4764259,33.4764259 C31.507858,35.4449937 31.507858,38.6366728 33.4764259,40.6052406 L33.4764259,40.6052406 L42.871,50 L33.4764259,59.3947594 L33.3078374,59.5715685 C31.509561,61.550015 31.5657571,64.6129054 33.4764259,66.5235741 L33.4764259,66.5235741 L33.653235,66.6921626 C35.6316815,68.490439 38.6945718,68.4342429 40.6052406,66.5235741 L40.6052406,66.5235741 L50,57.129 L59.3947594,66.5235741 C61.3633272,68.492142 64.5550063,68.492142 66.5235741,66.5235741 C68.492142,64.5550063 68.492142,61.3633272 66.5235741,59.3947594 L66.5235741,59.3947594 L57.129,50 L66.5235741,40.6052406 L66.6921626,40.4284315 C68.490439,38.449985 68.4342429,35.3870946 66.5235741,33.4764259 Z" id="Colour" fill="#000000"></path>
    </g>
</svg>