<?xml version="1.0" encoding="UTF-8"?>
<svg width="100px" height="100px" viewBox="0 0 100 100" version="1.1" xmlns="http://www.w3.org/2000/svg" xmlns:xlink="http://www.w3.org/1999/xlink">
    <title>Cross Thin</title>
    <g id="Cross-Thin" stroke="none" stroke-width="1" fill="none" fill-rule="evenodd">
        <path d="M13.6305627,2.31685425 L50.0107085,38.6977085 L86.3918505,2.31685425 C89.4495726,-0.740867865 94.3666979,-0.805925782 97.5035436,2.1216805 L97.705559,2.31685425 C100.829753,5.44104858 100.829753,10.5063684 97.705559,13.6305627 L97.705559,13.6305627 L61.3237085,50.0107085 L97.705559,86.3918505 C100.829753,89.5160449 100.829753,94.5813647 97.705559,97.705559 C94.5813647,100.829753 89.5160449,100.829753 86.3918505,97.705559 L50.0107085,61.3237085 L13.6305627,97.705559 C10.5728406,100.763281 5.65571537,100.828339 2.51886972,97.9007328 L2.31685425,97.705559 C-0.807340085,94.5813647 -0.807340085,89.5160449 2.31685425,86.3918505 L2.31685425,86.3918505 L38.6977085,50.0107085 L2.31685425,13.6305627 C-0.807340085,10.5063684 -0.807340085,5.44104858 2.31685425,2.31685425 C5.44104858,-0.807340085 10.5063684,-0.807340085 13.6305627,2.31685425 Z" id="Shadow"></path>
        <path d="M13.6305627,2.31685425 L50.0107085,38.6977085 L86.3918505,2.31685425 C89.4495726,-0.740867865 94.3666979,-0.805925782 97.5035436,2.1216805 L97.705559,2.31685425 C100.829753,5.44104858 100.829753,10.5063684 97.705559,13.6305627 L97.705559,13.6305627 L61.3237085,50.0107085 L97.705559,86.3918505 C100.829753,89.5160449 100.829753,94.5813647 97.705559,97.705559 C94.5813647,100.829753 89.5160449,100.829753 86.3918505,97.705559 L50.0107085,61.3237085 L13.6305627,97.705559 C10.5728406,100.763281 5.65571537,100.828339 2.51886972,97.9007328 L2.31685425,97.705559 C-0.807340085,94.5813647 -0.807340085,89.5160449 2.31685425,86.3918505 L2.31685425,86.3918505 L38.6977085,50.0107085 L2.31685425,13.6305627 C-0.807340085,10.5063684 -0.807340085,5.44104858 2.31685425,2.31685425 C5.44104858,-0.807340085 10.5063684,-0.807340085 13.6305627,2.31685425 Z" id="Colour" fill="#000000"></path>
    </g>
</svg>