<?xml version="1.0" encoding="UTF-8"?>
<svg width="100px" height="100px" viewBox="0 0 100 100" version="1.1" xmlns="http://www.w3.org/2000/svg" xmlns:xlink="http://www.w3.org/1999/xlink">
    <title>Cross</title>
    <g id="Cross" stroke="none" stroke-width="1" fill="none" fill-rule="evenodd">
        <path d="M23.9011316,4.09886844 L49.9993634,30.1973634 L76.0981905,4.09954635 C81.4814177,-1.28368081 90.1578963,-1.36649969 95.6424543,3.85108971 L95.8971804,4.09954635 C101.367794,9.57015969 101.367794,18.4344694 95.9004536,23.9018095 L95.9004536,23.9018095 L69.8023634,49.9993634 L95.9004536,76.0981905 C101.367794,81.5655306 101.367794,90.4298403 95.9004536,95.8971804 L95.8971804,95.9004536 C90.4298403,101.367794 81.5655306,101.367794 76.0981905,95.9004536 L49.9993634,69.8023634 L23.9018095,95.9004536 C18.5185823,101.283681 9.84210366,101.3665 4.35754568,96.1489103 L4.1028196,95.9004536 C-1.36779373,90.4298403 -1.36779373,81.5655306 4.09954635,76.0981905 L4.09954635,76.0981905 L30.1973634,49.9993634 L4.09886844,23.9011316 C-1.36847165,18.4337915 -1.36847165,9.56948177 4.09886844,4.10214169 L4.10214169,4.09886844 C9.56948177,-1.36847165 18.4337915,-1.36847165 23.9011316,4.09886844 Z" id="Shadow"></path>
        <path d="M23.9011316,4.09886844 L49.9993634,30.1973634 L76.0981905,4.09954635 C81.4814177,-1.28368081 90.1578963,-1.36649969 95.6424543,3.85108971 L95.8971804,4.09954635 C101.367794,9.57015969 101.367794,18.4344694 95.9004536,23.9018095 L95.9004536,23.9018095 L69.8023634,49.9993634 L95.9004536,76.0981905 C101.367794,81.5655306 101.367794,90.4298403 95.9004536,95.8971804 L95.8971804,95.9004536 C90.4298403,101.367794 81.5655306,101.367794 76.0981905,95.9004536 L49.9993634,69.8023634 L23.9018095,95.9004536 C18.5185823,101.283681 9.84210366,101.3665 4.35754568,96.1489103 L4.1028196,95.9004536 C-1.36779373,90.4298403 -1.36779373,81.5655306 4.09954635,76.0981905 L4.09954635,76.0981905 L30.1973634,49.9993634 L4.09886844,23.9011316 C-1.36847165,18.4337915 -1.36847165,9.56948177 4.09886844,4.10214169 L4.10214169,4.09886844 C9.56948177,-1.36847165 18.4337915,-1.36847165 23.9011316,4.09886844 Z" id="Colour" fill="#000000"></path>
    </g>
</svg>