<?xml version="1.0" encoding="UTF-8"?>
<svg width="100px" height="100px" viewBox="0 0 100 100" version="1.1" xmlns="http://www.w3.org/2000/svg" xmlns:xlink="http://www.w3.org/1999/xlink">
    <title>Crown </title>
    <g id="Crown-" stroke="none" stroke-width="1" fill="none" fill-rule="evenodd">
        <path d="M82.5522519,88 L17.4433106,88 C12.2229133,88.0144095 7.80179101,84.1450961 7.11202606,78.9581429 L0.0580372078,26.7721556 C-0.300899194,24.1465056 1.02923517,21.578965 3.37838178,20.3629387 C5.72752839,19.1469125 8.58613491,19.5461684 10.5141711,21.3595802 L22.156374,32.1534445 C23.4002784,33.3586387 25.087358,33.992355 26.8150821,33.9033909 C28.5428063,33.8144269 30.156223,33.0107615 31.2703772,31.684146 L45.1910809,15.2274138 C46.3771822,13.815174 48.1248833,13 49.9665689,13 C51.8082546,13 53.5559556,13.815174 54.7420569,15.2274138 L68.7251853,31.684146 C69.8286705,32.9898722 71.4175041,33.7856169 73.1217549,33.8861054 C74.8260056,33.9865938 76.4969546,33.383057 77.7455516,32.2160176 L89.3877544,21.4221533 C91.2979734,19.5454945 94.1886568,19.0972245 96.5753181,20.3075487 C98.9619794,21.517873 100.314187,24.1177987 99.9375253,26.7721556 L92.8835365,78.9268564 C92.2080981,84.1262335 87.7830714,88.0123644 82.5522519,88 Z" id="Shadow"></path>
        <path d="M82.5522519,88 L17.4433106,88 C12.2229133,88.0144095 7.80179101,84.1450961 7.11202606,78.9581429 L0.0580372078,26.7721556 C-0.300899194,24.1465056 1.02923517,21.578965 3.37838178,20.3629387 C5.72752839,19.1469125 8.58613491,19.5461684 10.5141711,21.3595802 L22.156374,32.1534445 C23.4002784,33.3586387 25.087358,33.992355 26.8150821,33.9033909 C28.5428063,33.8144269 30.156223,33.0107615 31.2703772,31.684146 L45.1910809,15.2274138 C46.3771822,13.815174 48.1248833,13 49.9665689,13 C51.8082546,13 53.5559556,13.815174 54.7420569,15.2274138 L68.7251853,31.684146 C69.8286705,32.9898722 71.4175041,33.7856169 73.1217549,33.8861054 C74.8260056,33.9865938 76.4969546,33.383057 77.7455516,32.2160176 L89.3877544,21.4221533 C91.2979734,19.5454945 94.1886568,19.0972245 96.5753181,20.3075487 C98.9619794,21.517873 100.314187,24.1177987 99.9375253,26.7721556 L92.8835365,78.9268564 C92.2080981,84.1262335 87.7830714,88.0123644 82.5522519,88 Z" id="Colour" fill="#000000"></path>
    </g>
</svg>