<?xml version="1.0" encoding="UTF-8"?>
<svg width="100px" height="100px" viewBox="0 0 100 100" version="1.1" xmlns="http://www.w3.org/2000/svg" xmlns:xlink="http://www.w3.org/1999/xlink">
    <title>Database</title>
    <g id="Database" stroke="none" stroke-width="1" fill="none" fill-rule="evenodd">
        <path d="M88.4342857,66.1420455 C83.6171429,73.8863636 68.2342857,79.5568182 50,79.5568182 C31.7657143,79.5568182 16.3828571,73.8863636 11.56,66.1420455 C10.5428571,64.4943182 10,65.375 10,66.1818182 L10,77.5568182 C10,88.5795455 27.9085714,100 50,100 C72.0914286,100 90,88.5795455 90,77.5625 L90,66.1875 C90,65.375 89.4514286,64.4943182 88.4342857,66.1420455 L88.4342857,66.1420455 Z M88.4971429,37.0738636 C83.7542857,43.9204545 68.3142857,48.9488636 50,48.9488636 C31.6857143,48.9488636 16.24,43.9204545 11.4971429,37.0738636 C10.52,35.6647727 10,36.4318182 10,37.0625 L10,50.4545455 C10,60.4659091 27.9085714,68.5738636 50,68.5738636 C72.0914286,68.5738636 90,60.4602273 90,50.4545455 L90,37.0625 C90,36.4318182 89.4742857,35.6647727 88.4971429,37.0738636 Z M50,0 C27.9085714,0 10,6.70454545 10,14.9602273 L10,22.1193182 C10,30.875 27.9085714,37.9772727 50,37.9772727 C72.0914286,37.9772727 90,30.875 90,22.1193182 L90,14.9602273 C90,6.70454545 72.0914286,0 50,0 Z" id="Shadow"></path>
        <path d="M88.4342857,66.1420455 C83.6171429,73.8863636 68.2342857,79.5568182 50,79.5568182 C31.7657143,79.5568182 16.3828571,73.8863636 11.56,66.1420455 C10.5428571,64.4943182 10,65.375 10,66.1818182 L10,77.5568182 C10,88.5795455 27.9085714,100 50,100 C72.0914286,100 90,88.5795455 90,77.5625 L90,66.1875 C90,65.375 89.4514286,64.4943182 88.4342857,66.1420455 L88.4342857,66.1420455 Z M88.4971429,37.0738636 C83.7542857,43.9204545 68.3142857,48.9488636 50,48.9488636 C31.6857143,48.9488636 16.24,43.9204545 11.4971429,37.0738636 C10.52,35.6647727 10,36.4318182 10,37.0625 L10,50.4545455 C10,60.4659091 27.9085714,68.5738636 50,68.5738636 C72.0914286,68.5738636 90,60.4602273 90,50.4545455 L90,37.0625 C90,36.4318182 89.4742857,35.6647727 88.4971429,37.0738636 Z M50,0 C27.9085714,0 10,6.70454545 10,14.9602273 L10,22.1193182 C10,30.875 27.9085714,37.9772727 50,37.9772727 C72.0914286,37.9772727 90,30.875 90,22.1193182 L90,14.9602273 C90,6.70454545 72.0914286,0 50,0 Z" id="Colour" fill="#000000"></path>
    </g>
</svg>