<?xml version="1.0" encoding="UTF-8"?>
<svg width="100px" height="100px" viewBox="0 0 100 100" version="1.1" xmlns="http://www.w3.org/2000/svg" xmlns:xlink="http://www.w3.org/1999/xlink">
    <title>Database Circle Border</title>
    <g id="Database-Circle-Border" stroke="none" stroke-width="1" fill="none" fill-rule="evenodd">
        <path d="M50,0 C77.6142375,0 100,22.3857625 100,50 C100,77.6142375 77.6142375,100 50,100 C22.3857625,100 0,77.6142375 0,50 C0,22.3857625 22.3857625,0 50,0 Z M50,7 C26.2517558,7 7,26.2517558 7,50 C7,73.7482442 26.2517558,93 50,93 C73.7482442,93 93,73.7482442 93,50 C93,26.2517558 73.7482442,7 50,7 Z M72.1554923,58.5281606 C72.3163766,58.5798239 72.4,58.8276087 72.4,59.065 L72.4,59.065 L72.4,65.435 C72.4,71.6045455 62.3712,78 50,78 C37.6288,78 27.6,71.6045455 27.6,65.4318182 L27.6,65.4318182 L27.6,59.0618182 C27.6,58.8064427 27.6971191,58.5378527 27.8844234,58.5191886 L27.9292452,58.5194378 C28.0684945,58.5342138 28.250713,58.6784783 28.4736,59.0395455 C31.1744,63.3763636 39.7888,66.5518182 50,66.5518182 L50,66.5518182 L50.492826,66.5493484 C60.4875446,66.449082 68.8691097,63.306415 71.5232,59.0395455 C71.7708522,58.6383597 71.9689013,58.5048316 72.1136654,58.5194501 Z M72.0910336,42.31652 L72.1397532,42.3184056 C72.310944,42.3434 72.4,42.56075 72.4,42.755 L72.4,42.755 L72.4,50.2545455 C72.4,55.8577273 62.3712,60.4013636 50,60.4013636 C37.6288,60.4013636 27.6,55.8609091 27.6,50.2545455 L27.6,50.2545455 L27.6,42.755 C27.6,42.5430909 27.704832,42.3036909 27.9068928,42.31652 L27.9594292,42.3251439 C28.08672,42.358283 28.24688,42.4851818 28.4384,42.7613636 C31.0944,46.5954545 39.744,49.4113636 50,49.4113636 L50,49.4113636 L50.4949835,49.4091735 C60.5333578,49.320263 68.9452387,46.5336144 71.5584,42.7613636 C71.77728,42.4457273 71.955712,42.3250727 72.0910336,42.31652 Z M50,22 L50.425653,22.0014837 C62.6004221,22.0864262 72.4,25.8076855 72.4,30.3777273 L72.4,30.3777273 L72.4,34.3868182 C72.4,39.29 62.3712,43.2672727 50,43.2672727 C37.6288,43.2672727 27.6,39.29 27.6,34.3868182 L27.6,34.3868182 L27.6,30.3777273 C27.6,25.7545455 37.6288,22 50,22 L50,22 Z" id="Shadow"></path>
        <path d="M50,0 C77.6142375,0 100,22.3857625 100,50 C100,77.6142375 77.6142375,100 50,100 C22.3857625,100 0,77.6142375 0,50 C0,22.3857625 22.3857625,0 50,0 Z M50,7 C26.2517558,7 7,26.2517558 7,50 C7,73.7482442 26.2517558,93 50,93 C73.7482442,93 93,73.7482442 93,50 C93,26.2517558 73.7482442,7 50,7 Z M72.1554923,58.5281606 C72.3163766,58.5798239 72.4,58.8276087 72.4,59.065 L72.4,59.065 L72.4,65.435 C72.4,71.6045455 62.3712,78 50,78 C37.6288,78 27.6,71.6045455 27.6,65.4318182 L27.6,65.4318182 L27.6,59.0618182 C27.6,58.8064427 27.6971191,58.5378527 27.8844234,58.5191886 L27.9292452,58.5194378 C28.0684945,58.5342138 28.250713,58.6784783 28.4736,59.0395455 C31.1744,63.3763636 39.7888,66.5518182 50,66.5518182 L50,66.5518182 L50.492826,66.5493484 C60.4875446,66.449082 68.8691097,63.306415 71.5232,59.0395455 C71.7708522,58.6383597 71.9689013,58.5048316 72.1136654,58.5194501 Z M72.0910336,42.31652 L72.1397532,42.3184056 C72.310944,42.3434 72.4,42.56075 72.4,42.755 L72.4,42.755 L72.4,50.2545455 C72.4,55.8577273 62.3712,60.4013636 50,60.4013636 C37.6288,60.4013636 27.6,55.8609091 27.6,50.2545455 L27.6,50.2545455 L27.6,42.755 C27.6,42.5430909 27.704832,42.3036909 27.9068928,42.31652 L27.9594292,42.3251439 C28.08672,42.358283 28.24688,42.4851818 28.4384,42.7613636 C31.0944,46.5954545 39.744,49.4113636 50,49.4113636 L50,49.4113636 L50.4949835,49.4091735 C60.5333578,49.320263 68.9452387,46.5336144 71.5584,42.7613636 C71.77728,42.4457273 71.955712,42.3250727 72.0910336,42.31652 Z M50,22 L50.425653,22.0014837 C62.6004221,22.0864262 72.4,25.8076855 72.4,30.3777273 L72.4,30.3777273 L72.4,34.3868182 C72.4,39.29 62.3712,43.2672727 50,43.2672727 C37.6288,43.2672727 27.6,39.29 27.6,34.3868182 L27.6,34.3868182 L27.6,30.3777273 C27.6,25.7545455 37.6288,22 50,22 L50,22 Z" id="Colour" fill="#000000"></path>
    </g>
</svg>