<?xml version="1.0" encoding="UTF-8"?>
<svg width="100px" height="100px" viewBox="0 0 100 100" version="1.1" xmlns="http://www.w3.org/2000/svg" xmlns:xlink="http://www.w3.org/1999/xlink">
    <title>Driving</title>
    <g id="Driving" stroke="none" stroke-width="1" fill="none" fill-rule="evenodd">
        <g id="Shadow" transform="translate(0.000000, 8.620690)" fill="#000000">
            <path d="M73.5038663,0 C76.6410141,0 79.488637,1.83362217 80.7867981,4.68957645 L91.101,27.381 L91.2653623,27.3831475 C96.1131863,27.5235189 100,31.4975076 100,36.3793103 L100,66.3793103 L92,66.3793103 L92,76.3793103 C92,79.6930188 89.3137085,82.3793103 86,82.3793103 L82,82.3793103 C78.6862915,82.3793103 76,79.6930188 76,76.3793103 L76,66.3793103 L24,66.3793103 L24,76.3793103 C24,79.6930188 21.3137085,82.3793103 18,82.3793103 L14,82.3793103 C10.6862915,82.3793103 8,79.6930188 8,76.3793103 L8,66.3793103 L0,66.3793103 L0,36.3793103 C0,31.6540235 3.64157818,27.7792727 8.27141841,27.4083743 L20.1569287,4.33634728 C21.5287315,1.67343608 24.2732388,0 27.2687252,0 L73.5038663,0 Z M17.9529807,35.7571369 L15.0470193,35.7571369 C12.1566579,36.4344838 10,39.0892015 10,42.2608893 C10,45.9452099 12.9101491,48.9319419 16.5,48.9319419 C20.0898509,48.9319419 23,45.9452099 23,42.2608893 C23,39.0892015 20.8433421,36.4344838 17.9529807,35.7571369 Z M85.9529807,35.7571369 L83.0470193,35.7571369 C80.1566579,36.4344838 78,39.0892015 78,42.2608893 C78,45.9452099 80.9101491,48.9319419 84.5,48.9319419 C88.0898509,48.9319419 91,45.9452099 91,42.2608893 C91,39.0892015 88.8433421,36.4344838 85.9529807,35.7571369 Z M68.9396029,7.75862069 L32.302163,7.75862069 C29.4033052,7.75862069 26.7394954,9.3258345 25.3273692,11.8403787 L25.1903666,12.094968 L17.316,27.379 L83.009,27.379 L76.2225347,12.4481971 C74.9637119,9.67878693 72.2479112,7.87068809 69.2239655,7.76364942 L68.9396029,7.75862069 Z" id="Colour"></path>
        </g>
    </g>
</svg>