<?xml version="1.0" encoding="UTF-8"?>
<svg width="100px" height="100px" viewBox="0 0 100 100" version="1.1" xmlns="http://www.w3.org/2000/svg" xmlns:xlink="http://www.w3.org/1999/xlink">
    <title>Email Border</title>
    <g id="Email-Border" stroke="none" stroke-width="1" fill="none" fill-rule="evenodd">
        <path d="M8.00090579,90.2520708 C4.02125041,90.2520708 -3.64508423e-12,87.0214682 -3.64508423e-12,82.2520708 C0.0232514806,79.9196677 0.0232514806,20.6376564 -3.64508423e-12,18.254405 C-3.64508423e-12,13.9963257 3.40969719,10.2520708 8.00090579,10.2520708 C11.643697,10.2520708 89.9995371,9.68491147 92.001276,10.2520708 C98.0232397,10.2520708 100,15.8541074 100,18.254405 C100,20.6547027 100,80.0475433 100,82.2520708 C100,86.0607521 96.9918619,90.2520708 92.001276,90.2520708 C80.190952,90.2520708 12.3781884,90.2520708 8.00090579,90.2520708 Z M83.5,82.2520708 L50,55.7554367 L16.5,82.2520708 L83.5,82.2520708 Z M50,46.250259 C50.9501315,46.2514669 51.8298695,46.58248 52.639214,47.2432982 L92,78.2525684 L92,18.2527837 L8,18.2527837 L8,78.2525684 L47.35,47.2432982 C48.1499138,46.5812721 49.0332471,46.250259 50,46.250259 Z" id="Shadow" transform="translate(50.000000, 50.126035) scale(-1, 1) rotate(-180.000000) translate(-50.000000, -50.126035) "></path>
        <path d="M8.00090579,90.2520708 C4.02125041,90.2520708 -3.63797881e-12,87.0214682 -3.63797881e-12,82.2520708 C0.0232514806,79.9196677 0.0232514806,20.6376564 -3.63797881e-12,18.254405 C-3.63797881e-12,13.9963257 3.40969719,10.2520708 8.00090579,10.2520708 C11.643697,10.2520708 89.9995371,9.68491147 92.001276,10.2520708 C98.0232397,10.2520708 100,15.8541074 100,18.254405 C100,20.6547027 100,80.0475433 100,82.2520708 C100,86.0607521 96.9918619,90.2520708 92.001276,90.2520708 C80.190952,90.2520708 12.3781884,90.2520708 8.00090579,90.2520708 Z M83.5,82.2520708 L50,55.7554367 L16.5,82.2520708 L83.5,82.2520708 Z M50,46.250259 C50.9501315,46.2514669 51.8298695,46.58248 52.639214,47.2432982 L92,78.2525684 L92,18.2527837 L8,18.2527837 L8,78.2525684 L47.35,47.2432982 C48.1499138,46.5812721 49.0332471,46.250259 50,46.250259 Z" id="Colour" fill="#000000" transform="translate(50.000000, 50.126035) scale(-1, 1) rotate(-180.000000) translate(-50.000000, -50.126035) "></path>
    </g>
</svg>