<?xml version="1.0" encoding="UTF-8"?>
<svg width="100px" height="100px" viewBox="0 0 100 100" version="1.1" xmlns="http://www.w3.org/2000/svg" xmlns:xlink="http://www.w3.org/1999/xlink">
    <title>Email</title>
    <g id="Email" stroke="none" stroke-width="1" fill="none" fill-rule="evenodd">
        <path d="M0.396710146,15.7520315 L47.35,52.622187 C48.1499138,53.2821375 49.0332471,53.6121128 50,53.6121128 C50.9501315,53.6109087 51.8298695,53.2809335 52.639214,52.622187 L99.5403103,15.8029642 C99.859794,16.7271906 100,17.5908156 100,18.2280624 L100,82.0250817 L100,82.0250817 C100,85.821822 96.9918619,90 92.001276,90 L8.00090579,90 L8.00090579,90 C4.02125041,90 0,86.779526 0,82.0250817 C0.00465029613,81.5600636 0.00837053303,78.8242031 0.0111607107,74.7254318 L0.0119698622,73.4558209 C0.0123604871,72.8014798 0.0127301856,72.118516 0.0130789579,71.4099939 L0.0137486005,69.9597796 C0.0138555573,69.7127002 0.013960189,69.463008 0.0140624955,69.2108165 L0.0149204751,66.8766744 C0.0150088307,66.6105082 0.0150948612,66.3421831 0.0151785666,66.0718127 L0.0158691355,63.5863175 C0.01593889,63.3046962 0.0160063193,63.02137 0.0160714234,62.7364524 L0.016992182,57.4605763 C0.0170293844,57.1606473 0.0170642616,56.859808 0.0170968137,56.5581716 L0.0170968137,43.732244 C0.0170642616,43.4305367 0.0170293844,43.1296213 0.016992182,42.8296112 L0.0160714234,37.5517279 C0.0160063193,37.2666683 0.01593889,36.9831951 0.0158691355,36.7014217 L0.0151785666,34.2144211 C0.0150948612,33.9438682 0.0150088308,33.6753556 0.0149204751,33.4089967 L0.0140624955,31.0729843 C0.013960189,30.8205697 0.0138555573,30.5706494 0.0137486005,30.3233368 L0.0130789579,28.8716627 C0.0127301856,28.1623802 0.0123604871,27.4786105 0.0119698622,26.8234178 L0.0111607107,25.552043 C0.00837053303,21.447189 0.00465029613,18.7032183 0,18.2280624 C0,17.3731733 0.138304212,16.5390606 0.396710146,15.7520315 Z M92.001276,10.2508172 C92.360915,10.2508172 92.7061263,10.2707349 93.0373505,10.308701 L50,44.1367359 L6.9684787,10.3149674 C7.30503391,10.2726819 7.64950927,10.2508172 8.00090579,10.2508172 L8.30792038,10.2501523 C12.3818699,10.2365515 44.0141111,10.0186581 67.2011124,10.0007107 L72.6272129,10.0004817 C83.4225688,10.0089472 91.3807369,10.0755491 92.001276,10.2508172 Z" id="Shadow"></path>
        <path d="M0.396710146,15.7520315 L47.35,52.622187 C48.1499138,53.2821375 49.0332471,53.6121128 50,53.6121128 C50.9501315,53.6109087 51.8298695,53.2809335 52.639214,52.622187 L99.5403103,15.8029642 C99.859794,16.7271906 100,17.5908156 100,18.2280624 L100,82.0250817 L100,82.0250817 C100,85.821822 96.9918619,90 92.001276,90 L8.00090579,90 L8.00090579,90 C4.02125041,90 0,86.779526 0,82.0250817 C0.00465029613,81.5600636 0.00837053303,78.8242031 0.0111607107,74.7254318 L0.0119698622,73.4558209 C0.0123604871,72.8014798 0.0127301856,72.118516 0.0130789579,71.4099939 L0.0137486005,69.9597796 C0.0138555573,69.7127002 0.013960189,69.463008 0.0140624955,69.2108165 L0.0149204751,66.8766744 C0.0150088307,66.6105082 0.0150948612,66.3421831 0.0151785666,66.0718127 L0.0158691355,63.5863175 C0.01593889,63.3046962 0.0160063193,63.02137 0.0160714234,62.7364524 L0.016992182,57.4605763 C0.0170293844,57.1606473 0.0170642616,56.859808 0.0170968137,56.5581716 L0.0170968137,43.732244 C0.0170642616,43.4305367 0.0170293844,43.1296213 0.016992182,42.8296112 L0.0160714234,37.5517279 C0.0160063193,37.2666683 0.01593889,36.9831951 0.0158691355,36.7014217 L0.0151785666,34.2144211 C0.0150948612,33.9438682 0.0150088308,33.6753556 0.0149204751,33.4089967 L0.0140624955,31.0729843 C0.013960189,30.8205697 0.0138555573,30.5706494 0.0137486005,30.3233368 L0.0130789579,28.8716627 C0.0127301856,28.1623802 0.0123604871,27.4786105 0.0119698622,26.8234178 L0.0111607107,25.552043 C0.00837053303,21.447189 0.00465029613,18.7032183 0,18.2280624 C0,17.3731733 0.138304212,16.5390606 0.396710146,15.7520315 Z M92.001276,10.2508172 C92.360915,10.2508172 92.7061263,10.2707349 93.0373505,10.308701 L50,44.1367359 L6.9684787,10.3149674 C7.30503391,10.2726819 7.64950927,10.2508172 8.00090579,10.2508172 L8.30792038,10.2501523 C12.3818699,10.2365515 44.0141111,10.0186581 67.2011124,10.0007107 L72.6272129,10.0004817 C83.4225688,10.0089472 91.3807369,10.0755491 92.001276,10.2508172 Z" id="Colour" fill="#000000"></path>
    </g>
</svg>