<?xml version="1.0" encoding="UTF-8"?>
<svg width="100px" height="100px" viewBox="0 0 100 100" version="1.1" xmlns="http://www.w3.org/2000/svg" xmlns:xlink="http://www.w3.org/1999/xlink">
    <title>Exclamation Circle</title>
    <g id="Exclamation-Circle" stroke="none" stroke-width="1" fill="none" fill-rule="evenodd">
        <path d="M50,100 C77.6142375,100 100,77.6142375 100,50 C100,22.3857625 77.6142375,0 50,0 C22.3857625,0 0,22.3857625 0,50 C0,77.6142375 22.3857625,100 50,100 Z M50,20 C53.3137085,20 56,22.6862915 56,26 L56,52.4 C56,55.7137085 53.3137085,58.4 50,58.4 C46.6862915,58.4 44,55.7137085 44,52.4 L44,26 C44,22.6862915 46.6862915,20 50,20 Z M50,80 C53.9764502,80 57.2,76.7764502 57.2,72.8 C57.2,68.8235498 53.9764502,65.6 50,65.6 C46.0235498,65.6 42.8,68.8235498 42.8,72.8 C42.8,76.7764502 46.0235498,80 50,80 Z" id="Shadow"></path>
        <path d="M50,100 C77.6142375,100 100,77.6142375 100,50 C100,22.3857625 77.6142375,0 50,0 C22.3857625,0 0,22.3857625 0,50 C0,77.6142375 22.3857625,100 50,100 Z M50,20 C53.3137085,20 56,22.6862915 56,26 L56,52.4 C56,55.7137085 53.3137085,58.4 50,58.4 C46.6862915,58.4 44,55.7137085 44,52.4 L44,26 C44,22.6862915 46.6862915,20 50,20 Z M50,80 C53.9764502,80 57.2,76.7764502 57.2,72.8 C57.2,68.8235498 53.9764502,65.6 50,65.6 C46.0235498,65.6 42.8,68.8235498 42.8,72.8 C42.8,76.7764502 46.0235498,80 50,80 Z" id="Colour" fill="#000000"></path>
    </g>
</svg>