<?xml version="1.0" encoding="UTF-8"?>
<svg width="100px" height="100px" viewBox="0 0 100 100" version="1.1" xmlns="http://www.w3.org/2000/svg" xmlns:xlink="http://www.w3.org/1999/xlink">
    <title>Eye Crossed</title>
    <g id="Eye-Crossed" stroke="none" stroke-width="1" fill="none" fill-rule="evenodd">
        <path d="M93.1221759,5.83198847 C94.9579625,7.5300561 94.9580864,9.41555028 93.1225476,11.488471 L12.5229679,92.0880508 C10.4871612,94.0319833 8.60166701,94.0318594 6.86648532,92.0876791 C5.13130363,90.1434988 5.13116449,88.2579894 6.86606791,86.4311508 L87.4656477,5.83157106 C89.40088,4.1337817 91.2863894,4.13392084 93.1221759,5.83198847 Z M82.9730937,27.2936775 C90.5083613,33.1566969 96.4369864,40.9827059 100,50 C92.1363636,69.9013333 72.75,84 50,84 C42.9598662,84 36.2381283,82.6471638 30.0793299,80.188078 L40.2526165,70.0156932 C43.0739588,71.2903724 46.2046119,72 49.5,72 C61.92,72 72,61.92 72,49.5 C72,46.2046119 71.2903724,43.0739588 70.0156932,40.2526165 L82.9730937,27.2936775 Z M50,16 C56.4715289,16 62.6708755,17.1408513 68.4102298,19.2315926 L58.6843319,28.9559374 C55.8794274,27.699103 52.7708596,27 49.5,27 C37.08,27 27,37.08 27,49.5 C27,52.7704702 27.6989365,55.8786873 28.9554886,58.6833303 L15.867117,71.7720869 C8.88323185,66.0228916 3.37699495,58.546517 0,50 C7.86363636,30.0986667 27.2727273,16 50,16 Z M62.8412538,47.4265341 C62.9457678,48.1025562 63,48.7950283 63,49.5 C63,56.9475 56.9475,63 49.5,63 C48.7950283,63 48.1025562,62.9457678 47.4265341,62.8412538 L62.8412538,47.4265341 Z M49.5,36 C50.1772032,36 50.8428722,36.050044 51.4935051,36.1466302 L36.1466302,51.4935051 C36.050044,50.8428722 36,50.1772032 36,49.5 C36,42.0525 42.0525,36 49.5,36 Z" id="Shadow"></path>
        <path d="M93.1221759,5.83198847 C94.9579625,7.5300561 94.9580864,9.41555028 93.1225476,11.488471 L12.5229679,92.0880508 C10.4871612,94.0319833 8.60166701,94.0318594 6.86648532,92.0876791 C5.13130363,90.1434988 5.13116449,88.2579894 6.86606791,86.4311508 L87.4656477,5.83157106 C89.40088,4.1337817 91.2863894,4.13392084 93.1221759,5.83198847 Z M82.9730937,27.2936775 C90.5083613,33.1566969 96.4369864,40.9827059 100,50 C92.1363636,69.9013333 72.75,84 50,84 C42.9598662,84 36.2381283,82.6471638 30.0793299,80.188078 L40.2526165,70.0156932 C43.0739588,71.2903724 46.2046119,72 49.5,72 C61.92,72 72,61.92 72,49.5 C72,46.2046119 71.2903724,43.0739588 70.0156932,40.2526165 L82.9730937,27.2936775 Z M50,16 C56.4715289,16 62.6708755,17.1408513 68.4102298,19.2315926 L58.6843319,28.9559374 C55.8794274,27.699103 52.7708596,27 49.5,27 C37.08,27 27,37.08 27,49.5 C27,52.7704702 27.6989365,55.8786873 28.9554886,58.6833303 L15.867117,71.7720869 C8.88323185,66.0228916 3.37699495,58.546517 0,50 C7.86363636,30.0986667 27.2727273,16 50,16 Z M62.8412538,47.4265341 C62.9457678,48.1025562 63,48.7950283 63,49.5 C63,56.9475 56.9475,63 49.5,63 C48.7950283,63 48.1025562,62.9457678 47.4265341,62.8412538 L62.8412538,47.4265341 Z M49.5,36 C50.1772032,36 50.8428722,36.050044 51.4935051,36.1466302 L36.1466302,51.4935051 C36.050044,50.8428722 36,50.1772032 36,49.5 C36,42.0525 42.0525,36 49.5,36 Z" id="Colour" fill="#000000"></path>
    </g>
</svg>