<?xml version="1.0" encoding="UTF-8"?>
<svg width="100px" height="100px" viewBox="0 0 100 100" version="1.1" xmlns="http://www.w3.org/2000/svg" xmlns:xlink="http://www.w3.org/1999/xlink">
    <title>Eye Circle Border</title>
    <g id="Eye-Circle-Border" stroke="none" stroke-width="1" fill="none" fill-rule="evenodd">
        <path d="M50,0 C77.6142375,0 100,22.3857625 100,50 C100,77.6142375 77.6142375,100 50,100 C22.3857625,100 0,77.6142375 0,50 C0,22.3857625 22.3857625,0 50,0 Z M50,7 C26.2517558,7 7,26.2517558 7,50 C7,73.7482442 26.2517558,93 50,93 C73.7482442,93 93,73.7482442 93,50 C93,26.2517558 73.7482442,7 50,7 Z M50,30.96 C37.2727273,30.96 26.4036364,38.8552533 22,50 C26.4036364,61.1447467 37.2727273,69.04 50,69.04 C62.74,69.04 73.5963636,61.1447467 78,50 C73.5963636,38.8552533 62.74,30.96 50,30.96 Z M49.72,62.32 C42.7648,62.32 37.12,56.6752 37.12,49.72 C37.12,42.7648 42.7648,37.12 49.72,37.12 C56.6752,37.12 62.32,42.7648 62.32,49.72 C62.32,56.6752 56.6752,62.32 49.72,62.32 Z M49.72,42.16 C45.5494,42.16 42.16,45.5494 42.16,49.72 C42.16,53.8906 45.5494,57.28 49.72,57.28 C53.8906,57.28 57.28,53.8906 57.28,49.72 C57.28,45.5494 53.8906,42.16 49.72,42.16 Z" id="Shadow"></path>
        <path d="M50,0 C77.6142375,0 100,22.3857625 100,50 C100,77.6142375 77.6142375,100 50,100 C22.3857625,100 0,77.6142375 0,50 C0,22.3857625 22.3857625,0 50,0 Z M50,7 C26.2517558,7 7,26.2517558 7,50 C7,73.7482442 26.2517558,93 50,93 C73.7482442,93 93,73.7482442 93,50 C93,26.2517558 73.7482442,7 50,7 Z M50,30.96 C37.2727273,30.96 26.4036364,38.8552533 22,50 C26.4036364,61.1447467 37.2727273,69.04 50,69.04 C62.74,69.04 73.5963636,61.1447467 78,50 C73.5963636,38.8552533 62.74,30.96 50,30.96 Z M49.72,62.32 C42.7648,62.32 37.12,56.6752 37.12,49.72 C37.12,42.7648 42.7648,37.12 49.72,37.12 C56.6752,37.12 62.32,42.7648 62.32,49.72 C62.32,56.6752 56.6752,62.32 49.72,62.32 Z M49.72,42.16 C45.5494,42.16 42.16,45.5494 42.16,49.72 C42.16,53.8906 45.5494,57.28 49.72,57.28 C53.8906,57.28 57.28,53.8906 57.28,49.72 C57.28,45.5494 53.8906,42.16 49.72,42.16 Z" id="Colour" fill="#000000"></path>
    </g>
</svg>