<?xml version="1.0" encoding="UTF-8"?>
<svg width="100px" height="100px" viewBox="0 0 100 100" version="1.1" xmlns="http://www.w3.org/2000/svg" xmlns:xlink="http://www.w3.org/1999/xlink">
    <title>Eye Border</title>
    <g id="Eye-Border" stroke="none" stroke-width="1" fill="none" fill-rule="evenodd">
        <path d="M50,12 C72.75,12 92.1363636,27.7573333 100,50 C92.1363636,72.2426667 72.75,88 50,88 C27.2727273,88 7.86363636,72.2426667 0,50 C7.86363636,27.7573333 27.2727273,12 50,12 Z M50,20 C30.9090909,20 14.6054545,33.2284186 8,50.4973204 C14.6054545,67.7662222 30.9090909,80 50,80 C69.11,80 85.3945455,67.7662222 92,50.4973204 C85.3945455,33.2284186 69.11,20 50,20 Z M50,32.5 C59.936,32.5 68,40.34 68,50 C68,59.66 59.936,67.5 50,67.5 C40.064,67.5 32,59.66 32,50 C32,40.34 40.064,32.5 50,32.5 Z M50,39.5 C44.042,39.5 39.2,44.2075 39.2,50 C39.2,55.7925 44.042,60.5 50,60.5 C55.958,60.5 60.8,55.7925 60.8,50 C60.8,44.2075 55.958,39.5 50,39.5 Z" id="Shadow"></path>
        <path d="M50,12 C72.75,12 92.1363636,27.7573333 100,50 C92.1363636,72.2426667 72.75,88 50,88 C27.2727273,88 7.86363636,72.2426667 0,50 C7.86363636,27.7573333 27.2727273,12 50,12 Z M50,20 C30.9090909,20 14.6054545,33.2284186 8,50.4973204 C14.6054545,67.7662222 30.9090909,80 50,80 C69.11,80 85.3945455,67.7662222 92,50.4973204 C85.3945455,33.2284186 69.11,20 50,20 Z M50,32.5 C59.936,32.5 68,40.34 68,50 C68,59.66 59.936,67.5 50,67.5 C40.064,67.5 32,59.66 32,50 C32,40.34 40.064,32.5 50,32.5 Z M50,39.5 C44.042,39.5 39.2,44.2075 39.2,50 C39.2,55.7925 44.042,60.5 50,60.5 C55.958,60.5 60.8,55.7925 60.8,50 C60.8,44.2075 55.958,39.5 50,39.5 Z" id="Colour" fill="#000000"></path>
    </g>
</svg>