<?xml version="1.0" encoding="UTF-8"?>
<svg width="100px" height="100px" viewBox="0 0 100 100" version="1.1" xmlns="http://www.w3.org/2000/svg" xmlns:xlink="http://www.w3.org/1999/xlink">
    <title>Eye Border Crossed</title>
    <g id="Eye-Border-Crossed" stroke="none" stroke-width="1" fill="none" fill-rule="evenodd">
        <path d="M93.1221759,6.87782405 C94.9579625,8.57589168 94.9580864,10.4613859 93.1225476,12.5343066 L12.5229679,93.1338864 C10.4871612,95.0778189 8.60166701,95.077695 6.86648532,93.1335147 C5.13130363,91.1893344 5.13116449,89.303825 6.86606791,87.4769864 L87.4656477,6.87740665 C89.40088,5.17961729 91.2863894,5.17975642 93.1221759,6.87782405 Z M100,50 C92.1363636,72.2426667 72.75,88 50,88 C42.6734349,88 35.6917008,86.3624714 29.3304205,83.3980364 L35.2729423,77.4557153 C39.8876417,79.1044473 44.8420922,80 50,80 C69.11,80 85.3945455,67.7313379 92,50.4131944 C89.4119996,43.6279896 85.3382079,37.4910517 80.190823,32.5359667 L85.6352267,27.0945982 C91.9077915,33.3102853 96.8679019,41.1407128 100,50 Z M50,12 C57.3315821,12 64.3138295,13.6364974 70.6736618,16.5991632 L64.621513,22.6500226 C60.0384535,20.9402385 55.1206621,20 50,20 C30.9090909,20 14.6054545,33.0950508 8,50.4131944 C10.5401436,57.0729286 14.5144599,62.9859425 19.5299404,67.7416971 L14.3692746,72.9034137 C8.0947557,66.6880451 3.13176414,58.8583427 0,50 C7.86363636,27.7573333 27.2727273,12 50,12 Z M68,50 C68,59.66 59.936,67.5 50,67.5 C48.5271358,67.5 47.0954063,67.3277266 45.7249804,67.0027885 L52.5156763,60.2127947 C56.5545613,59.2734927 59.7171774,56.1238846 60.5713325,52.1563796 L67.361464,45.3665139 C67.7777082,46.8424711 68,48.3961506 68,50 Z M50,32.5 C51.4732232,32.5 52.9052916,32.6723574 54.2760216,32.9974492 L47.4853266,39.7869721 C43.4459623,40.7259859 40.2828933,43.875787 39.4286675,47.8436204 L32.6385987,54.6337084 C32.2223141,53.1576849 32,51.60393 32,50 C32,40.34 40.064,32.5 50,32.5 Z" id="Shadow"></path>
        <path d="M93.1221759,6.87782405 C94.9579625,8.57589168 94.9580864,10.4613859 93.1225476,12.5343066 L12.5229679,93.1338864 C10.4871612,95.0778189 8.60166701,95.077695 6.86648532,93.1335147 C5.13130363,91.1893344 5.13116449,89.303825 6.86606791,87.4769864 L87.4656477,6.87740665 C89.40088,5.17961729 91.2863894,5.17975642 93.1221759,6.87782405 Z M100,50 C92.1363636,72.2426667 72.75,88 50,88 C42.6734349,88 35.6917008,86.3624714 29.3304205,83.3980364 L35.2729423,77.4557153 C39.8876417,79.1044473 44.8420922,80 50,80 C69.11,80 85.3945455,67.7313379 92,50.4131944 C89.4119996,43.6279896 85.3382079,37.4910517 80.190823,32.5359667 L85.6352267,27.0945982 C91.9077915,33.3102853 96.8679019,41.1407128 100,50 Z M50,12 C57.3315821,12 64.3138295,13.6364974 70.6736618,16.5991632 L64.621513,22.6500226 C60.0384535,20.9402385 55.1206621,20 50,20 C30.9090909,20 14.6054545,33.0950508 8,50.4131944 C10.5401436,57.0729286 14.5144599,62.9859425 19.5299404,67.7416971 L14.3692746,72.9034137 C8.0947557,66.6880451 3.13176414,58.8583427 0,50 C7.86363636,27.7573333 27.2727273,12 50,12 Z M68,50 C68,59.66 59.936,67.5 50,67.5 C48.5271358,67.5 47.0954063,67.3277266 45.7249804,67.0027885 L52.5156763,60.2127947 C56.5545613,59.2734927 59.7171774,56.1238846 60.5713325,52.1563796 L67.361464,45.3665139 C67.7777082,46.8424711 68,48.3961506 68,50 Z M50,32.5 C51.4732232,32.5 52.9052916,32.6723574 54.2760216,32.9974492 L47.4853266,39.7869721 C43.4459623,40.7259859 40.2828933,43.875787 39.4286675,47.8436204 L32.6385987,54.6337084 C32.2223141,53.1576849 32,51.60393 32,50 C32,40.34 40.064,32.5 50,32.5 Z" id="Colour-" fill="#000000"></path>
    </g>
</svg>