<?xml version="1.0" encoding="UTF-8"?>
<svg width="100px" height="100px" viewBox="0 0 100 100" version="1.1" xmlns="http://www.w3.org/2000/svg" xmlns:xlink="http://www.w3.org/1999/xlink">
    <title>Eye</title>
    <g id="Eye" stroke="none" stroke-width="1" fill="none" fill-rule="evenodd">
        <path d="M50,16 C27.2727273,16 7.86363636,30.0986667 0,50 C7.86363636,69.9013333 27.2727273,84 50,84 C72.75,84 92.1363636,69.9013333 100,50 C92.1363636,30.0986667 72.75,16 50,16 Z M49.5,72 C37.08,72 27,61.92 27,49.5 C27,37.08 37.08,27 49.5,27 C61.92,27 72,37.08 72,49.5 C72,61.92 61.92,72 49.5,72 Z M49.5,36 C42.0525,36 36,42.0525 36,49.5 C36,56.9475 42.0525,63 49.5,63 C56.9475,63 63,56.9475 63,49.5 C63,42.0525 56.9475,36 49.5,36 Z" id="Shadow"></path>
        <path d="M50,16 C27.2727273,16 7.86363636,30.0986667 0,50 C7.86363636,69.9013333 27.2727273,84 50,84 C72.75,84 92.1363636,69.9013333 100,50 C92.1363636,30.0986667 72.75,16 50,16 Z M49.5,72 C37.08,72 27,61.92 27,49.5 C27,37.08 37.08,27 49.5,27 C61.92,27 72,37.08 72,49.5 C72,61.92 61.92,72 49.5,72 Z M49.5,36 C42.0525,36 36,42.0525 36,49.5 C36,56.9475 42.0525,63 49.5,63 C56.9475,63 63,56.9475 63,49.5 C63,42.0525 56.9475,36 49.5,36 Z" id="Colour" fill="#000000"></path>
    </g>
</svg>