<?xml version="1.0" encoding="UTF-8"?>
<svg width="100px" height="100px" viewBox="0 0 100 100" version="1.1" xmlns="http://www.w3.org/2000/svg" xmlns:xlink="http://www.w3.org/1999/xlink">
    <title>Facebook</title>
    <g id="Facebook" stroke="none" stroke-width="1" fill="none" fill-rule="evenodd">
        <path d="M57.7521841,0 L57.7521841,45.61443 L73.0837611,45.61443 L75.3791005,63.3915016 L57.7521841,63.3915016 L57.7521841,74.7413763 C57.7521841,79.8882534 59.1831254,83.3955619 66.5738179,83.3955619 L76,83.3999753 L76,99.2995975 C74.3693103,99.5158528 68.7741442,100 62.2646429,100 C48.674236,100 39.3704661,91.7156551 39.3704661,76.5014299 L39.3704661,63.3915016 L24,63.3915016 L24,45.61443 L39.3704661,45.61443 L39.3704661,0 L57.7521841,0 Z" id="Shadow" transform="translate(50.000000, 50.000000) scale(1, -1) translate(-50.000000, -50.000000) "></path>
        <path d="M57.7521841,0 L57.7521841,45.61443 L73.0837611,45.61443 L75.3791005,63.3915016 L57.7521841,63.3915016 L57.7521841,74.7413763 C57.7521841,79.8882534 59.1831254,83.3955619 66.5738179,83.3955619 L76,83.3999753 L76,99.2995975 C74.3693103,99.5158528 68.7741442,100 62.2646429,100 C48.674236,100 39.3704661,91.7156551 39.3704661,76.5014299 L39.3704661,63.3915016 L24,63.3915016 L24,45.61443 L39.3704661,45.61443 L39.3704661,0 L57.7521841,0 Z" id="Colour" fill="#000000" transform="translate(50.000000, 50.000000) scale(1, -1) translate(-50.000000, -50.000000) "></path>
    </g>
</svg>