<?xml version="1.0" encoding="UTF-8"?>
<svg width="100px" height="100px" viewBox="0 0 100 100" version="1.1" xmlns="http://www.w3.org/2000/svg" xmlns:xlink="http://www.w3.org/1999/xlink">
    <title>Filter</title>
    <g id="Filter" stroke="none" stroke-width="1" fill="none" fill-rule="evenodd">
        <path d="M30,34 C36.7149533,34 42.4637557,38.1365835 44.837176,44.0005191 L94,44 C97.3137085,44 100,46.6862915 100,50 C100,53.3137085 97.3137085,56 94,56 L44.8367689,56.0004867 C42.4630983,61.8638895 36.7145693,66 30,66 C23.2854307,66 17.5369017,61.8638895 15.1632311,56.0004867 L6,56 C2.6862915,56 4.05812251e-16,53.3137085 0,50 C-4.05812251e-16,46.6862915 2.6862915,44 6,44 L15.162824,44.0005191 C17.5362443,38.1365835 23.2850467,34 30,34 Z M70,0 C76.7149533,0 82.4637557,4.13658346 84.837176,10.0005191 L94,10 C97.3137085,10 100,12.6862915 100,16 C100,19.3137085 97.3137085,22 94,22 L84.8367689,22.0004867 C82.4630983,27.8638895 76.7145693,32 70,32 C63.2854307,32 57.5369017,27.8638895 55.1632311,22.0004867 L6,22 C2.6862915,22 4.05812251e-16,19.3137085 0,16 C-4.05812251e-16,12.6862915 2.6862915,10 6,10 L55.162824,10.0005191 C57.5362443,4.13658346 63.2850467,0 70,0 Z M70,68 C76.7149533,68 82.4637557,72.1365835 84.837176,78.0005191 L94,78 C97.3137085,78 100,80.6862915 100,84 C100,87.3137085 97.3137085,90 94,90 L84.8367689,90.0004867 C82.4630983,95.8638895 76.7145693,100 70,100 C63.2854307,100 57.5369017,95.8638895 55.1632311,90.0004867 L6,90 C2.6862915,90 4.05812251e-16,87.3137085 0,84 C-4.05812251e-16,80.6862915 2.6862915,78 6,78 L55.162824,78.0005191 C57.5362443,72.1365835 63.2850467,68 70,68 Z" id="Shadow"></path>
        <path d="M30,34 C36.7149533,34 42.4637557,38.1365835 44.837176,44.0005191 L94,44 C97.3137085,44 100,46.6862915 100,50 C100,53.3137085 97.3137085,56 94,56 L44.8367689,56.0004867 C42.4630983,61.8638895 36.7145693,66 30,66 C23.2854307,66 17.5369017,61.8638895 15.1632311,56.0004867 L6,56 C2.6862915,56 4.05812251e-16,53.3137085 0,50 C-4.05812251e-16,46.6862915 2.6862915,44 6,44 L15.162824,44.0005191 C17.5362443,38.1365835 23.2850467,34 30,34 Z M70,0 C76.7149533,0 82.4637557,4.13658346 84.837176,10.0005191 L94,10 C97.3137085,10 100,12.6862915 100,16 C100,19.3137085 97.3137085,22 94,22 L84.8367689,22.0004867 C82.4630983,27.8638895 76.7145693,32 70,32 C63.2854307,32 57.5369017,27.8638895 55.1632311,22.0004867 L6,22 C2.6862915,22 4.05812251e-16,19.3137085 0,16 C-4.05812251e-16,12.6862915 2.6862915,10 6,10 L55.162824,10.0005191 C57.5362443,4.13658346 63.2850467,0 70,0 Z M70,68 C76.7149533,68 82.4637557,72.1365835 84.837176,78.0005191 L94,78 C97.3137085,78 100,80.6862915 100,84 C100,87.3137085 97.3137085,90 94,90 L84.8367689,90.0004867 C82.4630983,95.8638895 76.7145693,100 70,100 C63.2854307,100 57.5369017,95.8638895 55.1632311,90.0004867 L6,90 C2.6862915,90 4.05812251e-16,87.3137085 0,84 C-4.05812251e-16,80.6862915 2.6862915,78 6,78 L55.162824,78.0005191 C57.5362443,72.1365835 63.2850467,68 70,68 Z" id="Colour" fill="#000000"></path>
    </g>
</svg>