<?xml version="1.0" encoding="UTF-8"?>
<svg width="100px" height="100px" viewBox="0 0 100 100" version="1.1" xmlns="http://www.w3.org/2000/svg" xmlns:xlink="http://www.w3.org/1999/xlink">
    <title>Flag</title>
    <g id="Flag" stroke="none" stroke-width="1" fill="none" fill-rule="evenodd">
        <path d="M69.8947368,9.09090909 C56.6315789,9.09090909 43.3684211,0 30.1052632,0 C16.8421053,0 8,4.54545455 8,4.54545455 L8,95.4545455 C8,97.9649307 9.97937268,100 12.4210526,100 C14.8627326,100 16.8421053,97.9649307 16.8421053,95.4545455 L16.8421053,65.1761364 C21.1926191,64.1507913 25.6419079,63.6342556 30.1052632,63.6363636 C43.3684211,63.6363636 56.6315789,72.7272727 69.8947368,72.7272727 C83.1578947,72.7272727 92,68.1818182 92,68.1818182 L92,4.54545455 C92,4.54545455 83.1578947,9.09090909 69.8947368,9.09090909 Z M83.1578947,61.8102273 C78.8495789,63.0397727 74.3644211,63.6363636 69.8947368,63.6363636 C63.4311579,63.6363636 57.1223158,61.0261364 51.0776316,58.9704545 C44.288,56.6602273 37.3193158,54.5454545 30.1052632,54.5454545 C25.6524277,54.5445535 21.210197,54.9917613 16.8421053,55.8806818 L16.8421053,10.9170455 C21.1504211,9.6875 25.6344737,9.09090909 30.1052632,9.09090909 C36.5688421,9.09090909 42.8776842,11.7011364 48.9223684,13.7568182 C55.712,16.0670455 62.6806842,18.1818182 69.8947368,18.1818182 C74.3475723,18.1827192 78.789803,17.7355114 83.1578947,16.8465909 L83.1578947,61.8102273 L83.1578947,61.8102273 Z" id="Shadow"></path>
        <path d="M69.8947368,9.09090909 C56.6315789,9.09090909 43.3684211,0 30.1052632,0 C16.8421053,0 8,4.54545455 8,4.54545455 L8,95.4545455 C8,97.9649307 9.97937268,100 12.4210526,100 C14.8627326,100 16.8421053,97.9649307 16.8421053,95.4545455 L16.8421053,65.1761364 C21.1926191,64.1507913 25.6419079,63.6342556 30.1052632,63.6363636 C43.3684211,63.6363636 56.6315789,72.7272727 69.8947368,72.7272727 C83.1578947,72.7272727 92,68.1818182 92,68.1818182 L92,4.54545455 C92,4.54545455 83.1578947,9.09090909 69.8947368,9.09090909 Z M83.1578947,61.8102273 C78.8495789,63.0397727 74.3644211,63.6363636 69.8947368,63.6363636 C63.4311579,63.6363636 57.1223158,61.0261364 51.0776316,58.9704545 C44.288,56.6602273 37.3193158,54.5454545 30.1052632,54.5454545 C25.6524277,54.5445535 21.210197,54.9917613 16.8421053,55.8806818 L16.8421053,10.9170455 C21.1504211,9.6875 25.6344737,9.09090909 30.1052632,9.09090909 C36.5688421,9.09090909 42.8776842,11.7011364 48.9223684,13.7568182 C55.712,16.0670455 62.6806842,18.1818182 69.8947368,18.1818182 C74.3475723,18.1827192 78.789803,17.7355114 83.1578947,16.8465909 L83.1578947,61.8102273 L83.1578947,61.8102273 Z" id="Colour" fill="#000000"></path>
    </g>
</svg>