<?xml version="1.0" encoding="UTF-8"?>
<svg width="100px" height="100px" viewBox="0 0 100 100" version="1.1" xmlns="http://www.w3.org/2000/svg" xmlns:xlink="http://www.w3.org/1999/xlink">
    <title>Gallery</title>
    <g id="Gallery" stroke="none" stroke-width="1" fill="none" fill-rule="evenodd">
        <path d="M16,13.44 L16.0035681,13.1272138 C16.1674056,5.95296011 21.9529601,0.167405551 29.1272138,0.00356812594 L29.44,0 L86.56,0 C93.982707,0 100,6.01729296 100,13.44 L100,70.56 C100,77.8781619 94.1510146,83.83022 86.8727862,83.9964319 L86.56,84 L84,84 L84,77.28 L86.56,77.28 L86.7959184,77.2759362 C90.3197125,77.1543562 93.1543562,74.3197125 93.2759362,70.7959184 L93.28,70.56 L93.28,13.44 L93.2759362,13.2040816 C93.1516544,9.60198097 90.1923886,6.72 86.56,6.72 L29.44,6.72 L29.2040816,6.72406377 C25.758594,6.84294206 22.9719683,9.55564312 22.7361663,12.9702052 L22.7240638,13.2040816 L22.72,13.44 L22.72,16 L70.56,16 C77.982707,16 84,22.017293 84,29.44 L84,86.56 C84,93.8781619 78.1510146,99.83022 70.8727862,99.9964319 L70.56,100 L13.44,100 L13.1272138,99.9964319 C5.95296011,99.8325944 0.167405551,94.0470399 0.00356812594,86.8727862 L-1.0125234e-13,86.56 L-1.49213975e-13,29.44 L0.00356812594,29.1272138 C0.167405551,21.9529601 5.95296011,16.1674056 13.1272138,16.0035681 L13.44,16 L16,16 L16,13.44 Z M33.39,47.8192 L33.1564302,47.8255849 C31.8465704,47.8973829 30.6965764,48.5693737 29.9767694,49.5712361 L29.8469128,49.762885 L7.56171192,81.4187767 L7.50734166,81.4904398 C7.01181661,82.179797 6.72,83.0254198 6.72,83.9392 C6.72,86.1182144 8.37938319,87.909659 10.5034157,88.1188001 L10.7103776,88.1340599 L10.92,88.1392 L73.08,88.1392 L73.2896224,88.1340599 C75.5118331,88.0248328 77.28,86.1885052 77.28,83.9392 C77.28,83.1084907 77.0388293,82.3341099 76.6226847,81.6822544 L76.4926583,81.4904398 L76.44,81.4192 L64.0593104,63.2606766 C63.3590413,62.1230287 62.1315787,61.3445851 60.7173719,61.265795 L60.48,61.2592 L60.239107,61.2659928 C59.0432531,61.3336168 57.9811274,61.9015733 57.2577907,62.7644562 L57.1177013,62.9409042 L57.0915368,62.977125 L57.008128,63.0949826 L57.008128,63.0949826 L56.9287146,63.2157835 L51.887,70.6112 L36.9235712,49.7480418 C36.1762008,48.58765 34.872841,47.8192 33.39,47.8192 Z M60.48,27.6592 L60.2025429,27.6629448 C54.763791,27.8099251 50.4,32.2649536 50.4,37.7392 C50.4,43.2134464 54.763791,47.6684749 60.2025429,47.8154552 L60.48,47.8192 L60.7574571,47.8154552 C66.196209,47.6684749 70.56,43.2134464 70.56,37.7392 C70.56,32.3593371 66.3453873,27.9638498 61.0377964,27.6743723 L60.7574571,27.6629448 L60.48,27.6592 Z" id="Shadow"></path>
        <path d="M16,13.44 L16.0035681,13.1272138 C16.1674056,5.95296011 21.9529601,0.167405551 29.1272138,0.00356812594 L29.44,0 L86.56,0 C93.982707,0 100,6.01729296 100,13.44 L100,70.56 C100,77.8781619 94.1510146,83.83022 86.8727862,83.9964319 L86.56,84 L84,84 L84,77.28 L86.56,77.28 L86.7959184,77.2759362 C90.3197125,77.1543562 93.1543562,74.3197125 93.2759362,70.7959184 L93.28,70.56 L93.28,13.44 L93.2759362,13.2040816 C93.1516544,9.60198097 90.1923886,6.72 86.56,6.72 L29.44,6.72 L29.2040816,6.72406377 C25.758594,6.84294206 22.9719683,9.55564312 22.7361663,12.9702052 L22.7240638,13.2040816 L22.72,13.44 L22.72,16 L70.56,16 C77.982707,16 84,22.017293 84,29.44 L84,86.56 C84,93.8781619 78.1510146,99.83022 70.8727862,99.9964319 L70.56,100 L13.44,100 L13.1272138,99.9964319 C5.95296011,99.8325944 0.167405551,94.0470399 0.00356812594,86.8727862 L-1.50990331e-13,86.56 L-1.98951966e-13,29.44 L0.00356812594,29.1272138 C0.167405551,21.9529601 5.95296011,16.1674056 13.1272138,16.0035681 L13.44,16 L16,16 L16,13.44 Z M33.39,47.8192 L33.1564302,47.8255849 C31.8465704,47.8973829 30.6965764,48.5693737 29.9767694,49.5712361 L29.8469128,49.762885 L7.56171192,81.4187767 L7.50734166,81.4904398 C7.01181661,82.179797 6.72,83.0254198 6.72,83.9392 C6.72,86.1182144 8.37938319,87.909659 10.5034157,88.1188001 L10.7103776,88.1340599 L10.92,88.1392 L73.08,88.1392 L73.2896224,88.1340599 C75.5118331,88.0248328 77.28,86.1885052 77.28,83.9392 C77.28,83.1084907 77.0388293,82.3341099 76.6226847,81.6822544 L76.4926583,81.4904398 L76.44,81.4192 L64.0593104,63.2606766 C63.3590413,62.1230287 62.1315787,61.3445851 60.7173719,61.265795 L60.48,61.2592 L60.239107,61.2659928 C59.0432531,61.3336168 57.9811274,61.9015733 57.2577907,62.7644562 L57.1177013,62.9409042 L57.0915368,62.977125 L57.008128,63.0949826 L57.008128,63.0949826 L56.9287146,63.2157835 L51.887,70.6112 L36.9235712,49.7480418 C36.1762008,48.58765 34.872841,47.8192 33.39,47.8192 Z M60.48,27.6592 L60.2025429,27.6629448 C54.763791,27.8099251 50.4,32.2649536 50.4,37.7392 C50.4,43.2134464 54.763791,47.6684749 60.2025429,47.8154552 L60.48,47.8192 L60.7574571,47.8154552 C66.196209,47.6684749 70.56,43.2134464 70.56,37.7392 C70.56,32.3593371 66.3453873,27.9638498 61.0377964,27.6743723 L60.7574571,27.6629448 L60.48,27.6592 Z" id="Colour" fill="#000000"></path>
    </g>
</svg>