<?xml version="1.0" encoding="UTF-8"?>
<svg width="100px" height="100px" viewBox="0 0 100 100" version="1.1" xmlns="http://www.w3.org/2000/svg" xmlns:xlink="http://www.w3.org/1999/xlink">
    <title>Google</title>
    <g id="Google" stroke="none" stroke-width="1" fill="none" fill-rule="evenodd">
        <path d="M1,50 C1,42.1885728 2.82840487,34.7949021 6.02913104,28.1737972 L6.33320567,27.5553428 L6.58246382,27.066886 C14.8933881,10.9988166 31.6398315,0 51,0 C64.2785002,0 75.4074935,4.78368089 84.0159534,12.6063425 L84.4442742,13 L70.3332057,26.7778629 C66.7219456,23.3887399 60.3887399,19.3332057 51,19.3332057 C37.7778629,19.3332057 26.5557258,28.0555343 22.4998085,40.1110686 C21.4998085,43.2221371 20.8889314,46.5553428 20.8889314,50 C20.8889314,53.2290071 21.4258351,56.3607319 22.3626815,59.3030257 L22.5553428,59.8889314 C26.5557258,71.9444657 37.7778629,80.6664113 51,80.6664113 C58.2483723,80.6664113 63.8115853,78.7176396 67.9968716,75.8970011 L68.3332057,75.6664113 L68.7368056,75.3779055 C74.9884178,70.8146155 77.8894041,64.2420214 78.5182773,59.7294724 L78.5553428,59.4442742 L51,59.4442742 L51,40.8889314 L97.9444657,40.8889314 C98.6664113,44 99,47 99,51.1110686 C99,66.3332057 93.5553428,79.1666028 84.1110686,87.8889314 C75.8330142,95.5553428 64.4998085,100 51,100 C31.6398315,100 14.8933881,89.000808 6.58246382,72.9327311 L6.33320567,72.4442742 C2.94446572,65.6664113 1,58.0555343 1,50 Z" id="Shadow"></path>
        <path d="M1,50 C1,42.1885728 2.82840487,34.7949021 6.02913104,28.1737972 L6.33320567,27.5553428 L6.58246382,27.066886 C14.8933881,10.9988166 31.6398315,0 51,0 C64.2785002,0 75.4074935,4.78368089 84.0159534,12.6063425 L84.4442742,13 L70.3332057,26.7778629 C66.7219456,23.3887399 60.3887399,19.3332057 51,19.3332057 C37.7778629,19.3332057 26.5557258,28.0555343 22.4998085,40.1110686 C21.4998085,43.2221371 20.8889314,46.5553428 20.8889314,50 C20.8889314,53.2290071 21.4258351,56.3607319 22.3626815,59.3030257 L22.5553428,59.8889314 C26.5557258,71.9444657 37.7778629,80.6664113 51,80.6664113 C58.2483723,80.6664113 63.8115853,78.7176396 67.9968716,75.8970011 L68.3332057,75.6664113 L68.7368056,75.3779055 C74.9884178,70.8146155 77.8894041,64.2420214 78.5182773,59.7294724 L78.5553428,59.4442742 L51,59.4442742 L51,40.8889314 L97.9444657,40.8889314 C98.6664113,44 99,47 99,51.1110686 C99,66.3332057 93.5553428,79.1666028 84.1110686,87.8889314 C75.8330142,95.5553428 64.4998085,100 51,100 C31.6398315,100 14.8933881,89.000808 6.58246382,72.9327311 L6.33320567,72.4442742 C2.94446572,65.6664113 1,58.0555343 1,50 Z" id="Colour" fill="#000000"></path>
    </g>
</svg>