<?xml version="1.0" encoding="UTF-8"?>
<svg width="100px" height="100px" viewBox="0 0 100 100" version="1.1" xmlns="http://www.w3.org/2000/svg" xmlns:xlink="http://www.w3.org/1999/xlink">
    <title>Grid Border</title>
    <g id="Grid-Border" stroke="none" stroke-width="1" fill="none" fill-rule="evenodd">
        <path d="M35.2173913,64.7826087 L9.7826087,64.7826087 L9.7826087,90.2173913 L35.2173913,90.2173913 L35.2173913,64.7826087 Z M45,92.8 C44.9994674,96.6958307 41.9063375,99.8681347 38.042474,99.9959939 L37.8,100 L7.2,100 L6.9575056,99.9959932 C3.17382282,99.8707771 0.129222867,96.8261772 0.00400675885,93.0424944 L-2.7533531e-14,92.8 L-5.32907052e-14,62.2 L0.00400675885,61.9575056 C0.129222867,58.1738228 3.17382282,55.1292229 6.9575056,55.0040068 L7.2,55 L37.8,55 L38.0424944,55.0040068 C41.8261772,55.1292229 44.8707771,58.1738228 44.9959932,61.9575056 L44.999,62.199 L44.999,62.198 L45,62.2 L45,92.8 Z M90.2173913,64.7826087 L64.7826087,64.7826087 L64.7826087,90.2173913 L90.2173913,90.2173913 L90.2173913,64.7826087 Z M100,92.8 C99.9994674,96.6958307 96.9063375,99.8681347 93.042474,99.9959939 L92.8,100 L62.2,100 L61.9575056,99.9959932 C58.1738228,99.8707771 55.1292229,96.8261772 55.0040068,93.0424944 L55,92.8 L55,62.2 L55.0040068,61.9575056 C55.1292229,58.1738228 58.1738228,55.1292229 61.9575056,55.0040068 L62.2,55 L92.8,55 L93.0424944,55.0040068 C96.8261772,55.1292229 99.8707771,58.1738228 99.9959932,61.9575056 L99.999,62.199 L99.999,62.198 L100,62.2 L100,92.8 Z M90.2173913,9.7826087 L64.7826087,9.7826087 L64.7826087,35.2173913 L90.2173913,35.2173913 L90.2173913,9.7826087 Z M100,37.8 C99.9994674,41.6958307 96.9063375,44.8681347 93.042474,44.9959939 L92.8,45 L62.2,45 L61.9575056,44.9959932 C58.1738228,44.8707771 55.1292229,41.8261772 55.0040068,38.0424944 L55,37.8 L55,7.2 L55.0040068,6.9575056 C55.1292229,3.17382282 58.1738228,0.129222867 61.9575056,0.00400675885 L62.2,0 L92.8,0 L93.0424944,0.00400675885 C96.8261772,0.129222867 99.8707771,3.17382282 99.9959932,6.9575056 L99.999,7.199 L99.999,7.198 L100,7.2 L100,37.8 Z M35.2173913,9.7826087 L9.7826087,9.7826087 L9.7826087,35.2173913 L35.2173913,35.2173913 L35.2173913,9.7826087 Z M45,37.8 C44.9994674,41.6958307 41.9063375,44.8681347 38.042474,44.9959939 L37.8,45 L7.2,45 L6.9575056,44.9959932 C3.17382282,44.8707771 0.129222867,41.8261772 0.00400675885,38.0424944 L-2.7533531e-14,37.8 L-5.32907052e-14,7.2 L0.00400675885,6.9575056 C0.129222867,3.17382282 3.17382282,0.129222867 6.9575056,0.00400675885 L7.2,0 L37.8,0 L38.0424944,0.00400675885 C41.8261772,0.129222867 44.8707771,3.17382282 44.9959932,6.9575056 L44.999,7.199 L44.999,7.198 L45,7.2 L45,37.8 Z" id="Shadow"></path>
        <path d="M35.2173913,64.7826087 L9.7826087,64.7826087 L9.7826087,90.2173913 L35.2173913,90.2173913 L35.2173913,64.7826087 Z M45,92.8 C44.9994674,96.6958307 41.9063375,99.8681347 38.042474,99.9959939 L37.8,100 L7.2,100 L6.9575056,99.9959932 C3.17382282,99.8707771 0.129222867,96.8261772 0.00400675885,93.0424944 L-2.7533531e-14,92.8 L-5.32907052e-14,62.2 L0.00400675885,61.9575056 C0.129222867,58.1738228 3.17382282,55.1292229 6.9575056,55.0040068 L7.2,55 L37.8,55 L38.0424944,55.0040068 C41.8261772,55.1292229 44.8707771,58.1738228 44.9959932,61.9575056 L44.999,62.199 L44.999,62.198 L45,62.2 L45,92.8 Z M90.2173913,64.7826087 L64.7826087,64.7826087 L64.7826087,90.2173913 L90.2173913,90.2173913 L90.2173913,64.7826087 Z M100,92.8 C99.9994674,96.6958307 96.9063375,99.8681347 93.042474,99.9959939 L92.8,100 L62.2,100 L61.9575056,99.9959932 C58.1738228,99.8707771 55.1292229,96.8261772 55.0040068,93.0424944 L55,92.8 L55,62.2 L55.0040068,61.9575056 C55.1292229,58.1738228 58.1738228,55.1292229 61.9575056,55.0040068 L62.2,55 L92.8,55 L93.0424944,55.0040068 C96.8261772,55.1292229 99.8707771,58.1738228 99.9959932,61.9575056 L99.999,62.199 L99.999,62.198 L100,62.2 L100,92.8 Z M90.2173913,9.7826087 L64.7826087,9.7826087 L64.7826087,35.2173913 L90.2173913,35.2173913 L90.2173913,9.7826087 Z M100,37.8 C99.9994674,41.6958307 96.9063375,44.8681347 93.042474,44.9959939 L92.8,45 L62.2,45 L61.9575056,44.9959932 C58.1738228,44.8707771 55.1292229,41.8261772 55.0040068,38.0424944 L55,37.8 L55,7.2 L55.0040068,6.9575056 C55.1292229,3.17382282 58.1738228,0.129222867 61.9575056,0.00400675885 L62.2,0 L92.8,0 L93.0424944,0.00400675885 C96.8261772,0.129222867 99.8707771,3.17382282 99.9959932,6.9575056 L99.999,7.199 L99.999,7.198 L100,7.2 L100,37.8 Z M35.2173913,9.7826087 L9.7826087,9.7826087 L9.7826087,35.2173913 L35.2173913,35.2173913 L35.2173913,9.7826087 Z M45,37.8 C44.9994674,41.6958307 41.9063375,44.8681347 38.042474,44.9959939 L37.8,45 L7.2,45 L6.9575056,44.9959932 C3.17382282,44.8707771 0.129222867,41.8261772 0.00400675885,38.0424944 L-2.7533531e-14,37.8 L-5.32907052e-14,7.2 L0.00400675885,6.9575056 C0.129222867,3.17382282 3.17382282,0.129222867 6.9575056,0.00400675885 L7.2,0 L37.8,0 L38.0424944,0.00400675885 C41.8261772,0.129222867 44.8707771,3.17382282 44.9959932,6.9575056 L44.999,7.199 L44.999,7.198 L45,7.2 L45,37.8 Z" id="Colour" fill="#000000"></path>
    </g>
</svg>