<?xml version="1.0" encoding="UTF-8"?>
<svg width="100px" height="100px" viewBox="0 0 100 100" version="1.1" xmlns="http://www.w3.org/2000/svg" xmlns:xlink="http://www.w3.org/1999/xlink">
    <title>Grid</title>
    <g id="Grid" stroke="none" stroke-width="1" fill="none" fill-rule="evenodd">
        <path d="M7.2,100 L6.9575056,99.9959932 C3.09331893,99.868113 -2.7533531e-14,96.6952982 -2.7533531e-14,92.8 L-2.7533531e-14,92.8 L-5.32907052e-14,62.2 L0.00400675885,61.9575056 C0.131887039,58.0933189 3.30470185,55 7.2,55 L7.2,55 L37.8,55 L38.0424944,55.0040068 C41.9066811,55.131887 45,58.3047018 45,62.2 L44.999,62.198 L45,62.2 L45,92.8 C44.9994563,96.7769939 41.7761149,100 37.8,100 L37.8,100 L7.2,100 Z M62.2,100 L61.9575056,99.9959932 C58.0933189,99.868113 55,96.6952982 55,92.8 L55,92.8 L55,62.2 L55.0040068,61.9575056 C55.131887,58.0933189 58.3047018,55 62.2,55 L62.2,55 L92.8,55 L93.0424944,55.0040068 C96.9066811,55.131887 100,58.3047018 100,62.2 L99.999,62.198 L100,62.2 L100,92.8 C99.9994563,96.7769939 96.7761149,100 92.8,100 L92.8,100 L62.2,100 Z M62.2,45 L61.9575056,44.9959932 C58.0933189,44.868113 55,41.6952982 55,37.8 L55,37.8 L55,7.2 L55.0040068,6.9575056 C55.131887,3.09331893 58.3047018,0 62.2,0 L62.2,0 L92.8,0 L93.0424944,0.00400675885 C96.9066811,0.131887039 100,3.30470185 100,7.2 L99.999,7.198 L100,7.2 L100,37.8 C99.9994563,41.7769939 96.7761149,45 92.8,45 L92.8,45 L62.2,45 Z M7.2,45 L6.9575056,44.9959932 C3.09331893,44.868113 -2.7533531e-14,41.6952982 -2.7533531e-14,37.8 L-2.7533531e-14,37.8 L-5.32907052e-14,7.2 L0.00400675885,6.9575056 C0.131887039,3.09331893 3.30470185,0 7.2,0 L7.2,0 L37.8,0 L38.0424944,0.00400675885 C41.9066811,0.131887039 45,3.30470185 45,7.2 L44.999,7.198 L45,7.2 L45,37.8 C44.9994563,41.7769939 41.7761149,45 37.8,45 L37.8,45 L7.2,45 Z" id="Shadow"></path>
        <path d="M7.2,100 L6.9575056,99.9959932 C3.09331893,99.868113 -1.33226763e-14,96.6952982 -1.33226763e-14,92.8 L-1.33226763e-14,92.8 L-3.90798505e-14,62.2 L0.00400675885,61.9575056 C0.131887039,58.0933189 3.30470185,55 7.2,55 L7.2,55 L37.8,55 L38.0424944,55.0040068 C41.9066811,55.131887 45,58.3047018 45,62.2 L44.999,62.198 L45,62.2 L45,92.8 C44.9994563,96.7769939 41.7761149,100 37.8,100 L37.8,100 L7.2,100 Z M62.2,100 L61.9575056,99.9959932 C58.0933189,99.868113 55,96.6952982 55,92.8 L55,92.8 L55,62.2 L55.0040068,61.9575056 C55.131887,58.0933189 58.3047018,55 62.2,55 L62.2,55 L92.8,55 L93.0424944,55.0040068 C96.9066811,55.131887 100,58.3047018 100,62.2 L99.999,62.198 L100,62.2 L100,92.8 C99.9994563,96.7769939 96.7761149,100 92.8,100 L92.8,100 L62.2,100 Z M62.2,45 L61.9575056,44.9959932 C58.0933189,44.868113 55,41.6952982 55,37.8 L55,37.8 L55,7.2 L55.0040068,6.9575056 C55.131887,3.09331893 58.3047018,0 62.2,0 L62.2,0 L92.8,0 L93.0424944,0.00400675885 C96.9066811,0.131887039 100,3.30470185 100,7.2 L99.999,7.198 L100,7.2 L100,37.8 C99.9994563,41.7769939 96.7761149,45 92.8,45 L92.8,45 L62.2,45 Z M7.2,45 L6.9575056,44.9959932 C3.09331893,44.868113 -1.33226763e-14,41.6952982 -1.33226763e-14,37.8 L-1.33226763e-14,37.8 L-3.90798505e-14,7.2 L0.00400675885,6.9575056 C0.131887039,3.09331893 3.30470185,0 7.2,0 L7.2,0 L37.8,0 L38.0424944,0.00400675885 C41.9066811,0.131887039 45,3.30470185 45,7.2 L44.999,7.198 L45,7.2 L45,37.8 C44.9994563,41.7769939 41.7761149,45 37.8,45 L37.8,45 L7.2,45 Z" id="Colour" fill="#000000"></path>
    </g>
</svg>