<?xml version="1.0" encoding="UTF-8"?>
<svg width="100px" height="100px" viewBox="0 0 100 100" version="1.1" xmlns="http://www.w3.org/2000/svg" xmlns:xlink="http://www.w3.org/1999/xlink">
    <title>Hashtag</title>
    <g id="Hashtag" stroke="none" stroke-width="1" fill="none" fill-rule="evenodd">
        <path d="M99.5931922,53.2060552 C98.2088353,48.964175 93.5885876,46.7094055 89.3255162,48.0935774 L79.1917541,51.4644251 L72.4282315,31.3717547 L82.562211,28.0006896 C86.8252824,26.6165177 89.057471,22.0176142 87.6957229,17.7537734 C86.3122356,13.5118932 81.6915531,11.2569063 77.4282643,12.6412956 L67.2942848,16.0121433 L63.7901314,5.51952903 C62.4059919,1.27764884 57.7857442,-0.977120629 53.5224553,0.407051256 C49.2593839,1.79122314 47.0274127,6.39034405 48.3889434,10.6539674 L51.8933142,21.1467992 L31.0453514,28.1124496 L27.5407632,17.6196178 C26.1568411,13.3777377 21.536376,11.1229682 17.2728698,12.5071401 C13.009581,13.891312 10.7778272,18.4902154 12.1391405,22.7542737 L15.6437287,33.2471054 L5.53214061,36.5955577 C1.26906918,37.979947 -0.963336768,42.5788505 0.3981939,46.8431262 C1.51450557,50.0802532 4.66170012,52.2008672 7.89824309,52.3350227 C9.41607913,52.5581079 10.5767389,51.977782 20.777458,48.5843213 L27.5407632,68.6772091 L17.4067837,72.0480569 C13.1656689,73.4324462 10.9115237,78.0537452 12.2730544,82.2954079 C13.3891487,85.532535 16.5363432,87.6535838 19.7726688,87.7870871 C21.2907222,88.0106071 22.4515994,87.4298463 32.6523185,84.0368205 L36.1566893,94.5298697 C37.4738718,98.3029666 41.6702037,101.003472 46.4243653,99.6423475 C50.6874367,98.2579582 52.9196253,93.6586198 51.5580946,89.3949964 L48.0535064,78.9021647 L68.9462521,71.9141188 L72.4501882,82.4069505 C73.7673707,86.17983 77.96392,88.8814221 82.7178642,87.5192109 C86.9813704,86.1354739 89.213559,81.536353 87.8518109,77.2725121 L84.3478749,66.7796804 L94.4812022,63.4081804 C98.7227518,62.0692343 100.97668,57.4477179 99.5931922,53.2060552 L99.5931922,53.2060552 Z M42.8749942,63.7430256 L36.111689,43.6062165 L56.9820432,36.618388 L63.7449137,56.7554145 L42.8749942,63.7430256 L42.8749942,63.7430256 Z" id="Shadow" transform="translate(50.000000, 50.000000) scale(-1, 1) translate(-50.000000, -50.000000) "></path>
        <path d="M99.5931922,53.2060552 C98.2088353,48.964175 93.5885876,46.7094055 89.3255162,48.0935774 L79.1917541,51.4644251 L72.4282315,31.3717547 L82.562211,28.0006896 C86.8252824,26.6165177 89.057471,22.0176142 87.6957229,17.7537734 C86.3122356,13.5118932 81.6915531,11.2569063 77.4282643,12.6412956 L67.2942848,16.0121433 L63.7901314,5.51952903 C62.4059919,1.27764884 57.7857442,-0.977120629 53.5224553,0.407051256 C49.2593839,1.79122314 47.0274127,6.39034405 48.3889434,10.6539674 L51.8933142,21.1467992 L31.0453514,28.1124496 L27.5407632,17.6196178 C26.1568411,13.3777377 21.536376,11.1229682 17.2728698,12.5071401 C13.009581,13.891312 10.7778272,18.4902154 12.1391405,22.7542737 L15.6437287,33.2471054 L5.53214061,36.5955577 C1.26906918,37.979947 -0.963336768,42.5788505 0.3981939,46.8431262 C1.51450557,50.0802532 4.66170012,52.2008672 7.89824309,52.3350227 C9.41607913,52.5581079 10.5767389,51.977782 20.777458,48.5843213 L27.5407632,68.6772091 L17.4067837,72.0480569 C13.1656689,73.4324462 10.9115237,78.0537452 12.2730544,82.2954079 C13.3891487,85.532535 16.5363432,87.6535838 19.7726688,87.7870871 C21.2907222,88.0106071 22.4515994,87.4298463 32.6523185,84.0368205 L36.1566893,94.5298697 C37.4738718,98.3029666 41.6702037,101.003472 46.4243653,99.6423475 C50.6874367,98.2579582 52.9196253,93.6586198 51.5580946,89.3949964 L48.0535064,78.9021647 L68.9462521,71.9141188 L72.4501882,82.4069505 C73.7673707,86.17983 77.96392,88.8814221 82.7178642,87.5192109 C86.9813704,86.1354739 89.213559,81.536353 87.8518109,77.2725121 L84.3478749,66.7796804 L94.4812022,63.4081804 C98.7227518,62.0692343 100.97668,57.4477179 99.5931922,53.2060552 L99.5931922,53.2060552 Z M42.8749942,63.7430256 L36.111689,43.6062165 L56.9820432,36.618388 L63.7449137,56.7554145 L42.8749942,63.7430256 L42.8749942,63.7430256 Z" id="Colour" fill="#000000" transform="translate(50.000000, 50.000000) scale(-1, 1) translate(-50.000000, -50.000000) "></path>
    </g>
</svg>