<?xml version="1.0" encoding="UTF-8"?>
<svg width="100px" height="100px" viewBox="0 0 100 100" version="1.1" xmlns="http://www.w3.org/2000/svg" xmlns:xlink="http://www.w3.org/1999/xlink">
    <title>Help Circle</title>
    <g id="Help-Circle" stroke="none" stroke-width="1" fill="none" fill-rule="evenodd">
        <path d="M50,0 C77.6142375,0 100,22.3857625 100,50 C100,77.6142375 77.6142375,100 50,100 C22.3857625,100 0,77.6142375 0,50 C0,22.3857625 22.3857625,0 50,0 Z M48.5,68 C45.4556575,68 43,70.4171975 43,73.5 C43,76.5828025 45.4556575,79 48.5,79 C51.5443425,79 54,76.5828025 54,73.5 C54,70.4171975 51.5443425,68 48.5,68 Z M50,21 C38.2150777,21 31.4724604,27.6661152 31.0134609,36.6844593 L31,37 L42,37 C41.9927159,33.1061678 44.9583767,30.148635 50,30 C53.8911941,30.1455384 56.8914628,32.7195018 56.9972011,36.7413306 L57,37 C57.0187305,40.322548 55.4765869,42.2942366 50,45 C44.9188345,48.5247725 42.8626431,52.1132457 43,58 L43,60 L54,60 L54,58 C53.8158169,54.6370071 55.2788762,52.6653185 61,50 C66.0022621,46.4351343 68.8734443,42.3951582 68.9959143,36.4024248 L69,36 C69,27.2305359 61.4869927,21 50,21 Z" id="Shadow"></path>
        <path d="M50,0 C77.6142375,0 100,22.3857625 100,50 C100,77.6142375 77.6142375,100 50,100 C22.3857625,100 0,77.6142375 0,50 C0,22.3857625 22.3857625,0 50,0 Z M48.5,68 C45.4556575,68 43,70.4171975 43,73.5 C43,76.5828025 45.4556575,79 48.5,79 C51.5443425,79 54,76.5828025 54,73.5 C54,70.4171975 51.5443425,68 48.5,68 Z M50,21 C38.2150777,21 31.4724604,27.6661152 31.0134609,36.6844593 L31,37 L42,37 C41.9927159,33.1061678 44.9583767,30.148635 50,30 C53.8911941,30.1455384 56.8914628,32.7195018 56.9972011,36.7413306 L57,37 C57.0187305,40.322548 55.4765869,42.2942366 50,45 C44.9188345,48.5247725 42.8626431,52.1132457 43,58 L43,60 L54,60 L54,58 C53.8158169,54.6370071 55.2788762,52.6653185 61,50 C66.0022621,46.4351343 68.8734443,42.3951582 68.9959143,36.4024248 L69,36 C69,27.2305359 61.4869927,21 50,21 Z" id="Colour" fill="#000000"></path>
    </g>
</svg>