<?xml version="1.0" encoding="UTF-8"?>
<svg width="100px" height="100px" viewBox="0 0 100 100" version="1.1" xmlns="http://www.w3.org/2000/svg" xmlns:xlink="http://www.w3.org/1999/xlink">
    <title>Houses</title>
    <g id="Houses" stroke="none" stroke-width="1" fill="none" fill-rule="evenodd">
        <path d="M38.4721107,23 C41.4344119,23 43.9757765,24.2859576 46.0962046,26.8578729 L46.0962046,26.8578729 L73.5535959,57.67673 C79.585099,63.8705454 77.2262125,74.0810435 70.149553,74.0810435 C68.846776,74.0810435 67.7906665,75.1359809 67.7906665,76.4373122 L67.7906665,76.4373122 L67.7906665,92.1457707 C67.7906665,96.4835418 64.2703017,100 59.9277115,100 L59.9277115,100 L53.6373475,100 C49.2947574,100 45.7743925,96.4835418 45.7743925,92.1457707 L45.7743925,92.1457707 L45.7743925,76.4373122 C45.7743925,75.1359809 44.7182831,74.0810435 43.415506,74.0810435 L43.415506,74.0810435 L33.7537475,74.0810435 C32.4509705,74.0810435 31.394861,75.1359809 31.394861,76.4373122 L31.394861,76.4373122 L31.394861,92.1457707 C31.394861,96.4835418 27.8744962,100 23.531906,100 L23.531906,100 L17.241542,100 C12.8989519,100 9.37858704,96.4835418 9.37858704,92.1457707 L9.37858704,92.1457707 L9.37858704,76.4373122 C9.37858704,75.1359809 8.32247758,74.0810435 7.01970054,74.0810435 C-0.056958956,74.0810435 -2.80512375,63.4024539 3.61565769,57.67673 L3.61565769,57.67673 L30.88159,26.8741533 C32.979636,24.2913844 35.5098096,23 38.4721107,23 Z M71.9148936,0 C74.2943079,0 76.1795424,0.710831721 77.5705971,2.13249516 L77.7659574,2.34042553 L97.6595745,24.5744681 C101.846499,29.1932467 100.16158,36.4864596 95.3191489,36.2765957 C94.2434968,36.4741147 93.5119977,37.1532173 93.0601779,38.3804713 L92.9787234,38.6170213 L92.9787234,49.1489362 C93.4118324,52.4123508 91.0201281,54.8854018 88.4756111,54.9961276 L88.2978723,55 L83.6170213,55 C80.287961,55 77.8107529,52.6011175 77.7651723,49.3753141 L77.7659574,38.6170213 C77.7001101,37.3209884 77.0280113,36.5772673 76.6608012,36.3192904 L76.5957447,36.2765957 L69.5744681,36.2765957 C68.2490248,36.4759664 67.5019392,37.1659929 67.2669072,38.4151324 L67.2340426,38.6170213 L67.2334894,45.832 L47.8874894,23.962 L67.2340426,2.34042553 C68.5427641,0.862262038 70.0120096,0.0842812518 71.641779,0.00648317322 L71.9148936,0 Z" id="Shadow"></path>
        <path d="M38.4721107,23 C41.4344119,23 43.9757765,24.2859576 46.0962046,26.8578729 L46.0962046,26.8578729 L73.5535959,57.67673 C79.585099,63.8705454 77.2262125,74.0810435 70.149553,74.0810435 C68.846776,74.0810435 67.7906665,75.1359809 67.7906665,76.4373122 L67.7906665,76.4373122 L67.7906665,92.1457707 C67.7906665,96.4835418 64.2703017,100 59.9277115,100 L59.9277115,100 L53.6373475,100 C49.2947574,100 45.7743925,96.4835418 45.7743925,92.1457707 L45.7743925,92.1457707 L45.7743925,76.4373122 C45.7743925,75.1359809 44.7182831,74.0810435 43.415506,74.0810435 L43.415506,74.0810435 L33.7537475,74.0810435 C32.4509705,74.0810435 31.394861,75.1359809 31.394861,76.4373122 L31.394861,76.4373122 L31.394861,92.1457707 C31.394861,96.4835418 27.8744962,100 23.531906,100 L23.531906,100 L17.241542,100 C12.8989519,100 9.37858704,96.4835418 9.37858704,92.1457707 L9.37858704,92.1457707 L9.37858704,76.4373122 C9.37858704,75.1359809 8.32247758,74.0810435 7.01970054,74.0810435 C-0.056958956,74.0810435 -2.80512375,63.4024539 3.61565769,57.67673 L3.61565769,57.67673 L30.88159,26.8741533 C32.979636,24.2913844 35.5098096,23 38.4721107,23 Z M71.9148936,0 C74.2943079,0 76.1795424,0.710831721 77.5705971,2.13249516 L77.7659574,2.34042553 L97.6595745,24.5744681 C101.846499,29.1932467 100.16158,36.4864596 95.3191489,36.2765957 C94.2434968,36.4741147 93.5119977,37.1532173 93.0601779,38.3804713 L92.9787234,38.6170213 L92.9787234,49.1489362 C93.4118324,52.4123508 91.0201281,54.8854018 88.4756111,54.9961276 L88.2978723,55 L83.6170213,55 C80.287961,55 77.8107529,52.6011175 77.7651723,49.3753141 L77.7659574,38.6170213 C77.7001101,37.3209884 77.0280113,36.5772673 76.6608012,36.3192904 L76.5957447,36.2765957 L69.5744681,36.2765957 C68.2490248,36.4759664 67.5019392,37.1659929 67.2669072,38.4151324 L67.2340426,38.6170213 L67.2334894,45.832 L47.8874894,23.962 L67.2340426,2.34042553 C68.5427641,0.862262038 70.0120096,0.0842812518 71.641779,0.00648317322 L71.9148936,0 Z" id="Colour" fill="#000000"></path>
    </g>
</svg>