<?xml version="1.0" encoding="UTF-8"?>
<svg width="100px" height="100px" viewBox="0 0 100 100" version="1.1" xmlns="http://www.w3.org/2000/svg" xmlns:xlink="http://www.w3.org/1999/xlink">
    <title>Houses Circle</title>
    <g id="Houses-Circle" stroke="none" stroke-width="1" fill="none" fill-rule="evenodd">
        <path d="M50,100 C77.6142375,100 100,77.6142375 100,50 C100,22.3857625 77.6142375,0 50,0 C22.3857625,0 0,22.3857625 0,50 C0,77.6142375 22.3857625,100 50,100 Z M49.9888733,51.28 C51.170716,51.28 52.1846215,51.793047 53.0305897,52.819141 L53.0305897,52.819141 L63.985019,65.1146642 C66.3913538,67.5857553 65.45025,71.6593462 62.6269386,71.6593462 C62.1071813,71.6593462 61.6858347,72.0802251 61.6858347,72.5994056 L61.6858347,72.5994056 L61.6858347,78.8664685 C61.6858347,80.5970702 60.2813463,82 58.5488221,82 L58.5488221,82 L56.0392119,82 C54.3066876,82 52.9021992,80.5970702 52.9021992,78.8664685 L52.9021992,78.8664685 L52.9021992,72.5994056 C52.9021992,72.0802251 52.4808527,71.6593462 51.9610954,71.6593462 L51.9610954,71.6593462 L48.1064302,71.6593462 C47.5866729,71.6593462 47.1653264,72.0802251 47.1653264,72.5994056 L47.1653264,72.5994056 L47.1653264,78.8664685 C47.1653264,80.5970702 45.7608379,82 44.0283137,82 L44.0283137,82 L41.5187035,82 C39.7861793,82 38.3816908,80.5970702 38.3816908,78.8664685 L38.3816908,78.8664685 L38.3816908,72.5994056 C38.3816908,72.0802251 37.9603443,71.6593462 37.440587,71.6593462 C34.6172756,71.6593462 33.5208649,67.399005 36.0825065,65.1146642 L36.0825065,65.1146642 L46.9605512,52.8256362 C47.7975898,51.7952121 48.8070305,51.28 49.9888733,51.28 Z M33.3488733,18 C34.530716,18 35.5446215,18.513047 36.3905897,19.539141 L36.3905897,19.539141 L47.345019,31.8346642 C49.7513538,34.3057553 48.81025,38.3793462 45.9869386,38.3793462 C45.4671813,38.3793462 45.0458347,38.8002251 45.0458347,39.3194056 L45.0458347,39.3194056 L45.0458347,45.5864685 C45.0458347,47.3170702 43.6413463,48.72 41.9088221,48.72 L41.9088221,48.72 L39.3992119,48.72 C37.6666876,48.72 36.2621992,47.3170702 36.2621992,45.5864685 L36.2621992,45.5864685 L36.2621992,39.3194056 C36.2621992,38.8002251 35.8408527,38.3793462 35.3210954,38.3793462 L35.3210954,38.3793462 L31.4664302,38.3793462 C30.9466729,38.3793462 30.5253264,38.8002251 30.5253264,39.3194056 L30.5253264,39.3194056 L30.5253264,45.5864685 C30.5253264,47.3170702 29.1208379,48.72 27.3883137,48.72 L27.3883137,48.72 L24.8787035,48.72 C23.1461793,48.72 21.7416908,47.3170702 21.7416908,45.5864685 L21.7416908,45.5864685 L21.7416908,39.3194056 C21.7416908,38.8002251 21.3203443,38.3793462 20.800587,38.3793462 C17.9772756,38.3793462 16.8808649,34.119005 19.4425065,31.8346642 L19.4425065,31.8346642 L30.3205512,19.5456362 C31.1575898,18.5152121 32.1670305,18 33.3488733,18 Z M66.6288733,18 C67.810716,18 68.8246215,18.513047 69.6705897,19.539141 L69.6705897,19.539141 L80.625019,31.8346642 C83.0313538,34.3057553 82.09025,38.3793462 79.2669386,38.3793462 C78.7471813,38.3793462 78.3258347,38.8002251 78.3258347,39.3194056 L78.3258347,39.3194056 L78.3258347,45.5864685 C78.3258347,47.3170702 76.9213463,48.72 75.1888221,48.72 L75.1888221,48.72 L72.6792119,48.72 C70.9466876,48.72 69.5421992,47.3170702 69.5421992,45.5864685 L69.5421992,45.5864685 L69.5421992,39.3194056 C69.5421992,38.8002251 69.1208527,38.3793462 68.6010954,38.3793462 L68.6010954,38.3793462 L64.7464302,38.3793462 C64.2266729,38.3793462 63.8053264,38.8002251 63.8053264,39.3194056 L63.8053264,39.3194056 L63.8053264,45.5864685 C63.8053264,47.3170702 62.4008379,48.72 60.6683137,48.72 L60.6683137,48.72 L58.1587035,48.72 C56.4261793,48.72 55.0216908,47.3170702 55.0216908,45.5864685 L55.0216908,45.5864685 L55.0216908,39.3194056 C55.0216908,38.8002251 54.6003443,38.3793462 54.080587,38.3793462 C51.2572756,38.3793462 50.1608649,34.119005 52.7225065,31.8346642 L52.7225065,31.8346642 L63.6005512,19.5456362 C64.4375898,18.5152121 65.4470305,18 66.6288733,18 Z" id="Shadow" fill="#000000"></path>
        <path d="M50,100 C77.6142375,100 100,77.6142375 100,50 C100,22.3857625 77.6142375,0 50,0 C22.3857625,0 0,22.3857625 0,50 C0,77.6142375 22.3857625,100 50,100 Z M49.9888733,51.28 C51.170716,51.28 52.1846215,51.793047 53.0305897,52.819141 L53.0305897,52.819141 L63.985019,65.1146642 C66.3913538,67.5857553 65.45025,71.6593462 62.6269386,71.6593462 C62.1071813,71.6593462 61.6858347,72.0802251 61.6858347,72.5994056 L61.6858347,72.5994056 L61.6858347,78.8664685 C61.6858347,80.5970702 60.2813463,82 58.5488221,82 L58.5488221,82 L56.0392119,82 C54.3066876,82 52.9021992,80.5970702 52.9021992,78.8664685 L52.9021992,78.8664685 L52.9021992,72.5994056 C52.9021992,72.0802251 52.4808527,71.6593462 51.9610954,71.6593462 L51.9610954,71.6593462 L48.1064302,71.6593462 C47.5866729,71.6593462 47.1653264,72.0802251 47.1653264,72.5994056 L47.1653264,72.5994056 L47.1653264,78.8664685 C47.1653264,80.5970702 45.7608379,82 44.0283137,82 L44.0283137,82 L41.5187035,82 C39.7861793,82 38.3816908,80.5970702 38.3816908,78.8664685 L38.3816908,78.8664685 L38.3816908,72.5994056 C38.3816908,72.0802251 37.9603443,71.6593462 37.440587,71.6593462 C34.6172756,71.6593462 33.5208649,67.399005 36.0825065,65.1146642 L36.0825065,65.1146642 L46.9605512,52.8256362 C47.7975898,51.7952121 48.8070305,51.28 49.9888733,51.28 Z M33.3488733,18 C34.530716,18 35.5446215,18.513047 36.3905897,19.539141 L36.3905897,19.539141 L47.345019,31.8346642 C49.7513538,34.3057553 48.81025,38.3793462 45.9869386,38.3793462 C45.4671813,38.3793462 45.0458347,38.8002251 45.0458347,39.3194056 L45.0458347,39.3194056 L45.0458347,45.5864685 C45.0458347,47.3170702 43.6413463,48.72 41.9088221,48.72 L41.9088221,48.72 L39.3992119,48.72 C37.6666876,48.72 36.2621992,47.3170702 36.2621992,45.5864685 L36.2621992,45.5864685 L36.2621992,39.3194056 C36.2621992,38.8002251 35.8408527,38.3793462 35.3210954,38.3793462 L35.3210954,38.3793462 L31.4664302,38.3793462 C30.9466729,38.3793462 30.5253264,38.8002251 30.5253264,39.3194056 L30.5253264,39.3194056 L30.5253264,45.5864685 C30.5253264,47.3170702 29.1208379,48.72 27.3883137,48.72 L27.3883137,48.72 L24.8787035,48.72 C23.1461793,48.72 21.7416908,47.3170702 21.7416908,45.5864685 L21.7416908,45.5864685 L21.7416908,39.3194056 C21.7416908,38.8002251 21.3203443,38.3793462 20.800587,38.3793462 C17.9772756,38.3793462 16.8808649,34.119005 19.4425065,31.8346642 L19.4425065,31.8346642 L30.3205512,19.5456362 C31.1575898,18.5152121 32.1670305,18 33.3488733,18 Z M66.6288733,18 C67.810716,18 68.8246215,18.513047 69.6705897,19.539141 L69.6705897,19.539141 L80.625019,31.8346642 C83.0313538,34.3057553 82.09025,38.3793462 79.2669386,38.3793462 C78.7471813,38.3793462 78.3258347,38.8002251 78.3258347,39.3194056 L78.3258347,39.3194056 L78.3258347,45.5864685 C78.3258347,47.3170702 76.9213463,48.72 75.1888221,48.72 L75.1888221,48.72 L72.6792119,48.72 C70.9466876,48.72 69.5421992,47.3170702 69.5421992,45.5864685 L69.5421992,45.5864685 L69.5421992,39.3194056 C69.5421992,38.8002251 69.1208527,38.3793462 68.6010954,38.3793462 L68.6010954,38.3793462 L64.7464302,38.3793462 C64.2266729,38.3793462 63.8053264,38.8002251 63.8053264,39.3194056 L63.8053264,39.3194056 L63.8053264,45.5864685 C63.8053264,47.3170702 62.4008379,48.72 60.6683137,48.72 L60.6683137,48.72 L58.1587035,48.72 C56.4261793,48.72 55.0216908,47.3170702 55.0216908,45.5864685 L55.0216908,45.5864685 L55.0216908,39.3194056 C55.0216908,38.8002251 54.6003443,38.3793462 54.080587,38.3793462 C51.2572756,38.3793462 50.1608649,34.119005 52.7225065,31.8346642 L52.7225065,31.8346642 L63.6005512,19.5456362 C64.4375898,18.5152121 65.4470305,18 66.6288733,18 Z" id="Colour" fill="#000000"></path>
    </g>
</svg>