<?xml version="1.0" encoding="UTF-8"?>
<svg width="100px" height="100px" viewBox="0 0 100 100" version="1.1" xmlns="http://www.w3.org/2000/svg" xmlns:xlink="http://www.w3.org/1999/xlink">
    <title>House Circle</title>
    <g id="House-Circle" stroke="none" stroke-width="1" fill="none" fill-rule="evenodd">
        <path d="M50,100 C77.6142375,100 100,77.6142375 100,50 C100,22.3857625 77.6142375,0 50,0 C22.3857625,0 0,22.3857625 0,50 C0,77.6142375 22.3857625,100 50,100 Z M49.9826145,26 C51.8292438,26 53.4134711,26.8016359 54.7352964,28.4049078 L54.7352964,28.4049078 L71.8515922,47.6166629 C75.6114903,51.4777426 74.1410156,57.8427284 69.7295915,57.8427284 C68.9174707,57.8427284 68.2591168,58.5003517 68.2591168,59.3115713 L68.2591168,59.3115713 L68.2591168,69.1038571 C68.2591168,71.8079222 66.0646036,74 63.3575345,74 L63.3575345,74 L59.4362686,74 C56.7291994,74 54.5346863,71.8079222 54.5346863,69.1038571 L54.5346863,69.1038571 L54.5346863,59.3115713 C54.5346863,58.5003517 53.8763323,57.8427284 53.0642116,57.8427284 L53.0642116,57.8427284 L47.0412972,57.8427284 C46.2291764,57.8427284 45.5708225,58.5003517 45.5708225,59.3115713 L45.5708225,59.3115713 L45.5708225,69.1038571 C45.5708225,71.8079222 43.3763093,74 40.6692401,74 L40.6692401,74 L36.7479743,74 C34.0409051,74 31.8463919,71.8079222 31.8463919,69.1038571 L31.8463919,69.1038571 L31.8463919,59.3115713 C31.8463919,58.5003517 31.188038,57.8427284 30.3759172,57.8427284 C25.9644931,57.8427284 24.2513514,51.1859453 28.2539165,47.6166629 L28.2539165,47.6166629 L45.2508613,28.4150566 C46.5587341,26.8050189 48.1359852,26 49.9826145,26 Z" id="Shadow" fill="#000000"></path>
        <path d="M50,100 C77.6142375,100 100,77.6142375 100,50 C100,22.3857625 77.6142375,0 50,0 C22.3857625,0 0,22.3857625 0,50 C0,77.6142375 22.3857625,100 50,100 Z M49.9826145,26 C51.8292438,26 53.4134711,26.8016359 54.7352964,28.4049078 L54.7352964,28.4049078 L71.8515922,47.6166629 C75.6114903,51.4777426 74.1410156,57.8427284 69.7295915,57.8427284 C68.9174707,57.8427284 68.2591168,58.5003517 68.2591168,59.3115713 L68.2591168,59.3115713 L68.2591168,69.1038571 C68.2591168,71.8079222 66.0646036,74 63.3575345,74 L63.3575345,74 L59.4362686,74 C56.7291994,74 54.5346863,71.8079222 54.5346863,69.1038571 L54.5346863,69.1038571 L54.5346863,59.3115713 C54.5346863,58.5003517 53.8763323,57.8427284 53.0642116,57.8427284 L53.0642116,57.8427284 L47.0412972,57.8427284 C46.2291764,57.8427284 45.5708225,58.5003517 45.5708225,59.3115713 L45.5708225,59.3115713 L45.5708225,69.1038571 C45.5708225,71.8079222 43.3763093,74 40.6692401,74 L40.6692401,74 L36.7479743,74 C34.0409051,74 31.8463919,71.8079222 31.8463919,69.1038571 L31.8463919,69.1038571 L31.8463919,59.3115713 C31.8463919,58.5003517 31.188038,57.8427284 30.3759172,57.8427284 C25.9644931,57.8427284 24.2513514,51.1859453 28.2539165,47.6166629 L28.2539165,47.6166629 L45.2508613,28.4150566 C46.5587341,26.8050189 48.1359852,26 49.9826145,26 Z" id="Colour" fill="#000000"></path>
    </g>
</svg>