<?xml version="1.0" encoding="UTF-8"?>
<svg width="100px" height="100px" viewBox="0 0 100 100" version="1.1" xmlns="http://www.w3.org/2000/svg" xmlns:xlink="http://www.w3.org/1999/xlink">
    <title>House Border</title>
    <g id="House-Border" stroke="none" stroke-width="1" fill="none" fill-rule="evenodd">
        <path d="M48.3259609,99.9379577 C45.5538981,99.5478193 43.2722002,98.3373898 41.1105917,96.1166019 C40.6602566,95.6564386 32.3140459,86.2631059 22.5567852,75.2291911 C12.7995245,64.1952763 4.37325428,54.7219152 3.8428596,54.1617164 C1.95145214,52.1910172 0.810603196,50.0302506 0.220163831,47.2892781 C0.0400297874,46.4589835 -8.52651283e-14,45.938799 -8.52651283e-14,44.518295 C-8.52651283e-14,42.9877519 0.0300223406,42.6276242 0.260193618,41.6672834 C0.770573408,39.5065168 1.63121384,37.7859063 2.89215214,36.4354272 C4.48333619,34.7248203 6.18460216,33.9045292 8.54635962,33.7144618 C9.17682877,33.6644441 9.86734261,33.5644086 10.0674915,33.4943837 C10.6078937,33.3043163 11.2583777,32.8041388 11.5886235,32.333972 C12.1590479,31.4936739 12.1490405,31.8137874 12.1490405,20.0496135 C12.1490405,10.5962595 12.1690554,9.12573779 12.3091596,8.39547869 C13.1197628,4.11395962 16.4922724,0.812788375 20.7454373,0.142550577 C21.5560405,0.0125044365 22.596815,-0.00750266192 26.9100246,0.032511535 C32.7143438,0.0725257319 32.6142693,0.0625221827 34.4456321,0.812788375 C37.0475683,1.87316459 39.2492066,4.20399156 40.1899066,6.90494986 C40.7203013,8.44549644 40.7002864,7.89530123 40.7603311,20.1096348 C40.8303832,32.8841672 40.7503236,31.7737732 41.6209715,32.7041033 C41.8811651,32.9741992 42.3114853,33.2943127 42.6017013,33.4243589 L43.1220885,33.6644441 L50.0772641,33.6644441 L57.0324397,33.6644441 L57.5828492,33.4043518 C58.2133184,33.1042453 58.8037578,32.5440465 59.1139886,31.9638407 L59.3341524,31.5636987 L59.3941971,20.2596881 C59.4542418,7.98533317 59.4342269,8.50551773 60.0246663,6.81491791 C61.2555822,3.29366858 64.5180099,0.62272094 68.2307727,0.112539929 C69.2715472,-0.0375133096 78.2182047,-0.0375133096 79.2589791,0.112539929 C82.0910866,0.502678349 84.7630749,2.20328172 86.354259,4.61413708 C86.9446983,5.50445296 87.3149739,6.31474045 87.675242,7.47515216 L87.9554505,8.3554645 L88.0054877,19.8095284 L88.0555249,31.2635922 L88.3157186,31.823791 C88.9061579,33.0742346 89.7467835,33.5644086 91.5681388,33.7144618 C93.5896431,33.8745186 94.9906856,34.4147102 96.3817207,35.5351078 C98.7735005,37.4757963 100.164536,41.0470634 99.9844016,44.7683837 C99.8242824,48.0195372 98.7234633,51.020602 96.8020335,53.4914786 C96.3116686,54.1217022 60.9753737,93.8157856 59.2240705,95.7064564 C57.2025663,97.8872301 55.0709801,99.1876915 52.6091482,99.7378867 C51.6084035,99.9679684 49.2766683,100.078007 48.3259609,99.9379577 Z M51.0579939,92.2852425 C51.7685226,92.1151822 52.5591109,91.7450509 53.0995131,91.3148983 C53.7199748,90.8247244 90.026992,49.0799134 90.3772526,48.4396863 C91.2078707,46.9491574 91.2178781,45.1485186 90.3872601,43.5979684 C89.7768058,42.4575638 88.3457409,41.4071912 87.0247579,41.1270918 C86.734542,41.0670705 85.8438792,41.0170527 85.0432834,41.0170527 C82.3312653,41.0170527 81.070327,40.3968327 80.5299249,38.7862613 C80.3597983,38.3060909 80.3497909,37.3257431 80.2997536,24.7612852 C80.2497164,11.9367351 80.2397089,11.2364867 80.0595749,10.7663199 C79.5592026,9.42584426 78.6185025,8.54553193 77.2775047,8.15539351 C76.7871398,8.01534382 76.2567451,7.99533672 73.6247866,8.02534737 C70.8527238,8.05535802 70.4924557,8.08536867 70.0621355,8.255429 C69.0713982,8.65557097 68.0906684,9.6359188 67.7203929,10.6062631 C67.5502663,11.0264121 67.5402589,11.9467387 67.4802142,23.1607174 C67.430177,35.0049196 67.4201695,35.285019 67.2200206,36.2153491 C66.8097153,38.0459986 66.3493727,39.0463535 65.5888067,39.7566055 C64.9783525,40.3268078 64.4879876,40.5768966 63.467228,40.8169818 C62.6666323,41.0070492 62.2563269,41.0170527 50.0772641,41.0170527 C37.8982013,41.0170527 37.4878959,41.0070492 36.6873002,40.8169818 C35.6665406,40.5768966 35.1761757,40.3268078 34.5657215,39.7566055 C33.8051555,39.0463535 33.3448129,38.0459986 32.9345076,36.2153491 C32.7343587,35.285019 32.7243512,35.0049196 32.674314,23.1607174 C32.6142693,11.9467387 32.6042619,11.0264121 32.4341353,10.6062631 C32.0638597,9.6359188 31.08313,8.65557097 30.0923927,8.255429 C29.6620725,8.08536867 29.3018044,8.05535802 26.559764,8.02534737 C23.917798,7.99533672 23.4174257,8.01534382 22.8770235,8.16539706 C21.6361001,8.49551418 20.5853182,9.45585491 20.1249756,10.6762879 L19.9048118,11.2564938 L19.8547746,24.7612852 L19.8047373,38.2660767 L19.5745661,38.8662897 C18.9741193,40.4768611 17.8232629,41.0170527 15.0111703,41.0170527 C13.2598671,41.0170527 12.6694277,41.1070847 11.7687575,41.5372373 C9.20685111,42.7376632 8.18609153,45.9588061 9.57712665,48.4396863 C9.92738729,49.0799134 46.2344045,90.8247244 46.8548662,91.3148983 C48.0457524,92.2552319 49.6369364,92.6153597 51.0579939,92.2852425 Z" id="Shadow" transform="translate(50.000000, 50.000000) rotate(-180.000000) translate(-50.000000, -50.000000) "></path>
        <path d="M48.3259609,99.9379577 C45.5538981,99.5478193 43.2722002,98.3373898 41.1105917,96.1166019 C40.6602566,95.6564386 32.3140459,86.2631059 22.5567852,75.2291911 C12.7995245,64.1952763 4.37325428,54.7219152 3.8428596,54.1617164 C1.95145214,52.1910172 0.810603196,50.0302506 0.220163831,47.2892781 C0.0400297874,46.4589835 -4.26325641e-14,45.938799 -4.26325641e-14,44.518295 C-4.26325641e-14,42.9877519 0.0300223406,42.6276242 0.260193618,41.6672834 C0.770573408,39.5065168 1.63121384,37.7859063 2.89215214,36.4354272 C4.48333619,34.7248203 6.18460216,33.9045292 8.54635962,33.7144618 C9.17682877,33.6644441 9.86734261,33.5644086 10.0674915,33.4943837 C10.6078937,33.3043163 11.2583777,32.8041388 11.5886235,32.333972 C12.1590479,31.4936739 12.1490405,31.8137874 12.1490405,20.0496135 C12.1490405,10.5962595 12.1690554,9.12573779 12.3091596,8.39547869 C13.1197628,4.11395962 16.4922724,0.812788375 20.7454373,0.142550577 C21.5560405,0.0125044365 22.596815,-0.00750266192 26.9100246,0.032511535 C32.7143438,0.0725257319 32.6142693,0.0625221827 34.4456321,0.812788375 C37.0475683,1.87316459 39.2492066,4.20399156 40.1899066,6.90494986 C40.7203013,8.44549644 40.7002864,7.89530123 40.7603311,20.1096348 C40.8303832,32.8841672 40.7503236,31.7737732 41.6209715,32.7041033 C41.8811651,32.9741992 42.3114853,33.2943127 42.6017013,33.4243589 L43.1220885,33.6644441 L50.0772641,33.6644441 L57.0324397,33.6644441 L57.5828492,33.4043518 C58.2133184,33.1042453 58.8037578,32.5440465 59.1139886,31.9638407 L59.3341524,31.5636987 L59.3941971,20.2596881 C59.4542418,7.98533317 59.4342269,8.50551773 60.0246663,6.81491791 C61.2555822,3.29366858 64.5180099,0.62272094 68.2307727,0.112539929 C69.2715472,-0.0375133096 78.2182047,-0.0375133096 79.2589791,0.112539929 C82.0910866,0.502678349 84.7630749,2.20328172 86.354259,4.61413708 C86.9446983,5.50445296 87.3149739,6.31474045 87.675242,7.47515216 L87.9554505,8.3554645 L88.0054877,19.8095284 L88.0555249,31.2635922 L88.3157186,31.823791 C88.9061579,33.0742346 89.7467835,33.5644086 91.5681388,33.7144618 C93.5896431,33.8745186 94.9906856,34.4147102 96.3817207,35.5351078 C98.7735005,37.4757963 100.164536,41.0470634 99.9844016,44.7683837 C99.8242824,48.0195372 98.7234633,51.020602 96.8020335,53.4914786 C96.3116686,54.1217022 60.9753737,93.8157856 59.2240705,95.7064564 C57.2025663,97.8872301 55.0709801,99.1876915 52.6091482,99.7378867 C51.6084035,99.9679684 49.2766683,100.078007 48.3259609,99.9379577 Z M51.0579939,92.2852425 C51.7685226,92.1151822 52.5591109,91.7450509 53.0995131,91.3148983 C53.7199748,90.8247244 90.026992,49.0799134 90.3772526,48.4396863 C91.2078707,46.9491574 91.2178781,45.1485186 90.3872601,43.5979684 C89.7768058,42.4575638 88.3457409,41.4071912 87.0247579,41.1270918 C86.734542,41.0670705 85.8438792,41.0170527 85.0432834,41.0170527 C82.3312653,41.0170527 81.070327,40.3968327 80.5299249,38.7862613 C80.3597983,38.3060909 80.3497909,37.3257431 80.2997536,24.7612852 C80.2497164,11.9367351 80.2397089,11.2364867 80.0595749,10.7663199 C79.5592026,9.42584426 78.6185025,8.54553193 77.2775047,8.15539351 C76.7871398,8.01534382 76.2567451,7.99533672 73.6247866,8.02534737 C70.8527238,8.05535802 70.4924557,8.08536867 70.0621355,8.255429 C69.0713982,8.65557097 68.0906684,9.6359188 67.7203929,10.6062631 C67.5502663,11.0264121 67.5402589,11.9467387 67.4802142,23.1607174 C67.430177,35.0049196 67.4201695,35.285019 67.2200206,36.2153491 C66.8097153,38.0459986 66.3493727,39.0463535 65.5888067,39.7566055 C64.9783525,40.3268078 64.4879876,40.5768966 63.467228,40.8169818 C62.6666323,41.0070492 62.2563269,41.0170527 50.0772641,41.0170527 C37.8982013,41.0170527 37.4878959,41.0070492 36.6873002,40.8169818 C35.6665406,40.5768966 35.1761757,40.3268078 34.5657215,39.7566055 C33.8051555,39.0463535 33.3448129,38.0459986 32.9345076,36.2153491 C32.7343587,35.285019 32.7243512,35.0049196 32.674314,23.1607174 C32.6142693,11.9467387 32.6042619,11.0264121 32.4341353,10.6062631 C32.0638597,9.6359188 31.08313,8.65557097 30.0923927,8.255429 C29.6620725,8.08536867 29.3018044,8.05535802 26.559764,8.02534737 C23.917798,7.99533672 23.4174257,8.01534382 22.8770235,8.16539706 C21.6361001,8.49551418 20.5853182,9.45585491 20.1249756,10.6762879 L19.9048118,11.2564938 L19.8547746,24.7612852 L19.8047373,38.2660767 L19.5745661,38.8662897 C18.9741193,40.4768611 17.8232629,41.0170527 15.0111703,41.0170527 C13.2598671,41.0170527 12.6694277,41.1070847 11.7687575,41.5372373 C9.20685111,42.7376632 8.18609153,45.9588061 9.57712665,48.4396863 C9.92738729,49.0799134 46.2344045,90.8247244 46.8548662,91.3148983 C48.0457524,92.2552319 49.6369364,92.6153597 51.0579939,92.2852425 Z" id="Colour" fill="#000000" transform="translate(50.000000, 50.000000) rotate(-180.000000) translate(-50.000000, -50.000000) "></path>
    </g>
</svg>