<?xml version="1.0" encoding="UTF-8"?>
<svg width="100px" height="100px" viewBox="0 0 100 100" version="1.1" xmlns="http://www.w3.org/2000/svg" xmlns:xlink="http://www.w3.org/1999/xlink">
    <title>House</title>
    <g id="House" stroke="none" stroke-width="1" fill="none" fill-rule="evenodd">
        <path d="M4.69565933,45.0347143 C-3.64301786,52.4707194 -0.0739726701,66.3390175 9.11649421,66.3390175 C10.8084124,66.3390175 12.1799832,67.7090661 12.1799832,69.3991068 L12.1799832,89.7997023 C12.1799832,95.4331711 16.7518856,100 22.391613,100 L30.5609169,100 C36.2006444,100 40.7725468,95.4331711 40.7725468,89.7997023 L40.7725468,69.3991068 C40.7725468,67.7090661 42.1441175,66.3390175 43.8360357,66.3390175 L56.3837741,66.3390175 C58.0756923,66.3390175 59.447263,67.7090661 59.447263,69.3991068 L59.447263,89.7997023 C59.447263,95.4331711 64.0191654,100 69.6588929,100 L77.8281968,100 C83.4679242,100 88.0398266,95.4331711 88.0398266,89.7997023 L88.0398266,69.3991068 C88.0398266,67.7090661 89.4113974,66.3390175 91.1033156,66.3390175 C100.293782,66.3390175 103.357271,53.0786304 95.5241505,45.0347143 L59.8652008,5.01022453 C57.1113981,1.67007484 53.8109246,0 49.9637802,0 C46.1166358,0 42.8306961,1.67712263 40.105961,5.03136788 L4.69565933,45.0347143 Z" id="Shadow"></path>
        <path d="M4.69565933,45.0347143 C-3.64301786,52.4707194 -0.0739726701,66.3390175 9.11649421,66.3390175 C10.8084124,66.3390175 12.1799832,67.7090661 12.1799832,69.3991068 L12.1799832,89.7997023 C12.1799832,95.4331711 16.7518856,100 22.391613,100 L30.5609169,100 C36.2006444,100 40.7725468,95.4331711 40.7725468,89.7997023 L40.7725468,69.3991068 C40.7725468,67.7090661 42.1441175,66.3390175 43.8360357,66.3390175 L56.3837741,66.3390175 C58.0756923,66.3390175 59.447263,67.7090661 59.447263,69.3991068 L59.447263,89.7997023 C59.447263,95.4331711 64.0191654,100 69.6588929,100 L77.8281968,100 C83.4679242,100 88.0398266,95.4331711 88.0398266,89.7997023 L88.0398266,69.3991068 C88.0398266,67.7090661 89.4113974,66.3390175 91.1033156,66.3390175 C100.293782,66.3390175 103.357271,53.0786304 95.5241505,45.0347143 L59.8652008,5.01022453 C57.1113981,1.67007484 53.8109246,0 49.9637802,0 C46.1166358,0 42.8306961,1.67712263 40.105961,5.03136788 L4.69565933,45.0347143 Z" id="Colour" fill="#000000"></path>
    </g>
</svg>