<?xml version="1.0" encoding="UTF-8"?>
<svg width="100px" height="100px" viewBox="0 0 100 100" version="1.1" xmlns="http://www.w3.org/2000/svg" xmlns:xlink="http://www.w3.org/1999/xlink">
    <title>Image</title>
    <g id="Image" stroke="none" stroke-width="1" fill="none" fill-rule="evenodd">
        <path d="M5.95238095,92.7142857 L5.72922791,92.7101801 C2.54521318,92.5928291 0,89.9746001 0,86.7619048 C0,85.4106775 0.450237693,84.1646089 1.20887488,83.1655372 L32.7786536,38.3223003 C33.8360214,36.6681229 35.6887469,35.5714286 37.797619,35.5714286 C39.901848,35.5714286 41.751057,36.6632989 42.8095887,38.3113821 L64.013,67.874 L71.1456397,57.4107571 C71.2273153,57.2806668 71.3138833,57.1539597 71.4050858,57.0308937 L71.4253136,57.0024153 C72.5124277,55.5551324 74.2421348,54.6190476 76.1904762,54.6190476 C78.3390269,54.6190476 80.2217014,55.7573989 81.2682766,57.4638782 L98.8018472,83.179701 C99.5540027,84.1763746 100,85.4170555 100,86.7619048 C100,89.9746001 97.4547868,92.5928291 94.2707721,92.7101801 L94.047619,92.7142857 L5.95238095,92.7142857 Z M76.1904762,35.5714286 C84.0802583,35.5714286 90.4761905,29.1754964 90.4761905,21.2857143 C90.4761905,13.3959321 84.0802583,7 76.1904762,7 C68.3006941,7 61.9047619,13.3959321 61.9047619,21.2857143 C61.9047619,29.1754964 68.3006941,35.5714286 76.1904762,35.5714286 Z" id="Shadow"></path>
        <path d="M5.95238095,92.7142857 L5.72922791,92.7101801 C2.54521318,92.5928291 3.55271368e-14,89.9746001 3.55271368e-14,86.7619048 C3.55271368e-14,85.4106775 0.450237693,84.1646089 1.20887488,83.1655372 L32.7786536,38.3223003 C33.8360214,36.6681229 35.6887469,35.5714286 37.797619,35.5714286 C39.901848,35.5714286 41.751057,36.6632989 42.8095887,38.3113821 L64.013,67.874 L71.1456397,57.4107571 C71.2273153,57.2806668 71.3138833,57.1539597 71.4050858,57.0308937 L71.4253136,57.0024153 C72.5124277,55.5551324 74.2421348,54.6190476 76.1904762,54.6190476 C78.3390269,54.6190476 80.2217014,55.7573989 81.2682766,57.4638782 L98.8018472,83.179701 C99.5540027,84.1763746 100,85.4170555 100,86.7619048 C100,89.9746001 97.4547868,92.5928291 94.2707721,92.7101801 L94.047619,92.7142857 L5.95238095,92.7142857 Z M76.1904762,35.5714286 C84.0802583,35.5714286 90.4761905,29.1754964 90.4761905,21.2857143 C90.4761905,13.3959321 84.0802583,7 76.1904762,7 C68.3006941,7 61.9047619,13.3959321 61.9047619,21.2857143 C61.9047619,29.1754964 68.3006941,35.5714286 76.1904762,35.5714286 Z" id="Colour" fill="#000000"></path>
    </g>
</svg>