<?xml version="1.0" encoding="UTF-8"?>
<svg width="100px" height="100px" viewBox="0 0 100 100" version="1.1" xmlns="http://www.w3.org/2000/svg" xmlns:xlink="http://www.w3.org/1999/xlink">
    <title>Information</title>
    <g id="Information" stroke="none" stroke-width="1" fill="none" fill-rule="evenodd">
        <path d="M50,30 C55.5228475,30 60,34.4771525 60,40 L60,40 L60,92 L59.7997646,92.0009807 C58.8728451,96.5649727 54.8375693,100 50,100 C45.1624307,100 41.1271549,96.5649727 40.2002354,92.0009807 L40,92 L40,40 L40.0038418,39.7200952 C40.1520683,34.3266708 44.5707601,30 50,30 Z M50,20 C55.5228475,20 60,15.5228475 60,10 C60,4.4771525 55.5228475,0 50,0 C44.4771525,0 40,4.4771525 40,10 C40,15.5228475 44.4771525,20 50,20 Z" id="Shadow"></path>
        <path d="M50,30 C55.5228475,30 60,34.4771525 60,40 L60,40 L60,92 L59.7997646,92.0009807 C58.8728451,96.5649727 54.8375693,100 50,100 C45.1624307,100 41.1271549,96.5649727 40.2002354,92.0009807 L40,92 L40,40 L40.0038418,39.7200952 C40.1520683,34.3266708 44.5707601,30 50,30 Z M50,20 C55.5228475,20 60,15.5228475 60,10 C60,4.4771525 55.5228475,0 50,0 C44.4771525,0 40,4.4771525 40,10 C40,15.5228475 44.4771525,20 50,20 Z" id="Colour" fill="#000000"></path>
    </g>
</svg>