<?xml version="1.0" encoding="UTF-8"?>
<svg width="100px" height="100px" viewBox="0 0 100 100" version="1.1" xmlns="http://www.w3.org/2000/svg" xmlns:xlink="http://www.w3.org/1999/xlink">
    <title>Information Circle</title>
    <g id="Information-Circle" stroke="none" stroke-width="1" fill="none" fill-rule="evenodd">
        <path d="M50,0 C77.6142375,0 100,22.3857625 100,50 C100,77.6142375 77.6142375,100 50,100 C22.3857625,100 0,77.6142375 0,50 C0,22.3857625 22.3857625,0 50,0 Z M50,38 C46.7616031,38 44.1224282,40.5655749 44.0041385,43.7750617 L44.0041385,43.7750617 L44,44 L44,75 L44.0830939,75.0008069 C44.5595044,77.8381232 47.0272855,80 50,80 C52.9727145,80 55.4404956,77.8381232 55.9169061,75.0008069 L55.9169061,75.0008069 L56,75 L56,44 L55.9958615,43.7750617 C55.8775718,40.5655749 53.2383969,38 50,38 Z M50,20 C46.6862915,20 44,22.6862915 44,26 C44,29.3137085 46.6862915,32 50,32 C53.3137085,32 56,29.3137085 56,26 C56,22.6862915 53.3137085,20 50,20 Z" id="Shadow" fill="#000000"></path>
        <path d="M50,0 C77.6142375,0 100,22.3857625 100,50 C100,77.6142375 77.6142375,100 50,100 C22.3857625,100 0,77.6142375 0,50 C0,22.3857625 22.3857625,0 50,0 Z M50,38 C46.7616031,38 44.1224282,40.5655749 44.0041385,43.7750617 L44.0041385,43.7750617 L44,44 L44,75 L44.0830939,75.0008069 C44.5595044,77.8381232 47.0272855,80 50,80 C52.9727145,80 55.4404956,77.8381232 55.9169061,75.0008069 L55.9169061,75.0008069 L56,75 L56,44 L55.9958615,43.7750617 C55.8775718,40.5655749 53.2383969,38 50,38 Z M50,20 C46.6862915,20 44,22.6862915 44,26 C44,29.3137085 46.6862915,32 50,32 C53.3137085,32 56,29.3137085 56,26 C56,22.6862915 53.3137085,20 50,20 Z" id="Colour" fill="#000000"></path>
    </g>
</svg>