<?xml version="1.0" encoding="UTF-8"?>
<svg width="100px" height="100px" viewBox="0 0 100 100" version="1.1" xmlns="http://www.w3.org/2000/svg" xmlns:xlink="http://www.w3.org/1999/xlink">
    <title>Instagram</title>
    <g id="Instagram" stroke="none" stroke-width="1" fill="none" fill-rule="evenodd">
        <path d="M78.0487805,0 L78.3638102,0.00294737144 C90.2264496,0.195281989 99.8066926,9.77671586 99.9971112,21.6398209 L99.999,21.905 L100,21.9066959 L100,78 C100,90.1502645 90.1502645,100 78,100 L21.9512195,100 L21.6361898,99.9970526 C9.77355041,99.804718 0.193307389,90.2232841 0.00288879274,78.3601791 L0,78 L0,21.9066959 C0.0514291247,9.79838914 9.88144636,0 22,0 L78.0487805,0 Z M60.8695652,26.7896515 C55.819398,24.4172486 49.9331104,23.715552 44.4816054,24.8850464 C43.2107023,25.1523594 40.8026756,26.0211266 39.1304348,26.7896515 C26.1538462,32.9378505 20.6688963,48.0744493 26.722408,60.9054734 C29.3645485,66.4856323 33.5451505,70.662398 39.1304348,73.3021139 C51.9732441,79.3500706 67.1571906,73.870154 73.277592,60.9054734 C76.5886288,53.8885071 76.5886288,46.2032583 73.277592,39.186292 C70.6354515,33.6061331 66.4548495,29.4293674 60.8695652,26.7896515 Z M33.3110368,47.6734798 C34.5819398,37.4821716 45.5518395,30.6991042 55.3177258,34.0405167 C67.2240803,38.11704 70.735786,53.0865681 61.9063545,61.9413113 C50.5016722,73.335528 31.270903,63.7456741 33.3110368,47.6734798 Z M84.5752508,18.3741394 C83.270903,15.7678377 80.2608696,14.2976162 77.5852843,14.9324845 C72.735786,16.135393 70.8294314,21.6153096 73.9732441,25.3576916 C77.2508361,29.2337302 83.7391304,27.8971651 85.1103679,23.052117 C85.6120401,21.1475118 85.5117057,20.2787446 84.5752508,18.3741394 Z" id="Shadow"></path>
        <path d="M78.0487805,0 L78.3638102,0.00294737144 C90.2264496,0.195281989 99.8066926,9.77671586 99.9971112,21.6398209 L99.999,21.905 L100,21.9066959 L100,78 C100,90.1502645 90.1502645,100 78,100 L21.9512195,100 L21.6361898,99.9970526 C9.77355041,99.804718 0.193307389,90.2232841 0.00288879274,78.3601791 L0,78 L0,21.9066959 C0.0514291247,9.79838914 9.88144636,0 22,0 L78.0487805,0 Z M60.8695652,26.7896515 C55.819398,24.4172486 49.9331104,23.715552 44.4816054,24.8850464 C43.2107023,25.1523594 40.8026756,26.0211266 39.1304348,26.7896515 C26.1538462,32.9378505 20.6688963,48.0744493 26.722408,60.9054734 C29.3645485,66.4856323 33.5451505,70.662398 39.1304348,73.3021139 C51.9732441,79.3500706 67.1571906,73.870154 73.277592,60.9054734 C76.5886288,53.8885071 76.5886288,46.2032583 73.277592,39.186292 C70.6354515,33.6061331 66.4548495,29.4293674 60.8695652,26.7896515 Z M33.3110368,47.6734798 C34.5819398,37.4821716 45.5518395,30.6991042 55.3177258,34.0405167 C67.2240803,38.11704 70.735786,53.0865681 61.9063545,61.9413113 C50.5016722,73.335528 31.270903,63.7456741 33.3110368,47.6734798 Z M84.5752508,18.3741394 C83.270903,15.7678377 80.2608696,14.2976162 77.5852843,14.9324845 C72.735786,16.135393 70.8294314,21.6153096 73.9732441,25.3576916 C77.2508361,29.2337302 83.7391304,27.8971651 85.1103679,23.052117 C85.6120401,21.1475118 85.5117057,20.2787446 84.5752508,18.3741394 Z" id="Colour" fill="#000000"></path>
    </g>
</svg>