<?xml version="1.0" encoding="UTF-8"?>
<svg width="100px" height="100px" viewBox="0 0 100 100" version="1.1" xmlns="http://www.w3.org/2000/svg" xmlns:xlink="http://www.w3.org/1999/xlink">
    <title>Instagram Border</title>
    <g id="Instagram-Border" stroke="none" stroke-width="1" fill="none" fill-rule="evenodd">
        <path d="M78.0487805,0 L78.3638102,0.00294737144 C90.2264496,0.195281989 99.8066926,9.77671586 99.9971112,21.6398209 L99.999,21.905 L100,21.9066959 L100,78 C100,90.1502645 90.1502645,100 78,100 L21.9512195,100 L21.6361898,99.9970526 C9.77355041,99.804718 0.193307389,90.2232841 0.00288879274,78.3601791 L0,78 L0,21.9066959 C0.0514291247,9.79838914 9.88144636,0 22,0 L78.0487805,0 Z M76.5,9 L23.5,9 L23.1804386,9.00345176 C15.5324232,9.16882124 9.34289796,15.2557688 9.01376747,22.8623899 L9.00336048,23.1846885 L9,23.5 L9,76.5 L9.00345176,76.8195614 C9.16882124,84.4675768 15.2557688,90.657102 22.8623899,90.9862325 L23.1846885,90.9966395 L23.5,91 L76.5,91 L76.8153115,90.9966395 C84.5715932,90.8311655 90.8288496,84.5752953 90.9965482,76.8195614 L91,76.5 L91,23.5 L90.9966395,23.1846885 C90.8288988,15.3221564 84.4027588,9 76.5,9 Z M44.4816054,24.8850464 C49.9331104,23.715552 55.819398,24.4172486 60.8695652,26.7896515 C66.4548495,29.4293674 70.6354515,33.6061331 73.277592,39.186292 C76.5886288,46.2032583 76.5886288,53.8885071 73.277592,60.9054734 C67.1571906,73.870154 51.9732441,79.3500706 39.1304348,73.3021139 C33.5451505,70.662398 29.3645485,66.4856323 26.722408,60.9054734 C20.6688963,48.0744493 26.1538462,32.9378505 39.1304348,26.7896515 C40.8026756,26.0211266 43.2107023,25.1523594 44.4816054,24.8850464 Z M55.3177258,34.0405167 C45.5518395,30.6991042 34.5819398,37.4821716 33.3110368,47.6734798 C31.270903,63.7456741 50.5016722,73.335528 61.9063545,61.9413113 C70.735786,53.0865681 67.2240803,38.11704 55.3177258,34.0405167 Z M75.5852843,16.9324845 C78.2608696,16.2976162 81.270903,17.7678377 82.5752508,20.3741394 C83.5117057,22.2787446 83.6120401,23.1475118 83.1103679,25.052117 C81.7391304,29.8971651 75.2508361,31.2337302 71.9732441,27.3576916 C68.8294314,23.6153096 70.735786,18.135393 75.5852843,16.9324845 Z" id="Shadow"></path>
        <path d="M78.0487805,0 L78.3638102,0.00294737144 C90.2264496,0.195281989 99.8066926,9.77671586 99.9971112,21.6398209 L99.999,21.905 L100,21.9066959 L100,78 C100,90.1502645 90.1502645,100 78,100 L21.9512195,100 L21.6361898,99.9970526 C9.77355041,99.804718 0.193307389,90.2232841 0.00288879274,78.3601791 L0,78 L0,21.9066959 C0.0514291247,9.79838914 9.88144636,0 22,0 L78.0487805,0 Z M76.5,9 L23.5,9 L23.1804386,9.00345176 C15.5324232,9.16882124 9.34289796,15.2557688 9.01376747,22.8623899 L9.00336048,23.1846885 L9,23.5 L9,76.5 L9.00345176,76.8195614 C9.16882124,84.4675768 15.2557688,90.657102 22.8623899,90.9862325 L23.1846885,90.9966395 L23.5,91 L76.5,91 L76.8153115,90.9966395 C84.5715932,90.8311655 90.8288496,84.5752953 90.9965482,76.8195614 L91,76.5 L91,23.5 L90.9966395,23.1846885 C90.8288988,15.3221564 84.4027588,9 76.5,9 Z M44.4816054,24.8850464 C49.9331104,23.715552 55.819398,24.4172486 60.8695652,26.7896515 C66.4548495,29.4293674 70.6354515,33.6061331 73.277592,39.186292 C76.5886288,46.2032583 76.5886288,53.8885071 73.277592,60.9054734 C67.1571906,73.870154 51.9732441,79.3500706 39.1304348,73.3021139 C33.5451505,70.662398 29.3645485,66.4856323 26.722408,60.9054734 C20.6688963,48.0744493 26.1538462,32.9378505 39.1304348,26.7896515 C40.8026756,26.0211266 43.2107023,25.1523594 44.4816054,24.8850464 Z M55.3177258,34.0405167 C45.5518395,30.6991042 34.5819398,37.4821716 33.3110368,47.6734798 C31.270903,63.7456741 50.5016722,73.335528 61.9063545,61.9413113 C70.735786,53.0865681 67.2240803,38.11704 55.3177258,34.0405167 Z M75.5852843,16.9324845 C78.2608696,16.2976162 81.270903,17.7678377 82.5752508,20.3741394 C83.5117057,22.2787446 83.6120401,23.1475118 83.1103679,25.052117 C81.7391304,29.8971651 75.2508361,31.2337302 71.9732441,27.3576916 C68.8294314,23.6153096 70.735786,18.135393 75.5852843,16.9324845 Z" id="Colour" fill="#000000"></path>
    </g>
</svg>