<?xml version="1.0" encoding="UTF-8"?>
<svg width="100px" height="100px" viewBox="0 0 100 100" version="1.1" xmlns="http://www.w3.org/2000/svg" xmlns:xlink="http://www.w3.org/1999/xlink">
    <title>Internet</title>
    <g id="Internet" stroke="none" stroke-width="1" fill="none" fill-rule="evenodd">
        <path d="M46.5645532,82.0890166 L46.5645532,100 C44.33384,99.4795534 37.6425215,96.9348362 31.3196216,83.9051156 C34.7833707,83.3065315 38.1608276,82.7199087 46.5645532,82.0890166 Z M24.9971117,85.4150726 C25.9799219,88.3867637 28.1828247,92.2266849 31.6058199,96.9348362 C29.3751068,96.4143896 21.4593854,92.3294161 17.3028133,88.1574343 C22.2660201,86.3750376 24.8307862,85.460917 24.9971117,85.4150726 Z M18.1538887,53.3865632 C18.7976195,64.338586 20.2392891,72.9149322 22.4788975,79.1156017 C15.7837403,81.8716123 12.4361617,83.2496176 12.4361617,83.2496176 C5.12738672,75.069545 0.981999506,65.1151935 0,53.3865632 L18.1538887,53.3865632 Z M46.5594572,53.3865632 L46.5594572,75.2004278 L46.5594572,75.2004278 C40.0608711,75.6770285 34.2285498,76.4506153 29.0624932,77.5211881 C26.3260935,68.6391398 24.9578936,60.5942648 24.9578936,53.3865632 L46.5594572,53.3865632 L46.5594572,53.3865632 Z M53.4354468,82.0890166 L53.4354468,100 C55.66616,99.4795534 62.3574785,96.9348362 68.6803784,83.9051156 C65.2166293,83.3065315 61.8391724,82.7199087 53.4354468,82.0890166 Z M75.0028883,85.4150726 C74.0200781,88.3867637 71.8171753,92.2266849 68.3941801,96.9348362 C70.6248932,96.4143896 78.5406146,92.3294161 82.6971867,88.1574343 C77.7339799,86.3750376 75.1692138,85.460917 75.0028883,85.4150726 Z M81.8461113,53.3865632 C81.2023805,64.338586 79.7607109,72.9149322 77.5211025,79.1156017 C84.2162597,81.8716123 87.5638383,83.2496176 87.5638383,83.2496176 C94.8726133,75.069545 99.0180005,65.1151935 100,53.3865632 L81.8461113,53.3865632 Z M53.4405428,53.3865632 L53.4405428,75.2004278 L53.4405428,75.2004278 C59.9391289,75.6770285 65.7714502,76.4506153 70.9375068,77.5211881 C73.6739065,68.6391398 75.0421064,60.5942648 75.0421064,53.3865632 L53.4405428,53.3865632 L53.4405428,53.3865632 Z M46.5645532,17.9109834 L46.5645532,0 C44.33384,0.520446569 37.6425215,3.06516381 31.3196216,16.0948844 C34.7833707,16.6934685 38.1608276,17.2800913 46.5645532,17.9109834 Z M24.9971117,14.5849274 C25.9799219,11.6132363 28.1828247,7.77331506 31.6058199,3.06516381 C29.3751068,3.58561038 21.4593854,7.67058386 17.3028133,11.8425657 C22.2660201,13.6249624 24.8307862,14.539083 24.9971117,14.5849274 Z M18.1538887,46.6134368 C18.7976195,35.661414 20.2392891,27.0850678 22.4788975,20.8843983 C15.7837403,18.1283877 12.4361617,16.7503824 12.4361617,16.7503824 C5.12738672,24.930455 0.981999506,34.8848065 0,46.6134368 L18.1538887,46.6134368 Z M46.5594572,46.6134368 L46.5594572,24.7995722 L46.5594572,24.7995722 C40.0608711,24.3229715 34.2285498,23.5493847 29.0624932,22.4788119 C26.3260935,31.3608602 24.9578936,39.4057352 24.9578936,46.6134368 L46.5594572,46.6134368 L46.5594572,46.6134368 Z M53.4354468,17.9109834 L53.4354468,0 C55.66616,0.520446569 62.3574785,3.06516381 68.6803784,16.0948844 C65.2166293,16.6934685 61.8391724,17.2800913 53.4354468,17.9109834 Z M75.0028883,14.5849274 C74.0200781,11.6132363 71.8171753,7.77331506 68.3941801,3.06516381 C70.6248932,3.58561038 78.5406146,7.67058386 82.6971867,11.8425657 C77.7339799,13.6249624 75.1692138,14.539083 75.0028883,14.5849274 Z M81.8461113,46.6134368 C81.2023805,35.661414 79.7607109,27.0850678 77.5211025,20.8843983 C84.2162597,18.1283877 87.5638383,16.7503824 87.5638383,16.7503824 C94.8726133,24.930455 99.0180005,34.8848065 100,46.6134368 L81.8461113,46.6134368 Z M53.4405428,46.6134368 L53.4405428,24.7995722 L53.4405428,24.7995722 C59.9391289,24.3229715 65.7714502,23.5493847 70.9375068,22.4788119 C73.6739065,31.3608602 75.0421064,39.4057352 75.0421064,46.6134368 L53.4405428,46.6134368 L53.4405428,46.6134368 Z" id="Shadow"></path>
        <path d="M46.5645532,82.0890166 L46.5645532,100 C44.33384,99.4795534 37.6425215,96.9348362 31.3196216,83.9051156 C34.7833707,83.3065315 38.1608276,82.7199087 46.5645532,82.0890166 Z M24.9971117,85.4150726 C25.9799219,88.3867637 28.1828247,92.2266849 31.6058199,96.9348362 C29.3751068,96.4143896 21.4593854,92.3294161 17.3028133,88.1574343 C22.2660201,86.3750376 24.8307862,85.460917 24.9971117,85.4150726 Z M18.1538887,53.3865632 C18.7976195,64.338586 20.2392891,72.9149322 22.4788975,79.1156017 C15.7837403,81.8716123 12.4361617,83.2496176 12.4361617,83.2496176 C5.12738672,75.069545 0.981999506,65.1151935 0,53.3865632 L18.1538887,53.3865632 Z M46.5594572,53.3865632 L46.5594572,75.2004278 L46.5594572,75.2004278 C40.0608711,75.6770285 34.2285498,76.4506153 29.0624932,77.5211881 C26.3260935,68.6391398 24.9578936,60.5942648 24.9578936,53.3865632 L46.5594572,53.3865632 L46.5594572,53.3865632 Z M53.4354468,82.0890166 L53.4354468,100 C55.66616,99.4795534 62.3574785,96.9348362 68.6803784,83.9051156 C65.2166293,83.3065315 61.8391724,82.7199087 53.4354468,82.0890166 Z M75.0028883,85.4150726 C74.0200781,88.3867637 71.8171753,92.2266849 68.3941801,96.9348362 C70.6248932,96.4143896 78.5406146,92.3294161 82.6971867,88.1574343 C77.7339799,86.3750376 75.1692138,85.460917 75.0028883,85.4150726 Z M81.8461113,53.3865632 C81.2023805,64.338586 79.7607109,72.9149322 77.5211025,79.1156017 C84.2162597,81.8716123 87.5638383,83.2496176 87.5638383,83.2496176 C94.8726133,75.069545 99.0180005,65.1151935 100,53.3865632 L81.8461113,53.3865632 Z M53.4405428,53.3865632 L53.4405428,75.2004278 L53.4405428,75.2004278 C59.9391289,75.6770285 65.7714502,76.4506153 70.9375068,77.5211881 C73.6739065,68.6391398 75.0421064,60.5942648 75.0421064,53.3865632 L53.4405428,53.3865632 L53.4405428,53.3865632 Z M46.5645532,17.9109834 L46.5645532,0 C44.33384,0.520446569 37.6425215,3.06516381 31.3196216,16.0948844 C34.7833707,16.6934685 38.1608276,17.2800913 46.5645532,17.9109834 Z M24.9971117,14.5849274 C25.9799219,11.6132363 28.1828247,7.77331506 31.6058199,3.06516381 C29.3751068,3.58561038 21.4593854,7.67058386 17.3028133,11.8425657 C22.2660201,13.6249624 24.8307862,14.539083 24.9971117,14.5849274 Z M18.1538887,46.6134368 C18.7976195,35.661414 20.2392891,27.0850678 22.4788975,20.8843983 C15.7837403,18.1283877 12.4361617,16.7503824 12.4361617,16.7503824 C5.12738672,24.930455 0.981999506,34.8848065 0,46.6134368 L18.1538887,46.6134368 Z M46.5594572,46.6134368 L46.5594572,24.7995722 L46.5594572,24.7995722 C40.0608711,24.3229715 34.2285498,23.5493847 29.0624932,22.4788119 C26.3260935,31.3608602 24.9578936,39.4057352 24.9578936,46.6134368 L46.5594572,46.6134368 L46.5594572,46.6134368 Z M53.4354468,17.9109834 L53.4354468,0 C55.66616,0.520446569 62.3574785,3.06516381 68.6803784,16.0948844 C65.2166293,16.6934685 61.8391724,17.2800913 53.4354468,17.9109834 Z M75.0028883,14.5849274 C74.0200781,11.6132363 71.8171753,7.77331506 68.3941801,3.06516381 C70.6248932,3.58561038 78.5406146,7.67058386 82.6971867,11.8425657 C77.7339799,13.6249624 75.1692138,14.539083 75.0028883,14.5849274 Z M81.8461113,46.6134368 C81.2023805,35.661414 79.7607109,27.0850678 77.5211025,20.8843983 C84.2162597,18.1283877 87.5638383,16.7503824 87.5638383,16.7503824 C94.8726133,24.930455 99.0180005,34.8848065 100,46.6134368 L81.8461113,46.6134368 Z M53.4405428,46.6134368 L53.4405428,24.7995722 L53.4405428,24.7995722 C59.9391289,24.3229715 65.7714502,23.5493847 70.9375068,22.4788119 C73.6739065,31.3608602 75.0421064,39.4057352 75.0421064,46.6134368 L53.4405428,46.6134368 L53.4405428,46.6134368 Z" id="Colour" fill="#000000"></path>
    </g>
</svg>