<?xml version="1.0" encoding="UTF-8"?>
<svg width="100px" height="100px" viewBox="0 0 100 100" version="1.1" xmlns="http://www.w3.org/2000/svg" xmlns:xlink="http://www.w3.org/1999/xlink">
    <title>Internet Border</title>
    <g id="Internet-Border" stroke="none" stroke-width="1" fill="none" fill-rule="evenodd">
        <path d="M50,0 L50.7698863,0.00580699611 C50.8309484,0.00672870161 50.891984,0.00775986683 50.9529929,0.00890030425 L50.7698944,0.00580711917 C51.0092863,0.00942066974 51.2482702,0.0147166194 51.4868351,0.0216836689 L50.9529929,0.00890030425 C51.2341466,0.014155904 51.5147328,0.0217321627 51.7947331,0.0316107282 L51.4868351,0.0216836689 C51.727923,0.0287244023 51.9685828,0.0374717698 52.2088029,0.0479141099 L51.7947331,0.0316107282 C52.0371953,0.0401649287 52.2792182,0.0504455008 52.5207898,0.0624405281 L52.2088029,0.0479141099 C52.5543151,0.0629334878 52.8989177,0.0814593419 53.2425758,0.103456973 L52.5207898,0.0624405281 C52.823514,0.0774720342 53.1255296,0.0951958724 53.4268132,0.115588592 L53.2425758,0.103456973 C53.4739696,0.118268537 53.7049352,0.134654091 53.9354621,0.152603042 L53.4268132,0.115588592 C53.6961213,0.133817018 53.9648444,0.154177886 54.2329659,0.176654448 L53.9354621,0.152603042 C54.2376361,0.176130484 54.5390563,0.20234414 54.8396988,0.231220154 L54.2329659,0.176654448 C54.466583,0.196238512 54.6997432,0.217428771 54.9324357,0.240214149 L54.932689,0.240238957 C55.4837619,0.294200338 56.0324617,0.357141117 56.5783876,0.428889127 L56.4686651,0.414592351 C56.7076139,0.445458465 56.9460339,0.478011436 57.1839128,0.512238932 L56.5783876,0.428889127 C56.8501041,0.464599313 57.1211335,0.502491244 57.3914576,0.542546751 L57.3915639,0.542562508 L58.0784124,0.649231583 C58.3175924,0.688085097 58.5562031,0.728635462 58.7942317,0.770869925 L58.260547,0.679164482 C58.5191964,0.722164061 58.7771746,0.767149009 59.0344655,0.814103136 L58.7942317,0.770869925 C59.0608104,0.818170155 59.3266591,0.867582704 59.5917597,0.919089656 L59.0344655,0.814103136 C59.2728319,0.857603662 59.5106083,0.902794344 59.747782,0.949662309 L59.7478213,0.94967008 C60.2984384,1.05847774 60.8458453,1.17633457 61.3898414,1.30307166 L61.1784053,1.25429916 C61.4109271,1.30740094 61.6428316,1.36212369 61.8741062,1.4184549 L61.3898414,1.30307166 C61.6345162,1.36007461 61.8785011,1.418874 62.1217813,1.47945518 L61.8741062,1.4184549 C62.1017648,1.47390535 62.328813,1.53091434 62.555239,1.58946995 L62.1217813,1.47945518 C62.3592627,1.53859234 62.5960727,1.59942735 62.8321975,1.66194659 L62.555239,1.58946995 C62.8752902,1.67223781 63.1940982,1.75809574 63.5116293,1.84700999 L62.8321975,1.66194659 C63.115786,1.73703286 63.3983863,1.81454849 63.6799748,1.89446986 L63.5116293,1.84700999 C63.7250358,1.90676754 63.9378655,1.96790561 64.1501081,2.03041396 L63.6799748,1.89446986 C63.9320459,1.96601352 64.1833062,2.03948499 64.4337388,2.11486733 L64.1501081,2.03041396 C64.3813712,2.0985241 64.6119374,2.16826113 64.8417933,2.2396118 L64.4337388,2.11486733 C64.6697385,2.18590524 64.9050031,2.25864011 65.1395184,2.33305776 L64.8417933,2.2396118 C65.1578851,2.33773135 65.4726338,2.43890246 65.786005,2.54309068 L65.1395184,2.33305776 C65.3808149,2.40962726 65.6213181,2.48797827 65.8610127,2.56809533 L65.786005,2.54309068 C66.0079443,2.61688007 66.2291927,2.69218282 66.4497379,2.7689867 L65.8610127,2.56809533 C66.1488077,2.66428977 66.4354369,2.76303019 66.7208735,2.86428984 L66.4497379,2.7689867 C66.6741136,2.84712451 66.8977614,2.92681604 67.1206685,3.0080484 L66.7208735,2.86428984 C66.9281176,2.93781042 67.134733,3.01265905 67.3407096,3.0888255 L67.1206685,3.0080484 C67.362994,3.09635726 67.6044441,3.18648711 67.8450022,3.27842139 L67.8448524,3.27836412 C68.1272243,3.38627842 68.4082188,3.49661906 68.6879589,3.60941656 L68.2199502,3.42345813 C68.4181883,3.50106439 68.6158101,3.5798997 68.8128061,3.65995469 L68.6879589,3.60941656 C68.9161616,3.70143304 69.1435295,3.79508451 69.3700482,3.89035646 L68.8128061,3.65995469 C69.0560063,3.75878608 69.2982528,3.85947638 69.5395281,3.96200796 L69.5400482,3.96222899 C70.0259322,4.16870875 70.5083889,4.38289277 70.9867537,4.60441551 L70.830707,4.53247989 C71.0590371,4.63725951 71.286442,4.74370849 71.512906,4.85181118 L70.9867537,4.60441551 C71.2106924,4.70811778 71.4337343,4.81342833 71.6558647,4.92033234 L71.6557756,4.92028945 C72.1502725,5.15827445 72.6401644,5.40411051 73.1253768,5.65767704 L72.9449801,5.56387164 C73.1420965,5.66586099 73.3384477,5.76912343 73.5340227,5.87364806 L73.1253768,5.65767704 C73.3499755,5.77504973 73.5735715,5.89407879 73.7961487,6.01474801 L73.5340227,5.87364806 C73.7489643,5.98852313 73.9629684,6.10492275 74.1760206,6.22283248 L73.7961487,6.01474801 C73.992382,6.12113505 74.1878235,6.22879697 74.3824619,6.33772267 L74.1760206,6.22283248 C74.3869733,6.33958033 74.5969928,6.45780867 74.806065,6.57750348 L74.8060333,6.5774853 C75.0830533,6.73608056 75.3583788,6.8972316 75.6320091,7.06092402 L75.2102215,6.81140032 C75.3872466,6.91495735 75.5635779,7.01957164 75.7392068,7.12523454 L75.6320091,7.06092402 C75.8403377,7.18555136 76.0476835,7.31165181 76.2540324,7.43921099 L75.7392068,7.12523454 C75.9582559,7.25702016 76.1762123,7.39043697 76.3930592,7.52546816 L76.3928595,7.52534385 C76.8438523,7.80617839 77.2898506,8.09386537 77.730903,8.38837809 L77.731023,8.38845818 C78.0621104,8.60954181 78.3905287,8.83455472 78.7160939,9.06335287 C78.9710862,9.24255506 79.2242557,9.42402617 79.4756452,9.60778729 L79.0247446,9.28200782 C79.2282519,9.42733272 79.4306239,9.57414528 79.6318447,9.72242961 L79.4756452,9.60778729 C79.6553496,9.73914786 79.8341444,9.87167863 80.0120185,10.0053684 L79.6318447,9.72242961 C79.8353655,9.87240892 80.0377087,10.0238938 80.2388577,10.1768679 L80.2390416,10.1770078 C80.8341062,10.6295551 81.4188977,11.0952832 81.9928063,11.5736262 L81.8916639,11.4895498 C82.0596524,11.628822 82.2267147,11.7691723 82.3928402,11.9105902 L81.9928063,11.5736262 C82.2002662,11.7465405 82.4063041,11.9211033 82.6108997,12.0972943 L82.6103846,12.0968508 L83.1003256,12.5243081 C83.2750518,12.6787517 83.4486898,12.8343984 83.6212266,12.9912351 L83.1326909,12.5529411 C83.353307,12.7482857 83.5721844,12.9455498 83.7892967,13.1447074 L83.6212266,12.9912351 C83.7859458,13.1409655 83.9496613,13.2917806 84.1123619,13.443669 L84.11206,13.4433871 L84.4019687,13.7161802 L84.4019687,13.7161802 L84.8083209,14.105927 C86.3096747,15.5621455 87.7199576,17.1117267 89.0298047,18.7453055 L88.8464725,18.5183431 C88.9913339,18.6968593 89.1349894,18.8763942 89.2774267,19.0569353 L89.0298047,18.7453055 C89.173754,18.9248322 89.3164903,19.1053734 89.4580012,19.2869167 L89.2774267,19.0569353 C89.4331706,19.2543426 89.587458,19.4529529 89.7402727,19.65275 L89.740426,19.6526962 C89.9306035,19.9015974 90.1186498,20.1522858 90.3043802,20.4047839 L89.9931984,19.9860746 C90.1466382,20.1902059 90.2985515,20.39555 90.4489214,20.60209 L90.3043802,20.4047839 C90.4262001,20.5703965 90.5470237,20.7367876 90.6668422,20.9039485 L90.4489214,20.60209 C90.5904163,20.7964397 90.7305447,20.9918483 90.8692922,21.1883016 L90.8689147,21.1879427 C91.1530039,21.5900102 91.4309425,21.9960871 91.702987,22.4064114 L91.6309386,22.2981758 C91.7675692,22.5030894 91.902727,22.7090694 92.0363971,22.9161006 L91.702987,22.4064114 C91.8546138,22.6351098 92.0044097,22.8651276 92.1523537,23.0964441 L92.0363971,22.9161006 C92.1841164,23.1448915 92.3300187,23.3749663 92.4740836,23.6063045 L92.1523537,23.0964441 C92.2709245,23.2818344 92.3883059,23.4680589 92.504487,23.6551067 L92.504662,23.6554705 C92.8082774,24.1441996 93.1038613,24.6389219 93.3910463,25.1390812 L93.2220166,24.8470384 C93.346072,25.0597459 93.4686023,25.2734524 93.5895923,25.4881429 L93.3910463,25.1390812 C93.5114864,25.3488387 93.6304492,25.5595524 93.7479206,25.7712083 L93.7478883,25.7711771 C93.996022,26.2182285 94.2374708,26.6694508 94.4721333,27.1247417 L94.3829333,26.9525047 C94.4992484,27.1760343 94.6139243,27.4005536 94.7269453,27.6260465 L94.4721333,27.1247417 C94.5806609,27.3353063 94.687737,27.5467411 94.7933483,27.7590329 L94.7933264,27.7589809 C95.0159395,28.2064688 95.2320241,28.6577116 95.4414781,29.1126375 L95.4412948,29.112215 C95.555015,29.359235 95.6666036,29.6069147 95.7762242,29.8556568 L95.7332525,29.7584005 C95.8307859,29.9784373 95.9267778,30.1993097 96.0212147,30.4210039 L95.7762242,29.8556568 C95.8834386,30.0989389 95.9887704,30.3432373 96.0922013,30.5885336 L96.0919953,30.5880087 C96.3044739,31.0919586 96.5087396,31.5995865 96.7048389,32.111258 L96.6175221,31.8850381 C96.7038402,32.1070127 96.7886187,32.3297566 96.8718444,32.5532565 L96.7048389,32.111258 C96.7992524,32.3576063 96.891773,32.6048918 96.9823828,32.8530969 L96.8718444,32.5532565 C96.9428708,32.7439956 97.0127663,32.9352854 97.0815226,33.1271177 L96.9823828,32.8530969 C97.0603056,33.0665489 97.1368152,33.2806809 97.2119003,33.4954816 L97.2119008,33.4954361 C97.3985202,34.0293567 97.5763405,34.5673627 97.7451872,35.1093257 L97.6510846,34.8105533 C97.7177403,35.019842 97.7830555,35.229729 97.8470199,35.4402041 L97.7451872,35.1093257 C97.81744,35.3412425 97.8880497,35.573884 97.9570026,35.8072364 L97.9571695,35.8077556 C98.1161637,36.345874 98.2664971,36.8882998 98.4078355,37.4343461 L98.4078867,37.4345027 C98.5970949,38.1655308 98.7702254,38.9032073 98.9268249,39.6469735 L98.8910266,39.4783663 C98.9437934,39.7247425 98.9947451,39.971792 99.043867,40.2195001 L98.9268249,39.6469735 C98.9812897,39.9056532 99.0337549,40.1650696 99.0842035,40.4252056 L99.043867,40.2195001 C99.0880358,40.4422312 99.1307252,40.6654947 99.1719246,40.8892801 L99.0842035,40.4252056 C99.1329136,40.676377 99.1797437,40.9282193 99.2246786,41.1807173 L99.2246136,41.1803255 C99.3203025,41.7180469 99.4073436,42.258346 99.4856553,42.8014677 L99.4572209,42.6069545 C99.4945418,42.8587692 99.5299852,43.111196 99.5635366,43.3642203 L99.4856553,42.8014677 C99.5211938,43.0479405 99.5549344,43.2949946 99.5868636,43.5426163 L99.5868453,43.5424584 C99.6926497,44.3630238 99.7785513,45.1896615 99.8440692,46.0220306 L99.8441158,46.0226154 C99.8696612,46.3471626 99.8921431,46.6731692 99.9114853,47.0000204 C99.9344503,47.3881692 99.9529652,47.7769011 99.9670165,48.1667711 L99.9562009,47.8879939 C99.9657158,48.1169743 99.9736908,48.3463524 99.9801157,48.5761181 L99.9670165,48.1667711 C99.975863,48.4122271 99.9829402,48.6581341 99.9882357,48.9044799 L99.9882238,48.9039275 C99.9960652,49.2687076 100,49.6338943 100,50 C100,50.4759954 99.9933486,50.9504374 99.9801338,51.4232379 L99.9882238,51.0960725 C99.9829255,51.3424225 99.9758455,51.5883337 99.9669961,51.8337939 L99.9801338,51.4232379 C99.9737118,51.6530019 99.9657398,51.8823784 99.9562278,52.1113571 L99.9562009,52.1120061 L99.9359913,52.5521749 L99.9359913,52.5521749 L99.8936464,53.2875138 C99.873574,53.5967652 99.8506901,53.9052502 99.82502,54.2129436 L99.8250413,54.2126877 C99.7583067,55.0125987 99.672775,55.8069068 99.5688689,56.5954238 L99.5868426,56.457547 C99.5552847,56.7022827 99.5219573,56.946464 99.4868736,57.1900776 L99.5688689,56.5954238 C99.5343467,56.8574046 99.4977961,57.1187463 99.4592336,57.3794323 L99.4591403,57.3800632 C99.4104966,57.7088988 99.3585458,58.0373182 99.3034142,58.3646576 C99.2370611,58.7586156 99.1661311,59.1508519 99.0906548,59.5414679 L99.1752522,59.0925986 C99.1330008,59.3225747 99.0891758,59.5520002 99.0437888,59.7808635 L99.0906548,59.5414679 C99.0382506,59.8126775 98.9836548,60.083106 98.9268864,60.3527341 L99.0437888,59.7808635 C98.994671,60.0285393 98.9437239,60.2755566 98.8909621,60.5219009 L98.8910142,60.521658 C98.7178449,61.3301841 98.5251917,62.1312213 98.3135207,62.9244945 L98.407865,62.5655396 C98.3470857,62.8003568 98.2846429,63.0345044 98.22055,63.2679692 L98.2205462,63.2679831 C98.0711008,63.8123528 97.9126797,64.3530236 97.7454556,64.8898127 L97.900186,64.3836335 C97.8209453,64.6478935 97.7395776,64.9112339 97.6561027,65.1736348 L97.6561266,65.1735595 L97.4509668,65.8038672 L97.4509668,65.8038672 L97.2174547,66.48862 C97.1405987,66.7087264 97.0622472,66.9281312 96.9824123,67.1468222 L97.1143416,66.7809857 C97.0457838,66.9734548 96.97608,67.1653802 96.9052385,67.3567537 L96.9824123,67.1468222 C96.89801,67.3780245 96.8119498,67.6084289 96.724246,67.8380212 L96.9052385,67.3567537 C96.8113563,67.6103702 96.7154759,67.8630175 96.6176164,68.1146762 L96.6174528,68.115097 C96.3387653,68.8317798 96.043845,69.5408575 95.7332977,70.2414673 L95.8002066,70.0898359 C95.6897319,70.341332 95.5772464,70.5917447 95.4627705,70.8410538 L95.7332977,70.2414673 C95.6373575,70.4579131 95.5399258,70.6735507 95.4410156,70.8883671 L95.4407249,70.8889984 C95.2132594,71.3830155 94.9776642,71.8733095 94.734389,72.3590897 L94.8433465,72.1401792 C94.7339191,72.3613934 94.6229031,72.5816818 94.5103132,72.8010293 L94.734389,72.3590897 C94.6215548,72.5844011 94.5070684,72.8087415 94.3909457,73.0320951 L94.5103132,72.8010293 C94.3915389,73.0324255 94.2710131,73.2627748 94.1487534,73.4920595 L94.1485919,73.4923624 C94.0103902,73.7515445 93.8698063,74.0096661 93.727027,74.2663989 L93.9982853,73.7720927 C93.8695615,74.0098378 93.738967,74.2464218 93.6065215,74.4818252 L93.727027,74.2663989 C93.6131746,74.471118 93.4979263,74.674954 93.3812949,74.8778942 L93.6065215,74.4818252 C93.4874445,74.693468 93.3668712,74.9041563 93.2448161,75.113876 L93.2449599,75.1136289 C92.861947,75.7717359 92.4644965,76.4200635 92.0529076,77.0584159 L92.1297283,76.938899 C91.9992032,77.1426038 91.8672411,77.3452995 91.7338564,77.546972 L92.0529076,77.0584159 C91.9211042,77.262836 91.7878509,77.4662331 91.6531623,77.6685928 L91.6531338,77.6686356 C91.3525941,78.1201741 91.044878,78.566589 90.7301756,79.0076758 L90.8841606,78.7906347 C90.7305627,79.0083521 90.5752697,79.224788 90.4183007,79.4399232 L90.7301756,79.0076758 C90.5985058,79.1922243 90.4656129,79.37584 90.3315089,79.5585113 L90.4183007,79.4399232 C90.2778795,79.6323787 90.1361171,79.8237932 89.9930272,80.0141531 L90.3315089,79.5585113 C90.1803826,79.7643697 90.0277181,79.9690285 89.8735324,80.1724709 L89.8733398,80.172725 C89.5527105,80.5957837 89.2253024,81.0138298 88.8914609,81.4264565 L88.8912703,81.4266921 C87.270034,83.4305334 85.4968456,85.3067722 83.5893763,87.0376922 L83.7639531,86.8785245 C83.5813068,87.0458365 83.3974137,87.2118095 83.2122894,87.376428 L83.5893763,87.0376922 C83.405514,87.2045367 83.2204041,87.3700311 83.0340622,87.5341597 L83.2122894,87.376428 C83.0749881,87.4985207 82.9370095,87.6198683 82.79836,87.7404644 L82.7984861,87.7403547 C82.6593254,87.8613955 82.5196162,87.9815709 82.3792387,88.1009842 C82.0274535,88.4002338 81.6714478,88.6947169 81.3113454,88.9843132 L81.3118313,88.9839224 C81.0013691,89.2335978 80.6883572,89.4792615 80.3723739,89.7212399 C80.1211647,89.9136117 79.8683795,90.1034319 79.6137529,90.2908964 L79.9570912,90.0358561 C79.7887886,90.1619919 79.6196645,90.2870913 79.4497283,90.4111448 L79.6137529,90.2908964 C79.4574779,90.4059512 79.3005093,90.5201185 79.1428546,90.6333911 L79.4497283,90.4111448 C79.2455143,90.5602211 79.0401276,90.707787 78.8335846,90.8538261 L78.8334702,90.853907 C78.4020005,91.1589836 77.9653677,91.4574745 77.5238363,91.749149 L77.7512389,91.5980354 C77.513228,91.7571353 77.273775,91.9142468 77.0329038,92.069346 L77.5238363,91.749149 C77.3483562,91.8650706 77.1721023,91.9799156 76.9950841,92.0936744 L76.99582,92.0932015 C76.5384828,92.3871044 76.076796,92.6733081 75.6101852,92.952124 L75.7042863,92.8957552 C75.5402191,92.9942802 75.3755401,93.0918906 75.2102563,93.1885793 L75.6101852,92.952124 C75.382534,93.0881534 75.1537107,93.2224243 74.9237341,93.354918 L74.9241453,93.3546811 C74.4634789,93.6200793 73.9986043,93.8781223 73.5292608,94.1288966 L73.7580667,94.0058766 C73.5360254,94.1260059 73.3129723,94.2445038 73.0889232,94.3613541 L73.5292608,94.1288966 C73.3207765,94.2402916 73.1114103,94.3502523 72.9011755,94.4587657 L73.0889232,94.3613541 C72.8867159,94.466813 72.6836974,94.57093 72.4798796,94.6736932 L72.4804378,94.6734118 C72.2027271,94.8134311 71.9240964,94.9506658 71.6440174,95.0853674 C71.5865939,95.1129845 71.5293095,95.1403998 71.4719648,95.1677092 L71.6440174,95.0853674 C71.4235513,95.1913988 71.2021878,95.2958607 70.9799413,95.3987386 L71.4719648,95.1677092 C71.2504177,95.2732171 71.0279718,95.3771429 70.804642,95.4794721 L70.9799413,95.3987386 C70.7481891,95.5060167 70.5154769,95.6115724 70.281821,95.7153894 L70.804642,95.4794721 C70.5870376,95.5791779 70.3685939,95.677368 70.1493244,95.7740287 L70.281821,95.7153894 C70.0187192,95.8322896 69.754421,95.9469852 69.4889497,96.0594527 L70.1493244,95.7740287 C69.8941872,95.8865009 69.637932,95.9969026 69.3805801,96.1052125 L69.4889497,96.0594527 C69.2681356,96.1530011 69.0465099,96.2450079 68.8240861,96.3354597 L69.3805801,96.1052125 C69.1392954,96.2067602 68.8970466,96.3064691 68.6538513,96.4043217 L68.8240861,96.3354597 C68.6044026,96.4247972 68.3839405,96.5126177 68.1627129,96.5989083 L68.6538513,96.4043217 C68.4252329,96.4963091 68.195778,96.586656 67.9655011,96.6753478 L68.1627129,96.5989083 C67.8845261,96.707416 67.6051287,96.8135046 67.3245467,96.9171481 L67.9655011,96.6753478 C67.6947613,96.7796242 67.4228853,96.8816127 67.1498969,96.9812897 L67.3245467,96.9171481 C67.1011071,96.9996838 66.8769164,97.0806691 66.6519874,97.1600907 L67.1498969,96.9812897 C66.9090566,97.0692284 66.6673505,97.155368 66.4247947,97.2396922 L66.4250934,97.2395884 C65.9505392,97.4045666 65.4730357,97.5625007 64.9924058,97.7133731 L65.0679311,97.6895991 C64.8430705,97.7605786 64.6175232,97.8300117 64.3913018,97.8978859 L64.9924058,97.7133731 C64.7271364,97.7966427 64.4609147,97.8777611 64.193761,97.9567079 L64.3913018,97.8978859 C64.1531763,97.9693318 63.9143037,98.0390504 63.6746987,98.1070273 L64.193761,97.9567079 C63.9412896,98.031316 63.687986,98.1039846 63.4338673,98.1746965 L63.4336263,98.1747636 C62.9375717,98.3127974 62.4381674,98.443435 61.9357829,98.5664808 L62.0569748,98.5366365 C61.8119252,98.5973084 61.5661627,98.656173 61.3197022,98.7132154 L61.9357829,98.5664808 C61.6937357,98.6257639 61.4509968,98.6832846 61.2075805,98.7390288 L61.2075229,98.7390419 C60.679111,98.8600521 60.1474486,98.9727014 59.6127403,99.0768293 L59.7098495,99.0578182 C59.492907,99.1005132 59.2754609,99.1418049 59.0575211,99.1816837 L59.6127403,99.0768293 C59.3271629,99.132442 59.0407168,99.1856241 58.7534242,99.2363532 L59.0575211,99.1816837 C58.814244,99.2261988 58.5703519,99.2689531 58.3258582,99.3099332 L58.7534242,99.2363532 C58.5222893,99.2771662 58.2906066,99.3163914 58.0583877,99.3540171 L58.3258582,99.3099332 C58.0135518,99.3622794 57.7002639,99.4117306 57.3860233,99.4582582 L58.0583877,99.3540171 C57.762978,99.4018815 57.4667007,99.4471576 57.1695797,99.4898213 L57.3860233,99.4582582 C57.1209525,99.4975055 56.8552038,99.5346725 56.5887942,99.5697421 L57.1695797,99.4898213 C56.9280769,99.5244988 56.6860167,99.5574503 56.4434121,99.5886632 L56.5887942,99.5697421 C56.3372991,99.6028484 56.0852151,99.6340855 55.8325565,99.6634392 L56.4434121,99.5886632 C56.1873265,99.6216104 55.9306342,99.6526203 55.6733505,99.6816776 L55.6734539,99.6816659 C55.10704,99.745636 54.5378638,99.8001344 53.9659837,99.8450112 L54.2194071,99.8244803 C53.9441164,99.8474829 53.6681919,99.8682552 53.3916515,99.886779 L53.9659837,99.8450112 C53.7240105,99.8639994 53.4815532,99.881265 53.238624,99.8967958 L53.3916515,99.886779 C53.092709,99.9068035 52.7930468,99.9242004 52.492688,99.938947 L53.238624,99.8967958 C52.9490316,99.9153099 52.6587686,99.9313586 52.3678559,99.9449213 L52.492688,99.938947 C52.2417547,99.951267 51.9903351,99.9617371 51.7384426,99.9703439 L52.3678559,99.9449213 C52.0807814,99.958305 51.7930742,99.9692679 51.5047542,99.9777899 L51.7384426,99.9703439 C51.4830148,99.9790716 51.2271008,99.9858834 50.9707145,99.9907653 L50.9710083,99.9907597 L50.7564954,99.9943934 L50.7564954,99.9943934 L50,100 L50,100 L49.2360338,99.994282 C49.1729966,99.9933378 49.1099876,99.992277 49.0470071,99.9910997 L49.2361096,99.9942832 C48.9947096,99.9906678 48.7537242,99.9853416 48.5131649,99.9783163 L49.0470071,99.9910997 C48.7658534,99.9858441 48.4852672,99.9782678 48.2052669,99.9683893 L48.5131649,99.9783163 C48.272077,99.9712756 48.0314172,99.9625282 47.7911971,99.9520859 L48.2052669,99.9683893 C47.9628047,99.9598351 47.7207818,99.9495545 47.4792102,99.9375595 L47.7911971,99.9520859 C47.4456849,99.9370665 47.1010823,99.9185407 46.7574242,99.896543 L47.4792102,99.9375595 C47.176486,99.922528 46.8744704,99.9048041 46.5731868,99.8844114 L46.7574242,99.896543 C46.5260304,99.8817315 46.2950648,99.8653459 46.0645379,99.847397 L46.5731868,99.8844114 C46.3038787,99.866183 46.0351556,99.8458221 45.7670341,99.8233456 L46.0645379,99.847397 C45.7623639,99.8238695 45.4609437,99.7976559 45.1603012,99.7687798 L45.7670341,99.8233456 C45.533417,99.8037615 45.3002568,99.7825712 45.0675643,99.7597859 L45.067311,99.759761 C44.5162381,99.7057997 43.9675383,99.6428589 43.4216124,99.5711109 L43.5313349,99.5854076 C43.2923861,99.5545415 43.0539661,99.5219886 42.8160872,99.4877611 L43.4216124,99.5711109 C43.1498959,99.5354007 42.8788665,99.4975088 42.6085424,99.4574532 L42.8160872,99.4877611 C42.5160502,99.4445899 42.2168741,99.3987547 41.9185835,99.3502803 L42.6085424,99.4574532 C42.3180238,99.4144054 42.0283198,99.3688586 41.739453,99.3208355 L41.9185835,99.3502803 C41.6804096,99.3115753 41.4428004,99.2711877 41.2057683,99.2291301 L41.739453,99.3208355 C41.4808036,99.2778359 41.2228254,99.232851 40.9655345,99.1858969 L41.2057683,99.2291301 C40.9391896,99.1818298 40.6733409,99.1324173 40.4082403,99.0809103 L40.9655345,99.1858969 C40.7271681,99.1423963 40.4893917,99.0972057 40.252218,99.0503377 L40.2521787,99.0503299 C39.7015616,98.9415223 39.1541547,98.8236654 38.6101586,98.6969283 L38.8215947,98.7457008 C38.5890729,98.6925991 38.3571684,98.6378763 38.1258938,98.5815451 L38.6101586,98.6969283 C38.3577617,98.6381263 38.1060989,98.5774127 37.8551865,98.5148036 L38.1258938,98.5815451 C37.8982352,98.5260947 37.671187,98.4690857 37.444761,98.4105301 L37.8551865,98.5148036 C37.6254252,98.4574722 37.3962931,98.3985513 37.1678025,98.3380534 L37.444761,98.4105301 C37.1247098,98.3277622 36.8059018,98.2419043 36.4883707,98.15299 L37.1678025,98.3380534 C36.884214,98.2629671 36.6016137,98.1854515 36.3200252,98.1055301 L36.4883707,98.15299 C36.2749642,98.0932325 36.0621345,98.0320944 35.8498919,97.969586 L36.3200252,98.1055301 C36.0679541,98.0339865 35.8166938,97.960515 35.5662612,97.8851327 L35.8498919,97.969586 C35.6089047,97.898612 35.3686742,97.8258714 35.1292156,97.7513792 L35.5662612,97.8851327 C35.3302615,97.8140948 35.0949969,97.7413599 34.8604816,97.6669422 L35.1292156,97.7513792 C34.8228684,97.6560789 34.5177844,97.5579118 34.213995,97.4569093 L34.8604816,97.6669422 C34.609768,97.5873844 34.3599106,97.5059033 34.110927,97.4225163 L34.213995,97.4569093 C33.9920557,97.3831199 33.7708073,97.3078172 33.5502621,97.2310133 L34.110927,97.4225163 C33.83256,97.3292885 33.5552851,97.2336784 33.2791265,97.1357102 L33.5502621,97.2310133 C33.3258864,97.1528755 33.1022386,97.073184 32.8793315,96.9919516 L33.2791265,97.1357102 C33.0678463,97.0607578 32.8572196,96.9844251 32.6472571,96.906723 L32.8793315,96.9919516 C32.637006,96.9036427 32.3955559,96.8135129 32.1549978,96.7215786 L32.1551476,96.7216359 C31.8727757,96.6137216 31.5917812,96.5033809 31.3120411,96.3905834 L31.7800498,96.5765419 C31.5818117,96.4989356 31.3841899,96.4201003 31.1871939,96.3400453 L31.3120411,96.3905834 C31.0838384,96.298567 30.8564705,96.2049155 30.6299518,96.1096435 L31.1871939,96.3400453 C30.9439937,96.2412139 30.7017472,96.1405236 30.4604719,96.037992 L30.4599518,96.037771 C29.9740678,95.8312912 29.4916111,95.6171072 29.0132463,95.3955845 L29.169293,95.4675201 C28.9409629,95.3627405 28.713558,95.2562915 28.487094,95.1481888 L29.0132463,95.3955845 C28.7893076,95.2918822 28.5662657,95.1865717 28.3441353,95.0796677 L28.3442244,95.0797106 C27.8497275,94.8417255 27.3598356,94.5958895 26.8746232,94.342323 L27.0550199,94.4361284 C26.8579035,94.334139 26.6615523,94.2308766 26.4659773,94.1263519 L26.8746232,94.342323 C26.640586,94.2200178 26.4076375,94.0959142 26.1757961,93.9700303 L26.4659773,94.1263519 C26.2372584,94.0041137 26.0096011,93.8801491 25.7830227,93.7544757 L26.1757961,93.9700303 C25.9889882,93.8685986 25.802899,93.766011 25.6175381,93.6622773 L25.7830227,93.7544757 C25.5703775,93.6365304 25.3586826,93.51708 25.1479523,93.3961388 L25.1480595,93.3962003 C24.8864707,93.2460707 24.6264744,93.0937072 24.3679909,92.939076 L24.7436614,93.1615887 C24.582124,93.0668597 24.4211657,92.9712498 24.2607932,92.8747655 L24.3679909,92.939076 C24.1596623,92.8144486 23.9523165,92.6883482 23.7459676,92.560789 L24.2607932,92.8747655 C24.0410686,92.7425734 23.8224434,92.6087401 23.6049347,92.4732826 L23.6051452,92.4734136 C23.1548245,92.1929681 22.7094951,91.9056977 22.269097,91.6116219 L22.268977,91.6115418 C21.9247075,91.3816558 21.5833335,91.147528 21.2450469,90.9093105 C21.0030637,90.7389064 20.7629078,90.5665906 20.5243548,90.3922127 L20.708874,90.5264501 C20.5781002,90.4317665 20.4478026,90.3364654 20.3179857,90.2405511 L20.5243548,90.3922127 C20.3446504,90.2608521 20.1658556,90.1283214 19.9879815,89.9946316 L20.3179857,90.2405511 C20.1185034,90.093165 19.9201559,89.9443311 19.7229589,89.7940647 L19.723053,89.7941365 C19.1276811,89.3404565 18.5428862,88.8737955 17.9690011,88.3945089 L18.0922965,88.4971468 C17.9297126,88.3622416 17.7679971,88.226326 17.6071598,88.0894098 L17.9690011,88.3945089 C17.7744414,88.2320201 17.5811356,88.0680801 17.3891003,87.9027057 L17.3896154,87.9031492 C16.978745,87.5493212 16.5741915,87.1893863 16.1756019,86.8230635 L16.3687434,86.9996452 C16.1942186,86.8409155 16.0208213,86.6809678 15.848565,86.5198156 L15.8491469,86.52036 L15.5980313,86.2838198 L15.5980313,86.2838198 L15.1916791,85.894073 C13.6903253,84.4378545 12.2800424,82.8882733 10.9701953,81.2546945 L11.1349349,81.4587309 C10.9758085,81.2623999 10.8181397,81.0648385 10.6619452,80.8660634 L10.9701953,81.2546945 C10.826246,81.0751678 10.6835097,80.8946266 10.5419988,80.7130833 L10.6619452,80.8660634 C10.5267648,80.6940312 10.3926886,80.5210898 10.2597273,80.34725 L10.259574,80.3473038 C10.0603653,80.0865948 9.86350969,79.8239196 9.66919657,79.5592605 L9.96713488,79.9610816 C9.82421181,79.7704193 9.68261897,79.5787025 9.54237012,79.3859448 L9.66919657,79.5592605 C9.53502748,79.3765191 9.40207054,79.1928317 9.2703376,79.0082104 L9.54237012,79.3859448 C9.39881888,79.1886484 9.25667567,78.9902615 9.11595527,78.790799 L9.11622001,78.7909995 C8.81579918,78.3653462 8.52211638,77.9349995 8.23505018,77.4999024 L8.36174603,77.6908497 C8.22760605,77.4895566 8.0948869,77.287235 7.9636029,77.0838994 L8.23505018,77.4999024 C8.10454354,77.3020976 7.97540443,77.103311 7.84764631,76.9035559 L7.84800645,76.9040189 C7.41903618,76.2334066 7.00596917,75.5523581 6.60895367,74.8609188 L6.77798339,75.1529616 C6.65392795,74.9402541 6.53139774,74.7265476 6.41040774,74.5118571 L6.60895367,74.8609188 C6.48057758,74.63734 6.35387979,74.4126747 6.22887749,74.1869402 L6.22877089,74.1867215 C5.97554019,73.7294528 5.72916686,73.2675736 5.48990058,72.8014458 L5.48953967,72.8007422 C5.15850206,72.1558302 4.84073767,71.5020638 4.53698756,70.840527 L4.55916499,70.8887836 C4.46020841,70.6738735 4.36273156,70.4581411 4.26674749,70.2415995 L4.53698756,70.840527 C4.42254885,70.5912912 4.31009936,70.3409524 4.19965944,70.0895309 L4.26674749,70.2415995 C4.16862808,70.0202405 4.07206862,69.7980359 3.97708306,69.5749996 L4.19965944,70.0895309 C4.100756,69.8643728 4.00346421,69.6383464 3.90779868,69.4114664 L3.90800469,69.4119913 C3.68849272,68.8913612 3.47773304,68.3667698 3.27569557,67.8378681 L3.38247793,68.1149619 C3.28458954,67.8632335 3.18868125,67.6105158 3.09477218,67.3568279 L3.27569557,67.8378681 C3.1880222,67.6083533 3.1019913,67.3780268 3.01761724,67.1469031 L3.09477218,67.3568279 C3.02391411,67.1654104 2.95419427,66.9734407 2.88562086,66.7809267 L2.88565839,66.7809857 L2.78249411,66.4885201 L2.78249411,66.4885201 L2.5490332,65.8038672 C2.4480163,65.5004192 2.3498288,65.1956786 2.25450198,64.8896765 L2.34383409,65.1734829 C2.26038134,64.9111477 2.17903469,64.6478733 2.09981402,64.3836794 L2.09981401,64.3836335 C1.95487603,63.9003242 1.81705422,63.4138916 1.68647028,62.9245033 L1.77945382,63.2679831 C1.71536997,63.0345516 1.65293577,62.8004374 1.59216454,62.5656539 L1.59211325,62.5654973 C1.40290512,61.8344692 1.22977456,61.0967927 1.07317512,60.3530265 L1.10897335,60.5216337 C1.05620659,60.2752575 1.00525491,60.028208 0.956132999,59.7804999 L1.07317512,60.3530265 C1.01641017,60.0834225 0.961817341,59.8130183 0.909415781,59.5418331 L0.956132999,59.7804999 C0.910780976,59.5518022 0.86698864,59.3225431 0.824767546,59.0927341 L0.824747762,59.0925986 C0.780299748,58.8506963 0.737574861,58.6080485 0.696606385,58.3648042 C0.630869102,57.9744702 0.569671943,57.5827483 0.513050031,57.1895476 L0.540855533,57.380055 C0.502275069,57.1192685 0.465708111,56.8578258 0.431170974,56.5957433 L0.513050031,57.1895476 C0.477986566,56.9460556 0.444677609,56.7019966 0.413136385,56.4573837 L0.413154664,56.4575416 C0.307350253,55.6369762 0.221448731,54.8103385 0.155930797,53.9779694 L0.155884228,53.9773846 L0.106353594,53.2875138 L0.106353594,53.2875138 L0.0640085336,52.5521746 C0.0519818699,52.3129653 0.0416363197,52.0733129 0.0329834627,51.8332289 L0.0437991179,52.1120061 C0.0342841529,51.8830257 0.0263091691,51.6536476 0.0198842515,51.4238819 L0.0329834627,51.8332289 C0.0241369928,51.5877729 0.0170598136,51.3418659 0.0117642997,51.0955201 L0.01177619,51.0960725 L0.00475876209,50.6969843 L0.00475876209,50.6969843 L0,50 C0,49.6337092 0.00393874434,49.2683384 0.01177619,48.9039275 L0.00477243508,49.3020159 C0.0080859266,49.0598448 0.0131210926,48.8180896 0.0198662476,48.5767621 L0.01177619,48.9039275 C0.0170744802,48.6575775 0.0241545023,48.4116663 0.0330038853,48.1662061 L0.0198662476,48.5767621 C0.026288201,48.3469981 0.0342601973,48.1176216 0.0437721518,47.8886429 L0.0437991179,47.8879939 C0.0560965193,47.5919618 0.0710061137,47.2959483 0.0884789992,47.0006244 C0.112658605,46.5920276 0.141694695,46.1853509 0.175565168,45.7800483 L0.17554347,45.780308 C0.243325483,44.9692113 0.330434388,44.1638736 0.436428774,43.3644983 L0.413157446,43.542453 C0.445104151,43.2947019 0.478864238,43.0475189 0.514423965,42.8009179 L0.436428774,43.3644983 C0.469965233,43.1115772 0.505392279,42.859253 0.542695243,42.6075404 L0.542783288,42.6069463 C0.628054416,42.0315544 0.723236218,41.4587706 0.828064893,40.8893648 L0.775393675,41.1803114 C0.820288898,40.9280483 0.867075812,40.6764397 0.915739228,40.4255008 L0.828064893,40.8893648 C0.869291831,40.6654293 0.912010836,40.4420163 0.956211219,40.2191365 L0.915739228,40.4255008 C0.966186391,40.1653638 1.01865014,39.9059465 1.07311356,39.6472659 L0.956211219,40.2191365 C1.005329,39.9714607 1.0562761,39.7244434 1.10903785,39.4780991 L1.10898583,39.478342 C1.2853649,38.6548292 1.48195913,37.8390764 1.69827297,37.0313882 L1.69823721,37.0315217 C1.84129059,36.4973787 1.99292825,35.9668945 2.15302767,35.4400938 L2.04286229,35.8076935 C2.11187179,35.5741413 2.18254093,35.3413012 2.25485607,35.1091869 L2.15302767,35.4400938 C2.21700603,35.2295756 2.28233568,35.0196457 2.34900652,34.8103141 L2.34895481,34.8104764 C2.5291366,34.2447456 2.71905686,33.6835448 2.91856812,33.1269108 L2.78815061,33.4953359 C2.86320993,33.2806112 2.93969273,33.0665547 3.01758771,32.8531778 L2.91856812,33.1269108 C2.98732588,32.9350775 3.05722276,32.7437866 3.12825061,32.5530463 L3.01758771,32.8531778 C3.10825014,32.6048271 3.2008256,32.357397 3.29529627,32.1109053 L3.12825061,32.5530463 C3.21141545,32.329713 3.29613079,32.1071344 3.38238356,31.8853238 L3.38254717,31.884903 C3.66123473,31.1682202 3.95615504,30.4591425 4.26670228,29.7585327 L4.26684677,29.7582068 C4.3648857,29.5370261 4.46463117,29.316366 4.56592472,29.0965663 L4.56617438,29.0960245 C4.79733346,28.5944259 5.03682175,28.0967763 5.28422297,27.6037839 L5.16954366,27.8337816 C5.28712429,27.5964336 5.40653432,27.3601528 5.52775531,27.1249578 L5.28422297,27.6037839 C5.39373823,27.3855546 5.50480404,27.1682379 5.61740592,26.9518483 L5.52775531,27.1249578 C5.6433651,26.9006496 5.76062209,26.677329 5.87951027,26.4550119 L5.87962954,26.4547888 C6.00874392,26.213349 6.13990501,25.9728719 6.272973,25.7336011 L6.05664937,26.1267253 C6.16755465,25.9230142 6.27983518,25.7201599 6.39347847,25.5181748 L6.272973,25.7336011 C6.39711675,25.510377 6.52292021,25.2882028 6.6503667,25.0670952 L6.39347847,25.5181748 C6.51255553,25.306532 6.63312879,25.0958437 6.75518391,24.886124 L6.75504013,24.8863711 C7.00534515,24.4562877 7.26173134,24.0305209 7.52421897,23.608947 L7.49546473,23.6551844 C7.62826435,23.4413804 7.76263219,23.2286521 7.89855218,23.0170157 L7.52421897,23.608947 C7.66346587,23.3853066 7.80442983,23.1628461 7.94709242,22.9415841 L7.89855218,23.0170157 C8.02998845,22.8123607 8.16287615,22.6087266 8.29720075,22.4061281 L7.94709242,22.9415841 C8.08391701,22.7293764 8.22230405,22.5182711 8.36223728,22.3082845 L8.36212314,22.3084557 C8.67183937,21.8436892 8.98901027,21.3845697 9.31357382,20.9311022 L9.12433275,21.1973301 C9.2751614,20.9836712 9.42762297,20.7712474 9.58169928,20.5600768 L9.31357382,20.9311022 C9.44011313,20.7543063 9.56777614,20.5783696 9.69655242,20.4033025 L9.58169928,20.5600768 C9.72383972,20.365265 9.86735442,20.1715198 10.0122291,19.9788555 L9.69655242,20.4033025 C9.83850933,20.2103167 9.98181905,20.0183876 10.1264676,19.8275291 L10.1266602,19.827275 C10.4472895,19.4042163 10.7746976,18.9861702 11.1085391,18.5735435 L11.1087297,18.5733079 C12.3791894,17.003025 13.7430404,15.5110152 15.1916791,14.105927 L15.5978654,13.7171313 L15.5978654,13.7171313 L15.9646445,13.3719306 C16.1065645,13.2399964 16.2492522,13.1088771 16.3927004,12.9785801 L16.2108693,13.145301 C16.368045,13.0011128 16.5261457,12.857917 16.6851614,12.7157237 L16.6844304,12.7156668 C16.9179831,12.5075324 17.1527663,12.30149 17.3894798,12.0976278 L17.2025148,12.2587747 C17.3366454,12.1421146 17.4714038,12.0261577 17.6067844,11.9109098 L17.3894798,12.0976278 C17.5814077,11.9323359 17.7746045,11.7684772 17.9690538,11.6060683 L17.6067844,11.9109098 C17.7952902,11.750437 17.9850023,11.5913387 18.1759051,11.4336306 L17.9690538,11.6060683 C18.1615204,11.4453153 18.355214,11.2859828 18.5501185,11.1280867 L18.5504139,11.1272638 C18.7631588,10.9554985 18.9776458,10.7846266 19.1935584,10.6154919 L18.7343676,10.9789681 C18.9700023,10.7899218 19.207386,10.6029657 19.4464904,10.4181281 L19.1935584,10.6154919 C19.3582309,10.4864961 19.5237327,10.3585109 19.6900545,10.2315455 L19.4464904,10.4181281 C19.631637,10.2750021 19.8178153,10.1331463 20.0050124,9.99257365 L19.6900545,10.2315455 C19.9145015,10.0602089 20.1404418,9.89072964 20.3678523,9.72313054 L20.0050124,9.99257365 C20.1772761,9.86321501 20.3504025,9.73494302 20.5243814,9.60776786 L20.3678523,9.72313054 C20.5999923,9.55204593 20.8336643,9.38292053 21.0688441,9.21577871 L20.5243814,9.60776786 C20.7630082,9.43333627 21.0032388,9.26096807 21.2450469,9.09068952 L21.0688441,9.21577871 C21.269186,9.07339608 21.470622,8.93245289 21.6731371,8.79296421 L21.2450469,9.09068952 C21.4376346,8.95507144 21.631223,8.82077887 21.8257988,8.68782511 L21.6731371,8.79296421 C21.834412,8.68188101 21.9963712,8.57172024 22.1590071,8.46248952 L21.8257988,8.68782511 C22.0446678,8.53827171 22.2647862,8.39041229 22.486135,8.24426571 L22.1590071,8.46248952 C22.3444255,8.3379574 22.5307236,8.21463414 22.7178899,8.09253103 L22.7179356,8.09213818 C23.0121539,7.9005598 23.3085641,7.71160455 23.6070768,7.52570912 L23.1990077,7.78222479 C23.3804646,7.6667902 23.5627162,7.55249332 23.7457522,7.43934418 L23.6070768,7.52570912 C23.8239015,7.39068391 24.0418355,7.25727301 24.2608618,7.12549322 L23.7457522,7.43934418 C23.9521375,7.31176097 24.1595203,7.18563701 24.3678862,7.06098669 L24.2608618,7.12549322 C24.4364473,7.01985014 24.6127348,6.91525532 24.7897157,6.8117174 L24.7897785,6.81140032 C25.2563098,6.53874904 25.7277235,6.27312686 26.203798,6.01500942 L25.857928,6.20406149 C26.0596887,6.09260563 26.2623015,5.98250346 26.4657543,5.87376722 L26.203798,6.01500942 C26.3937241,5.91203554 26.5843921,5.81025606 26.7757917,5.70968107 L26.7754498,5.70964579 C26.9071793,5.64064071 27.0389117,5.57216793 27.1709856,5.50426599 C27.605791,5.28052791 28.0446735,5.06300018 28.4871478,4.85178551 L28.3441917,4.92047701 C28.5662228,4.81361549 28.7891647,4.70834619 29.0130024,4.60468392 L28.4871478,4.85178551 C28.7136425,4.74366851 28.9410782,4.63720569 29.1694395,4.53241267 L29.1692642,4.53264492 C29.6523313,4.31081779 30.1393614,4.09668946 30.6303821,3.89017547 L30.4599284,3.96236288 C30.7013082,3.85977865 30.9436601,3.75903751 31.1869665,3.6601571 L30.6303821,3.89017547 C30.8568244,3.79493815 31.0841154,3.70132021 31.3122406,3.60933614 L31.1869665,3.6601571 C31.3839746,3.58009244 31.5816084,3.50124775 31.7798587,3.42363238 L31.7800498,3.42345813 C32.0472626,3.31894322 32.3157879,3.2164906 32.5854117,3.11629751 L32.4108976,3.18143154 C32.5887689,3.11457583 32.7671221,3.0487047 32.9459506,2.98382479 L32.5854117,3.11629751 C32.8159539,3.03062725 33.0472992,2.94660896 33.2794332,2.86425702 L32.9459506,2.98382479 C33.146799,2.91095594 33.348247,2.83933744 33.550285,2.7689787 L33.2794332,2.86425702 C33.5647349,2.76304329 33.8512279,2.66434665 34.1388856,2.56819378 L33.550285,2.7689787 C33.7708536,2.69216682 33.9921255,2.61685638 34.2140884,2.54305963 L34.1388856,2.56819378 C34.3786688,2.48804347 34.6192613,2.40966068 34.8606476,2.33306086 L34.2140884,2.54305963 C34.5274364,2.43887981 34.8421617,2.33771667 35.1582298,2.23960463 L34.8606476,2.33306086 C35.0950303,2.25868352 35.3301614,2.18598718 35.5660267,2.11498601 L35.1582298,2.23960463 C35.3881575,2.1682318 35.6187959,2.09847363 35.8501316,2.03034336 L35.5660267,2.11498601 C35.8165353,2.03957686 36.067872,1.96607989 36.3200201,1.89451205 L35.8501316,2.03034336 C36.0622604,1.96786971 36.2749756,1.90676486 36.4882669,1.84703905 L36.3200201,1.89451205 C36.6069286,1.81307806 36.8948874,1.73414176 37.1838717,1.6577281 L36.4882669,1.84703905 C36.7918262,1.76203643 37.0965525,1.6798271 37.4024164,1.60044052 L37.1838717,1.6577281 C37.414583,1.59672307 37.6459478,1.53732589 37.8779535,1.47954927 L37.4024164,1.60044052 C37.6429434,1.53801205 37.8841739,1.47732918 38.1260936,1.41840624 L37.8779535,1.47954927 C38.1213316,1.41894057 38.3654149,1.3601152 38.6101887,1.30308783 L38.1260936,1.41840624 C38.3572156,1.3621132 38.5889667,1.3074265 38.8213343,1.25435862 L38.8215907,1.25432195 C39.3471899,1.13426425 39.876203,1.02246041 40.4082286,0.919091928 L40.2521761,0.949684988 C40.489385,0.902808763 40.727197,0.857610403 40.965599,0.814102779 L40.4082286,0.919091928 C40.6732973,0.867591117 40.9391138,0.818184205 41.2056602,0.770889102 L40.965599,0.814102779 C41.2228656,0.767152439 41.4808194,0.722170995 41.7394443,0.679174624 L41.739453,0.679164482 C42.0282784,0.631155963 42.3179495,0.585613201 42.608435,0.542568871 C42.6777963,0.532285002 42.7470964,0.522165253 42.8164425,0.51218781 L42.608435,0.542568871 C42.8786478,0.502528561 43.1495653,0.464650126 43.4211694,0.428951701 L42.8164425,0.51218781 C43.0543046,0.477964479 43.2927077,0.445415436 43.5316395,0.414553008 L43.5313342,0.414596582 C44.0719133,0.344766739 44.6148903,0.283604214 45.1604281,0.231207969 L45.0673107,0.240240809 C45.3002952,0.217425376 45.5337487,0.196209106 45.7676602,0.176603114 L45.1604281,0.231207969 C45.4608448,0.202354408 45.7620381,0.176159207 46.0639841,0.152646169 L45.7676602,0.176603114 C46.0356246,0.154142872 46.3041899,0.133795886 46.5733395,0.115578867 L46.0639841,0.152646169 C46.2946817,0.134681363 46.5258187,0.118282272 46.7573845,0.103459512 L46.5733395,0.115578867 C46.8746563,0.0951846517 47.1767053,0.0774599505 47.4794631,0.0624282097 L46.7573845,0.103459512 C47.1009943,0.0814647034 47.4455482,0.0629406957 47.7910116,0.0479221729 L47.4794631,0.0624282097 C47.7209568,0.0504381942 47.9629015,0.0401615478 48.2052852,0.0316101695 L47.7910116,0.0479221729 C48.0313098,0.0374755546 48.2720481,0.0287250115 48.5132147,0.0216822166 L48.2052852,0.0316101695 C48.4852985,0.0217312069 48.7658977,0.0141547835 49.0470645,0.0088992451 L49.0470071,0.00890030425 L49.2301056,0.00580712599 L49.2301056,0.00580712599 L50,0 L50,0 Z M47.0006889,78.0503094 C42.4964745,78.2019138 38.178035,78.6924371 34.1465253,79.4713018 L33.7034028,79.5586232 C37.0945103,87.0326192 41.7532672,92.1638907 47.0007145,93.5945199 L47.0006889,78.0503094 Z M53.0003136,78.0503431 L53.0002866,93.5942469 C58.2473253,92.1632381 62.9057053,87.0321439 66.2965972,79.5586232 C62.1396314,78.7290326 57.6698072,78.2075637 53.0003136,78.0503431 Z M28.0042247,80.942412 L27.9882336,80.9466128 C25.6004112,81.637746 23.3545432,82.4378757 21.2778483,83.3333925 C25.0103972,86.5523303 29.2894542,89.1551552 33.9569804,90.9836508 C31.7080302,88.171695 29.7016388,84.7847919 28.0042247,80.942412 Z M71.9958296,80.9420022 L71.8101755,81.3580068 C70.152743,85.0293142 68.210555,88.2735128 66.0435317,90.9836023 C70.7105458,89.1551552 74.9896028,86.5523303 78.7221517,83.3332151 C76.6408373,82.4358836 74.3895963,81.6341868 71.9958296,80.9420022 Z M22.0496014,53.0009787 L6.10068623,53.0003136 C6.76967111,62.9348306 10.7361318,71.965562 16.9146997,79.0071391 C19.6582128,77.6492824 22.6691294,76.4585982 25.8978344,75.4619426 C23.6899162,68.8134613 22.3204451,61.1711375 22.0496014,53.0009787 Z M93.8993138,53.0003136 L77.9503986,53.0009787 C77.6795549,61.1711375 76.3100838,68.8134613 74.1020909,75.463476 C77.3308706,76.4585982 80.3417872,77.6492824 83.0847993,79.0059303 C89.2638682,71.965562 93.2303289,62.9348306 93.8993138,53.0003136 Z M47,53 L28.0503431,53.0003136 C28.3096539,60.7019147 29.5598426,67.8603481 31.5480667,73.9699287 C36.3746407,72.8945466 41.5707938,72.2294886 47.0000204,72.0495683 L47,53 Z M71.9496569,53.0003136 L53,53 L53.0009787,72.0496014 C58.4298437,72.2295702 63.6256554,72.8946125 68.4521448,73.9684176 C70.4401574,67.8603481 71.6903461,60.7019147 71.9496569,53.0003136 Z M16.9152007,20.9940697 L16.5915858,21.3652715 C10.5977783,28.351798 6.75767252,37.2400539 6.10061873,47.0006889 L22.0495683,47.0000204 C22.3203334,38.8294856 23.6898262,31.1868098 25.8979091,24.536524 C22.6691294,23.5414018 19.6582128,22.3507176 16.9152007,20.9940697 Z M31.5478552,26.0315824 L31.4773614,26.2487516 C29.5301263,32.3104619 28.3064589,39.3904078 28.0503094,47.0006889 L47,47 L47.0000204,27.9504317 C41.5707938,27.7705114 36.3746407,27.1054534 31.5478552,26.0315824 Z M83.0853003,20.9928609 L82.5394642,21.2599 C79.944318,22.5066843 77.1182673,23.6070295 74.1021656,24.5380574 C76.3101738,31.1868098 77.6796666,38.8294856 77.9504317,47.0000204 L93.8993813,47.0006889 C93.2305957,37.0657769 89.264076,28.0346748 83.0853003,20.9928609 Z M68.4519333,26.0300713 L68.0153122,26.127434 C63.312656,27.1449836 58.2664347,27.7758469 53.0009787,27.9503986 L53,47 L71.9496906,47.0006889 C71.6904546,39.2987065 70.4402437,32.139917 68.4519333,26.0300713 Z M47.0007145,6.40548015 C41.7739903,7.83045951 37.1313161,12.9269098 33.7436385,20.3529378 L33.7029196,20.4416029 C37.8606661,21.2710267 42.3308326,21.792511 47.0006889,21.9496906 L47.0007145,6.40548015 Z M53.0002866,6.40575311 L53.0003136,21.9496569 C57.6698072,21.7924363 62.1396314,21.2709674 66.2970804,20.4416029 C62.9057053,12.9678561 58.2473253,7.83676193 53.0002866,6.40575311 Z M33.9564683,9.01639767 L33.5074024,9.19534813 C29.0145055,11.0130712 24.8902336,13.5513041 21.2778483,16.6667849 C23.3591627,17.5641164 25.6104037,18.3658132 28.0041704,19.0579978 C29.7016388,15.2152081 31.7080302,11.828305 33.9564683,9.01639767 Z M66.0430196,9.01634916 L66.1868849,9.19687029 C68.3773067,11.972802 70.3345182,15.2970555 71.9957753,19.057588 C74.3895963,18.3658132 76.6408373,17.5641164 78.7221517,16.6666075 C74.9896028,13.4476697 70.7105458,10.8448448 66.0430196,9.01634916 Z" id="Shadow"></path>
        <path d="M50,0 L50.7698863,0.00580699611 C50.8309484,0.00672870161 50.891984,0.00775986683 50.9529929,0.00890030425 L50.7698944,0.00580711917 C51.0092863,0.00942066974 51.2482702,0.0147166194 51.4868351,0.0216836689 L50.9529929,0.00890030425 C51.2341466,0.014155904 51.5147328,0.0217321627 51.7947331,0.0316107282 L51.4868351,0.0216836689 C51.727923,0.0287244023 51.9685828,0.0374717698 52.2088029,0.0479141099 L51.7947331,0.0316107282 C52.0371953,0.0401649287 52.2792182,0.0504455008 52.5207898,0.0624405281 L52.2088029,0.0479141099 C52.5543151,0.0629334878 52.8989177,0.0814593419 53.2425758,0.103456973 L52.5207898,0.0624405281 C52.823514,0.0774720342 53.1255296,0.0951958724 53.4268132,0.115588592 L53.2425758,0.103456973 C53.4739696,0.118268537 53.7049352,0.134654091 53.9354621,0.152603042 L53.4268132,0.115588592 C53.6961213,0.133817018 53.9648444,0.154177886 54.2329659,0.176654448 L53.9354621,0.152603042 C54.2376361,0.176130484 54.5390563,0.20234414 54.8396988,0.231220154 L54.2329659,0.176654448 C54.466583,0.196238512 54.6997432,0.217428771 54.9324357,0.240214149 L54.932689,0.240238957 C55.4837619,0.294200338 56.0324617,0.357141117 56.5783876,0.428889127 L56.4686651,0.414592351 C56.7076139,0.445458465 56.9460339,0.478011436 57.1839128,0.512238932 L56.5783876,0.428889127 C56.8501041,0.464599313 57.1211335,0.502491244 57.3914576,0.542546751 L57.3915639,0.542562508 L58.0784124,0.649231583 C58.3175924,0.688085097 58.5562031,0.728635462 58.7942317,0.770869925 L58.260547,0.679164482 C58.5191964,0.722164061 58.7771746,0.767149009 59.0344655,0.814103136 L58.7942317,0.770869925 C59.0608104,0.818170155 59.3266591,0.867582704 59.5917597,0.919089656 L59.0344655,0.814103136 C59.2728319,0.857603662 59.5106083,0.902794344 59.747782,0.949662309 L59.7478213,0.94967008 C60.2984384,1.05847774 60.8458453,1.17633457 61.3898414,1.30307166 L61.1784053,1.25429916 C61.4109271,1.30740094 61.6428316,1.36212369 61.8741062,1.4184549 L61.3898414,1.30307166 C61.6345162,1.36007461 61.8785011,1.418874 62.1217813,1.47945518 L61.8741062,1.4184549 C62.1017648,1.47390535 62.328813,1.53091434 62.555239,1.58946995 L62.1217813,1.47945518 C62.3592627,1.53859234 62.5960727,1.59942735 62.8321975,1.66194659 L62.555239,1.58946995 C62.8752902,1.67223781 63.1940982,1.75809574 63.5116293,1.84700999 L62.8321975,1.66194659 C63.115786,1.73703286 63.3983863,1.81454849 63.6799748,1.89446986 L63.5116293,1.84700999 C63.7250358,1.90676754 63.9378655,1.96790561 64.1501081,2.03041396 L63.6799748,1.89446986 C63.9320459,1.96601352 64.1833062,2.03948499 64.4337388,2.11486733 L64.1501081,2.03041396 C64.3813712,2.0985241 64.6119374,2.16826113 64.8417933,2.2396118 L64.4337388,2.11486733 C64.6697385,2.18590524 64.9050031,2.25864011 65.1395184,2.33305776 L64.8417933,2.2396118 C65.1578851,2.33773135 65.4726338,2.43890246 65.786005,2.54309068 L65.1395184,2.33305776 C65.3808149,2.40962726 65.6213181,2.48797827 65.8610127,2.56809533 L65.786005,2.54309068 C66.0079443,2.61688007 66.2291927,2.69218282 66.4497379,2.7689867 L65.8610127,2.56809533 C66.1488077,2.66428977 66.4354369,2.76303019 66.7208735,2.86428984 L66.4497379,2.7689867 C66.6741136,2.84712451 66.8977614,2.92681604 67.1206685,3.0080484 L66.7208735,2.86428984 C66.9281176,2.93781042 67.134733,3.01265905 67.3407096,3.0888255 L67.1206685,3.0080484 C67.362994,3.09635726 67.6044441,3.18648711 67.8450022,3.27842139 L67.8448524,3.27836412 C68.1272243,3.38627842 68.4082188,3.49661906 68.6879589,3.60941656 L68.2199502,3.42345813 C68.4181883,3.50106439 68.6158101,3.5798997 68.8128061,3.65995469 L68.6879589,3.60941656 C68.9161616,3.70143304 69.1435295,3.79508451 69.3700482,3.89035646 L68.8128061,3.65995469 C69.0560063,3.75878608 69.2982528,3.85947638 69.5395281,3.96200796 L69.5400482,3.96222899 C70.0259322,4.16870875 70.5083889,4.38289277 70.9867537,4.60441551 L70.830707,4.53247989 C71.0590371,4.63725951 71.286442,4.74370849 71.512906,4.85181118 L70.9867537,4.60441551 C71.2106924,4.70811778 71.4337343,4.81342833 71.6558647,4.92033234 L71.6557756,4.92028945 C72.1502725,5.15827445 72.6401644,5.40411051 73.1253768,5.65767704 L72.9449801,5.56387164 C73.1420965,5.66586099 73.3384477,5.76912343 73.5340227,5.87364806 L73.1253768,5.65767704 C73.3499755,5.77504973 73.5735715,5.89407879 73.7961487,6.01474801 L73.5340227,5.87364806 C73.7489643,5.98852313 73.9629684,6.10492275 74.1760206,6.22283248 L73.7961487,6.01474801 C73.992382,6.12113505 74.1878235,6.22879697 74.3824619,6.33772267 L74.1760206,6.22283248 C74.3869733,6.33958033 74.5969928,6.45780867 74.806065,6.57750348 L74.8060333,6.5774853 C75.0830533,6.73608056 75.3583788,6.8972316 75.6320091,7.06092402 L75.2102215,6.81140032 C75.3872466,6.91495735 75.5635779,7.01957164 75.7392068,7.12523454 L75.6320091,7.06092402 C75.8403377,7.18555136 76.0476835,7.31165181 76.2540324,7.43921099 L75.7392068,7.12523454 C75.9582559,7.25702016 76.1762123,7.39043697 76.3930592,7.52546816 L76.3928595,7.52534385 C76.8438523,7.80617839 77.2898506,8.09386537 77.730903,8.38837809 L77.731023,8.38845818 C78.0621104,8.60954181 78.3905287,8.83455472 78.7160939,9.06335287 C78.9710862,9.24255506 79.2242557,9.42402617 79.4756452,9.60778729 L79.0247446,9.28200782 C79.2282519,9.42733272 79.4306239,9.57414528 79.6318447,9.72242961 L79.4756452,9.60778729 C79.6553496,9.73914786 79.8341444,9.87167863 80.0120185,10.0053684 L79.6318447,9.72242961 C79.8353655,9.87240892 80.0377087,10.0238938 80.2388577,10.1768679 L80.2390416,10.1770078 C80.8341062,10.6295551 81.4188977,11.0952832 81.9928063,11.5736262 L81.8916639,11.4895498 C82.0596524,11.628822 82.2267147,11.7691723 82.3928402,11.9105902 L81.9928063,11.5736262 C82.2002662,11.7465405 82.4063041,11.9211033 82.6108997,12.0972943 L82.6103846,12.0968508 L83.1003256,12.5243081 C83.2750518,12.6787517 83.4486898,12.8343984 83.6212266,12.9912351 L83.1326909,12.5529411 C83.353307,12.7482857 83.5721844,12.9455498 83.7892967,13.1447074 L83.6212266,12.9912351 C83.7859458,13.1409655 83.9496613,13.2917806 84.1123619,13.443669 L84.11206,13.4433871 L84.4019687,13.7161802 L84.4019687,13.7161802 L84.8083209,14.105927 C86.3096747,15.5621455 87.7199576,17.1117267 89.0298047,18.7453055 L88.8464725,18.5183431 C88.9913339,18.6968593 89.1349894,18.8763942 89.2774267,19.0569353 L89.0298047,18.7453055 C89.173754,18.9248322 89.3164903,19.1053734 89.4580012,19.2869167 L89.2774267,19.0569353 C89.4331706,19.2543426 89.587458,19.4529529 89.7402727,19.65275 L89.740426,19.6526962 C89.9306035,19.9015974 90.1186498,20.1522858 90.3043802,20.4047839 L89.9931984,19.9860746 C90.1466382,20.1902059 90.2985515,20.39555 90.4489214,20.60209 L90.3043802,20.4047839 C90.4262001,20.5703965 90.5470237,20.7367876 90.6668422,20.9039485 L90.4489214,20.60209 C90.5904163,20.7964397 90.7305447,20.9918483 90.8692922,21.1883016 L90.8689147,21.1879427 C91.1530039,21.5900102 91.4309425,21.9960871 91.702987,22.4064114 L91.6309386,22.2981758 C91.7675692,22.5030894 91.902727,22.7090694 92.0363971,22.9161006 L91.702987,22.4064114 C91.8546138,22.6351098 92.0044097,22.8651276 92.1523537,23.0964441 L92.0363971,22.9161006 C92.1841164,23.1448915 92.3300187,23.3749663 92.4740836,23.6063045 L92.1523537,23.0964441 C92.2709245,23.2818344 92.3883059,23.4680589 92.504487,23.6551067 L92.504662,23.6554705 C92.8082774,24.1441996 93.1038613,24.6389219 93.3910463,25.1390812 L93.2220166,24.8470384 C93.346072,25.0597459 93.4686023,25.2734524 93.5895923,25.4881429 L93.3910463,25.1390812 C93.5114864,25.3488387 93.6304492,25.5595524 93.7479206,25.7712083 L93.7478883,25.7711771 C93.996022,26.2182285 94.2374708,26.6694508 94.4721333,27.1247417 L94.3829333,26.9525047 C94.4992484,27.1760343 94.6139243,27.4005536 94.7269453,27.6260465 L94.4721333,27.1247417 C94.5806609,27.3353063 94.687737,27.5467411 94.7933483,27.7590329 L94.7933264,27.7589809 C95.0159395,28.2064688 95.2320241,28.6577116 95.4414781,29.1126375 L95.4412948,29.112215 C95.555015,29.359235 95.6666036,29.6069147 95.7762242,29.8556568 L95.7332525,29.7584005 C95.8307859,29.9784373 95.9267778,30.1993097 96.0212147,30.4210039 L95.7762242,29.8556568 C95.8834386,30.0989389 95.9887704,30.3432373 96.0922013,30.5885336 L96.0919953,30.5880087 C96.3044739,31.0919586 96.5087396,31.5995865 96.7048389,32.111258 L96.6175221,31.8850381 C96.7038402,32.1070127 96.7886187,32.3297566 96.8718444,32.5532565 L96.7048389,32.111258 C96.7992524,32.3576063 96.891773,32.6048918 96.9823828,32.8530969 L96.8718444,32.5532565 C96.9428708,32.7439956 97.0127663,32.9352854 97.0815226,33.1271177 L96.9823828,32.8530969 C97.0603056,33.0665489 97.1368152,33.2806809 97.2119003,33.4954816 L97.2119008,33.4954361 C97.3985202,34.0293567 97.5763405,34.5673627 97.7451872,35.1093257 L97.6510846,34.8105533 C97.7177403,35.019842 97.7830555,35.229729 97.8470199,35.4402041 L97.7451872,35.1093257 C97.81744,35.3412425 97.8880497,35.573884 97.9570026,35.8072364 L97.9571695,35.8077556 C98.1161637,36.345874 98.2664971,36.8882998 98.4078355,37.4343461 L98.4078867,37.4345027 C98.5970949,38.1655308 98.7702254,38.9032073 98.9268249,39.6469735 L98.8910266,39.4783663 C98.9437934,39.7247425 98.9947451,39.971792 99.043867,40.2195001 L98.9268249,39.6469735 C98.9812897,39.9056532 99.0337549,40.1650696 99.0842035,40.4252056 L99.043867,40.2195001 C99.0880358,40.4422312 99.1307252,40.6654947 99.1719246,40.8892801 L99.0842035,40.4252056 C99.1329136,40.676377 99.1797437,40.9282193 99.2246786,41.1807173 L99.2246136,41.1803255 C99.3203025,41.7180469 99.4073436,42.258346 99.4856553,42.8014677 L99.4572209,42.6069545 C99.4945418,42.8587692 99.5299852,43.111196 99.5635366,43.3642203 L99.4856553,42.8014677 C99.5211938,43.0479405 99.5549344,43.2949946 99.5868636,43.5426163 L99.5868453,43.5424584 C99.6926497,44.3630238 99.7785513,45.1896615 99.8440692,46.0220306 L99.8441158,46.0226154 C99.8696612,46.3471626 99.8921431,46.6731692 99.9114853,47.0000204 C99.9344503,47.3881692 99.9529652,47.7769011 99.9670165,48.1667711 L99.9562009,47.8879939 C99.9657158,48.1169743 99.9736908,48.3463524 99.9801157,48.5761181 L99.9670165,48.1667711 C99.975863,48.4122271 99.9829402,48.6581341 99.9882357,48.9044799 L99.9882238,48.9039275 C99.9960652,49.2687076 100,49.6338943 100,50 C100,50.4759954 99.9933486,50.9504374 99.9801338,51.4232379 L99.9882238,51.0960725 C99.9829255,51.3424225 99.9758455,51.5883337 99.9669961,51.8337939 L99.9801338,51.4232379 C99.9737118,51.6530019 99.9657398,51.8823784 99.9562278,52.1113571 L99.9562009,52.1120061 L99.9359913,52.5521749 L99.9359913,52.5521749 L99.8936464,53.2875138 C99.873574,53.5967652 99.8506901,53.9052502 99.82502,54.2129436 L99.8250413,54.2126877 C99.7583067,55.0125987 99.672775,55.8069068 99.5688689,56.5954238 L99.5868426,56.457547 C99.5552847,56.7022827 99.5219573,56.946464 99.4868736,57.1900776 L99.5688689,56.5954238 C99.5343467,56.8574046 99.4977961,57.1187463 99.4592336,57.3794323 L99.4591403,57.3800632 C99.4104966,57.7088988 99.3585458,58.0373182 99.3034142,58.3646576 C99.2370611,58.7586156 99.1661311,59.1508519 99.0906548,59.5414679 L99.1752522,59.0925986 C99.1330008,59.3225747 99.0891758,59.5520002 99.0437888,59.7808635 L99.0906548,59.5414679 C99.0382506,59.8126775 98.9836548,60.083106 98.9268864,60.3527341 L99.0437888,59.7808635 C98.994671,60.0285393 98.9437239,60.2755566 98.8909621,60.5219009 L98.8910142,60.521658 C98.7178449,61.3301841 98.5251917,62.1312213 98.3135207,62.9244945 L98.407865,62.5655396 C98.3470857,62.8003568 98.2846429,63.0345044 98.22055,63.2679692 L98.2205462,63.2679831 C98.0711008,63.8123528 97.9126797,64.3530236 97.7454556,64.8898127 L97.900186,64.3836335 C97.8209453,64.6478935 97.7395776,64.9112339 97.6561027,65.1736348 L97.6561266,65.1735595 L97.4509668,65.8038672 L97.4509668,65.8038672 L97.2174547,66.48862 C97.1405987,66.7087264 97.0622472,66.9281312 96.9824123,67.1468222 L97.1143416,66.7809857 C97.0457838,66.9734548 96.97608,67.1653802 96.9052385,67.3567537 L96.9824123,67.1468222 C96.89801,67.3780245 96.8119498,67.6084289 96.724246,67.8380212 L96.9052385,67.3567537 C96.8113563,67.6103702 96.7154759,67.8630175 96.6176164,68.1146762 L96.6174528,68.115097 C96.3387653,68.8317798 96.043845,69.5408575 95.7332977,70.2414673 L95.8002066,70.0898359 C95.6897319,70.341332 95.5772464,70.5917447 95.4627705,70.8410538 L95.7332977,70.2414673 C95.6373575,70.4579131 95.5399258,70.6735507 95.4410156,70.8883671 L95.4407249,70.8889984 C95.2132594,71.3830155 94.9776642,71.8733095 94.734389,72.3590897 L94.8433465,72.1401792 C94.7339191,72.3613934 94.6229031,72.5816818 94.5103132,72.8010293 L94.734389,72.3590897 C94.6215548,72.5844011 94.5070684,72.8087415 94.3909457,73.0320951 L94.5103132,72.8010293 C94.3915389,73.0324255 94.2710131,73.2627748 94.1487534,73.4920595 L94.1485919,73.4923624 C94.0103902,73.7515445 93.8698063,74.0096661 93.727027,74.2663989 L93.9982853,73.7720927 C93.8695615,74.0098378 93.738967,74.2464218 93.6065215,74.4818252 L93.727027,74.2663989 C93.6131746,74.471118 93.4979263,74.674954 93.3812949,74.8778942 L93.6065215,74.4818252 C93.4874445,74.693468 93.3668712,74.9041563 93.2448161,75.113876 L93.2449599,75.1136289 C92.861947,75.7717359 92.4644965,76.4200635 92.0529076,77.0584159 L92.1297283,76.938899 C91.9992032,77.1426038 91.8672411,77.3452995 91.7338564,77.546972 L92.0529076,77.0584159 C91.9211042,77.262836 91.7878509,77.4662331 91.6531623,77.6685928 L91.6531338,77.6686356 C91.3525941,78.1201741 91.044878,78.566589 90.7301756,79.0076758 L90.8841606,78.7906347 C90.7305627,79.0083521 90.5752697,79.224788 90.4183007,79.4399232 L90.7301756,79.0076758 C90.5985058,79.1922243 90.4656129,79.37584 90.3315089,79.5585113 L90.4183007,79.4399232 C90.2778795,79.6323787 90.1361171,79.8237932 89.9930272,80.0141531 L90.3315089,79.5585113 C90.1803826,79.7643697 90.0277181,79.9690285 89.8735324,80.1724709 L89.8733398,80.172725 C89.5527105,80.5957837 89.2253024,81.0138298 88.8914609,81.4264565 L88.8912703,81.4266921 C87.270034,83.4305334 85.4968456,85.3067722 83.5893763,87.0376922 L83.7639531,86.8785245 C83.5813068,87.0458365 83.3974137,87.2118095 83.2122894,87.376428 L83.5893763,87.0376922 C83.405514,87.2045367 83.2204041,87.3700311 83.0340622,87.5341597 L83.2122894,87.376428 C83.0749881,87.4985207 82.9370095,87.6198683 82.79836,87.7404644 L82.7984861,87.7403547 C82.6593254,87.8613955 82.5196162,87.9815709 82.3792387,88.1009842 C82.0274535,88.4002338 81.6714478,88.6947169 81.3113454,88.9843132 L81.3118313,88.9839224 C81.0013691,89.2335978 80.6883572,89.4792615 80.3723739,89.7212399 C80.1211647,89.9136117 79.8683795,90.1034319 79.6137529,90.2908964 L79.9570912,90.0358561 C79.7887886,90.1619919 79.6196645,90.2870913 79.4497283,90.4111448 L79.6137529,90.2908964 C79.4574779,90.4059512 79.3005093,90.5201185 79.1428546,90.6333911 L79.4497283,90.4111448 C79.2455143,90.5602211 79.0401276,90.707787 78.8335846,90.8538261 L78.8334702,90.853907 C78.4020005,91.1589836 77.9653677,91.4574745 77.5238363,91.749149 L77.7512389,91.5980354 C77.513228,91.7571353 77.273775,91.9142468 77.0329038,92.069346 L77.5238363,91.749149 C77.3483562,91.8650706 77.1721023,91.9799156 76.9950841,92.0936744 L76.99582,92.0932015 C76.5384828,92.3871044 76.076796,92.6733081 75.6101852,92.952124 L75.7042863,92.8957552 C75.5402191,92.9942802 75.3755401,93.0918906 75.2102563,93.1885793 L75.6101852,92.952124 C75.382534,93.0881534 75.1537107,93.2224243 74.9237341,93.354918 L74.9241453,93.3546811 C74.4634789,93.6200793 73.9986043,93.8781223 73.5292608,94.1288966 L73.7580667,94.0058766 C73.5360254,94.1260059 73.3129723,94.2445038 73.0889232,94.3613541 L73.5292608,94.1288966 C73.3207765,94.2402916 73.1114103,94.3502523 72.9011755,94.4587657 L73.0889232,94.3613541 C72.8867159,94.466813 72.6836974,94.57093 72.4798796,94.6736932 L72.4804378,94.6734118 C72.2027271,94.8134311 71.9240964,94.9506658 71.6440174,95.0853674 C71.5865939,95.1129845 71.5293095,95.1403998 71.4719648,95.1677092 L71.6440174,95.0853674 C71.4235513,95.1913988 71.2021878,95.2958607 70.9799413,95.3987386 L71.4719648,95.1677092 C71.2504177,95.2732171 71.0279718,95.3771429 70.804642,95.4794721 L70.9799413,95.3987386 C70.7481891,95.5060167 70.5154769,95.6115724 70.281821,95.7153894 L70.804642,95.4794721 C70.5870376,95.5791779 70.3685939,95.677368 70.1493244,95.7740287 L70.281821,95.7153894 C70.0187192,95.8322896 69.754421,95.9469852 69.4889497,96.0594527 L70.1493244,95.7740287 C69.8941872,95.8865009 69.637932,95.9969026 69.3805801,96.1052125 L69.4889497,96.0594527 C69.2681356,96.1530011 69.0465099,96.2450079 68.8240861,96.3354597 L69.3805801,96.1052125 C69.1392954,96.2067602 68.8970466,96.3064691 68.6538513,96.4043217 L68.8240861,96.3354597 C68.6044026,96.4247972 68.3839405,96.5126177 68.1627129,96.5989083 L68.6538513,96.4043217 C68.4252329,96.4963091 68.195778,96.586656 67.9655011,96.6753478 L68.1627129,96.5989083 C67.8845261,96.707416 67.6051287,96.8135046 67.3245467,96.9171481 L67.9655011,96.6753478 C67.6947613,96.7796242 67.4228853,96.8816127 67.1498969,96.9812897 L67.3245467,96.9171481 C67.1011071,96.9996838 66.8769164,97.0806691 66.6519874,97.1600907 L67.1498969,96.9812897 C66.9090566,97.0692284 66.6673505,97.155368 66.4247947,97.2396922 L66.4250934,97.2395884 C65.9505392,97.4045666 65.4730357,97.5625007 64.9924058,97.7133731 L65.0679311,97.6895991 C64.8430705,97.7605786 64.6175232,97.8300117 64.3913018,97.8978859 L64.9924058,97.7133731 C64.7271364,97.7966427 64.4609147,97.8777611 64.193761,97.9567079 L64.3913018,97.8978859 C64.1531763,97.9693318 63.9143037,98.0390504 63.6746987,98.1070273 L64.193761,97.9567079 C63.9412896,98.031316 63.687986,98.1039846 63.4338673,98.1746965 L63.4336263,98.1747636 C62.9375717,98.3127974 62.4381674,98.443435 61.9357829,98.5664808 L62.0569748,98.5366365 C61.8119252,98.5973084 61.5661627,98.656173 61.3197022,98.7132154 L61.9357829,98.5664808 C61.6937357,98.6257639 61.4509968,98.6832846 61.2075805,98.7390288 L61.2075229,98.7390419 C60.679111,98.8600521 60.1474486,98.9727014 59.6127403,99.0768293 L59.7098495,99.0578182 C59.492907,99.1005132 59.2754609,99.1418049 59.0575211,99.1816837 L59.6127403,99.0768293 C59.3271629,99.132442 59.0407168,99.1856241 58.7534242,99.2363532 L59.0575211,99.1816837 C58.814244,99.2261988 58.5703519,99.2689531 58.3258582,99.3099332 L58.7534242,99.2363532 C58.5222893,99.2771662 58.2906066,99.3163914 58.0583877,99.3540171 L58.3258582,99.3099332 C58.0135518,99.3622794 57.7002639,99.4117306 57.3860233,99.4582582 L58.0583877,99.3540171 C57.762978,99.4018815 57.4667007,99.4471576 57.1695797,99.4898213 L57.3860233,99.4582582 C57.1209525,99.4975055 56.8552038,99.5346725 56.5887942,99.5697421 L57.1695797,99.4898213 C56.9280769,99.5244988 56.6860167,99.5574503 56.4434121,99.5886632 L56.5887942,99.5697421 C56.3372991,99.6028484 56.0852151,99.6340855 55.8325565,99.6634392 L56.4434121,99.5886632 C56.1873265,99.6216104 55.9306342,99.6526203 55.6733505,99.6816776 L55.6734539,99.6816659 C55.10704,99.745636 54.5378638,99.8001344 53.9659837,99.8450112 L54.2194071,99.8244803 C53.9441164,99.8474829 53.6681919,99.8682552 53.3916515,99.886779 L53.9659837,99.8450112 C53.7240105,99.8639994 53.4815532,99.881265 53.238624,99.8967958 L53.3916515,99.886779 C53.092709,99.9068035 52.7930468,99.9242004 52.492688,99.938947 L53.238624,99.8967958 C52.9490316,99.9153099 52.6587686,99.9313586 52.3678559,99.9449213 L52.492688,99.938947 C52.2417547,99.951267 51.9903351,99.9617371 51.7384426,99.9703439 L52.3678559,99.9449213 C52.0807814,99.958305 51.7930742,99.9692679 51.5047542,99.9777899 L51.7384426,99.9703439 C51.4830148,99.9790716 51.2271008,99.9858834 50.9707145,99.9907653 L50.9710083,99.9907597 L50.7564954,99.9943934 L50.7564954,99.9943934 L50,100 L50,100 L49.2360338,99.994282 C49.1729966,99.9933378 49.1099876,99.992277 49.0470071,99.9910997 L49.2361096,99.9942832 C48.9947096,99.9906678 48.7537242,99.9853416 48.5131649,99.9783163 L49.0470071,99.9910997 C48.7658534,99.9858441 48.4852672,99.9782678 48.2052669,99.9683893 L48.5131649,99.9783163 C48.272077,99.9712756 48.0314172,99.9625282 47.7911971,99.9520859 L48.2052669,99.9683893 C47.9628047,99.9598351 47.7207818,99.9495545 47.4792102,99.9375595 L47.7911971,99.9520859 C47.4456849,99.9370665 47.1010823,99.9185407 46.7574242,99.896543 L47.4792102,99.9375595 C47.176486,99.922528 46.8744704,99.9048041 46.5731868,99.8844114 L46.7574242,99.896543 C46.5260304,99.8817315 46.2950648,99.8653459 46.0645379,99.847397 L46.5731868,99.8844114 C46.3038787,99.866183 46.0351556,99.8458221 45.7670341,99.8233456 L46.0645379,99.847397 C45.7623639,99.8238695 45.4609437,99.7976559 45.1603012,99.7687798 L45.7670341,99.8233456 C45.533417,99.8037615 45.3002568,99.7825712 45.0675643,99.7597859 L45.067311,99.759761 C44.5162381,99.7057997 43.9675383,99.6428589 43.4216124,99.5711109 L43.5313349,99.5854076 C43.2923861,99.5545415 43.0539661,99.5219886 42.8160872,99.4877611 L43.4216124,99.5711109 C43.1498959,99.5354007 42.8788665,99.4975088 42.6085424,99.4574532 L42.8160872,99.4877611 C42.5160502,99.4445899 42.2168741,99.3987547 41.9185835,99.3502803 L42.6085424,99.4574532 C42.3180238,99.4144054 42.0283198,99.3688586 41.739453,99.3208355 L41.9185835,99.3502803 C41.6804096,99.3115753 41.4428004,99.2711877 41.2057683,99.2291301 L41.739453,99.3208355 C41.4808036,99.2778359 41.2228254,99.232851 40.9655345,99.1858969 L41.2057683,99.2291301 C40.9391896,99.1818298 40.6733409,99.1324173 40.4082403,99.0809103 L40.9655345,99.1858969 C40.7271681,99.1423963 40.4893917,99.0972057 40.252218,99.0503377 L40.2521787,99.0503299 C39.7015616,98.9415223 39.1541547,98.8236654 38.6101586,98.6969283 L38.8215947,98.7457008 C38.5890729,98.6925991 38.3571684,98.6378763 38.1258938,98.5815451 L38.6101586,98.6969283 C38.3577617,98.6381263 38.1060989,98.5774127 37.8551865,98.5148036 L38.1258938,98.5815451 C37.8982352,98.5260947 37.671187,98.4690857 37.444761,98.4105301 L37.8551865,98.5148036 C37.6254252,98.4574722 37.3962931,98.3985513 37.1678025,98.3380534 L37.444761,98.4105301 C37.1247098,98.3277622 36.8059018,98.2419043 36.4883707,98.15299 L37.1678025,98.3380534 C36.884214,98.2629671 36.6016137,98.1854515 36.3200252,98.1055301 L36.4883707,98.15299 C36.2749642,98.0932325 36.0621345,98.0320944 35.8498919,97.969586 L36.3200252,98.1055301 C36.0679541,98.0339865 35.8166938,97.960515 35.5662612,97.8851327 L35.8498919,97.969586 C35.6089047,97.898612 35.3686742,97.8258714 35.1292156,97.7513792 L35.5662612,97.8851327 C35.3302615,97.8140948 35.0949969,97.7413599 34.8604816,97.6669422 L35.1292156,97.7513792 C34.8228684,97.6560789 34.5177844,97.5579118 34.213995,97.4569093 L34.8604816,97.6669422 C34.609768,97.5873844 34.3599106,97.5059033 34.110927,97.4225163 L34.213995,97.4569093 C33.9920557,97.3831199 33.7708073,97.3078172 33.5502621,97.2310133 L34.110927,97.4225163 C33.83256,97.3292885 33.5552851,97.2336784 33.2791265,97.1357102 L33.5502621,97.2310133 C33.3258864,97.1528755 33.1022386,97.073184 32.8793315,96.9919516 L33.2791265,97.1357102 C33.0678463,97.0607578 32.8572196,96.9844251 32.6472571,96.906723 L32.8793315,96.9919516 C32.637006,96.9036427 32.3955559,96.8135129 32.1549978,96.7215786 L32.1551476,96.7216359 C31.8727757,96.6137216 31.5917812,96.5033809 31.3120411,96.3905834 L31.7800498,96.5765419 C31.5818117,96.4989356 31.3841899,96.4201003 31.1871939,96.3400453 L31.3120411,96.3905834 C31.0838384,96.298567 30.8564705,96.2049155 30.6299518,96.1096435 L31.1871939,96.3400453 C30.9439937,96.2412139 30.7017472,96.1405236 30.4604719,96.037992 L30.4599518,96.037771 C29.9740678,95.8312912 29.4916111,95.6171072 29.0132463,95.3955845 L29.169293,95.4675201 C28.9409629,95.3627405 28.713558,95.2562915 28.487094,95.1481888 L29.0132463,95.3955845 C28.7893076,95.2918822 28.5662657,95.1865717 28.3441353,95.0796677 L28.3442244,95.0797106 C27.8497275,94.8417255 27.3598356,94.5958895 26.8746232,94.342323 L27.0550199,94.4361284 C26.8579035,94.334139 26.6615523,94.2308766 26.4659773,94.1263519 L26.8746232,94.342323 C26.640586,94.2200178 26.4076375,94.0959142 26.1757961,93.9700303 L26.4659773,94.1263519 C26.2372584,94.0041137 26.0096011,93.8801491 25.7830227,93.7544757 L26.1757961,93.9700303 C25.9889882,93.8685986 25.802899,93.766011 25.6175381,93.6622773 L25.7830227,93.7544757 C25.5703775,93.6365304 25.3586826,93.51708 25.1479523,93.3961388 L25.1480595,93.3962003 C24.8864707,93.2460707 24.6264744,93.0937072 24.3679909,92.939076 L24.7436614,93.1615887 C24.582124,93.0668597 24.4211657,92.9712498 24.2607932,92.8747655 L24.3679909,92.939076 C24.1596623,92.8144486 23.9523165,92.6883482 23.7459676,92.560789 L24.2607932,92.8747655 C24.0410686,92.7425734 23.8224434,92.6087401 23.6049347,92.4732826 L23.6051452,92.4734136 C23.1548245,92.1929681 22.7094951,91.9056977 22.269097,91.6116219 L22.268977,91.6115418 C21.9247075,91.3816558 21.5833335,91.147528 21.2450469,90.9093105 C21.0030637,90.7389064 20.7629078,90.5665906 20.5243548,90.3922127 L20.708874,90.5264501 C20.5781002,90.4317665 20.4478026,90.3364654 20.3179857,90.2405511 L20.5243548,90.3922127 C20.3446504,90.2608521 20.1658556,90.1283214 19.9879815,89.9946316 L20.3179857,90.2405511 C20.1185034,90.093165 19.9201559,89.9443311 19.7229589,89.7940647 L19.723053,89.7941365 C19.1276811,89.3404565 18.5428862,88.8737955 17.9690011,88.3945089 L18.0922965,88.4971468 C17.9297126,88.3622416 17.7679971,88.226326 17.6071598,88.0894098 L17.9690011,88.3945089 C17.7744414,88.2320201 17.5811356,88.0680801 17.3891003,87.9027057 L17.3896154,87.9031492 C16.978745,87.5493212 16.5741915,87.1893863 16.1756019,86.8230635 L16.3687434,86.9996452 C16.1942186,86.8409155 16.0208213,86.6809678 15.848565,86.5198156 L15.8491469,86.52036 L15.5980313,86.2838198 L15.5980313,86.2838198 L15.1916791,85.894073 C13.6903253,84.4378545 12.2800424,82.8882733 10.9701953,81.2546945 L11.1349349,81.4587309 C10.9758085,81.2623999 10.8181397,81.0648385 10.6619452,80.8660634 L10.9701953,81.2546945 C10.826246,81.0751678 10.6835097,80.8946266 10.5419988,80.7130833 L10.6619452,80.8660634 C10.5267648,80.6940312 10.3926886,80.5210898 10.2597273,80.34725 L10.259574,80.3473038 C10.0603653,80.0865948 9.86350969,79.8239196 9.66919657,79.5592605 L9.96713488,79.9610816 C9.82421181,79.7704193 9.68261897,79.5787025 9.54237012,79.3859448 L9.66919657,79.5592605 C9.53502748,79.3765191 9.40207054,79.1928317 9.2703376,79.0082104 L9.54237012,79.3859448 C9.39881888,79.1886484 9.25667567,78.9902615 9.11595527,78.790799 L9.11622001,78.7909995 C8.81579918,78.3653462 8.52211638,77.9349995 8.23505018,77.4999024 L8.36174603,77.6908497 C8.22760605,77.4895566 8.0948869,77.287235 7.9636029,77.0838994 L8.23505018,77.4999024 C8.10454354,77.3020976 7.97540443,77.103311 7.84764631,76.9035559 L7.84800645,76.9040189 C7.41903618,76.2334066 7.00596917,75.5523581 6.60895367,74.8609188 L6.77798339,75.1529616 C6.65392795,74.9402541 6.53139774,74.7265476 6.41040774,74.5118571 L6.60895367,74.8609188 C6.48057758,74.63734 6.35387979,74.4126747 6.22887749,74.1869402 L6.22877089,74.1867215 C5.97554019,73.7294528 5.72916686,73.2675736 5.48990058,72.8014458 L5.48953967,72.8007422 C5.15850206,72.1558302 4.84073767,71.5020638 4.53698756,70.840527 L4.55916499,70.8887836 C4.46020841,70.6738735 4.36273156,70.4581411 4.26674749,70.2415995 L4.53698756,70.840527 C4.42254885,70.5912912 4.31009936,70.3409524 4.19965944,70.0895309 L4.26674749,70.2415995 C4.16862808,70.0202405 4.07206862,69.7980359 3.97708306,69.5749996 L4.19965944,70.0895309 C4.100756,69.8643728 4.00346421,69.6383464 3.90779868,69.4114664 L3.90800469,69.4119913 C3.68849272,68.8913612 3.47773304,68.3667698 3.27569557,67.8378681 L3.38247793,68.1149619 C3.28458954,67.8632335 3.18868125,67.6105158 3.09477218,67.3568279 L3.27569557,67.8378681 C3.1880222,67.6083533 3.1019913,67.3780268 3.01761724,67.1469031 L3.09477218,67.3568279 C3.02391411,67.1654104 2.95419427,66.9734407 2.88562086,66.7809267 L2.88565839,66.7809857 L2.78249411,66.4885201 L2.78249411,66.4885201 L2.5490332,65.8038672 C2.4480163,65.5004192 2.3498288,65.1956786 2.25450198,64.8896765 L2.34383409,65.1734829 C2.26038134,64.9111477 2.17903469,64.6478733 2.09981402,64.3836794 L2.09981401,64.3836335 C1.95487603,63.9003242 1.81705422,63.4138916 1.68647028,62.9245033 L1.77945382,63.2679831 C1.71536997,63.0345516 1.65293577,62.8004374 1.59216454,62.5656539 L1.59211325,62.5654973 C1.40290512,61.8344692 1.22977456,61.0967927 1.07317512,60.3530265 L1.10897335,60.5216337 C1.05620659,60.2752575 1.00525491,60.028208 0.956132999,59.7804999 L1.07317512,60.3530265 C1.01641017,60.0834225 0.961817341,59.8130183 0.909415781,59.5418331 L0.956132999,59.7804999 C0.910780976,59.5518022 0.86698864,59.3225431 0.824767546,59.0927341 L0.824747762,59.0925986 C0.780299748,58.8506963 0.737574861,58.6080485 0.696606385,58.3648042 C0.630869102,57.9744702 0.569671943,57.5827483 0.513050031,57.1895476 L0.540855533,57.380055 C0.502275069,57.1192685 0.465708111,56.8578258 0.431170974,56.5957433 L0.513050031,57.1895476 C0.477986566,56.9460556 0.444677609,56.7019966 0.413136385,56.4573837 L0.413154664,56.4575416 C0.307350253,55.6369762 0.221448731,54.8103385 0.155930797,53.9779694 L0.155884228,53.9773846 L0.106353594,53.2875138 L0.106353594,53.2875138 L0.0640085336,52.5521746 C0.0519818699,52.3129653 0.0416363197,52.0733129 0.0329834627,51.8332289 L0.0437991179,52.1120061 C0.0342841529,51.8830257 0.0263091691,51.6536476 0.0198842515,51.4238819 L0.0329834627,51.8332289 C0.0241369928,51.5877729 0.0170598136,51.3418659 0.0117642997,51.0955201 L0.01177619,51.0960725 L0.00475876209,50.6969843 L0.00475876209,50.6969843 L0,50 C0,49.6337092 0.00393874434,49.2683384 0.01177619,48.9039275 L0.00477243508,49.3020159 C0.0080859266,49.0598448 0.0131210926,48.8180896 0.0198662476,48.5767621 L0.01177619,48.9039275 C0.0170744802,48.6575775 0.0241545023,48.4116663 0.0330038853,48.1662061 L0.0198662476,48.5767621 C0.026288201,48.3469981 0.0342601973,48.1176216 0.0437721518,47.8886429 L0.0437991179,47.8879939 C0.0560965193,47.5919618 0.0710061137,47.2959483 0.0884789992,47.0006244 C0.112658605,46.5920276 0.141694695,46.1853509 0.175565168,45.7800483 L0.17554347,45.780308 C0.243325483,44.9692113 0.330434388,44.1638736 0.436428774,43.3644983 L0.413157446,43.542453 C0.445104151,43.2947019 0.478864238,43.0475189 0.514423965,42.8009179 L0.436428774,43.3644983 C0.469965233,43.1115772 0.505392279,42.859253 0.542695243,42.6075404 L0.542783288,42.6069463 C0.628054416,42.0315544 0.723236218,41.4587706 0.828064893,40.8893648 L0.775393675,41.1803114 C0.820288898,40.9280483 0.867075812,40.6764397 0.915739228,40.4255008 L0.828064893,40.8893648 C0.869291831,40.6654293 0.912010836,40.4420163 0.956211219,40.2191365 L0.915739228,40.4255008 C0.966186391,40.1653638 1.01865014,39.9059465 1.07311356,39.6472659 L0.956211219,40.2191365 C1.005329,39.9714607 1.0562761,39.7244434 1.10903785,39.4780991 L1.10898583,39.478342 C1.2853649,38.6548292 1.48195913,37.8390764 1.69827297,37.0313882 L1.69823721,37.0315217 C1.84129059,36.4973787 1.99292825,35.9668945 2.15302767,35.4400938 L2.04286229,35.8076935 C2.11187179,35.5741413 2.18254093,35.3413012 2.25485607,35.1091869 L2.15302767,35.4400938 C2.21700603,35.2295756 2.28233568,35.0196457 2.34900652,34.8103141 L2.34895481,34.8104764 C2.5291366,34.2447456 2.71905686,33.6835448 2.91856812,33.1269108 L2.78815061,33.4953359 C2.86320993,33.2806112 2.93969273,33.0665547 3.01758771,32.8531778 L2.91856812,33.1269108 C2.98732588,32.9350775 3.05722276,32.7437866 3.12825061,32.5530463 L3.01758771,32.8531778 C3.10825014,32.6048271 3.2008256,32.357397 3.29529627,32.1109053 L3.12825061,32.5530463 C3.21141545,32.329713 3.29613079,32.1071344 3.38238356,31.8853238 L3.38254717,31.884903 C3.66123473,31.1682202 3.95615504,30.4591425 4.26670228,29.7585327 L4.26684677,29.7582068 C4.3648857,29.5370261 4.46463117,29.316366 4.56592472,29.0965663 L4.56617438,29.0960245 C4.79733346,28.5944259 5.03682175,28.0967763 5.28422297,27.6037839 L5.16954366,27.8337816 C5.28712429,27.5964336 5.40653432,27.3601528 5.52775531,27.1249578 L5.28422297,27.6037839 C5.39373823,27.3855546 5.50480404,27.1682379 5.61740592,26.9518483 L5.52775531,27.1249578 C5.6433651,26.9006496 5.76062209,26.677329 5.87951027,26.4550119 L5.87962954,26.4547888 C6.00874392,26.213349 6.13990501,25.9728719 6.272973,25.7336011 L6.05664937,26.1267253 C6.16755465,25.9230142 6.27983518,25.7201599 6.39347847,25.5181748 L6.272973,25.7336011 C6.39711675,25.510377 6.52292021,25.2882028 6.6503667,25.0670952 L6.39347847,25.5181748 C6.51255553,25.306532 6.63312879,25.0958437 6.75518391,24.886124 L6.75504013,24.8863711 C7.00534515,24.4562877 7.26173134,24.0305209 7.52421897,23.608947 L7.49546473,23.6551844 C7.62826435,23.4413804 7.76263219,23.2286521 7.89855218,23.0170157 L7.52421897,23.608947 C7.66346587,23.3853066 7.80442983,23.1628461 7.94709242,22.9415841 L7.89855218,23.0170157 C8.02998845,22.8123607 8.16287615,22.6087266 8.29720075,22.4061281 L7.94709242,22.9415841 C8.08391701,22.7293764 8.22230405,22.5182711 8.36223728,22.3082845 L8.36212314,22.3084557 C8.67183937,21.8436892 8.98901027,21.3845697 9.31357382,20.9311022 L9.12433275,21.1973301 C9.2751614,20.9836712 9.42762297,20.7712474 9.58169928,20.5600768 L9.31357382,20.9311022 C9.44011313,20.7543063 9.56777614,20.5783696 9.69655242,20.4033025 L9.58169928,20.5600768 C9.72383972,20.365265 9.86735442,20.1715198 10.0122291,19.9788555 L9.69655242,20.4033025 C9.83850933,20.2103167 9.98181905,20.0183876 10.1264676,19.8275291 L10.1266602,19.827275 C10.4472895,19.4042163 10.7746976,18.9861702 11.1085391,18.5735435 L11.1087297,18.5733079 C12.3791894,17.003025 13.7430404,15.5110152 15.1916791,14.105927 L15.5978654,13.7171313 L15.5978654,13.7171313 L15.9646445,13.3719306 C16.1065645,13.2399964 16.2492522,13.1088771 16.3927004,12.9785801 L16.2108693,13.145301 C16.368045,13.0011128 16.5261457,12.857917 16.6851614,12.7157237 L16.6844304,12.7156668 C16.9179831,12.5075324 17.1527663,12.30149 17.3894798,12.0976278 L17.2025148,12.2587747 C17.3366454,12.1421146 17.4714038,12.0261577 17.6067844,11.9109098 L17.3894798,12.0976278 C17.5814077,11.9323359 17.7746045,11.7684772 17.9690538,11.6060683 L17.6067844,11.9109098 C17.7952902,11.750437 17.9850023,11.5913387 18.1759051,11.4336306 L17.9690538,11.6060683 C18.1615204,11.4453153 18.355214,11.2859828 18.5501185,11.1280867 L18.5504139,11.1272638 C18.7631588,10.9554985 18.9776458,10.7846266 19.1935584,10.6154919 L18.7343676,10.9789681 C18.9700023,10.7899218 19.207386,10.6029657 19.4464904,10.4181281 L19.1935584,10.6154919 C19.3582309,10.4864961 19.5237327,10.3585109 19.6900545,10.2315455 L19.4464904,10.4181281 C19.631637,10.2750021 19.8178153,10.1331463 20.0050124,9.99257365 L19.6900545,10.2315455 C19.9145015,10.0602089 20.1404418,9.89072964 20.3678523,9.72313054 L20.0050124,9.99257365 C20.1772761,9.86321501 20.3504025,9.73494302 20.5243814,9.60776786 L20.3678523,9.72313054 C20.5999923,9.55204593 20.8336643,9.38292053 21.0688441,9.21577871 L20.5243814,9.60776786 C20.7630082,9.43333627 21.0032388,9.26096807 21.2450469,9.09068952 L21.0688441,9.21577871 C21.269186,9.07339608 21.470622,8.93245289 21.6731371,8.79296421 L21.2450469,9.09068952 C21.4376346,8.95507144 21.631223,8.82077887 21.8257988,8.68782511 L21.6731371,8.79296421 C21.834412,8.68188101 21.9963712,8.57172024 22.1590071,8.46248952 L21.8257988,8.68782511 C22.0446678,8.53827171 22.2647862,8.39041229 22.486135,8.24426571 L22.1590071,8.46248952 C22.3444255,8.3379574 22.5307236,8.21463414 22.7178899,8.09253103 L22.7179356,8.09213818 C23.0121539,7.9005598 23.3085641,7.71160455 23.6070768,7.52570912 L23.1990077,7.78222479 C23.3804646,7.6667902 23.5627162,7.55249332 23.7457522,7.43934418 L23.6070768,7.52570912 C23.8239015,7.39068391 24.0418355,7.25727301 24.2608618,7.12549322 L23.7457522,7.43934418 C23.9521375,7.31176097 24.1595203,7.18563701 24.3678862,7.06098669 L24.2608618,7.12549322 C24.4364473,7.01985014 24.6127348,6.91525532 24.7897157,6.8117174 L24.7897785,6.81140032 C25.2563098,6.53874904 25.7277235,6.27312686 26.203798,6.01500942 L25.857928,6.20406149 C26.0596887,6.09260563 26.2623015,5.98250346 26.4657543,5.87376722 L26.203798,6.01500942 C26.3937241,5.91203554 26.5843921,5.81025606 26.7757917,5.70968107 L26.7754498,5.70964579 C26.9071793,5.64064071 27.0389117,5.57216793 27.1709856,5.50426599 C27.605791,5.28052791 28.0446735,5.06300018 28.4871478,4.85178551 L28.3441917,4.92047701 C28.5662228,4.81361549 28.7891647,4.70834619 29.0130024,4.60468392 L28.4871478,4.85178551 C28.7136425,4.74366851 28.9410782,4.63720569 29.1694395,4.53241267 L29.1692642,4.53264492 C29.6523313,4.31081779 30.1393614,4.09668946 30.6303821,3.89017547 L30.4599284,3.96236288 C30.7013082,3.85977865 30.9436601,3.75903751 31.1869665,3.6601571 L30.6303821,3.89017547 C30.8568244,3.79493815 31.0841154,3.70132021 31.3122406,3.60933614 L31.1869665,3.6601571 C31.3839746,3.58009244 31.5816084,3.50124775 31.7798587,3.42363238 L31.7800498,3.42345813 C32.0472626,3.31894322 32.3157879,3.2164906 32.5854117,3.11629751 L32.4108976,3.18143154 C32.5887689,3.11457583 32.7671221,3.0487047 32.9459506,2.98382479 L32.5854117,3.11629751 C32.8159539,3.03062725 33.0472992,2.94660896 33.2794332,2.86425702 L32.9459506,2.98382479 C33.146799,2.91095594 33.348247,2.83933744 33.550285,2.7689787 L33.2794332,2.86425702 C33.5647349,2.76304329 33.8512279,2.66434665 34.1388856,2.56819378 L33.550285,2.7689787 C33.7708536,2.69216682 33.9921255,2.61685638 34.2140884,2.54305963 L34.1388856,2.56819378 C34.3786688,2.48804347 34.6192613,2.40966068 34.8606476,2.33306086 L34.2140884,2.54305963 C34.5274364,2.43887981 34.8421617,2.33771667 35.1582298,2.23960463 L34.8606476,2.33306086 C35.0950303,2.25868352 35.3301614,2.18598718 35.5660267,2.11498601 L35.1582298,2.23960463 C35.3881575,2.1682318 35.6187959,2.09847363 35.8501316,2.03034336 L35.5660267,2.11498601 C35.8165353,2.03957686 36.067872,1.96607989 36.3200201,1.89451205 L35.8501316,2.03034336 C36.0622604,1.96786971 36.2749756,1.90676486 36.4882669,1.84703905 L36.3200201,1.89451205 C36.6069286,1.81307806 36.8948874,1.73414176 37.1838717,1.6577281 L36.4882669,1.84703905 C36.7918262,1.76203643 37.0965525,1.6798271 37.4024164,1.60044052 L37.1838717,1.6577281 C37.414583,1.59672307 37.6459478,1.53732589 37.8779535,1.47954927 L37.4024164,1.60044052 C37.6429434,1.53801205 37.8841739,1.47732918 38.1260936,1.41840624 L37.8779535,1.47954927 C38.1213316,1.41894057 38.3654149,1.3601152 38.6101887,1.30308783 L38.1260936,1.41840624 C38.3572156,1.3621132 38.5889667,1.3074265 38.8213343,1.25435862 L38.8215907,1.25432195 C39.3471899,1.13426425 39.876203,1.02246041 40.4082286,0.919091928 L40.2521761,0.949684988 C40.489385,0.902808763 40.727197,0.857610403 40.965599,0.814102779 L40.4082286,0.919091928 C40.6732973,0.867591117 40.9391138,0.818184205 41.2056602,0.770889102 L40.965599,0.814102779 C41.2228656,0.767152439 41.4808194,0.722170995 41.7394443,0.679174624 L41.739453,0.679164482 C42.0282784,0.631155963 42.3179495,0.585613201 42.608435,0.542568871 C42.6777963,0.532285002 42.7470964,0.522165253 42.8164425,0.51218781 L42.608435,0.542568871 C42.8786478,0.502528561 43.1495653,0.464650126 43.4211694,0.428951701 L42.8164425,0.51218781 C43.0543046,0.477964479 43.2927077,0.445415436 43.5316395,0.414553008 L43.5313342,0.414596582 C44.0719133,0.344766739 44.6148903,0.283604214 45.1604281,0.231207969 L45.0673107,0.240240809 C45.3002952,0.217425376 45.5337487,0.196209106 45.7676602,0.176603114 L45.1604281,0.231207969 C45.4608448,0.202354408 45.7620381,0.176159207 46.0639841,0.152646169 L45.7676602,0.176603114 C46.0356246,0.154142872 46.3041899,0.133795886 46.5733395,0.115578867 L46.0639841,0.152646169 C46.2946817,0.134681363 46.5258187,0.118282272 46.7573845,0.103459512 L46.5733395,0.115578867 C46.8746563,0.0951846517 47.1767053,0.0774599505 47.4794631,0.0624282097 L46.7573845,0.103459512 C47.1009943,0.0814647034 47.4455482,0.0629406957 47.7910116,0.0479221729 L47.4794631,0.0624282097 C47.7209568,0.0504381942 47.9629015,0.0401615478 48.2052852,0.0316101695 L47.7910116,0.0479221729 C48.0313098,0.0374755546 48.2720481,0.0287250115 48.5132147,0.0216822166 L48.2052852,0.0316101695 C48.4852985,0.0217312069 48.7658977,0.0141547835 49.0470645,0.0088992451 L49.0470071,0.00890030425 L49.2301056,0.00580712599 L49.2301056,0.00580712599 L50,0 L50,0 Z M47.0006889,78.0503094 C42.4964745,78.2019138 38.178035,78.6924371 34.1465253,79.4713018 L33.7034028,79.5586232 C37.0945103,87.0326192 41.7532672,92.1638907 47.0007145,93.5945199 L47.0006889,78.0503094 Z M53.0003136,78.0503431 L53.0002866,93.5942469 C58.2473253,92.1632381 62.9057053,87.0321439 66.2965972,79.5586232 C62.1396314,78.7290326 57.6698072,78.2075637 53.0003136,78.0503431 Z M28.0042247,80.942412 L27.9882336,80.9466128 C25.6004112,81.637746 23.3545432,82.4378757 21.2778483,83.3333925 C25.0103972,86.5523303 29.2894542,89.1551552 33.9569804,90.9836508 C31.7080302,88.171695 29.7016388,84.7847919 28.0042247,80.942412 Z M71.9958296,80.9420022 L71.8101755,81.3580068 C70.152743,85.0293142 68.210555,88.2735128 66.0435317,90.9836023 C70.7105458,89.1551552 74.9896028,86.5523303 78.7221517,83.3332151 C76.6408373,82.4358836 74.3895963,81.6341868 71.9958296,80.9420022 Z M22.0496014,53.0009787 L6.10068623,53.0003136 C6.76967111,62.9348306 10.7361318,71.965562 16.9146997,79.0071391 C19.6582128,77.6492824 22.6691294,76.4585982 25.8978344,75.4619426 C23.6899162,68.8134613 22.3204451,61.1711375 22.0496014,53.0009787 Z M93.8993138,53.0003136 L77.9503986,53.0009787 C77.6795549,61.1711375 76.3100838,68.8134613 74.1020909,75.463476 C77.3308706,76.4585982 80.3417872,77.6492824 83.0847993,79.0059303 C89.2638682,71.965562 93.2303289,62.9348306 93.8993138,53.0003136 Z M47,53 L28.0503431,53.0003136 C28.3096539,60.7019147 29.5598426,67.8603481 31.5480667,73.9699287 C36.3746407,72.8945466 41.5707938,72.2294886 47.0000204,72.0495683 L47,53 Z M71.9496569,53.0003136 L53,53 L53.0009787,72.0496014 C58.4298437,72.2295702 63.6256554,72.8946125 68.4521448,73.9684176 C70.4401574,67.8603481 71.6903461,60.7019147 71.9496569,53.0003136 Z M16.9152007,20.9940697 L16.5915858,21.3652715 C10.5977783,28.351798 6.75767252,37.2400539 6.10061873,47.0006889 L22.0495683,47.0000204 C22.3203334,38.8294856 23.6898262,31.1868098 25.8979091,24.536524 C22.6691294,23.5414018 19.6582128,22.3507176 16.9152007,20.9940697 Z M31.5478552,26.0315824 L31.4773614,26.2487516 C29.5301263,32.3104619 28.3064589,39.3904078 28.0503094,47.0006889 L47,47 L47.0000204,27.9504317 C41.5707938,27.7705114 36.3746407,27.1054534 31.5478552,26.0315824 Z M83.0853003,20.9928609 L82.5394642,21.2599 C79.944318,22.5066843 77.1182673,23.6070295 74.1021656,24.5380574 C76.3101738,31.1868098 77.6796666,38.8294856 77.9504317,47.0000204 L93.8993813,47.0006889 C93.2305957,37.0657769 89.264076,28.0346748 83.0853003,20.9928609 Z M68.4519333,26.0300713 L68.0153122,26.127434 C63.312656,27.1449836 58.2664347,27.7758469 53.0009787,27.9503986 L53,47 L71.9496906,47.0006889 C71.6904546,39.2987065 70.4402437,32.139917 68.4519333,26.0300713 Z M47.0007145,6.40548015 C41.7739903,7.83045951 37.1313161,12.9269098 33.7436385,20.3529378 L33.7029196,20.4416029 C37.8606661,21.2710267 42.3308326,21.792511 47.0006889,21.9496906 L47.0007145,6.40548015 Z M53.0002866,6.40575311 L53.0003136,21.9496569 C57.6698072,21.7924363 62.1396314,21.2709674 66.2970804,20.4416029 C62.9057053,12.9678561 58.2473253,7.83676193 53.0002866,6.40575311 Z M33.9564683,9.01639767 L33.5074024,9.19534813 C29.0145055,11.0130712 24.8902336,13.5513041 21.2778483,16.6667849 C23.3591627,17.5641164 25.6104037,18.3658132 28.0041704,19.0579978 C29.7016388,15.2152081 31.7080302,11.828305 33.9564683,9.01639767 Z M66.0430196,9.01634916 L66.1868849,9.19687029 C68.3773067,11.972802 70.3345182,15.2970555 71.9957753,19.057588 C74.3895963,18.3658132 76.6408373,17.5641164 78.7221517,16.6666075 C74.9896028,13.4476697 70.7105458,10.8448448 66.0430196,9.01634916 Z" id="Colour" fill="#000000"></path>
    </g>
</svg>