<?xml version="1.0" encoding="UTF-8"?>
<svg width="100px" height="100px" viewBox="0 0 100 100" version="1.1" xmlns="http://www.w3.org/2000/svg" xmlns:xlink="http://www.w3.org/1999/xlink">
    <title>Link 2</title>
    <g id="Link-2" stroke="none" stroke-width="1" fill="none" fill-rule="evenodd">
        <path d="M74.3502128,57.4429112 C76.7494716,57.4429112 78.7082211,59.3182397 78.82473,61.6751299 L78.8302128,61.8974566 L78.8302128,81.386093 C78.8302128,95.2245915 67.5477885,106.442911 53.6302128,106.442911 L48.0302128,106.442911 C34.1126371,106.442911 22.8302128,95.2245915 22.8302128,81.386093 L22.8302128,61.8974566 L22.8356955,61.6751299 C22.9485635,59.3918925 24.7903312,57.5605895 27.0866156,57.4483628 L27.3102128,57.4429112 C29.7094716,57.4429112 31.6682211,59.3182397 31.78473,61.6751299 L31.7902128,61.8974566 L31.7902128,78.6020021 C31.7902128,89.0577565 40.3147112,97.5338203 50.8302128,97.5338203 C61.2248466,97.5338203 69.6739843,89.2514887 69.866844,78.9617508 L69.8702128,78.6020021 L69.8702128,61.8974566 L69.8756955,61.6751299 C69.9885635,59.3918925 71.8303312,57.5605895 74.1266156,57.4483628 L74.3502128,57.4429112 Z M50.3718434,25.9159992 C52.8571247,25.9159992 54.8718434,27.920058 54.8718434,30.3921897 L54.8718434,68.4398088 C54.8718434,70.9119405 52.8571247,72.9159992 50.3718434,72.9159992 C47.886562,72.9159992 45.8718434,70.9119405 45.8718434,68.4398088 L45.8718434,30.3921897 C45.8718434,27.920058 47.886562,25.9159992 50.3718434,25.9159992 Z M52.2159992,-6.19669914 C66.1335749,-6.19669914 77.4159992,5.02162048 77.4159992,18.860119 L77.4159992,38.3487554 C77.4159992,40.8089329 75.4102349,42.8033009 72.9359992,42.8033009 C70.5367404,42.8033009 68.5779909,40.9279723 68.461482,38.5710821 L68.4559992,38.3487554 L68.4559992,21.6442099 C68.4559992,11.1884555 59.9315009,2.71239177 49.4159992,2.71239177 C39.0213654,2.71239177 30.5722278,10.9947233 30.379368,21.2844612 L30.3759992,21.6442099 L30.3759992,38.3487554 C30.3759992,40.8089329 28.3702349,42.8033009 25.8959992,42.8033009 C23.4967404,42.8033009 21.5379909,40.9279723 21.421482,38.5710821 L21.4159992,38.3487554 L21.4159992,18.860119 C21.4159992,5.02162048 32.6984235,-6.19669914 46.6159992,-6.19669914 L52.2159992,-6.19669914 Z" id="Shadow" transform="translate(50.123106, 50.123106) rotate(45.000000) translate(-50.123106, -50.123106) "></path>
        <path d="M74.3502128,57.4429112 C76.7494716,57.4429112 78.7082211,59.3182397 78.82473,61.6751299 L78.8302128,61.8974566 L78.8302128,81.386093 C78.8302128,95.2245915 67.5477885,106.442911 53.6302128,106.442911 L48.0302128,106.442911 C34.1126371,106.442911 22.8302128,95.2245915 22.8302128,81.386093 L22.8302128,61.8974566 L22.8356955,61.6751299 C22.9485635,59.3918925 24.7903312,57.5605895 27.0866156,57.4483628 L27.3102128,57.4429112 C29.7094716,57.4429112 31.6682211,59.3182397 31.78473,61.6751299 L31.7902128,61.8974566 L31.7902128,78.6020021 C31.7902128,89.0577565 40.3147112,97.5338203 50.8302128,97.5338203 C61.2248466,97.5338203 69.6739843,89.2514887 69.866844,78.9617508 L69.8702128,78.6020021 L69.8702128,61.8974566 L69.8756955,61.6751299 C69.9885635,59.3918925 71.8303312,57.5605895 74.1266156,57.4483628 L74.3502128,57.4429112 Z M50.3718434,25.9159992 C52.8571247,25.9159992 54.8718434,27.920058 54.8718434,30.3921897 L54.8718434,68.4398088 C54.8718434,70.9119405 52.8571247,72.9159992 50.3718434,72.9159992 C47.886562,72.9159992 45.8718434,70.9119405 45.8718434,68.4398088 L45.8718434,30.3921897 C45.8718434,27.920058 47.886562,25.9159992 50.3718434,25.9159992 Z M52.2159992,-6.19669914 C66.1335749,-6.19669914 77.4159992,5.02162048 77.4159992,18.860119 L77.4159992,38.3487554 C77.4159992,40.8089329 75.4102349,42.8033009 72.9359992,42.8033009 C70.5367404,42.8033009 68.5779909,40.9279723 68.461482,38.5710821 L68.4559992,38.3487554 L68.4559992,21.6442099 C68.4559992,11.1884555 59.9315009,2.71239177 49.4159992,2.71239177 C39.0213654,2.71239177 30.5722278,10.9947233 30.379368,21.2844612 L30.3759992,21.6442099 L30.3759992,38.3487554 C30.3759992,40.8089329 28.3702349,42.8033009 25.8959992,42.8033009 C23.4967404,42.8033009 21.5379909,40.9279723 21.421482,38.5710821 L21.4159992,38.3487554 L21.4159992,18.860119 C21.4159992,5.02162048 32.6984235,-6.19669914 46.6159992,-6.19669914 L52.2159992,-6.19669914 Z" id="Colour" fill="#000000" transform="translate(50.123106, 50.123106) rotate(45.000000) translate(-50.123106, -50.123106) "></path>
    </g>
</svg>