<?xml version="1.0" encoding="UTF-8"?>
<svg width="100px" height="100px" viewBox="0 0 100 100" version="1.1" xmlns="http://www.w3.org/2000/svg" xmlns:xlink="http://www.w3.org/1999/xlink">
    <title>LinkedIn</title>
    <g id="LinkedIn" stroke="none" stroke-width="1" fill="none" fill-rule="evenodd">
        <path d="M22.5765134,99.9419139 L1.60183851,99.9419139 L1.60183851,33.3171175 L22.5765134,33.3171175 L22.5765134,99.9419139 Z M12.074591,24.0844659 C9.69534237,24.0710224 7.37341889,23.3531894 5.40178778,22.0212667 C3.43015667,20.6895977 1.89734221,18.8037007 0.996372998,16.6015006 C0.095657435,14.3993005 -0.132628683,11.9797213 0.340430884,9.64790544 C0.813490452,7.31608957 1.96684265,5.17679499 3.65463802,3.49990662 C5.34243339,1.8227646 7.48908386,0.683363221 9.8236899,0.225269077 C12.1585496,-0.232825067 14.5766069,0.011187428 16.772973,0.925853809 C18.9693391,1.84077384 20.8453437,3.38576356 22.1643302,5.36601881 C23.4835703,7.34602041 24.1864379,9.67250961 24.1846623,12.0517583 C24.2069836,13.6446881 23.9086898,15.2259499 23.307029,16.7009319 C22.7053683,18.1761675 21.8127695,19.5149388 20.6827532,20.6378528 C19.552737,21.7605132 18.2081317,22.6444878 16.7290913,23.2365098 C15.2503046,23.8287855 13.6672672,24.1171869 12.074591,24.0844659 Z M99.8871293,100 L78.9220932,100 L78.9220932,63.6020613 C78.9220932,52.8675407 74.359161,49.5543482 68.4688718,49.5543482 C62.2490897,49.5543482 56.1454798,54.243345 56.1454798,63.8732145 L56.1454798,100 L35.1708049,100 L35.1708049,33.3655649 L55.3414054,33.3655649 L55.3414054,42.5982165 L55.6128122,42.5982165 C57.6374564,38.500227 64.7292915,31.4959016 75.5508145,31.4959016 C87.2540292,31.4959016 99.8967681,38.4421409 99.8967681,58.7869997 L99.8871293,100 Z" id="Shadow"></path>
        <path d="M22.5765134,99.9419139 L1.60183851,99.9419139 L1.60183851,33.3171175 L22.5765134,33.3171175 L22.5765134,99.9419139 Z M12.074591,24.0844659 C9.69534237,24.0710224 7.37341889,23.3531894 5.40178778,22.0212667 C3.43015667,20.6895977 1.89734221,18.8037007 0.996372998,16.6015006 C0.095657435,14.3993005 -0.132628683,11.9797213 0.340430884,9.64790544 C0.813490452,7.31608957 1.96684265,5.17679499 3.65463802,3.49990662 C5.34243339,1.8227646 7.48908386,0.683363221 9.8236899,0.225269077 C12.1585496,-0.232825067 14.5766069,0.011187428 16.772973,0.925853809 C18.9693391,1.84077384 20.8453437,3.38576356 22.1643302,5.36601881 C23.4835703,7.34602041 24.1864379,9.67250961 24.1846623,12.0517583 C24.2069836,13.6446881 23.9086898,15.2259499 23.307029,16.7009319 C22.7053683,18.1761675 21.8127695,19.5149388 20.6827532,20.6378528 C19.552737,21.7605132 18.2081317,22.6444878 16.7290913,23.2365098 C15.2503046,23.8287855 13.6672672,24.1171869 12.074591,24.0844659 Z M99.8871293,100 L78.9220932,100 L78.9220932,63.6020613 C78.9220932,52.8675407 74.359161,49.5543482 68.4688718,49.5543482 C62.2490897,49.5543482 56.1454798,54.243345 56.1454798,63.8732145 L56.1454798,100 L35.1708049,100 L35.1708049,33.3655649 L55.3414054,33.3655649 L55.3414054,42.5982165 L55.6128122,42.5982165 C57.6374564,38.500227 64.7292915,31.4959016 75.5508145,31.4959016 C87.2540292,31.4959016 99.8967681,38.4421409 99.8967681,58.7869997 L99.8871293,100 Z" id="Colour" fill="#000000"></path>
    </g>
</svg>