<?xml version="1.0" encoding="UTF-8"?>
<svg width="100px" height="100px" viewBox="0 0 100 100" version="1.1" xmlns="http://www.w3.org/2000/svg" xmlns:xlink="http://www.w3.org/1999/xlink">
    <title>List Circle</title>
    <g id="List-Circle" stroke="none" stroke-width="1" fill="none" fill-rule="evenodd">
        <path d="M50,100 C77.6142375,100 100,77.6142375 100,50 C100,22.3857625 77.6142375,0 50,0 C22.3857625,0 0,22.3857625 0,50 C0,77.6142375 22.3857625,100 50,100 Z M69.2,64.4 C71.8509668,64.4 74,66.5490332 74,69.2 C74,71.779319 71.965561,73.8834694 69.4138108,73.9953232 L69.2,74 L69.2,74 L30.8,74 C28.1490332,74 26,71.8509668 26,69.2 C26,66.5490332 28.1490332,64.4 30.8,64.4 L69.2,64.4 Z M69.2,45.2 C71.8509668,45.2 74,47.3490332 74,50 C74,52.579319 71.965561,54.6834694 69.4138108,54.7953232 L69.2,54.8 L69.2,54.8 L30.8,54.8 C28.1490332,54.8 26,52.6509668 26,50 C26,47.3490332 28.1490332,45.2 30.8,45.2 L69.2,45.2 Z M69.2,26 C71.8509668,26 74,28.1490332 74,30.8 C74,33.379319 71.965561,35.4834694 69.4138108,35.5953232 L69.2,35.6 L69.2,35.6 L30.8,35.6 C28.1490332,35.6 26,33.4509668 26,30.8 C26,28.1490332 28.1490332,26 30.8,26 L69.2,26 Z" id="Shadow" fill="#000000"></path>
        <path d="M50,100 C77.6142375,100 100,77.6142375 100,50 C100,22.3857625 77.6142375,0 50,0 C22.3857625,0 0,22.3857625 0,50 C0,77.6142375 22.3857625,100 50,100 Z M69.2,64.4 C71.8509668,64.4 74,66.5490332 74,69.2 C74,71.779319 71.965561,73.8834694 69.4138108,73.9953232 L69.2,74 L69.2,74 L30.8,74 C28.1490332,74 26,71.8509668 26,69.2 C26,66.5490332 28.1490332,64.4 30.8,64.4 L69.2,64.4 Z M69.2,45.2 C71.8509668,45.2 74,47.3490332 74,50 C74,52.579319 71.965561,54.6834694 69.4138108,54.7953232 L69.2,54.8 L69.2,54.8 L30.8,54.8 C28.1490332,54.8 26,52.6509668 26,50 C26,47.3490332 28.1490332,45.2 30.8,45.2 L69.2,45.2 Z M69.2,26 C71.8509668,26 74,28.1490332 74,30.8 C74,33.379319 71.965561,35.4834694 69.4138108,35.5953232 L69.2,35.6 L69.2,35.6 L30.8,35.6 C28.1490332,35.6 26,33.4509668 26,30.8 C26,28.1490332 28.1490332,26 30.8,26 L69.2,26 Z" id="Colour" fill="#000000"></path>
    </g>
</svg>