<?xml version="1.0" encoding="UTF-8"?>
<svg width="100px" height="100px" viewBox="0 0 100 100" version="1.1" xmlns="http://www.w3.org/2000/svg" xmlns:xlink="http://www.w3.org/1999/xlink">
    <title>List Bold</title>
    <g id="List-Bold" stroke="none" stroke-width="1" fill="none" fill-rule="evenodd">
        <path d="M10,40 L90,40 C95.5228475,40 100,44.4771525 100,50 C100,55.5228475 95.5228475,60 90,60 L10,60 C4.4771525,60 6.76353751e-16,55.5228475 0,50 C-6.76353751e-16,44.4771525 4.4771525,40 10,40 Z M10,4 L90,4 C95.5228475,4 100,8.4771525 100,14 C100,19.5228475 95.5228475,24 90,24 L10,24 C4.4771525,24 6.76353751e-16,19.5228475 0,14 C-6.76353751e-16,8.4771525 4.4771525,4 10,4 Z M10,76 L90,76 C95.5228475,76 100,80.4771525 100,86 C100,91.5228475 95.5228475,96 90,96 L10,96 C4.4771525,96 6.76353751e-16,91.5228475 0,86 C-6.76353751e-16,80.4771525 4.4771525,76 10,76 Z" id="Shadow"></path>
        <path d="M10,40 L90,40 C95.5228475,40 100,44.4771525 100,50 C100,55.5228475 95.5228475,60 90,60 L10,60 C4.4771525,60 6.76353751e-16,55.5228475 0,50 C-6.76353751e-16,44.4771525 4.4771525,40 10,40 Z M10,4 L90,4 C95.5228475,4 100,8.4771525 100,14 C100,19.5228475 95.5228475,24 90,24 L10,24 C4.4771525,24 6.76353751e-16,19.5228475 0,14 C-6.76353751e-16,8.4771525 4.4771525,4 10,4 Z M10,76 L90,76 C95.5228475,76 100,80.4771525 100,86 C100,91.5228475 95.5228475,96 90,96 L10,96 C4.4771525,96 6.76353751e-16,91.5228475 0,86 C-6.76353751e-16,80.4771525 4.4771525,76 10,76 Z" id="Colour" fill="#000000"></path>
    </g>
</svg>