<?xml version="1.0" encoding="UTF-8"?>
<svg width="100px" height="100px" viewBox="0 0 100 100" version="1.1" xmlns="http://www.w3.org/2000/svg" xmlns:xlink="http://www.w3.org/1999/xlink">
    <title>List</title>
    <g id="List" stroke="none" stroke-width="1" fill="none" fill-rule="evenodd">
        <path d="M93,79 C96.8659932,79 100,82.1340068 100,86 C100,89.7854517 96.9952166,92.8690987 93.2406498,92.995941 L93,93 L93,93 L7,93 C3.13400675,93 4.73447626e-16,89.8659932 0,86 C-4.73447626e-16,82.1340068 3.13400675,79 7,79 L93,79 Z M93,43 C96.8659932,43 100,46.1340068 100,50 C100,53.7854517 96.9952166,56.8690987 93.2406498,56.995941 L93,57 L93,57 L7,57 C3.13400675,57 4.73447626e-16,53.8659932 0,50 C-4.73447626e-16,46.1340068 3.13400675,43 7,43 L93,43 Z M93,7 C96.8659932,7 100,10.1340068 100,14 C100,17.7854517 96.9952166,20.8690987 93.2406498,20.995941 L93,21 L93,21 L7,21 C3.13400675,21 4.73447626e-16,17.8659932 0,14 C-4.73447626e-16,10.1340068 3.13400675,7 7,7 L93,7 Z" id="Shadow"></path>
        <path d="M93,79 C96.8659932,79 100,82.1340068 100,86 C100,89.7854517 96.9952166,92.8690987 93.2406498,92.995941 L93,93 L93,93 L7,93 C3.13400675,93 4.73447626e-16,89.8659932 0,86 C-4.73447626e-16,82.1340068 3.13400675,79 7,79 L93,79 Z M93,43 C96.8659932,43 100,46.1340068 100,50 C100,53.7854517 96.9952166,56.8690987 93.2406498,56.995941 L93,57 L93,57 L7,57 C3.13400675,57 4.73447626e-16,53.8659932 0,50 C-4.73447626e-16,46.1340068 3.13400675,43 7,43 L93,43 Z M93,7 C96.8659932,7 100,10.1340068 100,14 C100,17.7854517 96.9952166,20.8690987 93.2406498,20.995941 L93,21 L93,21 L7,21 C3.13400675,21 4.73447626e-16,17.8659932 0,14 C-4.73447626e-16,10.1340068 3.13400675,7 7,7 L93,7 Z" id="Colour" fill="#000000"></path>
    </g>
</svg>