<?xml version="1.0" encoding="UTF-8"?>
<svg width="100px" height="100px" viewBox="0 0 100 100" version="1.1" xmlns="http://www.w3.org/2000/svg" xmlns:xlink="http://www.w3.org/1999/xlink">
    <title>Lock</title>
    <g id="Lock" stroke="none" stroke-width="1" fill="none" fill-rule="evenodd">
        <path d="M75,35 L75,25 C75,11 64,0 50,0 C36,0 25,11 25,25 L25,35 C16.5,35 10,41.5 10,50 L10,85 C10,93.5 16.5,100 25,100 L75,100 C83.5,100 90,93.5 90,85 L90,50 C90,41.5 83.5,35 75,35 Z M35,25 C35,16.5 41.5,10 50,10 C58.5,10 65,16.5 65,25 L65,35 L35,35 L35,25 Z" id="Shadow"></path>
        <path d="M75,35 L75,25 C75,11 64,0 50,0 C36,0 25,11 25,25 L25,35 C16.5,35 10,41.5 10,50 L10,85 C10,93.5 16.5,100 25,100 L75,100 C83.5,100 90,93.5 90,85 L90,50 C90,41.5 83.5,35 75,35 Z M35,25 C35,16.5 41.5,10 50,10 C58.5,10 65,16.5 65,25 L65,35 L35,35 L35,25 Z" id="Colour" fill="#000000"></path>
    </g>
</svg>