<?xml version="1.0" encoding="UTF-8"?>
<svg width="100px" height="100px" viewBox="0 0 100 100" version="1.1" xmlns="http://www.w3.org/2000/svg" xmlns:xlink="http://www.w3.org/1999/xlink">
    <title>Map</title>
    <g id="Map" stroke="none" stroke-width="1" fill="none" fill-rule="evenodd">
        <path d="M30.6678003,50 L30.6678003,8.24967735 C30.6982646,6.98990292 30.4122984,5.92596557 29.8099018,5.05786528 C29.131923,4.12763253 28.3083687,3.81089919 27.3392389,4.10766526 L27.3392389,4.10766526 L2.21993174,10.6602858 C1.60371222,10.8290255 1.08807626,11.2555308 0.673023861,11.9398018 C0.224341287,12.7387074 1.95399252e-13,13.6295468 1.95399252e-13,14.6123199 L1.95399252e-13,14.6123199 L1.95399252e-13,50 L0.00219970598,50 L0.00219970598,91.7503226 C-0.0282645668,93.0100971 0.257701602,94.0740344 0.860098213,94.9421347 C1.53807704,95.8723675 2.36163133,96.1891008 3.33076111,95.8923347 L3.33076111,95.8923347 L28.4500683,89.3397142 C29.0662878,89.1709745 29.5819237,88.7444692 29.9969761,88.0601982 C30.4456587,87.2612926 30.67,86.3704532 30.67,85.3876801 L30.67,85.3876801 L30.67,50 L30.6678003,50 Z M100.0078,50 L100.0078,8.24967735 C100.038265,6.98990292 99.7522984,5.92596557 99.1499018,5.05786528 C98.471923,4.12763253 97.6483687,3.81089919 96.6792389,4.10766526 L96.6792389,4.10766526 L71.5599317,10.6602858 C70.9437122,10.8290255 70.4280763,11.2555308 70.0130239,11.9398018 C69.5643413,12.7387074 69.34,13.6295468 69.34,14.6123199 L69.34,14.6123199 L69.34,50 L69.3421997,50 L69.3421997,91.7503226 C69.3117354,93.0100971 69.5977016,94.0740344 70.2000982,94.9421347 C70.878077,95.8723675 71.7016313,96.1891008 72.6707611,95.8923347 L72.6707611,95.8923347 L97.7900683,89.3397142 C98.4062878,89.1709745 98.9219237,88.7444692 99.3369761,88.0601982 C99.7856587,87.2612926 100.01,86.3704532 100.01,85.3876801 L100.01,85.3876801 L100.01,50 L100.0078,50 Z M34.6721997,50 L34.6721997,8.24967735 C34.6417354,6.98990292 34.9277016,5.92596557 35.5300982,5.05786528 C36.208077,4.12763253 37.0316313,3.81089919 38.0007611,4.10766526 L38.0007611,4.10766526 L63.1200683,10.6602858 C63.7362878,10.8290255 64.2519237,11.2555308 64.6669761,11.9398018 C65.1156587,12.7387074 65.34,13.6295468 65.34,14.6123199 L65.34,14.6123199 L65.34,50 L65.3378003,50 L65.3378003,91.7503226 C65.3682646,93.0100971 65.0822984,94.0740344 64.4799018,94.9421347 C63.801923,95.8723675 62.9783687,96.1891008 62.0092389,95.8923347 L62.0092389,95.8923347 L36.8899317,89.3397142 C36.2737122,89.1709745 35.7580763,88.7444692 35.3430239,88.0601982 C34.8943413,87.2612926 34.67,86.3704532 34.67,85.3876801 L34.67,85.3876801 L34.67,50 L34.6721997,50 Z" id="Shadow"></path>
        <path d="M30.6678003,50 L30.6678003,8.24967735 C30.6982646,6.98990292 30.4122984,5.92596557 29.8099018,5.05786528 C29.131923,4.12763253 28.3083687,3.81089919 27.3392389,4.10766526 L27.3392389,4.10766526 L2.21993174,10.6602858 C1.60371222,10.8290255 1.08807626,11.2555308 0.673023861,11.9398018 C0.224341287,12.7387074 1.06936682e-12,13.6295468 1.06936682e-12,14.6123199 L1.06936682e-12,14.6123199 L1.06936682e-12,50 L0.00219970598,50 L0.00219970598,91.7503226 C-0.0282645668,93.0100971 0.257701602,94.0740344 0.860098213,94.9421347 C1.53807704,95.8723675 2.36163133,96.1891008 3.33076111,95.8923347 L3.33076111,95.8923347 L28.4500683,89.3397142 C29.0662878,89.1709745 29.5819237,88.7444692 29.9969761,88.0601982 C30.4456587,87.2612926 30.67,86.3704532 30.67,85.3876801 L30.67,85.3876801 L30.67,50 L30.6678003,50 Z M100.0078,50 L100.0078,8.24967735 C100.038265,6.98990292 99.7522984,5.92596557 99.1499018,5.05786528 C98.471923,4.12763253 97.6483687,3.81089919 96.6792389,4.10766526 L96.6792389,4.10766526 L71.5599317,10.6602858 C70.9437122,10.8290255 70.4280763,11.2555308 70.0130239,11.9398018 C69.5643413,12.7387074 69.34,13.6295468 69.34,14.6123199 L69.34,14.6123199 L69.34,50 L69.3421997,50 L69.3421997,91.7503226 C69.3117354,93.0100971 69.5977016,94.0740344 70.2000982,94.9421347 C70.878077,95.8723675 71.7016313,96.1891008 72.6707611,95.8923347 L72.6707611,95.8923347 L97.7900683,89.3397142 C98.4062878,89.1709745 98.9219237,88.7444692 99.3369761,88.0601982 C99.7856587,87.2612926 100.01,86.3704532 100.01,85.3876801 L100.01,85.3876801 L100.01,50 L100.0078,50 Z M34.6721997,50 L34.6721997,8.24967735 C34.6417354,6.98990292 34.9277016,5.92596557 35.5300982,5.05786528 C36.208077,4.12763253 37.0316313,3.81089919 38.0007611,4.10766526 L38.0007611,4.10766526 L63.1200683,10.6602858 C63.7362878,10.8290255 64.2519237,11.2555308 64.6669761,11.9398018 C65.1156587,12.7387074 65.34,13.6295468 65.34,14.6123199 L65.34,14.6123199 L65.34,50 L65.3378003,50 L65.3378003,91.7503226 C65.3682646,93.0100971 65.0822984,94.0740344 64.4799018,94.9421347 C63.801923,95.8723675 62.9783687,96.1891008 62.0092389,95.8923347 L62.0092389,95.8923347 L36.8899317,89.3397142 C36.2737122,89.1709745 35.7580763,88.7444692 35.3430239,88.0601982 C34.8943413,87.2612926 34.67,86.3704532 34.67,85.3876801 L34.67,85.3876801 L34.67,50 L34.6721997,50 Z" id="Colour" fill="#000000"></path>
    </g>
</svg>