<?xml version="1.0" encoding="UTF-8"?>
<svg width="100px" height="100px" viewBox="0 0 100 100" version="1.1" xmlns="http://www.w3.org/2000/svg" xmlns:xlink="http://www.w3.org/1999/xlink">
    <title>Marketing</title>
    <g id="Marketing" stroke="none" stroke-width="1" fill="none" fill-rule="evenodd">
        <path d="M88,54 C94.627417,54 100,48.8512746 100,42.5 C100,36.1487254 94.627417,31 88,31 L88,54 Z M83,78.018864 C83,79.279494 82.5783503,80.5037978 81.8023678,81.4964045 C79.8845936,83.9495469 76.3441838,84.3812638 73.8946412,82.4606712 C62.69741,73.6813508 50.2122044,68.2450232 36.4390244,66.1516883 L45.1119342,80.8087317 C45.4320971,81.3498005 45.7118002,81.9138764 45.9487478,82.4963297 C48.5987339,89.0104002 45.4740237,96.4424929 38.9695122,99.0963735 C38.2095031,99.4064618 37.4201438,99.6388257 36.6134695,99.7899222 C30.0018574,101.02833 23.6396321,96.6646105 22.4030091,90.0432882 C20.8771517,81.8730788 19.4826528,73.5713179 18.2195122,65.1380056 C7.08536585,65.1380056 0,55.0011794 0,42.836988 C0,30.6727965 7.08536585,19.5222877 18.2195122,19.5222877 C35.4268293,19.5222877 57.0987943,14.3686027 73.8946412,1.19962209 C76.3441838,-0.720970484 79.8845936,-0.289253569 81.8023678,2.1638888 C82.5783503,3.1564955 83,4.38079927 83,5.64142928 L83,78.018864 Z" id="Shadow"></path>
        <path d="M88,54 C94.627417,54 100,48.8512746 100,42.5 C100,36.1487254 94.627417,31 88,31 L88,54 Z M83,78.018864 C83,79.279494 82.5783503,80.5037978 81.8023678,81.4964045 C79.8845936,83.9495469 76.3441838,84.3812638 73.8946412,82.4606712 C62.69741,73.6813508 50.2122044,68.2450232 36.4390244,66.1516883 L45.1119342,80.8087317 C45.4320971,81.3498005 45.7118002,81.9138764 45.9487478,82.4963297 C48.5987339,89.0104002 45.4740237,96.4424929 38.9695122,99.0963735 C38.2095031,99.4064618 37.4201438,99.6388257 36.6134695,99.7899222 C30.0018574,101.02833 23.6396321,96.6646105 22.4030091,90.0432882 C20.8771517,81.8730788 19.4826528,73.5713179 18.2195122,65.1380056 C7.08536585,65.1380056 0,55.0011794 0,42.836988 C0,30.6727965 7.08536585,19.5222877 18.2195122,19.5222877 C35.4268293,19.5222877 57.0987943,14.3686027 73.8946412,1.19962209 C76.3441838,-0.720970484 79.8845936,-0.289253569 81.8023678,2.1638888 C82.5783503,3.1564955 83,4.38079927 83,5.64142928 L83,78.018864 Z" id="Colour" fill="#000000"></path>
    </g>
</svg>