<?xml version="1.0" encoding="UTF-8"?>
<svg width="100px" height="100px" viewBox="0 0 100 100" version="1.1" xmlns="http://www.w3.org/2000/svg" xmlns:xlink="http://www.w3.org/1999/xlink">
    <title>Menu Circle Border</title>
    <g id="Menu-Circle-Border" stroke="none" stroke-width="1" fill="none" fill-rule="evenodd">
        <path d="M50,0 C77.6142375,0 100,22.3857625 100,50 C100,77.6142375 77.6142375,100 50,100 C22.3857625,100 0,77.6142375 0,50 C0,22.3857625 22.3857625,0 50,0 Z M50,7 C26.2517558,7 7,26.2517558 7,50 C7,73.7482442 26.2517558,93 50,93 C73.7482442,93 93,73.7482442 93,50 C93,26.2517558 73.7482442,7 50,7 Z M51.92,50 L51.92,33.0139135 C51.92,32.5421825 52.0815198,32.1145796 52.4045593,31.7311049 C52.703386,31.4026548 53.0746301,31.1979322 53.5182918,31.1169372 L71.6035244,27.9716793 C71.7938192,27.9328299 71.9763182,27.915884 72.1510214,27.9208415 L72.3231259,27.9331002 C72.7186398,27.9787398 73.0717098,28.1436315 73.3823359,28.4277753 C73.8160454,28.8444635 74.0219335,29.3551534 74,29.9598451 L74,50 L74.0015837,50 L74.0015837,66.9860865 C74.0015837,67.4578175 73.840064,67.8854204 73.5170245,68.2688951 C73.2181978,68.5973452 72.8469536,68.8020678 72.403292,68.8830628 L54.3180594,72.0283207 C54.1911961,72.0542203 54.0677977,72.070385 53.9478642,72.0768148 L53.7705624,72.0791585 C53.3046872,72.0659384 52.8942491,71.8969605 52.5392478,71.5722247 C52.1055383,71.1555365 51.8996503,70.6448466 51.9215837,70.0401549 L51.9215837,50 L51.92,50 Z M27.8505624,27.9208415 L28.0278642,27.9231852 C28.1477977,27.929615 28.2711961,27.9457797 28.3980594,27.9716793 L28.3980594,27.9716793 L46.483292,31.1169372 C46.9269536,31.1979322 47.2981978,31.4026548 47.5970245,31.7311049 C47.920064,32.1145796 48.0815837,32.5421825 48.0815837,33.0139135 L48.0815837,33.0139135 L48.0815837,50 L48.08,50 L48.08,70.0401549 C48.1019335,70.6448466 47.8960454,71.1555365 47.4623359,71.5722247 C47.1517098,71.8563685 46.7986398,72.0212602 46.4031259,72.0668998 L46.2310214,72.0791585 C46.0563182,72.084116 45.8738192,72.0671701 45.6835244,72.0283207 L45.6835244,72.0283207 L27.5982918,68.8830628 C27.1546301,68.8020678 26.783386,68.5973452 26.4845593,68.2688951 C26.1615198,67.8854204 26,67.4578175 26,66.9860865 L26,66.9860865 L26,50 L26.0015837,50 L26.0015837,29.9598451 C25.9796503,29.3551534 26.1855383,28.8444635 26.6192478,28.4277753 C26.9742491,28.1030395 27.3846872,27.9340616 27.8505624,27.9208415 Z" id="Shadow" fill="#000000"></path>
        <path d="M50,0 C77.6142375,0 100,22.3857625 100,50 C100,77.6142375 77.6142375,100 50,100 C22.3857625,100 0,77.6142375 0,50 C0,22.3857625 22.3857625,0 50,0 Z M50,7 C26.2517558,7 7,26.2517558 7,50 C7,73.7482442 26.2517558,93 50,93 C73.7482442,93 93,73.7482442 93,50 C93,26.2517558 73.7482442,7 50,7 Z M51.92,50 L51.92,33.0139135 C51.92,32.5421825 52.0815198,32.1145796 52.4045593,31.7311049 C52.703386,31.4026548 53.0746301,31.1979322 53.5182918,31.1169372 L71.6035244,27.9716793 C71.7938192,27.9328299 71.9763182,27.915884 72.1510214,27.9208415 L72.3231259,27.9331002 C72.7186398,27.9787398 73.0717098,28.1436315 73.3823359,28.4277753 C73.8160454,28.8444635 74.0219335,29.3551534 74,29.9598451 L74,50 L74.0015837,50 L74.0015837,66.9860865 C74.0015837,67.4578175 73.840064,67.8854204 73.5170245,68.2688951 C73.2181978,68.5973452 72.8469536,68.8020678 72.403292,68.8830628 L54.3180594,72.0283207 C54.1911961,72.0542203 54.0677977,72.070385 53.9478642,72.0768148 L53.7705624,72.0791585 C53.3046872,72.0659384 52.8942491,71.8969605 52.5392478,71.5722247 C52.1055383,71.1555365 51.8996503,70.6448466 51.9215837,70.0401549 L51.9215837,50 L51.92,50 Z M27.8505624,27.9208415 L28.0278642,27.9231852 C28.1477977,27.929615 28.2711961,27.9457797 28.3980594,27.9716793 L28.3980594,27.9716793 L46.483292,31.1169372 C46.9269536,31.1979322 47.2981978,31.4026548 47.5970245,31.7311049 C47.920064,32.1145796 48.0815837,32.5421825 48.0815837,33.0139135 L48.0815837,33.0139135 L48.0815837,50 L48.08,50 L48.08,70.0401549 C48.1019335,70.6448466 47.8960454,71.1555365 47.4623359,71.5722247 C47.1517098,71.8563685 46.7986398,72.0212602 46.4031259,72.0668998 L46.2310214,72.0791585 C46.0563182,72.084116 45.8738192,72.0671701 45.6835244,72.0283207 L45.6835244,72.0283207 L27.5982918,68.8830628 C27.1546301,68.8020678 26.783386,68.5973452 26.4845593,68.2688951 C26.1615198,67.8854204 26,67.4578175 26,66.9860865 L26,66.9860865 L26,50 L26.0015837,50 L26.0015837,29.9598451 C25.9796503,29.3551534 26.1855383,28.8444635 26.6192478,28.4277753 C26.9742491,28.1030395 27.3846872,27.9340616 27.8505624,27.9208415 Z" id="Colour" fill="#000000"></path>
    </g>
</svg>