<?xml version="1.0" encoding="UTF-8"?>
<svg width="100px" height="100px" viewBox="0 0 100 100" version="1.1" xmlns="http://www.w3.org/2000/svg" xmlns:xlink="http://www.w3.org/1999/xlink">
    <title>Menu</title>
    <g id="Menu" stroke="none" stroke-width="1" fill="none" fill-rule="evenodd">
        <path d="M54,50 L54,14.6123199 C54,13.6295468 54.3364995,12.7387074 55.0094985,11.9398018 C55.6320541,11.2555308 56.4054794,10.8290255 57.3297745,10.6602858 L95.0073425,4.10766526 C96.4609834,3.81089919 97.6962692,4.12763253 98.7131998,5.05786528 C99.6167613,5.92596557 100.045695,6.98990292 100,8.24967735 L100,50 L100.003299,50 L100.003299,85.3876801 C100.003299,86.3704532 99.6667999,87.2612926 98.993801,88.0601982 C98.3712454,88.7444692 97.59782,89.1709745 96.6735249,89.3397142 L58.995957,95.8923347 C57.5423161,96.1891008 56.3070303,95.8723675 55.2900996,94.9421347 C54.3865381,94.0740344 53.9576047,93.0100971 54.0032994,91.7503226 L54.0032994,50 L54,50 Z M0.003299437,50 L0.003299437,8.24967735 C-0.042395283,6.98990292 0.386538115,5.92596557 1.29009963,5.05786528 C2.30703027,4.12763253 3.54231606,3.81089919 4.99595699,4.10766526 L4.99595699,4.10766526 L42.6735249,10.6602858 C43.59782,10.8290255 44.3712454,11.2555308 44.993801,11.9398018 C45.6667999,12.7387074 46.0032994,13.6295468 46.0032994,14.6123199 L46.0032994,14.6123199 L46.0032994,50 L46,50 L46,91.7503226 C46.0456947,93.0100971 45.6167613,94.0740344 44.7131998,94.9421347 C43.6962692,95.8723675 42.4609834,96.1891008 41.0073425,95.8923347 L41.0073425,95.8923347 L3.32977452,89.3397142 C2.40547941,89.1709745 1.63205406,88.7444692 1.00949847,88.0601982 C0.336499491,87.2612926 0,86.3704532 0,85.3876801 L0,85.3876801 L0,50 L0.003299437,50 Z" id="Shadow"></path>
        <path d="M54,50 L54,14.6123199 C54,13.6295468 54.3364995,12.7387074 55.0094985,11.9398018 C55.6320541,11.2555308 56.4054794,10.8290255 57.3297745,10.6602858 L95.0073425,4.10766526 C96.4609834,3.81089919 97.6962692,4.12763253 98.7131998,5.05786528 C99.6167613,5.92596557 100.045695,6.98990292 100,8.24967735 L100,50 L100.003299,50 L100.003299,85.3876801 C100.003299,86.3704532 99.6667999,87.2612926 98.993801,88.0601982 C98.3712454,88.7444692 97.59782,89.1709745 96.6735249,89.3397142 L58.995957,95.8923347 C57.5423161,96.1891008 56.3070303,95.8723675 55.2900996,94.9421347 C54.3865381,94.0740344 53.9576047,93.0100971 54.0032994,91.7503226 L54.0032994,50 L54,50 Z M0.003299437,50 L0.003299437,8.24967735 C-0.042395283,6.98990292 0.386538115,5.92596557 1.29009963,5.05786528 C2.30703027,4.12763253 3.54231606,3.81089919 4.99595699,4.10766526 L4.99595699,4.10766526 L42.6735249,10.6602858 C43.59782,10.8290255 44.3712454,11.2555308 44.993801,11.9398018 C45.6667999,12.7387074 46.0032994,13.6295468 46.0032994,14.6123199 L46.0032994,14.6123199 L46.0032994,50 L46,50 L46,91.7503226 C46.0456947,93.0100971 45.6167613,94.0740344 44.7131998,94.9421347 C43.6962692,95.8723675 42.4609834,96.1891008 41.0073425,95.8923347 L41.0073425,95.8923347 L3.32977452,89.3397142 C2.40547941,89.1709745 1.63205406,88.7444692 1.00949847,88.0601982 C0.336499491,87.2612926 6.96331881e-13,86.3704532 6.96331881e-13,85.3876801 L6.96331881e-13,85.3876801 L6.96331881e-13,50 L0.003299437,50 Z" id="Colour" fill="#000000"></path>
    </g>
</svg>