<?xml version="1.0" encoding="UTF-8"?>
<svg width="100px" height="100px" viewBox="0 0 100 100" version="1.1" xmlns="http://www.w3.org/2000/svg" xmlns:xlink="http://www.w3.org/1999/xlink">
    <title>Messenger</title>
    <g id="Messenger" stroke="none" stroke-width="1" fill="none" fill-rule="evenodd">
        <path d="M50,0.000577842692 C21.83375,0.000577842692 0,20.6330778 0,48.5005778 C0,63.0768278 5.97375,75.6730778 15.7025,84.3730778 C16.51875,85.1043278 17.0125,86.1280778 17.04625,87.2243278 L17.31875,96.1180778 C17.40625,98.9555778 20.33625,100.800578 22.9325,99.6555778 L32.85625,95.2743278 C33.6975,94.9030778 34.64,94.8343278 35.52625,95.0780778 C40.08625,96.3318278 44.94,97.0005778 50,97.0005778 C78.16625,97.0005778 100,76.3680778 100,48.5005778 C100,20.6330778 78.16625,0.000577842692 50,0.000577842692 Z M80.025,37.3168278 L65.3375,60.6193278 C63.00125,64.3255778 57.9975,65.2493278 54.4925,62.6205778 L42.81,53.8593278 C41.73875,53.0555778 40.26375,53.0593278 39.19625,53.8693278 L23.42,65.8430778 C21.31375,67.4405778 18.565,64.9205778 19.975,62.6843278 L34.6625,39.3818278 C36.99875,35.6743278 42.00125,34.7518278 45.5075,37.3805778 L57.18875,46.1418278 C58.26,46.9455778 59.735,46.9418278 60.8025,46.1318278 L76.57875,34.1580778 C78.685,32.5605778 81.43375,35.0805778 80.02375,37.3168278 L80.025,37.3168278 Z" id="Shape"></path>
        <path d="M50,0.000577842692 C21.83375,0.000577842692 0,20.6330778 0,48.5005778 C0,63.0768278 5.97375,75.6730778 15.7025,84.3730778 C16.51875,85.1043278 17.0125,86.1280778 17.04625,87.2243278 L17.31875,96.1180778 C17.40625,98.9555778 20.33625,100.800578 22.9325,99.6555778 L32.85625,95.2743278 C33.6975,94.9030778 34.64,94.8343278 35.52625,95.0780778 C40.08625,96.3318278 44.94,97.0005778 50,97.0005778 C78.16625,97.0005778 100,76.3680778 100,48.5005778 C100,20.6330778 78.16625,0.000577842692 50,0.000577842692 Z M80.025,37.3168278 L65.3375,60.6193278 C63.00125,64.3255778 57.9975,65.2493278 54.4925,62.6205778 L42.81,53.8593278 C41.73875,53.0555778 40.26375,53.0593278 39.19625,53.8693278 L23.42,65.8430778 C21.31375,67.4405778 18.565,64.9205778 19.975,62.6843278 L34.6625,39.3818278 C36.99875,35.6743278 42.00125,34.7518278 45.5075,37.3805778 L57.18875,46.1418278 C58.26,46.9455778 59.735,46.9418278 60.8025,46.1318278 L76.57875,34.1580778 C78.685,32.5605778 81.43375,35.0805778 80.02375,37.3168278 L80.025,37.3168278 Z" id="Colour" fill="#000000"></path>
    </g>
</svg>