<?xml version="1.0" encoding="UTF-8"?>
<svg width="100px" height="100px" viewBox="0 0 100 100" version="1.1" xmlns="http://www.w3.org/2000/svg" xmlns:xlink="http://www.w3.org/1999/xlink">
    <title>Minus Thin</title>
    <g id="Minus-Thin" stroke="none" stroke-width="1" fill="none" fill-rule="evenodd">
        <path d="M6,44 L94,44 C97.3137085,44 100,46.6862915 100,50 C100,53.3137085 97.3137085,56 94,56 L6,56 C2.6862915,56 4.05812251e-16,53.3137085 0,50 C-4.05812251e-16,46.6862915 2.6862915,44 6,44 Z" id="Shadow"></path>
        <path d="M6,44 L94,44 C97.3137085,44 100,46.6862915 100,50 C100,53.3137085 97.3137085,56 94,56 L6,56 C2.6862915,56 4.05812251e-16,53.3137085 0,50 C-4.05812251e-16,46.6862915 2.6862915,44 6,44 Z" id="Colour" fill="#000000"></path>
    </g>
</svg>