<?xml version="1.0" encoding="UTF-8"?>
<svg width="100px" height="100px" viewBox="0 0 100 100" version="1.1" xmlns="http://www.w3.org/2000/svg" xmlns:xlink="http://www.w3.org/1999/xlink">
    <title>Minus</title>
    <g id="Minus" stroke="none" stroke-width="1" fill="none" fill-rule="evenodd">
        <path d="M12,38 L88,38 C94.627417,38 100,43.372583 100,50 C100,56.627417 94.627417,62 88,62 L12,62 C5.372583,62 8.11624501e-16,56.627417 0,50 C-8.11624501e-16,43.372583 5.372583,38 12,38 Z" id="Shadow"></path>
        <path d="M12,38 L88,38 C94.627417,38 100,43.372583 100,50 C100,56.627417 94.627417,62 88,62 L12,62 C5.372583,62 8.11624501e-16,56.627417 0,50 C-8.11624501e-16,43.372583 5.372583,38 12,38 Z" id="Colour" fill="#000000"></path>
    </g>
</svg>