<?xml version="1.0" encoding="UTF-8"?>
<svg width="100px" height="100px" viewBox="0 0 100 100" version="1.1" xmlns="http://www.w3.org/2000/svg" xmlns:xlink="http://www.w3.org/1999/xlink">
    <title>Moon New</title>
    <g id="Moon-New" stroke="none" stroke-width="1" fill="none" fill-rule="evenodd">
        <path d="M29,29 C29,51.6436747 47.3563253,70 70,70 C81.5482741,70 91.9814086,65.2255198 99.4331398,57.5428231 L99.3455844,58.1102597 C95.4705627,81.8675324 74.8528137,100 50,100 C22.3857625,100 -1.42108547e-13,77.6142375 -1.42108547e-13,50 C-1.42108547e-13,25.7892792 17.2076364,5.59761714 40.0598534,0.98806981 C33.1999147,8.31865754 29,18.1688574 29,29 Z" id="Shadow"></path>
        <path d="M29,29 C29,51.6436747 47.3563253,70 70,70 C81.5482741,70 91.9814086,65.2255198 99.4331398,57.5428231 L99.3455844,58.1102597 C95.4705627,81.8675324 74.8528137,100 50,100 C22.3857625,100 -1.42108547e-13,77.6142375 -1.42108547e-13,50 C-1.42108547e-13,25.7892792 17.2076364,5.59761714 40.0598534,0.98806981 C33.1999147,8.31865754 29,18.1688574 29,29 Z" id="Colour" fill="#000000"></path>
    </g>
</svg>