<?xml version="1.0" encoding="UTF-8"?>
<svg width="100px" height="100px" viewBox="0 0 100 100" version="1.1" xmlns="http://www.w3.org/2000/svg" xmlns:xlink="http://www.w3.org/1999/xlink">
    <title>Multiple Images</title>
    <g id="Multiple-Images" stroke="none" stroke-width="1" fill="none" fill-rule="evenodd">
        <path d="M87.2,0 C94.2692448,0 100,5.7307552 100,12.8 L100,67.2 C100,74.166792 94.43415,79.83361 87.5065017,79.9964023 L87.2,80 L86,80 L86,26.8 C86,19.833208 80.43415,14.16639 73.5065017,14.0035977 L73.2,14 L20,14 L20,12.8 L20.0035977,12.4934983 C20.1639602,5.66924778 25.6652754,0.166448141 32.4889368,0.00370568124 L32.8,0 L87.2,0 Z M12.8,100 L12.4934983,99.9964023 C5.56585004,99.83361 4.61852778e-14,94.166792 4.61852778e-14,87.2 L4.61852778e-14,87.2 L0,32.8 L0.00359769157,32.4934983 C0.166389983,25.56585 5.83320803,20 12.8,20 L12.8,20 L67.2,20 C74.2692448,20 80,25.7307552 80,32.8 L80,32.8 L80,87.2 C80,94.2692448 74.2692448,100 67.2,100 L67.2,100 L12.8,100 Z" id="Shadow"></path>
        <path d="M87.2,0 C94.2692448,0 100,5.7307552 100,12.8 L100,67.2 C100,74.166792 94.43415,79.83361 87.5065017,79.9964023 L87.2,80 L86,80 L86,26.8 C86,19.833208 80.43415,14.16639 73.5065017,14.0035977 L73.2,14 L20,14 L20,12.8 L20.0035977,12.4934983 C20.1639602,5.66924778 25.6652754,0.166448141 32.4889368,0.00370568124 L32.8,0 L87.2,0 Z M12.8,100 L12.4934983,99.9964023 C5.56585004,99.83361 -3.55271368e-15,94.166792 -3.55271368e-15,87.2 L-3.55271368e-15,87.2 L-4.97379915e-14,32.8 L0.00359769157,32.4934983 C0.166389983,25.56585 5.83320803,20 12.8,20 L12.8,20 L67.2,20 C74.2692448,20 80,25.7307552 80,32.8 L80,32.8 L80,87.2 C80,94.2692448 74.2692448,100 67.2,100 L67.2,100 L12.8,100 Z" id="Colour" fill="#000000"></path>
    </g>
</svg>