<?xml version="1.0" encoding="UTF-8"?>
<svg width="100px" height="100px" viewBox="0 0 100 100" version="1.1" xmlns="http://www.w3.org/2000/svg" xmlns:xlink="http://www.w3.org/1999/xlink">
    <title>Options Circle Border</title>
    <g id="Options-Circle-Border" stroke="none" stroke-width="1" fill="none" fill-rule="evenodd">
        <path d="M50,0 C77.6142375,0 100,22.3857625 100,50 C100,77.6142375 77.6142375,100 50,100 C22.3857625,100 0,77.6142375 0,50 C0,22.3857625 22.3857625,0 50,0 Z M50,7 C26.2517558,7 7,26.2517558 7,50 C7,73.7482442 26.2517558,93 50,93 C73.7482442,93 93,73.7482442 93,50 C93,26.2517558 73.7482442,7 50,7 Z M27.6,44.4 L27.8198921,44.404238 C30.810764,44.5197227 33.2,46.9808434 33.2,50 C33.2,53.0927946 30.6927946,55.6 27.6,55.6 C24.5072054,55.6 22,53.0927946 22,50 C22,46.9072054 24.5072054,44.4 27.6,44.4 L27.6,44.4 Z M50,44.4 L50.2198921,44.404238 C53.210764,44.5197227 55.6,46.9808434 55.6,50 C55.6,53.0927946 53.0927946,55.6 50,55.6 C46.9072054,55.6 44.4,53.0927946 44.4,50 C44.4,46.9072054 46.9072054,44.4 50,44.4 L50,44.4 Z M72.4,44.4 L72.6198921,44.404238 C75.610764,44.5197227 78,46.9808434 78,50 C78,53.0927946 75.4927946,55.6 72.4,55.6 C69.3072054,55.6 66.8,53.0927946 66.8,50 C66.8,46.9072054 69.3072054,44.4 72.4,44.4 L72.4,44.4 Z" id="Shadow"></path>
        <path d="M50,0 C77.6142375,0 100,22.3857625 100,50 C100,77.6142375 77.6142375,100 50,100 C22.3857625,100 0,77.6142375 0,50 C0,22.3857625 22.3857625,0 50,0 Z M50,7 C26.2517558,7 7,26.2517558 7,50 C7,73.7482442 26.2517558,93 50,93 C73.7482442,93 93,73.7482442 93,50 C93,26.2517558 73.7482442,7 50,7 Z M27.6,44.4 L27.8198921,44.404238 C30.810764,44.5197227 33.2,46.9808434 33.2,50 C33.2,53.0927946 30.6927946,55.6 27.6,55.6 C24.5072054,55.6 22,53.0927946 22,50 C22,46.9072054 24.5072054,44.4 27.6,44.4 L27.6,44.4 Z M50,44.4 L50.2198921,44.404238 C53.210764,44.5197227 55.6,46.9808434 55.6,50 C55.6,53.0927946 53.0927946,55.6 50,55.6 C46.9072054,55.6 44.4,53.0927946 44.4,50 C44.4,46.9072054 46.9072054,44.4 50,44.4 L50,44.4 Z M72.4,44.4 L72.6198921,44.404238 C75.610764,44.5197227 78,46.9808434 78,50 C78,53.0927946 75.4927946,55.6 72.4,55.6 C69.3072054,55.6 66.8,53.0927946 66.8,50 C66.8,46.9072054 69.3072054,44.4 72.4,44.4 L72.4,44.4 Z" id="Colour" fill="#000000"></path>
    </g>
</svg>