<?xml version="1.0" encoding="UTF-8"?>
<svg width="100px" height="100px" viewBox="0 0 100 100" version="1.1" xmlns="http://www.w3.org/2000/svg" xmlns:xlink="http://www.w3.org/1999/xlink">
    <title>Order Arrows</title>
    <g id="Order-Arrows" stroke="none" stroke-width="1" fill="none" fill-rule="evenodd">
        <path d="M50,0 C51.5143078,0 52.8102397,0.934978475 53.3420039,2.25914368 L71.9932735,39.5572732 C72.3150903,40.0963258 72.5,40.7265689 72.5,41.4 C72.5,43.3240888 70.9905334,44.8956228 69.0911922,44.9950099 L68.9,45 L68.9,45 L68.8809711,44.9999508 L31.138,44.999 L31.1,45 C29.1117749,45 27.5,43.3882251 27.5,41.4 C27.5,40.7353148 27.680138,40.112703 27.9942575,39.5783212 L46.6535634,2.27023504 C47.1825313,0.940202471 48.4814676,0 50,0 Z M68.8858262,55 L69.0121307,55.0017131 C70.948473,55.0609557 72.5,56.6492886 72.5,58.6 C72.5,59.276762 72.3132566,59.9099077 71.9884882,60.4507188 L71.9884882,60.4507188 L53.3459002,97.7311128 C52.816591,99.0604327 51.5180194,100 50,100 C48.4785547,100 47.1775488,99.056187 46.6505279,97.7221067 L46.6505279,97.7221067 L27.9992365,60.4301227 C27.6820423,59.8938602 27.5,59.2681892 27.5,58.6 C27.5,56.6117749 29.1117749,55 31.1,55 L31.1,55 L68.8858262,55 Z" id="Shadow"></path>
        <path d="M50,0 C51.5143078,0 52.8102397,0.934978475 53.3420039,2.25914368 L71.9932735,39.5572732 C72.3150903,40.0963258 72.5,40.7265689 72.5,41.4 C72.5,43.3240888 70.9905334,44.8956228 69.0911922,44.9950099 L68.9,45 L68.9,45 L68.8809711,44.9999508 L31.138,44.999 L31.1,45 C29.1117749,45 27.5,43.3882251 27.5,41.4 C27.5,40.7353148 27.680138,40.112703 27.9942575,39.5783212 L46.6535634,2.27023504 C47.1825313,0.940202471 48.4814676,0 50,0 Z M68.8858262,55 L69.0121307,55.0017131 C70.948473,55.0609557 72.5,56.6492886 72.5,58.6 C72.5,59.276762 72.3132566,59.9099077 71.9884882,60.4507188 L71.9884882,60.4507188 L53.3459002,97.7311128 C52.816591,99.0604327 51.5180194,100 50,100 C48.4785547,100 47.1775488,99.056187 46.6505279,97.7221067 L46.6505279,97.7221067 L27.9992365,60.4301227 C27.6820423,59.8938602 27.5,59.2681892 27.5,58.6 C27.5,56.6117749 29.1117749,55 31.1,55 L31.1,55 L68.8858262,55 Z" id="Colour" fill="#000000"></path>
    </g>
</svg>