<?xml version="1.0" encoding="UTF-8"?>
<svg width="100px" height="100px" viewBox="0 0 100 100" version="1.1" xmlns="http://www.w3.org/2000/svg" xmlns:xlink="http://www.w3.org/1999/xlink">
    <title>Paper Plane</title>
    <g id="Paper-Plane" stroke="none" stroke-width="1" fill="none" fill-rule="evenodd">
        <path d="M28.985223,-2.99387124 L105.366799,29.5416589 C110.577249,31.2565187 113.169281,33.6128196 113.142896,36.6105617 C113.507401,39.2704096 110.914356,41.6277241 105.363759,43.6825049 L21.8978404,79.0279841 C19.1725222,80.0725302 17.0566148,79.8415549 15.5501183,78.3350583 C14.2604243,77.0453644 13.6431784,75.4910125 13.6983804,73.6720028 L13.7111597,47.6000904 C13.6758796,46.4475509 13.7300126,45.4318989 13.8735586,44.5531344 L61.536384,36.6106459 L13.9464247,28.6793883 C13.7155506,27.2814006 13.6410995,25.4877495 13.7230714,23.2984351 L13.7340242,0.952929641 C13.7680946,-1.91487547 14.372981,-3.93662922 15.5486834,-5.11233162 C17.5217263,-7.08537445 22.0005728,-6.37922099 28.985223,-2.99387124 Z" id="Shadow" transform="translate(63.433721, 36.733721) rotate(-45.000000) translate(-63.433721, -36.733721) "></path>
        <path d="M28.985223,-2.99387124 L105.366799,29.5416589 C110.577249,31.2565187 113.169281,33.6128196 113.142896,36.6105617 C113.507401,39.2704096 110.914356,41.6277241 105.363759,43.6825049 L21.8978404,79.0279841 C19.1725222,80.0725302 17.0566148,79.8415549 15.5501183,78.3350583 C14.2604243,77.0453644 13.6431784,75.4910125 13.6983804,73.6720028 L13.7111597,47.6000904 C13.6758796,46.4475509 13.7300126,45.4318989 13.8735586,44.5531344 L61.536384,36.6106459 L13.9464247,28.6793883 C13.7155506,27.2814006 13.6410995,25.4877495 13.7230714,23.2984351 L13.7340242,0.952929641 C13.7680946,-1.91487547 14.372981,-3.93662922 15.5486834,-5.11233162 C17.5217263,-7.08537445 22.0005728,-6.37922099 28.985223,-2.99387124 Z" id="Colour" fill="#000000" transform="translate(63.433721, 36.733721) rotate(-45.000000) translate(-63.433721, -36.733721) "></path>
    </g>
</svg>