<?xml version="1.0" encoding="UTF-8"?>
<svg width="100px" height="100px" viewBox="0 0 100 100" version="1.1" xmlns="http://www.w3.org/2000/svg" xmlns:xlink="http://www.w3.org/1999/xlink">
    <title>Pen Circle Border</title>
    <g id="Pen-Circle-Border" stroke="none" stroke-width="1" fill="none" fill-rule="evenodd">
        <path d="M50,0 C77.6142375,0 100,22.3857625 100,50 C100,77.6142375 77.6142375,100 50,100 C22.3857625,100 0,77.6142375 0,50 C0,22.3857625 22.3857625,0 50,0 Z M50,7 C26.2517558,7 7,26.2517558 7,50 C7,73.7482442 26.2517558,93 50,93 C73.7482442,93 93,73.7482442 93,50 C93,26.2517558 73.7482442,7 50,7 Z M31.797634,55.11884 L44.880994,68.2022 L28.159714,73.91228 C28.0620683,73.9456057 27.9620324,73.9694098 27.8609721,73.9836922 L27.7087841,73.9979747 L27.7087841,73.9979747 L27.5560839,73.9979747 C27.4034691,73.9908335 27.2516226,73.9622686 27.105154,73.91228 C26.252194,73.62092 25.796674,72.69308 26.088034,71.84012 L31.797634,55.11884 Z M64.748434,26 L65.0215867,26.0040085 C67.297327,26.0708162 69.553114,26.97272 71.290114,28.70972 C74.903074,32.3222 74.903074,38.18012 71.290114,41.79308 L48.273154,64.81052 L35.189314,51.72668 L58.206754,28.70972 C60.013234,26.90324 62.380834,26 64.748434,26 Z" id="Shadow" fill="#000000"></path>
        <path d="M50,0 C77.6142375,0 100,22.3857625 100,50 C100,77.6142375 77.6142375,100 50,100 C22.3857625,100 0,77.6142375 0,50 C0,22.3857625 22.3857625,0 50,0 Z M50,7 C26.2517558,7 7,26.2517558 7,50 C7,73.7482442 26.2517558,93 50,93 C73.7482442,93 93,73.7482442 93,50 C93,26.2517558 73.7482442,7 50,7 Z M31.797634,55.11884 L44.880994,68.2022 L28.159714,73.91228 C28.0620683,73.9456057 27.9620324,73.9694098 27.8609721,73.9836922 L27.7087841,73.9979747 L27.7087841,73.9979747 L27.5560839,73.9979747 C27.4034691,73.9908335 27.2516226,73.9622686 27.105154,73.91228 C26.252194,73.62092 25.796674,72.69308 26.088034,71.84012 L31.797634,55.11884 Z M64.748434,26 L65.0215867,26.0040085 C67.297327,26.0708162 69.553114,26.97272 71.290114,28.70972 C74.903074,32.3222 74.903074,38.18012 71.290114,41.79308 L48.273154,64.81052 L35.189314,51.72668 L58.206754,28.70972 C60.013234,26.90324 62.380834,26 64.748434,26 Z" id="Colour" fill="#000000"></path>
    </g>
</svg>