<?xml version="1.0" encoding="UTF-8"?>
<svg width="100px" height="100px" viewBox="0 0 100 100" version="1.1" xmlns="http://www.w3.org/2000/svg" xmlns:xlink="http://www.w3.org/1999/xlink">
    <title>Pen</title>
    <g id="Pen" stroke="none" stroke-width="1" fill="none" fill-rule="evenodd">
        <path d="M12.0784042,60.66425 L39.3354042,87.92125 L4.49940418,99.81725 C3.78740418,100.06025 3.01440418,100.06025 2.30240418,99.81725 C0.525404182,99.21025 -0.423595818,97.27725 0.183404182,95.50025 L12.0784042,60.66425 Z M94.3544042,5.64525 C101.881404,13.17125 101.881404,25.37525 94.3544042,32.90225 L46.4024042,80.85525 L19.1444042,53.59725 L67.0974042,5.64525 C74.6244042,-1.88175 86.8274042,-1.88175 94.3544042,5.64525 Z" id="Shadow"></path>
        <path d="M12.0784042,60.66425 L39.3354042,87.92125 L4.49940418,99.81725 C3.78740418,100.06025 3.01440418,100.06025 2.30240418,99.81725 C0.525404182,99.21025 -0.423595818,97.27725 0.183404182,95.50025 L12.0784042,60.66425 Z M94.3544042,5.64525 C101.881404,13.17125 101.881404,25.37525 94.3544042,32.90225 L46.4024042,80.85525 L19.1444042,53.59725 L67.0974042,5.64525 C74.6244042,-1.88175 86.8274042,-1.88175 94.3544042,5.64525 Z" id="Colour" fill="#000000"></path>
    </g>
</svg>