<?xml version="1.0" encoding="UTF-8"?>
<svg width="100px" height="100px" viewBox="0 0 100 100" version="1.1" xmlns="http://www.w3.org/2000/svg" xmlns:xlink="http://www.w3.org/1999/xlink">
    <title>People Circle</title>
    <g id="People-Circle" stroke="none" stroke-width="1" fill="none" fill-rule="evenodd">
        <path d="M50,100 C77.6142375,100 100,77.6142375 100,50 C100,22.3857625 77.6142375,0 50,0 C22.3857625,0 0,22.3857625 0,50 C0,77.6142375 22.3857625,100 50,100 Z M40.0544,78 C40.0544,78 40.0468405,77.9994185 40.0324246,77.9979309 L39.9693112,77.9904255 C39.4345173,77.9197525 36.56,77.3811349 36.56,73.968 C36.56,68.3232 42.2048,65.904 44.624,65.904 L44.624,65.904 C44.624,67.2688548 47.1562076,68.5164932 49.7628919,68.588703 L50,68.592 L50,68.592 C52.688,68.592 55.376,67.310214 55.376,65.904 C57.7952,65.904 63.44,68.3232 63.44,73.968 C63.44,77.3811349 60.5654827,77.9197525 60.0306888,77.9904255 L59.9675754,77.9979309 L59.9511818,77.9995233 L59.9511818,77.9995233 L59.9456,78 L40.0544,78 Z M50,51.12 C53.4944,51.12 57.7952,53.5392 57.5264,57.84 C57.2528318,62.2170906 53.8935445,66.8027513 50.2126939,66.9742369 L50,66.9792 L50,66.9792 C46.2368,66.9792 42.7489826,62.2461223 42.4736,57.84 C42.2100706,53.6235294 46.338698,51.215594 49.7935575,51.1227863 L50,51.12 L50,51.12 Z M30.064,36.784 C30.064,38.1488548 32.5962076,39.3964932 35.2028919,39.468703 L35.44,39.472 L35.44,39.472 C38.128,39.472 40.816,38.190214 40.816,36.784 L40.816,36.784 C43.2352,36.784 48.88,39.2032 48.88,44.848 C48.88,48.2611349 46.0054827,48.7997525 45.4706888,48.8704255 L45.4075754,48.8779309 L45.3911818,48.8795233 L45.3911818,48.8795233 L45.3856,48.88 L25.4944,48.88 C25.4944,48.88 25.4868405,48.8794185 25.4724246,48.8779309 L25.4093112,48.8704255 C24.8745173,48.7997525 22,48.2611349 22,44.848 C22,39.2032 27.6448,36.784 30.064,36.784 L30.064,36.784 Z M59.184,36.784 C59.184,38.1488548 61.7162076,39.3964932 64.3228919,39.468703 L64.56,39.472 L64.56,39.472 C67.248,39.472 69.936,38.190214 69.936,36.784 C72.3552,36.784 78,39.2032 78,44.848 C78,48.2611349 75.1254827,48.7997525 74.5906888,48.8704255 L74.5275754,48.8779309 L74.5111818,48.8795233 L74.5111818,48.8795233 L74.5056,48.88 L54.6144,48.88 C54.6144,48.88 54.6068405,48.8794185 54.5924246,48.8779309 L54.5293112,48.8704255 C53.9945173,48.7997525 51.12,48.2611349 51.12,44.848 C51.12,39.2032 56.7648,36.784 59.184,36.784 L59.184,36.784 Z M35.44,22 C38.9344,22 43.2352,24.4192 42.9664,28.72 C42.6928318,33.0970906 39.3335445,37.6827513 35.6526939,37.8542369 L35.44,37.8592 L35.44,37.8592 C31.6768,37.8592 28.1889826,33.1261223 27.9136,28.72 C27.6448,24.4192 31.9456,22 35.44,22 Z M64.56,22 C68.0544,22 72.3552,24.4192 72.0864,28.72 C71.8128318,33.0970906 68.4535445,37.6827513 64.7726939,37.8542369 L64.56,37.8592 L64.56,37.8592 C60.7968,37.8592 57.3089826,33.1261223 57.0336,28.72 C56.7648,24.4192 61.0656,22 64.56,22 Z" id="Shadow" fill="#000000"></path>
        <path d="M50,100 C77.6142375,100 100,77.6142375 100,50 C100,22.3857625 77.6142375,0 50,0 C22.3857625,0 0,22.3857625 0,50 C0,77.6142375 22.3857625,100 50,100 Z M40.0544,78 C40.0544,78 40.0468405,77.9994185 40.0324246,77.9979309 L39.9693112,77.9904255 C39.4345173,77.9197525 36.56,77.3811349 36.56,73.968 C36.56,68.3232 42.2048,65.904 44.624,65.904 L44.624,65.904 C44.624,67.2688548 47.1562076,68.5164932 49.7628919,68.588703 L50,68.592 L50,68.592 C52.688,68.592 55.376,67.310214 55.376,65.904 C57.7952,65.904 63.44,68.3232 63.44,73.968 C63.44,77.3811349 60.5654827,77.9197525 60.0306888,77.9904255 L59.9675754,77.9979309 L59.9511818,77.9995233 L59.9511818,77.9995233 L59.9456,78 L40.0544,78 Z M50,51.12 C53.4944,51.12 57.7952,53.5392 57.5264,57.84 C57.2528318,62.2170906 53.8935445,66.8027513 50.2126939,66.9742369 L50,66.9792 L50,66.9792 C46.2368,66.9792 42.7489826,62.2461223 42.4736,57.84 C42.2100706,53.6235294 46.338698,51.215594 49.7935575,51.1227863 L50,51.12 L50,51.12 Z M30.064,36.784 C30.064,38.1488548 32.5962076,39.3964932 35.2028919,39.468703 L35.44,39.472 L35.44,39.472 C38.128,39.472 40.816,38.190214 40.816,36.784 L40.816,36.784 C43.2352,36.784 48.88,39.2032 48.88,44.848 C48.88,48.2611349 46.0054827,48.7997525 45.4706888,48.8704255 L45.4075754,48.8779309 L45.3911818,48.8795233 L45.3911818,48.8795233 L45.3856,48.88 L25.4944,48.88 C25.4944,48.88 25.4868405,48.8794185 25.4724246,48.8779309 L25.4093112,48.8704255 C24.8745173,48.7997525 22,48.2611349 22,44.848 C22,39.2032 27.6448,36.784 30.064,36.784 L30.064,36.784 Z M59.184,36.784 C59.184,38.1488548 61.7162076,39.3964932 64.3228919,39.468703 L64.56,39.472 L64.56,39.472 C67.248,39.472 69.936,38.190214 69.936,36.784 C72.3552,36.784 78,39.2032 78,44.848 C78,48.2611349 75.1254827,48.7997525 74.5906888,48.8704255 L74.5275754,48.8779309 L74.5111818,48.8795233 L74.5111818,48.8795233 L74.5056,48.88 L54.6144,48.88 C54.6144,48.88 54.6068405,48.8794185 54.5924246,48.8779309 L54.5293112,48.8704255 C53.9945173,48.7997525 51.12,48.2611349 51.12,44.848 C51.12,39.2032 56.7648,36.784 59.184,36.784 L59.184,36.784 Z M35.44,22 C38.9344,22 43.2352,24.4192 42.9664,28.72 C42.6928318,33.0970906 39.3335445,37.6827513 35.6526939,37.8542369 L35.44,37.8592 L35.44,37.8592 C31.6768,37.8592 28.1889826,33.1261223 27.9136,28.72 C27.6448,24.4192 31.9456,22 35.44,22 Z M64.56,22 C68.0544,22 72.3552,24.4192 72.0864,28.72 C71.8128318,33.0970906 68.4535445,37.6827513 64.7726939,37.8542369 L64.56,37.8592 L64.56,37.8592 C60.7968,37.8592 57.3089826,33.1261223 57.0336,28.72 C56.7648,24.4192 61.0656,22 64.56,22 Z" id="Colour" fill="#000000"></path>
    </g>
</svg>