<?xml version="1.0" encoding="UTF-8"?>
<svg width="100px" height="100px" viewBox="0 0 100 100" version="1.1" xmlns="http://www.w3.org/2000/svg" xmlns:xlink="http://www.w3.org/1999/xlink">
    <title>People</title>
    <g id="People" stroke="none" stroke-width="1" fill="none" fill-rule="evenodd">
        <path d="M33.6,26.4 C37.92,26.4 48,30.72 48,40.8 C48,47.52 41.76,48 41.76,48 L41.76,48 L6.24,48 C6.24,48 2.84217094e-14,47.52 2.84217094e-14,40.8 C2.84217094e-14,30.72 10.08,26.4 14.4,26.4 C14.4,28.9110964 19.2,31.2 24,31.2 C28.8,31.2 33.6,28.9110964 33.6,26.4 Z M24,0 C30.24,0 37.92,4.32 37.44,12 C36.9420909,19.9665454 30.72,28.32 24,28.32 C17.28,28.32 11.0517547,19.8680755 10.56,12 C10.08,4.32 17.76,0 24,0 Z M85.6,26.4 C89.92,26.4 100,30.72 100,40.8 C100,47.52 93.76,48 93.76,48 L93.76,48 L58.24,48 C58.24,48 52,47.52 52,40.8 C52,30.72 62.08,26.4 66.4,26.4 C66.4,28.9110964 71.2,31.2 76,31.2 C80.8,31.2 85.6,28.9110964 85.6,26.4 Z M76,0 C82.24,0 89.92,4.32 89.44,12 C88.9420909,19.9665454 82.72,28.32 76,28.32 C69.28,28.32 63.0517547,19.8680755 62.56,12 C62.08,4.32 69.76,0 76,0 Z M59.6,78.4 C63.92,78.4 74,82.72 74,92.8 C74,99.52 67.76,100 67.76,100 L67.76,100 L32.24,100 C32.24,100 26,99.52 26,92.8 C26,82.72 36.08,78.4 40.4,78.4 C40.4,80.9110964 45.2,83.2 50,83.2 C54.8,83.2 59.6,80.9110964 59.6,78.4 Z M50,52 C56.24,52 63.92,56.32 63.44,64 C62.9420909,71.9665454 56.72,80.32 50,80.32 C43.28,80.32 37.0517547,71.8680755 36.56,64 C36.08,56.32 43.76,52 50,52 Z" id="Shadow"></path>
        <path d="M33.6,26.4 C37.92,26.4 48,30.72 48,40.8 C48,47.52 41.76,48 41.76,48 L41.76,48 L6.24,48 C6.24,48 0,47.52 0,40.8 C0,30.72 10.08,26.4 14.4,26.4 C14.4,28.9110964 19.2,31.2 24,31.2 C28.8,31.2 33.6,28.9110964 33.6,26.4 Z M24,-7.10542736e-15 C30.24,-7.10542736e-15 37.92,4.32 37.44,12 C36.9420909,19.9665454 30.72,28.32 24,28.32 C17.28,28.32 11.0517547,19.8680755 10.56,12 C10.08,4.32 17.76,-7.10542736e-15 24,-7.10542736e-15 Z M85.6,26.4 C89.92,26.4 100,30.72 100,40.8 C100,47.52 93.76,48 93.76,48 L93.76,48 L58.24,48 C58.24,48 52,47.52 52,40.8 C52,30.72 62.08,26.4 66.4,26.4 C66.4,28.9110964 71.2,31.2 76,31.2 C80.8,31.2 85.6,28.9110964 85.6,26.4 Z M76,-7.10542736e-15 C82.24,-7.10542736e-15 89.92,4.32 89.44,12 C88.9420909,19.9665454 82.72,28.32 76,28.32 C69.28,28.32 63.0517547,19.8680755 62.56,12 C62.08,4.32 69.76,-7.10542736e-15 76,-7.10542736e-15 Z M59.6,78.4 C63.92,78.4 74,82.72 74,92.8 C74,99.52 67.76,100 67.76,100 L67.76,100 L32.24,100 C32.24,100 26,99.52 26,92.8 C26,82.72 36.08,78.4 40.4,78.4 C40.4,80.9110964 45.2,83.2 50,83.2 C54.8,83.2 59.6,80.9110964 59.6,78.4 Z M50,52 C56.24,52 63.92,56.32 63.44,64 C62.9420909,71.9665454 56.72,80.32 50,80.32 C43.28,80.32 37.0517547,71.8680755 36.56,64 C36.08,56.32 43.76,52 50,52 Z" id="Colour" fill="#000000"></path>
    </g>
</svg>