<?xml version="1.0" encoding="UTF-8"?>
<svg width="100px" height="100px" viewBox="0 0 100 100" version="1.1" xmlns="http://www.w3.org/2000/svg" xmlns:xlink="http://www.w3.org/1999/xlink">
    <title>Person</title>
    <g id="Person" stroke="none" stroke-width="1" fill="none" fill-rule="evenodd">
        <path d="M70,55 C79,55 100,64 100,85 C100,99 87,100 87,100 L87,100 L13,100 C13,100 -4.54747351e-13,99 -4.54747351e-13,85 C-4.54747351e-13,64 21,55 30,55 C30,60.2314509 40,65 50,65 C60,65 70,60.2314509 70,55 Z M50,0 C63,0 79,9 78,25 C76.9626894,41.5969697 64,59 50,59 C36,59 23.024489,41.391824 22,25 C21,9 37,0 50,0 Z" id="Shadow"></path>
        <path d="M70,55 C79,55 100,64 100,85 C100,99 87,100 87,100 L87,100 L13,100 C13,100 0,99 0,85 C0,64 21,55 30,55 C30,60.2314509 40,65 50,65 C60,65 70,60.2314509 70,55 Z M50,-4.97379915e-14 C63,-4.97379915e-14 79,9 78,25 C76.9626894,41.5969697 64,59 50,59 C36,59 23.024489,41.391824 22,25 C21,9 37,-4.97379915e-14 50,-4.97379915e-14 Z" id="Colour" fill="#000000"></path>
    </g>
</svg>