<?xml version="1.0" encoding="UTF-8"?>
<svg width="100px" height="100px" viewBox="0 0 100 100" version="1.1" xmlns="http://www.w3.org/2000/svg" xmlns:xlink="http://www.w3.org/1999/xlink">
    <title>Person Add</title>
    <g id="Person-Add" stroke="none" stroke-width="1" fill="none" fill-rule="evenodd">
        <path d="M70,55 C79,55 100,64 100,85 C100,98.86 87.2587,99.9787 87.003874,99.999688 L87,100 L13,100 C13,100 0,99 0,85 C0,64 21,55 30,55 C30,60.2314509 40,65 50,65 C60,65 70,60.2314509 70,55 Z M73.033804,61.0171736 C73.033804,64.8535709 61.0956291,71.1134319 50,71.1134319 C38.9043709,71.1134319 26.0343976,64.8535709 26.0343976,61.0171736 C20.2550426,61.0171736 6,71.1134319 6,83 C6,93.2666667 17.44,94 17.44,94 L82.56,94 C82.56,94 94,93.2666667 94,83 C94,71.1134319 78.5898629,61.0171736 73.033804,61.0171736 Z M50,0 C56.1268235,0 62.9200015,1.99906331 68.2858744,5.78782397 C66.5796629,7.02270159 65.076072,8.52043382 63.8344825,10.2215603 C59.702551,7.45587211 54.5863101,6 49.9553598,6 C39.7573327,6 27.2059148,13.0601726 27.9903784,25.6115905 C28.7940528,38.4703802 38.9728691,52.2833537 49.9553598,52.2833537 C57.2966135,52.2833537 64.27427,46.1832607 68.3372041,38.2495499 C69.9108395,39.3806688 71.6548062,40.2888565 73.5235075,40.9280956 C68.3598465,51.130271 59.4144615,59 50,59 C36,59 23.024489,41.391824 22,25 C21,9 37,0 50,0 Z M80,4 C82.3156975,4 84.2058369,5.82203066 84.3150183,8.1106921 L84.32,8.32 L84.319,17.68 L93.68,17.68 C96.0658701,17.68 98,19.6141299 98,22 C98,24.3156975 96.1779693,26.2058369 93.8893079,26.3150183 L93.68,26.32 L84.319,26.32 L84.32,35.68 C84.32,37.9956975 82.4979693,39.8858369 80.2093079,39.9950183 L80,40 C77.6843025,40 75.7941631,38.1779693 75.6849817,35.8893079 L75.68,35.68 L75.679,26.32 L66.32,26.32 C63.9341299,26.32 62,24.3858701 62,22 C62,19.6141299 63.9341299,17.68 66.32,17.68 L75.679,17.68 L75.68,8.32 C75.68,6.00430253 77.5020307,4.11416312 79.7906921,4.00498165 L80,4 Z" id="Shadow"></path>
        <path d="M70,55 C79,55 100,64 100,85 C100,98.86 87.2587,99.9787 87.003874,99.999688 L87,100 L13,100 C13,100 0,99 0,85 C0,64 21,55 30,55 C30,60.2314509 40,65 50,65 C60,65 70,60.2314509 70,55 Z M73.033804,61.0171736 C73.033804,64.8535709 61.0956291,71.1134319 50,71.1134319 C38.9043709,71.1134319 26.0343976,64.8535709 26.0343976,61.0171736 C20.2550426,61.0171736 6,71.1134319 6,83 C6,93.2666667 17.44,94 17.44,94 L82.56,94 C82.56,94 94,93.2666667 94,83 C94,71.1134319 78.5898629,61.0171736 73.033804,61.0171736 Z M50,0 C56.1268235,0 62.9200015,1.99906331 68.2858744,5.78782397 C66.5796629,7.02270159 65.076072,8.52043382 63.8344825,10.2215603 C59.702551,7.45587211 54.5863101,6 49.9553598,6 C39.7573327,6 27.2059148,13.0601726 27.9903784,25.6115905 C28.7940528,38.4703802 38.9728691,52.2833537 49.9553598,52.2833537 C57.2966135,52.2833537 64.27427,46.1832607 68.3372041,38.2495499 C69.9108395,39.3806688 71.6548062,40.2888565 73.5235075,40.9280956 C68.3598465,51.130271 59.4144615,59 50,59 C36,59 23.024489,41.391824 22,25 C21,9 37,0 50,0 Z M80,4 C82.3156975,4 84.2058369,5.82203066 84.3150183,8.1106921 L84.32,8.32 L84.319,17.68 L93.68,17.68 C96.0658701,17.68 98,19.6141299 98,22 C98,24.3156975 96.1779693,26.2058369 93.8893079,26.3150183 L93.68,26.32 L84.319,26.32 L84.32,35.68 C84.32,37.9956975 82.4979693,39.8858369 80.2093079,39.9950183 L80,40 C77.6843025,40 75.7941631,38.1779693 75.6849817,35.8893079 L75.68,35.68 L75.679,26.32 L66.32,26.32 C63.9341299,26.32 62,24.3858701 62,22 C62,19.6141299 63.9341299,17.68 66.32,17.68 L75.679,17.68 L75.68,8.32 C75.68,6.00430253 77.5020307,4.11416312 79.7906921,4.00498165 L80,4 Z" id="Colour" fill="#000000"></path>
    </g>
</svg>