<?xml version="1.0" encoding="UTF-8"?>
<svg width="100px" height="100px" viewBox="0 0 100 100" version="1.1" xmlns="http://www.w3.org/2000/svg" xmlns:xlink="http://www.w3.org/1999/xlink">
    <title>Person Border</title>
    <g id="Person-Border" stroke="none" stroke-width="1" fill="none" fill-rule="evenodd">
        <path d="M70,55 C79,55 100,64 100,85 C100,98.86 87.2587,99.9787 87.003874,99.999688 L87,100 L13,100 C13,100 0,99 0,85 C0,64 21,55 30,55 C30,60.2314509 40,65 50,65 C60,65 70,60.2314509 70,55 Z M73.033804,61.0171736 C73.033804,64.8535709 61.0956291,71.1134319 50,71.1134319 C38.9043709,71.1134319 26.0343976,64.8535709 26.0343976,61.0171736 C20.2550426,61.0171736 6,71.1134319 6,83 C6,93.2666667 17.44,94 17.44,94 L82.56,94 C82.56,94 94,93.2666667 94,83 C94,71.1134319 78.5898629,61.0171736 73.033804,61.0171736 Z M50,0 C63,0 79,9 78,25 C76.9626894,41.5969697 64,59 50,59 C36,59 23.024489,41.391824 22,25 C21,9 37,0 50,0 Z M49.9553598,6 C39.7573327,6 27.2059148,13.0601726 27.9903784,25.6115905 C28.7940528,38.4703802 38.9728691,52.2833537 49.9553598,52.2833537 C60.9378505,52.2833537 71.1066088,38.6313095 71.9203412,25.6115905 C72.7048048,13.0601726 60.1533869,6 49.9553598,6 Z" id="Shadow"></path>
        <path d="M70,55 C79,55 100,64 100,85 C100,98.86 87.2587,99.9787 87.003874,99.999688 L87,100 L13,100 C13,100 0,99 0,85 C0,64 21,55 30,55 C30,60.2314509 40,65 50,65 C60,65 70,60.2314509 70,55 Z M73.033804,61.0171736 C73.033804,64.8535709 61.0956291,71.1134319 50,71.1134319 C38.9043709,71.1134319 26.0343976,64.8535709 26.0343976,61.0171736 C20.2550426,61.0171736 6,71.1134319 6,83 C6,93.2666667 17.44,94 17.44,94 L82.56,94 C82.56,94 94,93.2666667 94,83 C94,71.1134319 78.5898629,61.0171736 73.033804,61.0171736 Z M50,0 C63,0 79,9 78,25 C76.9626894,41.5969697 64,59 50,59 C36,59 23.024489,41.391824 22,25 C21,9 37,0 50,0 Z M49.9553598,6 C39.7573327,6 27.2059148,13.0601726 27.9903784,25.6115905 C28.7940528,38.4703802 38.9728691,52.2833537 49.9553598,52.2833537 C60.9378505,52.2833537 71.1066088,38.6313095 71.9203412,25.6115905 C72.7048048,13.0601726 60.1533869,6 49.9553598,6 Z" id="Colour" fill="#000000"></path>
    </g>
</svg>