<?xml version="1.0" encoding="UTF-8"?>
<svg width="100px" height="100px" viewBox="0 0 100 100" version="1.1" xmlns="http://www.w3.org/2000/svg" xmlns:xlink="http://www.w3.org/1999/xlink">
    <title>Person Circle Border</title>
    <g id="Person-Circle-Border" stroke="none" stroke-width="1" fill="none" fill-rule="evenodd">
        <path d="M50,0 C77.6142375,0 100,22.3857625 100,50 C100,77.6142375 77.6142375,100 50,100 C22.3857625,100 0,77.6142375 0,50 C0,22.3857625 22.3857625,0 50,0 Z M50,7 C26.2517558,7 7,26.2517558 7,50 C7,73.7482442 26.2517558,93 50,93 C73.7482442,93 93,73.7482442 93,50 C93,26.2517558 73.7482442,7 50,7 Z M32.24,74 C32.24,74 26,73.52 26,66.8 C26,56.72 36.08,52.4 40.4,52.4 C40.4,54.9110964 45.2,57.2 50,57.2 C54.8,57.2 59.6,54.9110964 59.6,52.4 C63.92,52.4 74,56.72 74,66.8 C74,73.408 67.9662667,73.9822667 67.7651422,73.9995733 L67.76,74 L32.24,74 Z M50,26 C56.24,26 63.92,30.32 63.44,38 C62.9487297,45.8603248 56.8849048,54.09731 50.2685221,54.3155655 L50,54.32 L50,54.32 C43.28,54.32 37.0517547,45.8680755 36.56,38 C36.08,30.32 43.76,26 50,26 Z" id="Shadow" fill="#000000"></path>
        <path d="M50,0 C77.6142375,0 100,22.3857625 100,50 C100,77.6142375 77.6142375,100 50,100 C22.3857625,100 0,77.6142375 0,50 C0,22.3857625 22.3857625,0 50,0 Z M50,7 C26.2517558,7 7,26.2517558 7,50 C7,73.7482442 26.2517558,93 50,93 C73.7482442,93 93,73.7482442 93,50 C93,26.2517558 73.7482442,7 50,7 Z M32.24,74 C32.24,74 26,73.52 26,66.8 C26,56.72 36.08,52.4 40.4,52.4 C40.4,54.9110964 45.2,57.2 50,57.2 C54.8,57.2 59.6,54.9110964 59.6,52.4 C63.92,52.4 74,56.72 74,66.8 C74,73.408 67.9662667,73.9822667 67.7651422,73.9995733 L67.76,74 L32.24,74 Z M50,26 C56.24,26 63.92,30.32 63.44,38 C62.9487297,45.8603248 56.8849048,54.09731 50.2685221,54.3155655 L50,54.32 L50,54.32 C43.28,54.32 37.0517547,45.8680755 36.56,38 C36.08,30.32 43.76,26 50,26 Z" id="Colour" fill="#000000"></path>
    </g>
</svg>