<?xml version="1.0" encoding="UTF-8"?>
<svg width="100px" height="100px" viewBox="0 0 100 100" version="1.1" xmlns="http://www.w3.org/2000/svg" xmlns:xlink="http://www.w3.org/1999/xlink">
    <title>Person Cross</title>
    <g id="Person-Cross" stroke="none" stroke-width="1" fill="none" fill-rule="evenodd">
        <path d="M100,85 C100,99 87,100 87,100 L13,100 C13,100 0,99 0,85 C0,64 23.1118857,48.1155633 29.0260428,55 C34.9401999,61.8844367 41.0833911,65.029525 50,65.029525 C58.9166089,65.029525 65.8852388,61.8844367 71.0007762,55 C76.1163137,48.1155633 100,64 100,85 Z M74.8116367,62.2212865 C70.6700224,65.21443 66.8927268,71.8880549 50,71.8880549 C33.1072732,71.8880549 28.2378283,65.21443 24.2681622,62.2212865 C20.2984962,59.2281431 6.54763293,71.8803036 6.54763293,83.252097 C6.54763293,93.4128337 17.079536,93.7632039 17.8058742,93.7752857 L82.1941258,93.7752857 C82.920464,93.7632039 93.4523671,93.4128337 93.4523671,83.252097 C93.4523671,71.8803036 78.9532511,59.2281431 74.8116367,62.2212865 Z M50,0 C54.6493915,0 59.682514,1.15119275 64.1844364,3.36208516 C62.4142088,4.72037 60.8237771,6.30162575 59.4550261,8.06365456 C56.3670762,6.79668328 53.0520503,6.14167683 49.9553598,6.14167683 C39.8197666,6.14167683 27.3451903,13.158626 28.1248513,25.6332023 C28.9236055,38.4132685 39.0401056,52.1416768 49.9553598,52.1416768 C55.1273084,52.1416768 60.1176823,49.0953859 64.0234192,44.5130758 C65.6329143,45.7690363 67.3946679,46.8394514 69.2760182,47.6923651 C64.1091519,54.4080289 57.1914286,59 50,59 C36,59 23.024489,41.391824 22,25 C21,9 37,0 50,0 Z M74.4100683,9.27136672 L82.4994926,17.3604926 L90.5899317,9.27136672 C92.2304049,7.63089353 94.8572581,7.57797504 96.5613687,9.11261125 L96.7286333,9.27136672 C98.4237889,10.9665224 98.4237889,13.7149127 96.7286333,15.4100683 L88.6384926,23.4994926 L96.7286333,31.5899317 C98.4237889,33.2850873 98.4237889,36.0334776 96.7286333,37.7286333 C95.0334776,39.4237889 92.2850873,39.4237889 90.5899317,37.7286333 L82.4994926,29.6384926 L74.4100683,37.7286333 C72.7695951,39.3691065 70.1427419,39.422025 68.4386313,37.8873887 L68.2713667,37.7286333 C66.5762111,36.0334776 66.5762111,33.2850873 68.2713667,31.5899317 L76.3604926,23.4994926 L68.2713667,15.4100683 C66.5762111,13.7149127 66.5762111,10.9665224 68.2713667,9.27136672 C69.9665224,7.57621109 72.7149127,7.57621109 74.4100683,9.27136672 Z" id="Shadow"></path>
        <path d="M100,85 C100,99 87,100 87,100 L13,100 C13,100 0,99 0,85 C0,64 23.1118857,48.1155633 29.0260428,55 C34.9401999,61.8844367 41.0833911,65.029525 50,65.029525 C58.9166089,65.029525 65.8852388,61.8844367 71.0007762,55 C76.1163137,48.1155633 100,64 100,85 Z M74.8116367,62.2212865 C70.6700224,65.21443 66.8927268,71.8880549 50,71.8880549 C33.1072732,71.8880549 28.2378283,65.21443 24.2681622,62.2212865 C20.2984962,59.2281431 6.54763293,71.8803036 6.54763293,83.252097 C6.54763293,93.4128337 17.079536,93.7632039 17.8058742,93.7752857 L82.1941258,93.7752857 C82.920464,93.7632039 93.4523671,93.4128337 93.4523671,83.252097 C93.4523671,71.8803036 78.9532511,59.2281431 74.8116367,62.2212865 Z M50,0 C54.6493915,0 59.682514,1.15119275 64.1844364,3.36208516 C62.4142088,4.72037 60.8237771,6.30162575 59.4550261,8.06365456 C56.3670762,6.79668328 53.0520503,6.14167683 49.9553598,6.14167683 C39.8197666,6.14167683 27.3451903,13.158626 28.1248513,25.6332023 C28.9236055,38.4132685 39.0401056,52.1416768 49.9553598,52.1416768 C55.1273084,52.1416768 60.1176823,49.0953859 64.0234192,44.5130758 C65.6329143,45.7690363 67.3946679,46.8394514 69.2760182,47.6923651 C64.1091519,54.4080289 57.1914286,59 50,59 C36,59 23.024489,41.391824 22,25 C21,9 37,0 50,0 Z M74.4100683,9.27136672 L82.4994926,17.3604926 L90.5899317,9.27136672 C92.2304049,7.63089353 94.8572581,7.57797504 96.5613687,9.11261125 L96.7286333,9.27136672 C98.4237889,10.9665224 98.4237889,13.7149127 96.7286333,15.4100683 L88.6384926,23.4994926 L96.7286333,31.5899317 C98.4237889,33.2850873 98.4237889,36.0334776 96.7286333,37.7286333 C95.0334776,39.4237889 92.2850873,39.4237889 90.5899317,37.7286333 L82.4994926,29.6384926 L74.4100683,37.7286333 C72.7695951,39.3691065 70.1427419,39.422025 68.4386313,37.8873887 L68.2713667,37.7286333 C66.5762111,36.0334776 66.5762111,33.2850873 68.2713667,31.5899317 L76.3604926,23.4994926 L68.2713667,15.4100683 C66.5762111,13.7149127 66.5762111,10.9665224 68.2713667,9.27136672 C69.9665224,7.57621109 72.7149127,7.57621109 74.4100683,9.27136672 Z" id="Colour" fill="#000000"></path>
    </g>
</svg>