<?xml version="1.0" encoding="UTF-8"?>
<svg width="100px" height="100px" viewBox="0 0 100 100" version="1.1" xmlns="http://www.w3.org/2000/svg" xmlns:xlink="http://www.w3.org/1999/xlink">
    <title>Phone</title>
    <g id="Phone" stroke="none" stroke-width="1" fill="none" fill-rule="evenodd">
        <path d="M22.9693082,5.68434189e-14 C29.1986231,5.68434189e-14 33.6608614,2.42557509 35.7980404,5.96837051 C37.7252354,11.6858075 39.8849494,18.1011136 42.2771825,25.2142886 C43.2838531,27.4214606 43.5782311,29.7513692 43.1603164,32.2040145 C42.7755446,33.5976055 42.0869241,35.062367 41.0944548,36.5982988 L36.0748816,41.8868578 C37.6684675,45.4137845 40.2375177,49.124674 43.7820322,53.0195262 C47.7160687,57.123576 52.2320915,60.4845098 57.3301006,63.1023276 L62.2542831,58.4927407 C63.7458551,57.2649553 65.3339921,56.5523469 67.0186942,56.3549156 C68.381368,56.2835964 70.0254144,56.4902647 71.9508334,56.9749204 L92.1799305,62.0845808 C97.3933102,64.396297 100,69.0041009 100,75.9079928 C100,85.115955 92.7160509,100 73.5205532,100 C28.4778625,100 0,51.9865343 0,24.0393369 C1.95226193,6.43688539 13.4435832,0.607896275 22.9693082,5.68434189e-14 Z" id="Shadow"></path>
        <path d="M22.9693082,0 C29.1986231,0 33.6608614,2.42557509 35.7980404,5.96837051 C37.7252354,11.6858075 39.8849494,18.1011136 42.2771825,25.2142886 C43.2838531,27.4214606 43.5782311,29.7513692 43.1603164,32.2040145 C42.7755446,33.5976055 42.0869241,35.062367 41.0944548,36.5982988 L36.0748816,41.8868578 C37.6684675,45.4137845 40.2375177,49.124674 43.7820322,53.0195262 C47.7160687,57.123576 52.2320915,60.4845098 57.3301006,63.1023276 L62.2542831,58.4927407 C63.7458551,57.2649553 65.3339921,56.5523469 67.0186942,56.3549156 C68.381368,56.2835964 70.0254144,56.4902647 71.9508334,56.9749204 L92.1799305,62.0845808 C97.3933102,64.396297 100,69.0041009 100,75.9079928 C100,85.115955 92.7160509,100 73.5205532,100 C28.4778625,100 0,51.9865343 0,24.0393369 C1.95226193,6.43688539 13.4435832,0.607896275 22.9693082,0 Z" id="Colour" fill="#000000"></path>
    </g>
</svg>