<?xml version="1.0" encoding="UTF-8"?>
<svg width="100px" height="100px" viewBox="0 0 100 100" version="1.1" xmlns="http://www.w3.org/2000/svg" xmlns:xlink="http://www.w3.org/1999/xlink">
    <title>Pin Border</title>
    <g id="Pin-Border" stroke="none" stroke-width="1" fill="none" fill-rule="evenodd">
        <path d="M50,0 C73.1959595,0 92,17.90861 92,40 C92,54.7275933 78,74.7275933 50,100 C22,74.7275933 8,54.7275933 8,40 C8,17.90861 26.8040405,0 50,0 Z M50,7 C29.8499746,7 15,21.0014046 15,40 C15,52.6657303 26.6666667,69.6657303 50,91 C73.3333333,69.6657303 85,52.6657303 85,40 C85,21.0014046 70.1500254,7 50,7 Z M50,20 C61.045695,20 70,28.954305 70,40 C70,51.045695 61.045695,60 50,60 C38.954305,60 30,51.045695 30,40 C30,28.954305 38.954305,20 50,20 Z M50,26 C42.2680135,26 36,32.2680135 36,40 C36,47.7319865 42.2680135,54 50,54 C57.7319865,54 64,47.7319865 64,40 C64,32.2680135 57.7319865,26 50,26 Z" id="Shadow"></path>
        <path d="M50,0 C73.1959595,0 92,17.90861 92,40 C92,54.7275933 78,74.7275933 50,100 C22,74.7275933 8,54.7275933 8,40 C8,17.90861 26.8040405,0 50,0 Z M50,7 C29.8499746,7 15,21.0014046 15,40 C15,52.6657303 26.6666667,69.6657303 50,91 C73.3333333,69.6657303 85,52.6657303 85,40 C85,21.0014046 70.1500254,7 50,7 Z M50,20 C61.045695,20 70,28.954305 70,40 C70,51.045695 61.045695,60 50,60 C38.954305,60 30,51.045695 30,40 C30,28.954305 38.954305,20 50,20 Z M50,26 C42.2680135,26 36,32.2680135 36,40 C36,47.7319865 42.2680135,54 50,54 C57.7319865,54 64,47.7319865 64,40 C64,32.2680135 57.7319865,26 50,26 Z" id="Colour" fill="#000000"></path>
    </g>
</svg>