<?xml version="1.0" encoding="UTF-8"?>
<svg width="100px" height="100px" viewBox="0 0 100 100" version="1.1" xmlns="http://www.w3.org/2000/svg" xmlns:xlink="http://www.w3.org/1999/xlink">
    <title>Pin</title>
    <g id="Pin" stroke="none" stroke-width="1" fill="none" fill-rule="evenodd">
        <path d="M50,0 C73.1959595,0 92,17.90861 92,40 C92,54.7275933 78,74.7275933 50,100 C22,74.7275933 8,54.7275933 8,40 C8,17.90861 26.8040405,0 50,0 Z M50,26 C42.2680135,26 36,32.2680135 36,40 C36,47.7319865 42.2680135,54 50,54 C57.7319865,54 64,47.7319865 64,40 C64,32.2680135 57.7319865,26 50,26 Z" id="Shadow"></path>
        <path d="M50,0 C73.1959595,0 92,17.90861 92,40 C92,54.7275933 78,74.7275933 50,100 C22,74.7275933 8,54.7275933 8,40 C8,17.90861 26.8040405,0 50,0 Z M50,26 C42.2680135,26 36,32.2680135 36,40 C36,47.7319865 42.2680135,54 50,54 C57.7319865,54 64,47.7319865 64,40 C64,32.2680135 57.7319865,26 50,26 Z" id="Colour" fill="#000000"></path>
    </g>
</svg>