<?xml version="1.0" encoding="UTF-8"?>
<svg width="100px" height="100px" viewBox="0 0 100 100" version="1.1" xmlns="http://www.w3.org/2000/svg" xmlns:xlink="http://www.w3.org/1999/xlink">
    <title>Pinterest</title>
    <g id="Pinterest" stroke="none" stroke-width="1" fill="none" fill-rule="evenodd">
        <path d="M49.979405,0 C22.3364078,0 0,22.3775606 0,49.9793578 C0,71.1641557 13.1633087,89.2637539 31.7564068,96.5445531 C31.3040069,92.5955535 30.9338069,86.5075541 31.9210068,82.1883546 C32.8260067,78.280555 37.7622062,57.3425571 37.7622062,57.3425571 C37.7622062,57.3425571 36.2814064,54.3397574 36.2814064,49.9383578 C36.2814064,42.9863585 40.312606,37.803359 45.3312055,37.803359 C49.609205,37.803359 51.6660048,41.0119587 51.6660048,44.8375583 C51.6660048,49.1155579 48.9510051,55.5327572 47.5112052,61.4973567 C46.3184054,66.4747562 50.020605,70.5471557 54.9156045,70.5471557 C63.8008036,70.5471557 70.6294029,61.1681567 70.6294029,47.675758 C70.6294029,35.7055592 62.0320038,27.3549601 49.732605,27.3549601 C35.4998065,27.3549601 27.1494073,38.008959 27.1494073,49.0333579 C27.1494073,53.3113575 28.7948071,57.918557 30.8514069,60.4277568 C31.2628069,60.9213567 31.3040069,61.3739567 31.1806069,61.8675566 C30.8104069,63.4307565 29.946607,66.8449561 29.782007,67.544156 C29.576207,68.449156 29.0416071,68.6549559 28.0954072,68.202356 C21.9252078,65.2405563 18.0584082,56.1085572 18.0584082,48.7865579 C18.0584082,33.0317595 29.4940071,18.5520409 51.0900049,18.5520409 C68.4080032,18.5520409 81.9004018,30.8925597 81.9004018,47.4289581 C81.9004018,64.6647563 71.0408029,78.5273549 55.9852044,78.5273549 C50.9256049,78.5273549 46.1538054,75.8947552 44.5496055,72.7683555 C44.5496055,72.7683555 42.0402058,82.3117546 41.4232059,84.6565543 C40.312606,89.0169539 37.2686063,94.4467534 35.2118065,97.778753 C39.901206,99.2183529 44.8376055,99.9999528 50.020605,99.9999528 C77.6224022,99.9999528 100,77.622355 100,50.0205578 C99.9588,22.3775606 77.5812022,0 49.979405,0 Z" id="Shadow"></path>
        <path d="M49.979405,0 C22.3364078,0 0,22.3775606 0,49.9793578 C0,71.1641557 13.1633087,89.2637539 31.7564068,96.5445531 C31.3040069,92.5955535 30.9338069,86.5075541 31.9210068,82.1883546 C32.8260067,78.280555 37.7622062,57.3425571 37.7622062,57.3425571 C37.7622062,57.3425571 36.2814064,54.3397574 36.2814064,49.9383578 C36.2814064,42.9863585 40.312606,37.803359 45.3312055,37.803359 C49.609205,37.803359 51.6660048,41.0119587 51.6660048,44.8375583 C51.6660048,49.1155579 48.9510051,55.5327572 47.5112052,61.4973567 C46.3184054,66.4747562 50.020605,70.5471557 54.9156045,70.5471557 C63.8008036,70.5471557 70.6294029,61.1681567 70.6294029,47.675758 C70.6294029,35.7055592 62.0320038,27.3549601 49.732605,27.3549601 C35.4998065,27.3549601 27.1494073,38.008959 27.1494073,49.0333579 C27.1494073,53.3113575 28.7948071,57.918557 30.8514069,60.4277568 C31.2628069,60.9213567 31.3040069,61.3739567 31.1806069,61.8675566 C30.8104069,63.4307565 29.946607,66.8449561 29.782007,67.544156 C29.576207,68.449156 29.0416071,68.6549559 28.0954072,68.202356 C21.9252078,65.2405563 18.0584082,56.1085572 18.0584082,48.7865579 C18.0584082,33.0317595 29.4940071,18.5520409 51.0900049,18.5520409 C68.4080032,18.5520409 81.9004018,30.8925597 81.9004018,47.4289581 C81.9004018,64.6647563 71.0408029,78.5273549 55.9852044,78.5273549 C50.9256049,78.5273549 46.1538054,75.8947552 44.5496055,72.7683555 C44.5496055,72.7683555 42.0402058,82.3117546 41.4232059,84.6565543 C40.312606,89.0169539 37.2686063,94.4467534 35.2118065,97.778753 C39.901206,99.2183529 44.8376055,99.9999528 50.020605,99.9999528 C77.6224022,99.9999528 100,77.622355 100,50.0205578 C99.9588,22.3775606 77.5812022,0 49.979405,0 Z" id="Colour" fill="#000000"></path>
    </g>
</svg>