<?xml version="1.0" encoding="UTF-8"?>
<svg width="100px" height="100px" viewBox="0 0 100 100" version="1.1" xmlns="http://www.w3.org/2000/svg" xmlns:xlink="http://www.w3.org/1999/xlink">
    <title>Plus</title>
    <g id="Plus" stroke="none" stroke-width="1" fill="none" fill-rule="evenodd">
        <path d="M50,0 C54.418278,0 58,3.581722 58,8 L57.999,42 L92,42 C96.418278,42 100,45.581722 100,50 C100,54.418278 96.418278,58 92,58 L57.999,58 L58,92 C58,96.3349143 54.5521622,99.8645429 50.2491793,99.9961932 L50,100 C45.581722,100 42,96.418278 42,92 L41.999,58 L8,58 C3.581722,58 5.41083001e-16,54.418278 0,50 C-5.41083001e-16,45.581722 3.581722,42 8,42 L41.999,42 L42,8 C42,3.66508574 45.4478378,0.135457134 49.7508207,0.00380682464 Z" id="Shadow"></path>
        <path d="M50,0 C54.418278,0 58,3.581722 58,8 L57.999,42 L92,42 C96.418278,42 100,45.581722 100,50 C100,54.418278 96.418278,58 92,58 L57.999,58 L58,92 C58,96.3349143 54.5521622,99.8645429 50.2491793,99.9961932 L50,100 C45.581722,100 42,96.418278 42,92 L41.999,58 L8,58 C3.581722,58 5.41083001e-16,54.418278 0,50 C-5.41083001e-16,45.581722 3.581722,42 8,42 L41.999,42 L42,8 C42,3.66508574 45.4478378,0.135457134 49.7508207,0.00380682464 Z" id="Colour" fill="#000000"></path>
    </g>
</svg>