<?xml version="1.0" encoding="UTF-8"?>
<svg width="100px" height="100px" viewBox="0 0 100 100" version="1.1" xmlns="http://www.w3.org/2000/svg" xmlns:xlink="http://www.w3.org/1999/xlink">
    <title>Plus Thin</title>
    <g id="Plus-Thin" stroke="none" stroke-width="1" fill="none" fill-rule="evenodd">
        <path d="M50,0 C52.7614237,-5.07265313e-16 55,2.23857625 55,5 L55,45 L95,45 C97.7614237,45 100,47.2385763 100,50 C100,52.7614237 97.7614237,55 95,55 L55,55 L55,95 C55,97.7614237 52.7614237,100 50,100 C47.2385763,100 45,97.7614237 45,95 L45,55 L5,55 C2.23857625,55 0,52.7614237 0,50 C0,47.2385763 2.23857625,45 5,45 L45,45 L45,5 C45,2.23857625 47.2385763,5.07265313e-16 50,0 Z" id="Shadow"></path>
        <path d="M50,0 C52.7614237,-5.07265313e-16 55,2.23857625 55,5 L55,45 L95,45 C97.7614237,45 100,47.2385763 100,50 C100,52.7614237 97.7614237,55 95,55 L55,55 L55,95 C55,97.7614237 52.7614237,100 50,100 C47.2385763,100 45,97.7614237 45,95 L45,55 L5,55 C2.23857625,55 0,52.7614237 0,50 C0,47.2385763 2.23857625,45 5,45 L45,45 L45,5 C45,2.23857625 47.2385763,5.07265313e-16 50,0 Z" id="Colour" fill="#000000"></path>
    </g>
</svg>