<?xml version="1.0" encoding="UTF-8"?>
<svg width="100px" height="100px" viewBox="0 0 100 100" version="1.1" xmlns="http://www.w3.org/2000/svg" xmlns:xlink="http://www.w3.org/1999/xlink">
    <title>Plus Circle</title>
    <g id="Plus-Circle" stroke="none" stroke-width="1" fill="none" fill-rule="evenodd">
        <path d="M50,100 C77.6142375,100 100,77.6142375 100,50 C100,22.3857625 77.6142375,0 50,0 C22.3857625,0 0,22.3857625 0,50 C0,77.6142375 22.3857625,100 50,100 Z M50,29 C52.7102647,29 54.9208727,31.1392852 55.0353435,33.8213753 L55.04,34.04 L55.04,44.96 L65.96,44.96 C68.7435151,44.96 71,47.2164849 71,50 C71,52.7102647 68.8607148,54.9208727 66.1786247,55.0353435 L65.96,55.04 L65.96,55.04 L55.04,55.04 L55.04,65.96 C55.04,68.6702647 52.9007148,70.8808727 50.2186247,70.9953435 L50,71 C47.2897353,71 45.0791273,68.8607148 44.9646565,66.1786247 L44.96,65.96 L44.96,55.04 L34.04,55.04 C31.2564849,55.04 29,52.7835151 29,50 C29,47.2164849 31.2564849,44.96 34.04,44.96 L44.96,44.96 L44.96,34.04 C44.96,31.3297353 47.0992852,29.1191273 49.7813753,29.0046565 L50,29 Z" id="Shadow"></path>
        <path d="M50,100 C77.6142375,100 100,77.6142375 100,50 C100,22.3857625 77.6142375,0 50,0 C22.3857625,0 0,22.3857625 0,50 C0,77.6142375 22.3857625,100 50,100 Z M50,29 C52.7102647,29 54.9208727,31.1392852 55.0353435,33.8213753 L55.04,34.04 L55.04,44.96 L65.96,44.96 C68.7435151,44.96 71,47.2164849 71,50 C71,52.7102647 68.8607148,54.9208727 66.1786247,55.0353435 L65.96,55.04 L65.96,55.04 L55.04,55.04 L55.04,65.96 C55.04,68.6702647 52.9007148,70.8808727 50.2186247,70.9953435 L50,71 C47.2897353,71 45.0791273,68.8607148 44.9646565,66.1786247 L44.96,65.96 L44.96,55.04 L34.04,55.04 C31.2564849,55.04 29,52.7835151 29,50 C29,47.2164849 31.2564849,44.96 34.04,44.96 L44.96,44.96 L44.96,34.04 C44.96,31.3297353 47.0992852,29.1191273 49.7813753,29.0046565 L50,29 Z" id="Colour" fill="#000000"></path>
    </g>
</svg>