<?xml version="1.0" encoding="UTF-8"?><svg version="1.1" width="100px" height="100px" viewBox="0 0 100.0 100.0" xmlns="http://www.w3.org/2000/svg" xmlns:xlink="http://www.w3.org/1999/xlink"><defs><clipPath id="i0"><path d="M50,0 C56.627417,0 62,5.372583 62,12 L61.999,38 L88,38 C94.627417,38 100,43.372583 100,50 C100,56.627417 94.627417,62 88,62 L62,62 L62,88 C62,94.5254567 56.7914556,99.8343928 50.3049748,99.9962001 L50,100 C43.372583,100 38,94.627417 38,88 L38,62 L12,62 C5.372583,62 8.11624501e-16,56.627417 0,50 C-8.11624501e-16,43.372583 5.372583,38 12,38 L37.999,38 L38,12 C38,5.47454326 43.2085444,0.165607248 49.6950252,0.00379985776 L50,0 Z"></path></clipPath></defs><g clip-path="url(#i0)"><polygon points="0,0 100,0 100,100 0,100 0,0" stroke="none" fill="#000000"></polygon></g></svg>