<?xml version="1.0" encoding="UTF-8"?>
<svg width="100px" height="100px" viewBox="0 0 100 100" version="1.1" xmlns="http://www.w3.org/2000/svg" xmlns:xlink="http://www.w3.org/1999/xlink">
    <title>Public Transport</title>
    <g id="Public-Transport" stroke="none" stroke-width="1" fill="none" fill-rule="evenodd">
        <g id="Shadow" transform="translate(9.500000, 0.000000)" fill="#000000">
            <path d="M16.8003116,98.5618093 C15.443895,100.195034 13.0558837,100.466393 11.372032,99.2151727 L11.1257536,99.0172625 C9.45272918,97.5989163 9.23392518,95.0978448 10.6352547,93.4105415 L13.5411562,89.9126552 C6.02155122,89.6705213 0,83.4984812 0,75.9200324 L0,24.1033744 C0,16.3713879 6.2680135,10.1033744 14,10.1033744 L22.714,10.103 L25.9658439,2.43797537 C26.5928041,0.959945568 28.0427387,0 29.6482452,0 L51.3517548,0 C52.9572613,0 54.4071959,0.959945568 55.0341561,2.43797537 L58.286,10.103 L67,10.1033744 C74.7319865,10.1033744 81,16.3713879 81,24.1033744 L81,75.9200324 C81,83.3195625 75.2594166,89.3783075 67.9888676,89.8856496 L70.9168517,93.4105415 C72.3181812,95.0978448 72.0993772,97.5989163 70.4263528,99.0172625 L70.3825355,99.0544097 C68.7631317,100.427298 66.3642774,100.279882 64.9232655,98.7552855 L64.7517947,98.5618093 L64.7517947,98.5618093 L57.575,89.92 L23.976,89.92 L16.8003116,98.5618093 Z M21,67 C17.9624339,67 15.5,69.4624339 15.5,72.5 C15.5,75.5375661 17.9624339,78 21,78 C24.0375661,78 26.5,75.5375661 26.5,72.5 C26.5,69.4624339 24.0375661,67 21,67 Z M60,67 C56.9624339,67 54.5,69.4624339 54.5,72.5 C54.5,75.5375661 56.9624339,78 60,78 C63.0375661,78 65.5,75.5375661 65.5,72.5 C65.5,69.4624339 63.0375661,67 60,67 Z M64.2272727,21 L16.7727273,21 C13.9373132,21 11.6246282,23.2241562 11.5048715,26.0126518 L11.5,26.23995 L11.5,51.76005 C11.5,54.5778381 13.7380689,56.8761466 16.5440073,56.9951588 L16.7727273,57 L64.2272727,57 C67.0626868,57 69.3753718,54.7758438 69.4951285,51.9873482 L69.5,51.76005 L69.5,26.23995 C69.5,23.3460055 67.1393196,21 64.2272727,21 Z" id="Shape"></path>
        </g>
    </g>
</svg>