<?xml version="1.0" encoding="UTF-8"?>
<svg width="100px" height="100px" viewBox="0 0 100 100" version="1.1" xmlns="http://www.w3.org/2000/svg" xmlns:xlink="http://www.w3.org/1999/xlink">
    <title>Ratio Arrows</title>
    <g id="Ratio-Arrows" stroke="none" stroke-width="1" fill="none" fill-rule="evenodd">
        <g id="Group" transform="translate(57.979145, -5.979535)">
            <g id="Shadow" transform="translate(24.000000, 24.000000) rotate(45.000000) translate(-24.000000, -24.000000) ">
                <path d="M3.64239411,47.9950034 C1.61345383,47.8921562 0,46.2144993 0,44.16 C0,43.454036 0.190506436,42.7925672 0.522915011,42.2241978 L20.4299231,2.42295404 C20.9938082,1.00352831 22.3797108,0 24,0 C25.6168612,0 27.0003265,0.999286564 27.5664869,2.41395058 L47.4524085,42.1826083 C47.8000484,42.7601954 48,43.4367471 48,44.16 C48,46.2144993 46.3865462,47.8921562 44.3576059,47.9950034 L44.16,48 L3.84,48 Z"></path>
                <path d="M3.64239411,47.9950034 C1.61345383,47.8921562 0,46.2144993 0,44.16 C0,43.454036 0.190506436,42.7925672 0.522915011,42.2241978 L20.4299231,2.42295404 C20.9938082,1.00352831 22.3797108,0 24,0 C25.6168612,0 27.0003265,0.999286564 27.5664869,2.41395058 L47.4524085,42.1826083 C47.8000484,42.7601954 48,43.4367471 48,44.16 C48,46.2144993 46.3865462,47.8921562 44.3576059,47.9950034 L44.16,48 L3.84,48 Z" id="Colour" fill="#000000"></path>
            </g>
        </g>
        <g id="Group" transform="translate(-5.898875, 57.901125)">
            <g id="Shadow" transform="translate(24.000000, 24.000000) rotate(45.000000) translate(-24.000000, -24.000000) ">
                <path d="M3.84,0 C1.71922656,0 0,1.71922656 0,3.84 C0,4.55273518 0.194178415,5.22011756 0.53251894,5.79213084 L20.4272297,45.5702471 C20.9893854,46.9932661 22.377125,48 24,48 C25.6192207,48 27.0043638,46.9977948 27.5689602,45.5798536 L47.4543875,5.81410008 C47.8008071,5.23723486 48,4.56187943 48,3.84 C48,1.75924115 46.3450379,0.0650194241 44.2796061,0.00182727583 L44.1448813,0 L3.84,0 Z"></path>
                <path d="M3.84,0 C1.71922656,0 0,1.71922656 0,3.84 C0,4.55273518 0.194178415,5.22011756 0.53251894,5.79213084 L20.4272297,45.5702471 C20.9893854,46.9932661 22.377125,48 24,48 C25.6192207,48 27.0043638,46.9977948 27.5689602,45.5798536 L47.4543875,5.81410008 C47.8008071,5.23723486 48,4.56187943 48,3.84 C48,1.75924115 46.3450379,0.0650194241 44.2796061,0.00182727583 L44.1448813,0 L3.84,0 Z" id="Colour" fill="#000000"></path>
            </g>
        </g>
        <g id="Group" transform="translate(57.979145, -5.979535)">
            <g id="Shadow" transform="translate(24.000000, 24.000000) rotate(45.000000) translate(-24.000000, -24.000000) ">
                <path d="M3.64239411,47.9950034 C1.61345383,47.8921562 0,46.2144993 0,44.16 C0,43.454036 0.190506436,42.7925672 0.522915011,42.2241978 L20.4299231,2.42295404 C20.9938082,1.00352831 22.3797108,0 24,0 C25.6168612,0 27.0003265,0.999286564 27.5664869,2.41395058 L47.4524085,42.1826083 C47.8000484,42.7601954 48,43.4367471 48,44.16 C48,46.2144993 46.3865462,47.8921562 44.3576059,47.9950034 L44.16,48 L3.84,48 Z"></path>
                <path d="M3.64239411,47.9950034 C1.61345383,47.8921562 0,46.2144993 0,44.16 C0,43.454036 0.190506436,42.7925672 0.522915011,42.2241978 L20.4299231,2.42295404 C20.9938082,1.00352831 22.3797108,0 24,0 C25.6168612,0 27.0003265,0.999286564 27.5664869,2.41395058 L47.4524085,42.1826083 C47.8000484,42.7601954 48,43.4367471 48,44.16 C48,46.2144993 46.3865462,47.8921562 44.3576059,47.9950034 L44.16,48 L3.84,48 Z" id="Colour" fill="#000000"></path>
            </g>
        </g>
        <g id="Group" transform="translate(-5.898875, 57.901125)">
            <g id="Shadow" transform="translate(24.000000, 24.000000) rotate(45.000000) translate(-24.000000, -24.000000) ">
                <path d="M3.84,0 C1.71922656,0 0,1.71922656 0,3.84 C0,4.55273518 0.194178415,5.22011756 0.53251894,5.79213084 L20.4272297,45.5702471 C20.9893854,46.9932661 22.377125,48 24,48 C25.6192207,48 27.0043638,46.9977948 27.5689602,45.5798536 L47.4543875,5.81410008 C47.8008071,5.23723486 48,4.56187943 48,3.84 C48,1.75924115 46.3450379,0.0650194241 44.2796061,0.00182727583 L44.1448813,0 L3.84,0 Z"></path>
                <path d="M3.84,0 C1.71922656,0 0,1.71922656 0,3.84 C0,4.55273518 0.194178415,5.22011756 0.53251894,5.79213084 L20.4272297,45.5702471 C20.9893854,46.9932661 22.377125,48 24,48 C25.6192207,48 27.0043638,46.9977948 27.5689602,45.5798536 L47.4543875,5.81410008 C47.8008071,5.23723486 48,4.56187943 48,3.84 C48,1.75924115 46.3450379,0.0650194241 44.2796061,0.00182727583 L44.1448813,0 L3.84,0 Z" id="Colour" fill="#000000"></path>
            </g>
        </g>
    </g>
</svg>