<?xml version="1.0" encoding="UTF-8"?>
<svg width="100px" height="100px" viewBox="0 0 100 100" version="1.1" xmlns="http://www.w3.org/2000/svg" xmlns:xlink="http://www.w3.org/1999/xlink">
    <title>Refresh</title>
    <defs>
        <path d="M46.1079286,10 C41.329959,10 36.4706178,10.863471 31.7437661,12.6846669 L31.7437661,12.6846669 C11.0654855,20.6527916 0.737038237,43.9408497 8.67441423,64.6992363 L8.67441423,64.6992363 C16.6123118,85.4576229 39.6425428,94.4122724 59.2426506,87.9166039 L59.2426506,87.9166039 C61.0474295,87.3186149 63.6873099,86.3912607 62.5929671,82.8535955 L62.5929671,82.8535955 L60.8679949,77.205689 C60.2133713,74.960874 57.16559,75.5195905 55.9497115,75.9882421 L55.9497115,75.9882421 C41.8014966,81.4403098 25.9293526,74.3461287 20.4983243,60.1431048 L20.4983243,60.1431048 C15.0672959,45.9400808 22.1335792,30.0064495 36.2823157,24.5543818 L36.2823157,24.5543818 C49.8619731,19.3211926 65.0299403,25.6461567 71.0295262,38.7217987 L71.0295262,38.7217987 L63.1855188,41.7447325 C62.7181541,41.9248623 62.3321609,42.2699365 62.100565,42.7150246 L62.100565,42.7150246 C61.5737365,43.7256365 61.9628593,44.9729305 62.9690497,45.5017999 L62.9690497,45.5017999 L82.3662502,55.6911762 C82.4429272,55.731496 82.5222123,55.767103 82.6035839,55.7969501 L82.6035839,55.7969501 C83.6681948,56.1943876 84.852255,55.6492856 85.2476372,54.5805504 L85.2476372,54.5805504 L92.8710025,33.9792538 C93.0457426,33.507984 93.042613,32.9890636 92.8636999,32.5198883 L92.8636999,32.5198883 C92.455799,31.4553423 91.2665227,30.9238547 90.2060847,31.3322885 L90.2060847,31.3322885 L82.8701278,34.1593835 C76.3525808,19.1447283 61.6577161,10 46.1094934,10 L46.1094934,10 C46.1084502,10 46.1089718,10 46.1079286,10 L46.1079286,10 Z" id="path-1"></path>
    </defs>
    <g id="Refresh" stroke="none" stroke-width="1" fill="none" fill-rule="evenodd">
        <path d="M46.1079286,10 C41.329959,10 36.4706178,10.863471 31.7437661,12.6846669 L31.7437661,12.6846669 C11.0654855,20.6527916 0.737038237,43.9408497 8.67441423,64.6992363 L8.67441423,64.6992363 C16.6123118,85.4576229 39.6425428,94.4122724 59.2426506,87.9166039 L59.2426506,87.9166039 C61.0474295,87.3186149 63.6873099,86.3912607 62.5929671,82.8535955 L62.5929671,82.8535955 L60.8679949,77.205689 C60.2133713,74.960874 57.16559,75.5195905 55.9497115,75.9882421 L55.9497115,75.9882421 C41.8014966,81.4403098 25.9293526,74.3461287 20.4983243,60.1431048 L20.4983243,60.1431048 C15.0672959,45.9400808 22.1335792,30.0064495 36.2823157,24.5543818 L36.2823157,24.5543818 C49.8619731,19.3211926 65.0299403,25.6461567 71.0295262,38.7217987 L71.0295262,38.7217987 L63.1855188,41.7447325 C62.7181541,41.9248623 62.3321609,42.2699365 62.100565,42.7150246 L62.100565,42.7150246 C61.5737365,43.7256365 61.9628593,44.9729305 62.9690497,45.5017999 L62.9690497,45.5017999 L82.3662502,55.6911762 C82.4429272,55.731496 82.5222123,55.767103 82.6035839,55.7969501 L82.6035839,55.7969501 C83.6681948,56.1943876 84.852255,55.6492856 85.2476372,54.5805504 L85.2476372,54.5805504 L92.8710025,33.9792538 C93.0457426,33.507984 93.042613,32.9890636 92.8636999,32.5198883 L92.8636999,32.5198883 C92.455799,31.4553423 91.2665227,30.9238547 90.2060847,31.3322885 L90.2060847,31.3322885 L82.8701278,34.1593835 C76.3525808,19.1447283 61.6577161,10 46.1094934,10 L46.1094934,10 C46.1084502,10 46.1089718,10 46.1079286,10 L46.1079286,10 Z" id="Shadow"></path>
        <mask id="mask-2" fill="white">
            <use xlink:href="#path-1"></use>
        </mask>
        <use id="Colour" fill="#000000" xlink:href="#path-1"></use>
    </g>
</svg>