<?xml version="1.0" encoding="UTF-8"?>
<svg width="100px" height="100px" viewBox="0 0 100 100" version="1.1" xmlns="http://www.w3.org/2000/svg" xmlns:xlink="http://www.w3.org/1999/xlink">
    <title>Search</title>
    <g id="Search" stroke="none" stroke-width="1" fill="none" fill-rule="evenodd">
        <path d="M45,0 C69.8528137,0 90,20.1471863 90,45 C90,54.5368297 87.0333157,63.3807532 81.9724695,70.6592482 L97.6568542,86.3431458 C100.781049,89.4673401 100.781049,94.5326599 97.6568542,97.6568542 C94.5991321,100.714576 89.6820069,100.779634 86.5451612,97.852028 L86.3431458,97.6568542 L70.6592482,81.9724695 C63.3807532,87.0333157 54.5368297,90 45,90 C20.1471863,90 0,69.8528137 0,45 C0,20.1471863 20.1471863,0 45,0 Z M45,12 C26.7746033,12 12,26.7746033 12,45 C12,63.2253967 26.7746033,78 45,78 C63.2253967,78 78,63.2253967 78,45 C78,26.7746033 63.2253967,12 45,12 Z" id="Shadow"></path>
        <path d="M45,7.10542736e-15 C69.8528137,7.10542736e-15 90,20.1471863 90,45 C90,54.5368297 87.0333157,63.3807532 81.9724695,70.6592482 L97.6568542,86.3431458 C100.781049,89.4673401 100.781049,94.5326599 97.6568542,97.6568542 C94.5991321,100.714576 89.6820069,100.779634 86.5451612,97.852028 L86.3431458,97.6568542 L70.6592482,81.9724695 C63.3807532,87.0333157 54.5368297,90 45,90 C20.1471863,90 0,69.8528137 0,45 C0,20.1471863 20.1471863,7.10542736e-15 45,7.10542736e-15 Z M45,12 C26.7746033,12 12,26.7746033 12,45 C12,63.2253967 26.7746033,78 45,78 C63.2253967,78 78,63.2253967 78,45 C78,26.7746033 63.2253967,12 45,12 Z" id="Colour" fill="#000000"></path>
    </g>
</svg>