<?xml version="1.0" encoding="UTF-8"?>
<svg width="100px" height="100px" viewBox="0 0 100 100" version="1.1" xmlns="http://www.w3.org/2000/svg" xmlns:xlink="http://www.w3.org/1999/xlink">
    <title>Settings</title>
    <g id="Settings" stroke="none" stroke-width="1" fill="none" fill-rule="evenodd">
        <path d="M65.6565657,-1.42108547e-14 L74.7474747,4.04040404 L74.7474747,20.2020202 L79.7979798,25.2525253 L95.959596,25.2525253 L100,34.3434343 L87.8787879,46.4646465 L87.8787879,53.5353535 L100,65.6565657 L95.959596,74.7474747 L79.7979798,74.7474747 L74.7474747,79.7979798 L74.7474747,95.959596 L65.6565657,100 L53.5353535,87.8787879 L46.4646465,87.8787879 L34.3434343,100 L25.2525253,95.959596 L25.2525253,79.7979798 L20.2020202,74.7474747 L4.04040404,74.7474747 L6.60804744e-13,65.6565657 L12.1212121,53.5353535 L12.1212121,46.4646465 L6.60804744e-13,34.3434343 L4.04040404,25.2525253 L20.2020202,25.2525253 L25.2525253,20.2020202 L25.2525253,4.04040404 L34.3434343,-1.42108547e-14 L46.4646465,12.1212121 L53.5353535,12.1212121 L65.6565657,-1.42108547e-14 Z M50.5050505,34.3434343 C41.5792364,34.3434343 34.3434343,41.5792364 34.3434343,50.5050505 C34.3434343,59.4308646 41.5792364,66.6666667 50.5050505,66.6666667 C59.4308646,66.6666667 66.6666667,59.4308646 66.6666667,50.5050505 C66.6666667,41.5792364 59.4308646,34.3434343 50.5050505,34.3434343 Z" id="Shape" fill="#000000"></path>
    </g>
</svg>