<?xml version="1.0" encoding="UTF-8"?>
<svg width="100px" height="100px" viewBox="0 0 100 100" version="1.1" xmlns="http://www.w3.org/2000/svg" xmlns:xlink="http://www.w3.org/1999/xlink">
    <title>Sign Out</title>
    <g id="Sign-Out" stroke="none" stroke-width="1" fill="none" fill-rule="evenodd">
        <path d="M26.8587916,34.1412084 L27.0756812,34.1458279 C29.7364849,34.2593903 31.8587916,36.4524537 31.8587916,39.1412084 C31.8587916,41.9026322 29.6202153,44.1412084 26.8587916,44.1412084 L17.8587916,44.1412084 C13.5238773,44.1412084 9.99424873,47.5890462 9.86259842,51.8920291 L9.8587916,52.1412084 L9.8587916,82.0435263 C9.8587916,86.3784406 13.3066294,89.9080692 17.6096123,90.0397195 L17.8587916,90.0435263 L81.8587916,90.0435263 C86.1937059,90.0435263 89.7233345,86.5956885 89.8549848,82.2927056 L89.8587916,82.0435263 L89.8587916,52.1412084 C89.8587916,47.7229304 86.2770696,44.1412084 81.8587916,44.1412084 L72.8587916,44.1412084 C70.0973678,44.1412084 67.8587916,41.9026322 67.8587916,39.1412084 C67.8587916,36.4524537 69.9810983,34.2593903 72.641902,34.1458279 L72.8587916,34.1412084 L83.8587916,34.1412084 C92.6953476,34.1412084 99.8587916,41.3046524 99.8587916,50.1412084 L99.8587916,84.0435263 C99.8587916,92.8800823 92.6953476,100.043526 83.8587916,100.043526 L15.8587916,100.043526 C7.0222356,100.043526 -0.141208404,92.8800823 -0.141208404,84.0435263 L-0.141208404,50.1412084 C-0.141208404,41.3046524 7.0222356,34.1412084 15.8587916,34.1412084 L26.8587916,34.1412084 Z M49.6584102,-0.0435262968 L49.9355033,-0.0413739225 L50.1726592,-0.0260265066 L50.2987438,-0.0119447745 C51.2191558,0.097192669 52.10688,0.491182464 52.8193449,1.15666313 L70.5564528,16.0462161 C72.4511488,17.6364728 72.6983015,20.4614405 71.1085353,22.3565481 C69.5722755,24.1878725 66.8820993,24.4801406 64.9931903,23.0620409 L64.7998365,22.9084877 L54.7607916,14.4824737 L54.7611095,65.2133376 C54.7611095,67.8809772 52.5225332,70.0435263 49.7611095,70.0435263 C46.9996857,70.0435263 44.7611095,67.8809772 44.7611095,65.2133376 L44.7607916,14.4824737 L34.7223825,22.9084877 C32.8270211,24.498467 30.002918,24.2510216 28.4136837,22.3565481 C26.8769097,20.5246107 27.0566343,17.8237708 28.7817954,16.2092773 L28.9657662,16.0462161 L46.7028741,1.15666313 C47.3440925,0.557730531 48.127271,0.178705537 48.9481633,0.0287221135 L49.2660129,-0.0168988526 L49.5151032,-0.0377002769 C49.5628142,-0.0406561775 49.6105991,-0.0424719506 49.6584102,-0.0435262968 Z" id="Shadow" transform="translate(49.858792, 50.000000) rotate(-90.000000) translate(-49.858792, -50.000000) "></path>
        <path d="M26.8587916,34.1412084 L27.0756812,34.1458279 C29.7364849,34.2593903 31.8587916,36.4524537 31.8587916,39.1412084 C31.8587916,41.9026322 29.6202153,44.1412084 26.8587916,44.1412084 L17.8587916,44.1412084 C13.5238773,44.1412084 9.99424873,47.5890462 9.86259842,51.8920291 L9.8587916,52.1412084 L9.8587916,82.0435263 C9.8587916,86.3784406 13.3066294,89.9080692 17.6096123,90.0397195 L17.8587916,90.0435263 L81.8587916,90.0435263 C86.1937059,90.0435263 89.7233345,86.5956885 89.8549848,82.2927056 L89.8587916,82.0435263 L89.8587916,52.1412084 C89.8587916,47.7229304 86.2770696,44.1412084 81.8587916,44.1412084 L72.8587916,44.1412084 C70.0973678,44.1412084 67.8587916,41.9026322 67.8587916,39.1412084 C67.8587916,36.4524537 69.9810983,34.2593903 72.641902,34.1458279 L72.8587916,34.1412084 L83.8587916,34.1412084 C92.6953476,34.1412084 99.8587916,41.3046524 99.8587916,50.1412084 L99.8587916,84.0435263 C99.8587916,92.8800823 92.6953476,100.043526 83.8587916,100.043526 L15.8587916,100.043526 C7.0222356,100.043526 -0.141208404,92.8800823 -0.141208404,84.0435263 L-0.141208404,50.1412084 C-0.141208404,41.3046524 7.0222356,34.1412084 15.8587916,34.1412084 L26.8587916,34.1412084 Z M49.6584102,-0.0435262968 L49.9355033,-0.0413739225 L50.1726592,-0.0260265066 L50.2987438,-0.0119447745 C51.2191558,0.097192669 52.10688,0.491182464 52.8193449,1.15666313 L70.5564528,16.0462161 C72.4511488,17.6364728 72.6983015,20.4614405 71.1085353,22.3565481 C69.5722755,24.1878725 66.8820993,24.4801406 64.9931903,23.0620409 L64.7998365,22.9084877 L54.7607916,14.4824737 L54.7611095,65.2133376 C54.7611095,67.8809772 52.5225332,70.0435263 49.7611095,70.0435263 C46.9996857,70.0435263 44.7611095,67.8809772 44.7611095,65.2133376 L44.7607916,14.4824737 L34.7223825,22.9084877 C32.8270211,24.498467 30.002918,24.2510216 28.4136837,22.3565481 C26.8769097,20.5246107 27.0566343,17.8237708 28.7817954,16.2092773 L28.9657662,16.0462161 L46.7028741,1.15666313 C47.3440925,0.557730531 48.127271,0.178705537 48.9481633,0.0287221135 L49.2660129,-0.0168988526 L49.5151032,-0.0377002769 C49.5628142,-0.0406561775 49.6105991,-0.0424719506 49.6584102,-0.0435262968 Z" id="Colour" fill="#000000" transform="translate(49.858792, 50.000000) rotate(-90.000000) translate(-49.858792, -50.000000) "></path>
    </g>
</svg>