<?xml version="1.0" encoding="UTF-8"?>
<svg width="100px" height="100px" viewBox="0 0 100 100" version="1.1" xmlns="http://www.w3.org/2000/svg" xmlns:xlink="http://www.w3.org/1999/xlink">
    <title>Sign Post</title>
    <g id="Sign-Post" stroke="none" stroke-width="1" fill="none" fill-rule="evenodd">
        <path d="M52.0013198,-2.84217094e-14 C54.131758,-2.84217094e-14 56.0190326,0.782175008 57.6631435,2.34652502 C59.2210478,3.98448183 60,5.86897349 60,8 L60,14 L54,14 L54,6 L38,6 L38,14 L32,14 L32,8 C32,5.86897349 32.7789522,3.98448183 34.3368565,2.34652502 C35.8944353,0.86450922 37.6702551,0.0845009012 39.6643159,0.00650006932 L39.9986802,-2.84217094e-14 L52.0013198,-2.84217094e-14 Z M38,60 L38,94 L54,94 L54,60 L38,60 Z M80.0253055,20 L6,20 L6,54 L80.0253055,54 L94,37 L80.0253055,20 Z M60,92 C60,94.1310265 59.2210478,96.0155182 57.6631435,97.653475 C56.1055647,99.1354908 54.3297449,99.9154991 52.3356841,99.9934999 L52.0013198,100 L39.9986802,100 C37.868242,100 35.9809674,99.217825 34.3368565,97.653475 C32.7789522,96.0155182 32,94.1310265 32,92 L32,60 L8,60 C6.53896995,60 5.19218369,59.6341584 3.95964122,58.9024751 C1.14674064,57.1530189 -0.17313977,54.5188606 -4.48562368e-12,51 L-4.77886307e-12,22.9640547 C-0.162097084,19.4722412 1.15778332,16.8514316 3.95964122,15.101626 C5.21199217,14.3672087 6.55877843,14 8,14 L79,14 C80.4877498,14 81.8674091,14.3672087 83.138978,15.101626 C83.8916002,15.5105911 84.624825,16.1447103 85.3386524,17.0039835 L97.3949131,31.0162802 C99.1320675,32.8948693 100.000645,34.8894426 100.000645,37 C100.000645,39.0607094 99.2106954,40.9638386 97.6307967,42.7093878 L85.3386524,57.0023394 C84.7162101,57.7588759 83.9829853,58.3922545 83.138978,58.9024751 C81.8707803,59.6341584 80.491121,60 79,60 L60,60 L60,92 Z" id="Shadow"></path>
        <path d="M52.0013198,-2.84217094e-14 C54.131758,-2.84217094e-14 56.0190326,0.782175008 57.6631435,2.34652502 C59.2210478,3.98448183 60,5.86897349 60,8 L60,14 L54,14 L54,6 L38,6 L38,14 L32,14 L32,8 C32,5.86897349 32.7789522,3.98448183 34.3368565,2.34652502 C35.8944353,0.86450922 37.6702551,0.0845009012 39.6643159,0.00650006932 L39.9986802,-2.84217094e-14 L52.0013198,-2.84217094e-14 Z M38,60 L38,94 L54,94 L54,60 L38,60 Z M80.0253055,20 L6,20 L6,54 L80.0253055,54 L94,37 L80.0253055,20 Z M60,92 C60,94.1310265 59.2210478,96.0155182 57.6631435,97.653475 C56.1055647,99.1354908 54.3297449,99.9154991 52.3356841,99.9934999 L52.0013198,100 L39.9986802,100 C37.868242,100 35.9809674,99.217825 34.3368565,97.653475 C32.7789522,96.0155182 32,94.1310265 32,92 L32,60 L8,60 C6.53896995,60 5.19218369,59.6341584 3.95964122,58.9024751 C1.14674064,57.1530189 -0.17313977,54.5188606 -4.47141282e-12,51 L-4.76465221e-12,22.9640547 C-0.162097084,19.4722412 1.15778332,16.8514316 3.95964122,15.101626 C5.21199217,14.3672087 6.55877843,14 8,14 L79,14 C80.4877498,14 81.8674091,14.3672087 83.138978,15.101626 C83.8916002,15.5105911 84.624825,16.1447103 85.3386524,17.0039835 L97.3949131,31.0162802 C99.1320675,32.8948693 100.000645,34.8894426 100.000645,37 C100.000645,39.0607094 99.2106954,40.9638386 97.6307967,42.7093878 L85.3386524,57.0023394 C84.7162101,57.7588759 83.9829853,58.3922545 83.138978,58.9024751 C81.8707803,59.6341584 80.491121,60 79,60 L60,60 L60,92 Z" id="Colour" fill="#000000"></path>
    </g>
</svg>