<?xml version="1.0" encoding="UTF-8"?>
<svg width="100px" height="100px" viewBox="0 0 100 100" version="1.1" xmlns="http://www.w3.org/2000/svg" xmlns:xlink="http://www.w3.org/1999/xlink">
    <title>Snapchat</title>
    <g id="Snapchat" stroke="none" stroke-width="1" fill="none" fill-rule="evenodd">
        <path d="M99.642489,72.5433251 C98.9475382,70.6526501 97.6240657,69.6408835 96.1166357,68.8028546 C95.8330344,68.6367818 95.5724279,68.5039235 95.3501458,68.4017249 C94.9004718,68.1692229 94.4405778,67.9443859 93.9832389,67.7067741 C89.2846561,65.215682 85.6157246,62.0730736 83.0709783,58.3479329 C82.3483123,57.2992209 81.7215195,56.1875828 81.1981881,55.0264768 C80.9810159,54.4056201 80.9912358,54.0530347 81.1470887,53.731109 C81.3016688,53.4830861 81.5061361,53.269918 81.7475058,53.1051423 C82.5548751,52.5711543 83.3877941,52.0295015 83.9524416,51.6641413 C84.9590983,51.012625 85.7562478,50.4965218 86.269796,50.1311616 C88.1987954,48.7821395 89.5478176,47.3488034 90.3909564,45.7468396 C91.5812873,43.5073002 91.7388823,40.860823 90.8227457,38.4958456 C89.5452626,35.1335101 86.3694396,33.0461027 82.5216606,33.0461027 C81.7100591,33.0453326 80.9006826,33.1309809 80.1072175,33.3015993 C79.8951553,33.3475887 79.6830931,33.3961331 79.4761408,33.4497873 C79.5119104,31.1503178 79.4608111,28.7230999 79.2564138,26.3342065 C78.5308034,17.9360326 75.5900373,13.5338259 72.5240778,10.0233023 C70.5607173,7.82345609 68.2481251,5.96233299 65.6793234,4.5147952 C61.02673,1.85763036 55.7507248,0.508608209 49.9994959,0.508608209 C44.248267,0.508608209 38.9978114,1.85763036 34.3401081,4.5147952 C31.7649977,5.96277293 29.4477419,7.82762858 27.4825788,10.0335222 C24.4166194,13.5440457 21.4758533,17.9539174 20.7502429,26.3444264 C20.5458456,28.7333197 20.4947463,31.1733125 20.5279608,33.4600072 C20.3210086,33.4063529 20.1115013,33.3578086 19.8994391,33.3118192 C19.1059741,33.1412007 18.2965975,33.0555524 17.4849961,33.0563225 C13.634662,33.0563225 10.4537291,35.1437299 9.18135597,38.5060654 C8.26109544,40.8720291 8.41495453,43.5212029 9.60292539,45.7647244 C10.4486192,47.3666882 11.7976414,48.8000242 13.7266408,50.1490464 C14.2376341,50.5067416 15.0373385,51.0228448 16.0439952,51.6820261 C16.588203,52.0346114 17.3827974,52.5507146 18.1620621,53.0668178 C18.4347038,53.2430858 18.6664394,53.4756926 18.8416831,53.7489937 C19.005201,54.0836943 19.0103109,54.4439446 18.7675891,55.1082358 C18.2513285,56.2449352 17.6348493,57.3333931 16.9254585,58.3607077 C14.4369214,62.0015346 10.8752986,65.0879337 6.32745873,67.558586 C3.91812561,68.8360691 1.41425874,69.6894278 0.356502736,72.5637648 C-0.440646716,74.7329311 0.0805663872,77.2010284 2.10665458,79.2807709 L2.10665458,79.2807709 C2.85024604,80.0570074 3.71269978,80.7098849 4.66162077,81.2148803 C6.63607364,82.2999517 8.73560293,83.139935 10.913623,83.7161922 C11.3630895,83.8321222 11.7897894,84.0230142 12.1757763,84.2808398 C12.9141616,84.9272462 12.809408,85.9006883 13.7930699,87.3263595 C14.2868479,88.0631772 14.9142636,88.7009921 15.6428655,89.2068146 C17.7072782,90.6324857 20.0271875,90.7219095 22.4850649,90.8164433 C24.7053306,90.9007572 27.2219723,90.9978459 30.0963092,91.9457383 C31.2869235,92.3392031 32.5235271,93.1005831 33.9568631,93.9897113 C37.3984026,96.1052233 42.1097603,99 49.9943859,99 C57.8790116,99 62.6235838,96.0898935 66.090673,93.9667166 C67.5137891,93.0929182 68.7427279,92.3392031 69.9001276,91.9559582 C72.7744645,91.0055108 75.2911062,90.910977 77.5113718,90.8266631 C79.9692493,90.7321294 82.2891586,90.6427056 84.3535713,89.2170344 C85.2164643,88.6153399 85.9354342,87.8300573 86.4588635,86.9175649 C87.1665891,85.7141758 87.1487043,84.8735919 87.8129955,84.2859497 C88.1751146,84.0404122 88.575837,83.8573235 88.9984999,83.7442969 C91.2062504,83.1662498 93.3343829,82.3184292 95.334816,81.2199903 C96.3429926,80.6791332 97.2504933,79.9686898 98.0175305,79.119808 L98.0430802,79.0891485 C99.943975,77.0553954 100.421754,74.6588371 99.642489,72.5433251 Z" id="Shadow"></path>
        <path d="M99.642489,72.5433251 C98.9475382,70.6526501 97.6240657,69.6408835 96.1166357,68.8028546 C95.8330344,68.6367818 95.5724279,68.5039235 95.3501458,68.4017249 C94.9004718,68.1692229 94.4405778,67.9443859 93.9832389,67.7067741 C89.2846561,65.215682 85.6157246,62.0730736 83.0709783,58.3479329 C82.3483123,57.2992209 81.7215195,56.1875828 81.1981881,55.0264768 C80.9810159,54.4056201 80.9912358,54.0530347 81.1470887,53.731109 C81.3016688,53.4830861 81.5061361,53.269918 81.7475058,53.1051423 C82.5548751,52.5711543 83.3877941,52.0295015 83.9524416,51.6641413 C84.9590983,51.012625 85.7562478,50.4965218 86.269796,50.1311616 C88.1987954,48.7821395 89.5478176,47.3488034 90.3909564,45.7468396 C91.5812873,43.5073002 91.7388823,40.860823 90.8227457,38.4958456 C89.5452626,35.1335101 86.3694396,33.0461027 82.5216606,33.0461027 C81.7100591,33.0453326 80.9006826,33.1309809 80.1072175,33.3015993 C79.8951553,33.3475887 79.6830931,33.3961331 79.4761408,33.4497873 C79.5119104,31.1503178 79.4608111,28.7230999 79.2564138,26.3342065 C78.5308034,17.9360326 75.5900373,13.5338259 72.5240778,10.0233023 C70.5607173,7.82345609 68.2481251,5.96233299 65.6793234,4.5147952 C61.02673,1.85763036 55.7507248,0.508608209 49.9994959,0.508608209 C44.248267,0.508608209 38.9978114,1.85763036 34.3401081,4.5147952 C31.7649977,5.96277293 29.4477419,7.82762858 27.4825788,10.0335222 C24.4166194,13.5440457 21.4758533,17.9539174 20.7502429,26.3444264 C20.5458456,28.7333197 20.4947463,31.1733125 20.5279608,33.4600072 C20.3210086,33.4063529 20.1115013,33.3578086 19.8994391,33.3118192 C19.1059741,33.1412007 18.2965975,33.0555524 17.4849961,33.0563225 C13.634662,33.0563225 10.4537291,35.1437299 9.18135597,38.5060654 C8.26109544,40.8720291 8.41495453,43.5212029 9.60292539,45.7647244 C10.4486192,47.3666882 11.7976414,48.8000242 13.7266408,50.1490464 C14.2376341,50.5067416 15.0373385,51.0228448 16.0439952,51.6820261 C16.588203,52.0346114 17.3827974,52.5507146 18.1620621,53.0668178 C18.4347038,53.2430858 18.6664394,53.4756926 18.8416831,53.7489937 C19.005201,54.0836943 19.0103109,54.4439446 18.7675891,55.1082358 C18.2513285,56.2449352 17.6348493,57.3333931 16.9254585,58.3607077 C14.4369214,62.0015346 10.8752986,65.0879337 6.32745873,67.558586 C3.91812561,68.8360691 1.41425874,69.6894278 0.356502736,72.5637648 C-0.440646716,74.7329311 0.0805663872,77.2010284 2.10665458,79.2807709 L2.10665458,79.2807709 C2.85024604,80.0570074 3.71269978,80.7098849 4.66162077,81.2148803 C6.63607364,82.2999517 8.73560293,83.139935 10.913623,83.7161922 C11.3630895,83.8321222 11.7897894,84.0230142 12.1757763,84.2808398 C12.9141616,84.9272462 12.809408,85.9006883 13.7930699,87.3263595 C14.2868479,88.0631772 14.9142636,88.7009921 15.6428655,89.2068146 C17.7072782,90.6324857 20.0271875,90.7219095 22.4850649,90.8164433 C24.7053306,90.9007572 27.2219723,90.9978459 30.0963092,91.9457383 C31.2869235,92.3392031 32.5235271,93.1005831 33.9568631,93.9897113 C37.3984026,96.1052233 42.1097603,99 49.9943859,99 C57.8790116,99 62.6235838,96.0898935 66.090673,93.9667166 C67.5137891,93.0929182 68.7427279,92.3392031 69.9001276,91.9559582 C72.7744645,91.0055108 75.2911062,90.910977 77.5113718,90.8266631 C79.9692493,90.7321294 82.2891586,90.6427056 84.3535713,89.2170344 C85.2164643,88.6153399 85.9354342,87.8300573 86.4588635,86.9175649 C87.1665891,85.7141758 87.1487043,84.8735919 87.8129955,84.2859497 C88.1751146,84.0404122 88.575837,83.8573235 88.9984999,83.7442969 C91.2062504,83.1662498 93.3343829,82.3184292 95.334816,81.2199903 C96.3429926,80.6791332 97.2504933,79.9686898 98.0175305,79.119808 L98.0430802,79.0891485 C99.943975,77.0553954 100.421754,74.6588371 99.642489,72.5433251 Z" id="Inner-Colour" fill="#FFFFFF"></path>
        <path d="M99.642489,72.5433251 C98.9475382,70.6526501 97.6240657,69.6408835 96.1166357,68.8028546 C95.8330344,68.6367818 95.5724279,68.5039235 95.3501458,68.4017249 C94.9004718,68.1692229 94.4405778,67.9443859 93.9832389,67.7067741 C89.2846561,65.215682 85.6157246,62.0730736 83.0709783,58.3479329 C82.3483123,57.2992209 81.7215195,56.1875828 81.1981881,55.0264768 C80.9810159,54.4056201 80.9912358,54.0530347 81.1470887,53.731109 C81.3016688,53.4830861 81.5061361,53.269918 81.7475058,53.1051423 C82.5548751,52.5711543 83.3877941,52.0295015 83.9524416,51.6641413 C84.9590983,51.012625 85.7562478,50.4965218 86.269796,50.1311616 C88.1987954,48.7821395 89.5478176,47.3488034 90.3909564,45.7468396 C91.5812873,43.5073002 91.7388823,40.860823 90.8227457,38.4958456 C89.5452626,35.1335101 86.3694396,33.0461027 82.5216606,33.0461027 C81.7100591,33.0453326 80.9006826,33.1309809 80.1072175,33.3015993 C79.8951553,33.3475887 79.6830931,33.3961331 79.4761408,33.4497873 C79.5119104,31.1503178 79.4608111,28.7230999 79.2564138,26.3342065 C78.5308034,17.9360326 75.5900373,13.5338259 72.5240778,10.0233023 C70.5607173,7.82345609 68.2481251,5.96233299 65.6793234,4.5147952 C61.02673,1.85763036 55.7507248,0.508608209 49.9994959,0.508608209 C44.248267,0.508608209 38.9978114,1.85763036 34.3401081,4.5147952 C31.7649977,5.96277293 29.4477419,7.82762858 27.4825788,10.0335222 C24.4166194,13.5440457 21.4758533,17.9539174 20.7502429,26.3444264 C20.5458456,28.7333197 20.4947463,31.1733125 20.5279608,33.4600072 C20.3210086,33.4063529 20.1115013,33.3578086 19.8994391,33.3118192 C19.1059741,33.1412007 18.2965975,33.0555524 17.4849961,33.0563225 C13.634662,33.0563225 10.4537291,35.1437299 9.18135597,38.5060654 C8.26109544,40.8720291 8.41495453,43.5212029 9.60292539,45.7647244 C10.4486192,47.3666882 11.7976414,48.8000242 13.7266408,50.1490464 C14.2376341,50.5067416 15.0373385,51.0228448 16.0439952,51.6820261 C16.588203,52.0346114 17.3827974,52.5507146 18.1620621,53.0668178 C18.4347038,53.2430858 18.6664394,53.4756926 18.8416831,53.7489937 C19.005201,54.0836943 19.0103109,54.4439446 18.7675891,55.1082358 C18.2513285,56.2449352 17.6348493,57.3333931 16.9254585,58.3607077 C14.4369214,62.0015346 10.8752986,65.0879337 6.32745873,67.558586 C3.91812561,68.8360691 1.41425874,69.6894278 0.356502736,72.5637648 C-0.440646716,74.7329311 0.0805663872,77.2010284 2.10665458,79.2807709 L2.10665458,79.2807709 C2.85024604,80.0570074 3.71269978,80.7098849 4.66162077,81.2148803 C6.63607364,82.2999517 8.73560293,83.139935 10.913623,83.7161922 C11.3630895,83.8321222 11.7897894,84.0230142 12.1757763,84.2808398 C12.9141616,84.9272462 12.809408,85.9006883 13.7930699,87.3263595 C14.2868479,88.0631772 14.9142636,88.7009921 15.6428655,89.2068146 C17.7072782,90.6324857 20.0271875,90.7219095 22.4850649,90.8164433 C24.7053306,90.9007572 27.2219723,90.9978459 30.0963092,91.9457383 C31.2869235,92.3392031 32.5235271,93.1005831 33.9568631,93.9897113 C37.3984026,96.1052233 42.1097603,99 49.9943859,99 C57.8790116,99 62.6235838,96.0898935 66.090673,93.9667166 C67.5137891,93.0929182 68.7427279,92.3392031 69.9001276,91.9559582 C72.7744645,91.0055108 75.2911062,90.910977 77.5113718,90.8266631 C79.9692493,90.7321294 82.2891586,90.6427056 84.3535713,89.2170344 C85.2164643,88.6153399 85.9354342,87.8300573 86.4588635,86.9175649 C87.1665891,85.7141758 87.1487043,84.8735919 87.8129955,84.2859497 C88.1751146,84.0404122 88.575837,83.8573235 88.9984999,83.7442969 C91.2062504,83.1662498 93.3343829,82.3184292 95.334816,81.2199903 C96.3429926,80.6791332 97.2504933,79.9686898 98.0175305,79.119808 L98.0430802,79.0891485 C99.943975,77.0553954 100.421754,74.6588371 99.642489,72.5433251 Z M92.6342167,76.3093452 C88.3597583,78.670134 85.5186359,78.4171923 83.3085901,79.8403085 C81.43069,81.0488075 82.5421003,83.654873 81.1777483,84.5951006 C79.5016905,85.7525003 74.5476111,84.5133417 68.1474207,86.6262987 C62.8688606,88.3713406 59.5014151,93.3892942 50.0071608,93.3892942 C40.5129064,93.3892942 37.2246649,88.3815605 31.8592359,86.6135239 C25.4718204,84.5005669 20.5075211,85.7397255 18.8289083,84.5823258 C17.4671113,83.6420982 18.5734117,81.0360327 16.6980665,79.8275337 C14.4854658,78.4044175 11.6443434,78.6573592 7.3724399,76.3093452 C4.65140091,74.8070251 6.19460049,73.8770174 7.10161349,73.4375632 C22.5847086,65.9412924 25.0553609,54.3672956 25.1652245,53.5088269 C25.2980827,52.4689557 25.4462708,51.6513665 24.3016459,50.5936105 C23.1953455,49.571624 18.2872555,46.5337692 16.9254585,45.5833218 C14.6719783,44.0094626 13.6806514,42.4381584 14.4113718,40.506604 C14.922365,39.1703566 16.1691885,38.6670283 17.4773312,38.6670283 C17.8907699,38.6682929 18.3028428,38.7145548 18.7062699,38.8049965 C21.1794772,39.3415394 23.5811454,40.580698 24.9684921,40.9153986 C25.1355435,40.9582757 25.3070443,40.9814283 25.4794853,40.9843826 C26.2204255,40.9843826 26.4810321,40.6113576 26.4299327,39.7631088 C26.2715248,37.0573996 25.8882799,31.7839494 26.3149593,26.8554196 C26.9000465,20.0745393 29.0845426,16.7147588 31.6803883,13.7433331 C32.9272118,12.315107 38.7857493,6.1244239 49.989276,6.1244239 C61.1928028,6.1244239 67.06667,12.2895573 68.3134935,13.7126735 C70.9118942,16.6840992 73.0989452,20.0438797 73.6789226,26.82476 C74.1056019,31.7532898 73.7376868,37.029295 73.5639491,39.7324492 C73.5051849,40.6241324 73.7734563,40.9537231 74.5143965,40.9537231 C74.6868518,40.950958 74.8583747,40.9278025 75.0253897,40.884739 C76.4152913,40.5500384 78.8169596,39.3108798 81.2901668,38.7743369 C81.693594,38.6838952 82.1056669,38.6376333 82.5191056,38.6363687 C83.8349132,38.6363687 85.0740718,39.147362 85.585065,40.4759444 C86.3157853,42.4074988 85.3295684,43.978803 83.0735332,45.5526622 C81.7117363,46.5031096 76.8036462,49.5384095 75.6973458,50.5629509 C74.550166,51.6207069 74.700909,52.4382961 74.8337673,53.4781673 C74.9436308,54.3494108 77.4117282,65.9234077 92.8973783,73.4069036 C93.8120562,73.8642426 95.3552557,74.7942503 92.6342167,76.3093452 Z" id="Border-Colour" fill="#000000"></path>
    </g>
</svg>