<?xml version="1.0" encoding="UTF-8"?>
<svg width="100px" height="100px" viewBox="0 0 100 100" version="1.1" xmlns="http://www.w3.org/2000/svg" xmlns:xlink="http://www.w3.org/1999/xlink">
    <title>Speech Bubble Border</title>
    <g id="Speech-Bubble-Border" stroke="none" stroke-width="1" fill="none" fill-rule="evenodd">
        <path d="M50,0 C77.6142375,0 100,22.3857625 100,50 C100,59.3257885 97.4468466,68.055256 93.0013949,75.5275477 C95.5946808,83.1223643 97.2842458,88.0924921 98.07009,90.437931 L98.2123108,90.8633304 C98.4591683,91.6036022 98.5825971,91.985398 98.5825971,92.0087178 C99.3620341,94.415011 99.0734435,96.3087107 97.7168254,97.6898172 C96.7928565,99.0499553 94.8862972,99.3533496 91.9971474,98.6 C88.5074919,97.3995107 83.0086622,95.5386375 75.5006584,93.0173806 C68.0343172,97.4529668 59.3146043,100 50,100 C22.3857625,100 0,77.6142375 0,50 C0,22.3857625 22.3857625,0 50,0 Z M50,7.5 C26.8040405,7.5 8,26.3040405 8,49.5 C8,72.6959595 26.8040405,91.5 50,91.5 C58.9686666,91.5 67.2807567,88.6888614 74.1032134,83.8996409 C83.8287618,87.0889458 89.1579937,88.8269443 90.0909091,89.1136364 C89.8928214,88.4778091 88.1586272,83.0704828 84.8883264,72.8916575 C89.3795224,66.2063231 92,58.1591842 92,49.5 C92,26.3040405 73.1959595,7.5 50,7.5 Z" id="Shadow"></path>
        <path d="M50,0 C77.6142375,0 100,22.3857625 100,50 C100,59.3257885 97.4468466,68.055256 93.0013949,75.5275477 C95.5946808,83.1223643 97.2842458,88.0924921 98.07009,90.437931 L98.2123108,90.8633304 C98.4591683,91.6036022 98.5825971,91.985398 98.5825971,92.0087178 C99.3620341,94.415011 99.0734435,96.3087107 97.7168254,97.6898172 C96.7928565,99.0499553 94.8862972,99.3533496 91.9971474,98.6 C88.5074919,97.3995107 83.0086622,95.5386375 75.5006584,93.0173806 C68.0343172,97.4529668 59.3146043,100 50,100 C22.3857625,100 0,77.6142375 0,50 C0,22.3857625 22.3857625,0 50,0 Z M50,8 C26.8040405,8 8,26.8040405 8,50 C8,73.1959595 26.8040405,92 50,92 C58.9686666,92 67.2807567,89.1888614 74.1032134,84.3996409 C83.8287618,87.5889458 89.1579937,89.3269443 90.0909091,89.6136364 C89.8928214,88.9778091 88.1586272,83.5704828 84.8883264,73.3916575 C89.3795224,66.7063231 92,58.6591842 92,50 C92,26.8040405 73.1959595,8 50,8 Z" id="Colour" fill="#000000"></path>
    </g>
</svg>