<?xml version="1.0" encoding="UTF-8"?>
<svg width="100px" height="100px" viewBox="0 0 100 100" version="1.1" xmlns="http://www.w3.org/2000/svg" xmlns:xlink="http://www.w3.org/1999/xlink">
    <title>Speech Bubble Plus</title>
    <g id="Speech-Bubble-Plus" stroke="none" stroke-width="1" fill="none" fill-rule="evenodd">
        <path d="M49.4066948,0.0354346927 L50.9569308,0.0554377383 L51.7170466,0.425494081 C52.6271852,0.875562607 53.1872704,1.45565093 53.6273374,2.38579255 C53.9173816,2.99588544 53.9473862,3.14590828 53.9473862,4.01604076 C53.9473862,4.91617781 53.9273831,5.00619152 53.5773298,5.72630116 C53.1272613,6.63643973 52.5371714,7.20652653 51.6270329,7.62659049 C50.9869354,7.92663617 50.9069232,7.93663769 49.0566415,8.01664988 C48.9866309,8.01931695 48.9160868,8.02211738 48.845276,8.02503041 L48.4193445,8.04369399 C47.5696151,8.08305999 46.7582916,8.13266754 46.4462441,8.1566712 C39.155134,8.80677018 32.3941046,11.2071356 26.3931909,15.2877569 C21.2624097,18.7682869 16.8617397,23.4790041 13.7212615,28.8398203 C9.57062956,35.950903 7.52031739,44.5122065 8.09040419,52.3634019 C8.70049708,60.5746521 11.4309128,67.9657775 16.2916529,74.5667825 C18.4019742,77.4372195 21.3424219,80.4176733 24.3428787,82.7680312 C25.4530477,83.6281621 28.0134376,85.3384225 29.2436249,86.0385291 C41.2254492,92.8295631 55.8176709,93.3296392 68.1895546,87.3587301 C70.0498378,86.4585931 71.1500054,85.8485002 72.8302612,84.7483327 L72.8302612,84.7483327 L74.1104561,83.9182063 L79.5812891,85.7084789 C89.1622933,88.8538441 89.9311022,89.1150861 89.8996281,88.9812224 L89.8955548,88.9697176 C89.8900781,88.9574643 89.880847,88.9431072 89.8719635,88.9279205 L89.8594118,88.9046776 C89.8569083,88.8994451 89.8546714,88.8941912 89.852853,88.8889631 C89.8328499,88.828954 88.7126794,85.328421 87.3624738,81.1177799 C85.8122378,76.2570398 84.9321038,73.3365952 84.9421053,73.1165617 C84.9521068,72.8965282 85.1121312,72.5464749 85.3621692,72.166417 C87.1724449,69.4760074 89.1227418,65.2453633 90.1929047,61.7048242 C91.2630677,58.1442821 91.7731453,55.04381 91.9931788,50.6931476 C92.073191,49.1329101 92.1031956,48.9828872 92.3832382,48.3727943 C92.8033022,47.4626557 93.3833905,46.8825674 94.2835276,46.4324989 C95.0036372,46.0824456 95.0936509,46.0624426 95.993788,46.0624426 C96.8639204,46.0624426 97.0139433,46.0924471 97.6240362,46.3824913 C98.5541778,46.8225583 99.1342661,47.3826436 99.5843346,48.2927821 L99.5843346,48.2927821 L99.954391,49.0528979 L99.9443895,51.0131963 C99.9143849,58.9344024 97.5240209,67.7157394 93.5134103,74.6467947 L93.5134103,74.6467947 L93.0033326,75.5269287 L95.5437194,82.9980662 C96.9339311,87.1086921 98.214126,90.8992692 98.3941534,91.4193484 C99.4043072,94.4998174 99.1742722,96.2100778 97.5040179,97.9203382 C96.7439022,98.700457 96.2738306,98.910489 95.0536448,98.9905011 C94.9836342,98.9950473 94.9156899,98.9990768 94.8489198,99.0023399 L94.7166806,99.0077701 C93.3827889,99.051082 92.2883753,98.70864 83.9319515,95.8800276 L83.9319515,95.8800276 L75.5006678,93.0295936 L74.6305353,93.5396712 C72.520214,94.759857 69.2197115,96.2700869 66.5993125,97.190227 C57.38791,100.450723 46.9363187,100.89079 37.4448736,98.4204143 C26.8132548,95.6499925 17.4318265,89.4890545 10.6207895,80.8177342 C0.399233162,67.78575 -2.67123433,50.5831309 2.39953772,34.6607066 C3.68973416,30.5900868 5.89006917,26.0393939 8.3604453,22.328829 C11.5909372,17.4780904 15.931598,12.9674037 20.6423153,9.54688286 C28.2434726,4.02604228 37.1648309,0.785548902 46.5962669,0.115446875 C47.286372,0.065439261 48.5465639,0.0354346927 49.4066948,0.0354346927 L49.4066948,0.0354346927 Z M78.8111718,0.165454489 C81.321554,-0.514649061 83.9819591,1.08559459 84.6520611,3.67598899 C84.7600776,4.0990534 84.7951829,4.99198936 84.8011238,8.46921878 L84.8018514,9.07304822 C84.8020089,9.28254262 84.802084,9.50037578 84.802084,9.72691027 L84.802084,15.2077448 L90.2829184,15.2077448 C90.3961857,15.2077448 90.5072776,15.2077635 90.6162395,15.207802 L91.5406099,15.2087049 C95.0178394,15.2146458 95.9107753,15.2497512 96.3338397,15.3577676 C98.0641032,15.8078361 99.4043072,17.1380387 99.8543758,18.8583006 C100.504475,21.3686828 98.9142326,23.9890818 96.3538428,24.6591838 C95.8903576,24.7796899 95.023075,24.8056903 91.235753,24.8088501 L84.802084,24.8092066 L84.8020268,30.6233622 C84.8019883,30.7323241 84.8019302,30.839156 84.8018514,30.9439032 L84.8011238,31.5477326 C84.7951829,35.024962 84.7600776,35.917898 84.6520611,36.3409624 C84.2019926,38.0712259 82.8717901,39.4114299 81.1515281,39.8614984 C78.6411459,40.5115974 76.020747,38.9213553 75.3506449,36.3409624 C75.2366276,35.8943944 75.2038476,34.9242967 75.2008546,30.9439032 L75.2006221,24.8092066 L68.7669531,24.8088501 C64.979631,24.8056903 64.1123485,24.7796899 63.6488633,24.6591838 C61.0884734,23.9890818 59.4982313,21.3686828 60.1483303,18.8783036 C60.5983988,17.1480402 61.9286013,15.8078361 63.6488633,15.3577676 C64.1001515,15.2404327 64.9342642,15.2126949 68.4739747,15.2083995 L69.3895844,15.2077818 L69.3895844,15.2077818 L69.7197876,15.2077448 L75.2006221,15.2077448 L75.2008546,9.07304822 C75.2038476,5.09265468 75.2366276,4.12255698 75.3506449,3.67598899 C75.8007135,1.96572859 77.1209145,0.615523014 78.8111718,0.165454489 Z" id="Shadow"></path>
        <path d="M49.4066948,0.0354346927 L50.9569308,0.0554377383 L51.7170466,0.425494081 C52.6271852,0.875562607 53.1872704,1.45565093 53.6273374,2.38579255 C53.9173816,2.99588544 53.9473862,3.14590828 53.9473862,4.01604076 C53.9473862,4.91617781 53.9273831,5.00619152 53.5773298,5.72630116 C53.1272613,6.63643973 52.5371714,7.20652653 51.6270329,7.62659049 C50.9869354,7.92663617 50.9069232,7.93663769 49.0566415,8.01664988 C48.9866309,8.01931695 48.9160868,8.02211738 48.845276,8.02503041 L48.4193445,8.04369399 C47.5696151,8.08305999 46.7582916,8.13266754 46.4462441,8.1566712 C39.155134,8.80677018 32.3941046,11.2071356 26.3931909,15.2877569 C21.2624097,18.7682869 16.8617397,23.4790041 13.7212615,28.8398203 C9.57062956,35.950903 7.52031739,44.5122065 8.09040419,52.3634019 C8.70049708,60.5746521 11.4309128,67.9657775 16.2916529,74.5667825 C18.4019742,77.4372195 21.3424219,80.4176733 24.3428787,82.7680312 C25.4530477,83.6281621 28.0134376,85.3384225 29.2436249,86.0385291 C41.2254492,92.8295631 55.8176709,93.3296392 68.1895546,87.3587301 C70.0498378,86.4585931 71.1500054,85.8485002 72.8302612,84.7483327 L72.8302612,84.7483327 L74.1104561,83.9182063 L79.5812891,85.7084789 C89.1622933,88.8538441 89.9311022,89.1150861 89.8996281,88.9812224 L89.8955548,88.9697176 C89.8900781,88.9574643 89.880847,88.9431072 89.8719635,88.9279205 L89.8594118,88.9046776 C89.8569083,88.8994451 89.8546714,88.8941912 89.852853,88.8889631 C89.8328499,88.828954 88.7126794,85.328421 87.3624738,81.1177799 C85.8122378,76.2570398 84.9321038,73.3365952 84.9421053,73.1165617 C84.9521068,72.8965282 85.1121312,72.5464749 85.3621692,72.166417 C87.1724449,69.4760074 89.1227418,65.2453633 90.1929047,61.7048242 C91.2630677,58.1442821 91.7731453,55.04381 91.9931788,50.6931476 C92.073191,49.1329101 92.1031956,48.9828872 92.3832382,48.3727943 C92.8033022,47.4626557 93.3833905,46.8825674 94.2835276,46.4324989 C95.0036372,46.0824456 95.0936509,46.0624426 95.993788,46.0624426 C96.8639204,46.0624426 97.0139433,46.0924471 97.6240362,46.3824913 C98.5541778,46.8225583 99.1342661,47.3826436 99.5843346,48.2927821 L99.5843346,48.2927821 L99.954391,49.0528979 L99.9443895,51.0131963 C99.9143849,58.9344024 97.5240209,67.7157394 93.5134103,74.6467947 L93.5134103,74.6467947 L93.0033326,75.5269287 L95.5437194,82.9980662 C96.9339311,87.1086921 98.214126,90.8992692 98.3941534,91.4193484 C99.4043072,94.4998174 99.1742722,96.2100778 97.5040179,97.9203382 C96.7439022,98.700457 96.2738306,98.910489 95.0536448,98.9905011 C94.9836342,98.9950473 94.9156899,98.9990768 94.8489198,99.0023399 L94.7166806,99.0077701 C93.3827889,99.051082 92.2883753,98.70864 83.9319515,95.8800276 L83.9319515,95.8800276 L75.5006678,93.0295936 L74.6305353,93.5396712 C72.520214,94.759857 69.2197115,96.2700869 66.5993125,97.190227 C57.38791,100.450723 46.9363187,100.89079 37.4448736,98.4204143 C26.8132548,95.6499925 17.4318265,89.4890545 10.6207895,80.8177342 C0.399233162,67.78575 -2.67123433,50.5831309 2.39953772,34.6607066 C3.68973416,30.5900868 5.89006917,26.0393939 8.3604453,22.328829 C11.5909372,17.4780904 15.931598,12.9674037 20.6423153,9.54688286 C28.2434726,4.02604228 37.1648309,0.785548902 46.5962669,0.115446875 C47.286372,0.065439261 48.5465639,0.0354346927 49.4066948,0.0354346927 L49.4066948,0.0354346927 Z M78.8111718,0.165454489 C81.321554,-0.514649061 83.9819591,1.08559459 84.6520611,3.67598899 C84.7600776,4.0990534 84.7951829,4.99198936 84.8011238,8.46921878 L84.8018514,9.07304822 C84.8020089,9.28254262 84.802084,9.50037578 84.802084,9.72691027 L84.802084,15.2077448 L90.2829184,15.2077448 C90.3961857,15.2077448 90.5072776,15.2077635 90.6162395,15.207802 L91.5406099,15.2087049 C95.0178394,15.2146458 95.9107753,15.2497512 96.3338397,15.3577676 C98.0641032,15.8078361 99.4043072,17.1380387 99.8543758,18.8583006 C100.504475,21.3686828 98.9142326,23.9890818 96.3538428,24.6591838 C95.8903576,24.7796899 95.023075,24.8056903 91.235753,24.8088501 L84.802084,24.8092066 L84.8020268,30.6233622 C84.8019883,30.7323241 84.8019302,30.839156 84.8018514,30.9439032 L84.8011238,31.5477326 C84.7951829,35.024962 84.7600776,35.917898 84.6520611,36.3409624 C84.2019926,38.0712259 82.8717901,39.4114299 81.1515281,39.8614984 C78.6411459,40.5115974 76.020747,38.9213553 75.3506449,36.3409624 C75.2366276,35.8943944 75.2038476,34.9242967 75.2008546,30.9439032 L75.2006221,24.8092066 L68.7669531,24.8088501 C64.979631,24.8056903 64.1123485,24.7796899 63.6488633,24.6591838 C61.0884734,23.9890818 59.4982313,21.3686828 60.1483303,18.8783036 C60.5983988,17.1480402 61.9286013,15.8078361 63.6488633,15.3577676 C64.1001515,15.2404327 64.9342642,15.2126949 68.4739747,15.2083995 L69.3895844,15.2077818 L69.3895844,15.2077818 L69.7197876,15.2077448 L75.2006221,15.2077448 L75.2008546,9.07304822 C75.2038476,5.09265468 75.2366276,4.12255698 75.3506449,3.67598899 C75.8007135,1.96572859 77.1209145,0.615523014 78.8111718,0.165454489 Z" id="Colour" fill="#000000"></path>
    </g>
</svg>