<?xml version="1.0" encoding="UTF-8"?>
<svg width="100px" height="100px" viewBox="0 0 100 100" version="1.1" xmlns="http://www.w3.org/2000/svg" xmlns:xlink="http://www.w3.org/1999/xlink">
    <title>Speech Bubble</title>
    <g id="Speech-Bubble" stroke="none" stroke-width="1" fill="none" fill-rule="evenodd">
        <path d="M50,100 C59.3146043,100 68.0343172,97.4529668 75.5006584,93.0173806 C83.0086622,95.5386375 88.5074919,97.3995107 91.9971474,98.6 C94.8862972,99.3533496 96.7928565,99.0499553 97.7168254,97.6898172 C99.0734435,96.3087107 99.3620341,94.415011 98.5825971,92.0087178 C98.5825971,91.9181819 96.7221964,86.4244585 93.0013949,75.5275477 C97.4468466,68.055256 100,59.3257885 100,50 C100,22.3857625 77.6142375,0 50,0 C22.3857625,0 0,22.3857625 0,50 C0,77.6142375 22.3857625,100 50,100 Z" id="Shadow"></path>
        <path d="M50,100 C59.3146043,100 68.0343172,97.4529668 75.5006584,93.0173806 C83.0086622,95.5386375 88.5074919,97.3995107 91.9971474,98.6 C94.8862972,99.3533496 96.7928565,99.0499553 97.7168254,97.6898172 C99.0734435,96.3087107 99.3620341,94.415011 98.5825971,92.0087178 C98.5825971,91.9181819 96.7221964,86.4244585 93.0013949,75.5275477 C97.4468466,68.055256 100,59.3257885 100,50 C100,22.3857625 77.6142375,0 50,0 C22.3857625,0 0,22.3857625 0,50 C0,77.6142375 22.3857625,100 50,100 Z" id="Colour" fill="#000000"></path>
    </g>
</svg>