<?xml version="1.0" encoding="UTF-8"?>
<svg width="100px" height="100px" viewBox="0 0 100 100" version="1.1" xmlns="http://www.w3.org/2000/svg" xmlns:xlink="http://www.w3.org/1999/xlink">
    <title>Spotify</title>
    <g id="Spotify" stroke="none" stroke-width="1" fill="none" fill-rule="evenodd">
        <path d="M49.999625,0 C22.386056,0 0,22.386056 0,49.999625 C0,77.613944 22.386056,99.9985 49.999625,99.9985 C77.616194,99.9985 100,77.614694 100,49.999625 C100,22.387556 77.616194,0.0030000075 49.998875,0.0030000075 L49.999625,0 L49.999625,0 Z M72.9294323,72.1141803 C72.0339301,73.582684 70.1116753,74.0491851 68.6424216,73.1469329 C56.9033923,65.9761649 42.1246053,64.3524109 24.7200618,68.3289208 C23.0430576,68.7106718 21.3713034,67.6599191 20.9888025,65.982165 C20.6048015,64.3044108 21.6518041,62.6326566 23.3333083,62.2509056 C42.3796059,57.8993947 58.7168968,59.7728994 71.8966797,67.8271696 C73.3659334,68.7286718 73.8316846,70.6449266 72.9294323,72.1141803 Z M79.0494476,58.5001463 C77.9206948,60.3339008 75.5206888,60.9129023 73.6876842,59.7848995 C60.2476506,51.5236288 39.7613494,49.1311228 23.8643097,53.9573849 C21.8025545,54.5798864 19.6252991,53.4181335 18.9997975,51.3601284 C18.3787959,49.2983732 19.5412989,47.1256178 21.599304,46.4986162 C39.7575994,40.9891025 62.3319058,43.6576091 77.7661944,53.1421329 C79.599199,54.2708857 80.1782004,56.6708917 79.0501976,58.5016463 L79.0501976,58.5008963 L79.0494476,58.5001463 Z M79.5751989,44.3236108 C63.4599086,34.7520869 36.8730922,33.8723347 21.4875537,38.5418464 C19.0170475,39.2910982 16.404041,37.8968447 15.6555391,35.4255886 C14.9070373,32.9535824 16.3005408,30.3428259 18.7725469,29.592074 C36.4343411,24.2303106 65.7946645,25.2660632 84.3482109,36.2805907 C86.5749664,37.599844 87.3039683,40.4693512 85.983965,42.6886067 C84.6699617,44.9108623 81.7922045,45.6436141 79.5774489,44.3236108 L79.5751989,44.3236108 L79.5751989,44.3236108 Z" id="Shadow" fill="#000000"></path>
        <path d="M49.999625,0 C22.386056,0 0,22.386056 0,49.999625 C0,77.613944 22.386056,99.9985 49.999625,99.9985 C77.616194,99.9985 100,77.614694 100,49.999625 C100,22.387556 77.616194,0.0030000075 49.998875,0.0030000075 L49.999625,0 L49.999625,0 Z M72.9294323,72.1141803 C72.0339301,73.582684 70.1116753,74.0491851 68.6424216,73.1469329 C56.9033923,65.9761649 42.1246053,64.3524109 24.7200618,68.3289208 C23.0430576,68.7106718 21.3713034,67.6599191 20.9888025,65.982165 C20.6048015,64.3044108 21.6518041,62.6326566 23.3333083,62.2509056 C42.3796059,57.8993947 58.7168968,59.7728994 71.8966797,67.8271696 C73.3659334,68.7286718 73.8316846,70.6449266 72.9294323,72.1141803 Z M79.0494476,58.5001463 C77.9206948,60.3339008 75.5206888,60.9129023 73.6876842,59.7848995 C60.2476506,51.5236288 39.7613494,49.1311228 23.8643097,53.9573849 C21.8025545,54.5798864 19.6252991,53.4181335 18.9997975,51.3601284 C18.3787959,49.2983732 19.5412989,47.1256178 21.599304,46.4986162 C39.7575994,40.9891025 62.3319058,43.6576091 77.7661944,53.1421329 C79.599199,54.2708857 80.1782004,56.6708917 79.0501976,58.5016463 L79.0501976,58.5008963 L79.0494476,58.5001463 Z M79.5751989,44.3236108 C63.4599086,34.7520869 36.8730922,33.8723347 21.4875537,38.5418464 C19.0170475,39.2910982 16.404041,37.8968447 15.6555391,35.4255886 C14.9070373,32.9535824 16.3005408,30.3428259 18.7725469,29.592074 C36.4343411,24.2303106 65.7946645,25.2660632 84.3482109,36.2805907 C86.5749664,37.599844 87.3039683,40.4693512 85.983965,42.6886067 C84.6699617,44.9108623 81.7922045,45.6436141 79.5774489,44.3236108 L79.5751989,44.3236108 L79.5751989,44.3236108 Z" id="Colour" fill="#000000"></path>
    </g>
</svg>