<?xml version="1.0" encoding="UTF-8"?>
<svg width="100px" height="100px" viewBox="0 0 100 100" version="1.1" xmlns="http://www.w3.org/2000/svg" xmlns:xlink="http://www.w3.org/1999/xlink">
    <title>Tagged 1</title>
    <g id="Tagged-1" stroke="none" stroke-width="1" fill="none" fill-rule="evenodd">
        <path d="M94.1517857,83.7276786 C88.8169643,89.375 82.4776786,93.5044643 75.1339286,96.09375 C67.7901786,98.7053571 60.0446429,100 51.8973214,100 C44.1071429,100 37.0089286,98.7723214 30.625,96.2946429 C24.2410714,93.8392857 18.7723214,90.4017857 14.2633929,86.0044643 C9.73214286,81.6071429 6.22767857,76.3392857 3.72767857,70.2008929 C1.22767857,64.0625 0,57.3660714 0,50.1116071 C0,42.9464286 1.36160714,36.3169643 4.08482143,30.2232143 C6.80803571,24.1294643 10.5133929,18.8392857 15.2232143,14.3526786 C19.9330357,9.86607143 25.4241071,6.36160714 31.7410714,3.79464286 C38.0133929,1.27232143 44.7544643,0 51.8973214,0 C58.0580357,0 64.0401786,0.892857143 69.8214286,2.67857143 C75.625,4.46428571 80.7589286,7.16517857 85.2455357,10.7366071 C89.7321429,14.3303571 93.3035714,18.7946429 95.9821429,24.1741071 C98.6607143,29.5535714 100,35.8705357 100,43.125 C100,48.5044643 99.2633929,53.2589286 97.7678571,57.3660714 C96.2723214,61.4955357 94.2857143,64.9330357 91.7857143,67.7232143 C89.2857143,70.5133929 86.4508929,72.5892857 83.2366071,73.9732143 C80.0223214,75.3571429 76.6517857,76.0491071 73.125,76.0491071 C69.5089286,76.0491071 66.6071429,75.2008929 64.4196429,73.5044643 C62.2544643,71.8080357 61.1607143,69.6428571 61.1607143,67.0535714 L60.4910714,67.0535714 C59.1294643,69.1964286 57.0535714,71.25 54.2410714,73.1696429 C51.4285714,75.0892857 47.9910714,76.0714286 43.90625,76.0714286 C37.7455357,76.0714286 32.9910714,74.0625 29.6428571,70.0223214 C26.2946429,65.9821429 24.6205357,60.7589286 24.6205357,54.2857143 C24.6205357,50.5133929 25.2455357,46.8080357 26.5178571,43.125 C27.7901786,39.4419643 29.5982143,36.1830357 31.9419643,33.3035714 C34.2857143,30.4464286 37.0982143,28.125 40.3571429,26.3839286 C43.6160714,24.6428571 47.2321429,23.7723214 51.2276786,23.7723214 C54.6651786,23.7723214 57.5669643,24.4866071 59.9330357,25.9151786 C62.2767857,27.34375 63.8169643,29.1071429 64.5535714,31.1607143 L64.6875,31.1607143 L65.78125,25.78125 L77.8794643,25.78125 L72.5446429,51.2053571 C72.3660714,52.4553571 72.1205357,53.8392857 71.8080357,55.3794643 C71.4955357,56.8973214 71.3392857,58.3258929 71.3392857,59.6875 C71.3392857,61.2053571 71.6294643,62.4776786 72.2321429,63.5267857 C72.8125,64.5535714 73.9732143,65.0669643 75.6919643,65.0669643 C79.21875,65.0669643 82.1428571,63.1919643 84.4642857,59.4196429 C86.7633929,55.6473214 87.9241071,50.6026786 87.9241071,44.2410714 C87.9241071,38.8616071 87.0089286,34.0848214 85.2008929,29.9330357 C83.3928571,25.7589286 80.8705357,22.2767857 77.65625,19.4419643 C74.4419643,16.6294643 70.6026786,14.4866071 66.1830357,13.0580357 C61.7410714,11.6294643 56.8973214,10.9151786 51.6517857,10.9151786 C45.9375,10.9151786 40.7142857,11.9196429 35.9598214,13.9285714 C31.2053571,15.9375 27.1428571,18.7276786 23.7946429,22.2544643 C20.4464286,25.8035714 17.8348214,29.9553571 15.9821429,34.7544643 C14.1071429,39.53125 13.1696429,44.7098214 13.1696429,50.2678571 C13.1696429,56.1830357 14.1517857,61.5178571 16.09375,66.2723214 C18.0357143,71.0267857 20.78125,75.0669643 24.3080357,78.4375 C27.8348214,81.8080357 32.0535714,84.375 36.9419643,86.1607143 C41.8303571,87.9464286 47.2321429,88.8392857 53.1026786,88.8392857 C60.4464286,88.8392857 66.7633929,87.6785714 72.0535714,85.3348214 C77.34375,83.0133929 82.2098214,79.7767857 86.6517857,75.6473214 L94.1517857,83.7276786 Z M51.6294643,34.8214286 C49.4642857,34.8214286 47.5446429,35.4464286 45.9151786,36.6964286 C44.2857143,37.9464286 42.9017857,39.53125 41.7633929,41.4732143 C40.625,43.3928571 39.7767857,45.5357143 39.1741071,47.8571429 C38.59375,50.1785714 38.28125,52.4330357 38.28125,54.5758929 C38.28125,55.6473214 38.3928571,56.7857143 38.6160714,58.0133929 C38.8392857,59.21875 39.2857143,60.3348214 39.9776786,61.3839286 C40.6473214,62.4107143 41.5401786,63.2589286 42.6339286,63.9285714 C43.7276786,64.5982143 45.1785714,64.9330357 46.9866071,64.9330357 C49.4419643,64.9330357 51.5178571,64.3303571 53.2366071,63.125 C54.9553571,61.9196429 56.3616071,60.4017857 57.4553571,58.5491071 C58.5491071,56.71875 59.3303571,54.7098214 59.84375,52.5669643 C60.3348214,50.4241071 60.5803571,48.4375 60.5803571,46.6517857 C60.5803571,45.2232143 60.4464286,43.8169643 60.1785714,42.4107143 C59.9107143,41.0267857 59.4419643,39.7767857 58.75,38.6383929 C58.0803571,37.5223214 57.1428571,36.6071429 55.9598214,35.8928571 C54.7991071,35.1785714 53.3482143,34.8214286 51.6294643,34.8214286 L51.6294643,34.8214286 Z" id="Shadow"></path>
        <path d="M94.1517857,83.7276786 C88.8169643,89.375 82.4776786,93.5044643 75.1339286,96.09375 C67.7901786,98.7053571 60.0446429,100 51.8973214,100 C44.1071429,100 37.0089286,98.7723214 30.625,96.2946429 C24.2410714,93.8392857 18.7723214,90.4017857 14.2633929,86.0044643 C9.73214286,81.6071429 6.22767857,76.3392857 3.72767857,70.2008929 C1.22767857,64.0625 0,57.3660714 0,50.1116071 C0,42.9464286 1.36160714,36.3169643 4.08482143,30.2232143 C6.80803571,24.1294643 10.5133929,18.8392857 15.2232143,14.3526786 C19.9330357,9.86607143 25.4241071,6.36160714 31.7410714,3.79464286 C38.0133929,1.27232143 44.7544643,0 51.8973214,0 C58.0580357,0 64.0401786,0.892857143 69.8214286,2.67857143 C75.625,4.46428571 80.7589286,7.16517857 85.2455357,10.7366071 C89.7321429,14.3303571 93.3035714,18.7946429 95.9821429,24.1741071 C98.6607143,29.5535714 100,35.8705357 100,43.125 C100,48.5044643 99.2633929,53.2589286 97.7678571,57.3660714 C96.2723214,61.4955357 94.2857143,64.9330357 91.7857143,67.7232143 C89.2857143,70.5133929 86.4508929,72.5892857 83.2366071,73.9732143 C80.0223214,75.3571429 76.6517857,76.0491071 73.125,76.0491071 C69.5089286,76.0491071 66.6071429,75.2008929 64.4196429,73.5044643 C62.2544643,71.8080357 61.1607143,69.6428571 61.1607143,67.0535714 L60.4910714,67.0535714 C59.1294643,69.1964286 57.0535714,71.25 54.2410714,73.1696429 C51.4285714,75.0892857 47.9910714,76.0714286 43.90625,76.0714286 C37.7455357,76.0714286 32.9910714,74.0625 29.6428571,70.0223214 C26.2946429,65.9821429 24.6205357,60.7589286 24.6205357,54.2857143 C24.6205357,50.5133929 25.2455357,46.8080357 26.5178571,43.125 C27.7901786,39.4419643 29.5982143,36.1830357 31.9419643,33.3035714 C34.2857143,30.4464286 37.0982143,28.125 40.3571429,26.3839286 C43.6160714,24.6428571 47.2321429,23.7723214 51.2276786,23.7723214 C54.6651786,23.7723214 57.5669643,24.4866071 59.9330357,25.9151786 C62.2767857,27.34375 63.8169643,29.1071429 64.5535714,31.1607143 L64.6875,31.1607143 L65.78125,25.78125 L77.8794643,25.78125 L72.5446429,51.2053571 C72.3660714,52.4553571 72.1205357,53.8392857 71.8080357,55.3794643 C71.4955357,56.8973214 71.3392857,58.3258929 71.3392857,59.6875 C71.3392857,61.2053571 71.6294643,62.4776786 72.2321429,63.5267857 C72.8125,64.5535714 73.9732143,65.0669643 75.6919643,65.0669643 C79.21875,65.0669643 82.1428571,63.1919643 84.4642857,59.4196429 C86.7633929,55.6473214 87.9241071,50.6026786 87.9241071,44.2410714 C87.9241071,38.8616071 87.0089286,34.0848214 85.2008929,29.9330357 C83.3928571,25.7589286 80.8705357,22.2767857 77.65625,19.4419643 C74.4419643,16.6294643 70.6026786,14.4866071 66.1830357,13.0580357 C61.7410714,11.6294643 56.8973214,10.9151786 51.6517857,10.9151786 C45.9375,10.9151786 40.7142857,11.9196429 35.9598214,13.9285714 C31.2053571,15.9375 27.1428571,18.7276786 23.7946429,22.2544643 C20.4464286,25.8035714 17.8348214,29.9553571 15.9821429,34.7544643 C14.1071429,39.53125 13.1696429,44.7098214 13.1696429,50.2678571 C13.1696429,56.1830357 14.1517857,61.5178571 16.09375,66.2723214 C18.0357143,71.0267857 20.78125,75.0669643 24.3080357,78.4375 C27.8348214,81.8080357 32.0535714,84.375 36.9419643,86.1607143 C41.8303571,87.9464286 47.2321429,88.8392857 53.1026786,88.8392857 C60.4464286,88.8392857 66.7633929,87.6785714 72.0535714,85.3348214 C77.34375,83.0133929 82.2098214,79.7767857 86.6517857,75.6473214 L94.1517857,83.7276786 Z M51.6294643,34.8214286 C49.4642857,34.8214286 47.5446429,35.4464286 45.9151786,36.6964286 C44.2857143,37.9464286 42.9017857,39.53125 41.7633929,41.4732143 C40.625,43.3928571 39.7767857,45.5357143 39.1741071,47.8571429 C38.59375,50.1785714 38.28125,52.4330357 38.28125,54.5758929 C38.28125,55.6473214 38.3928571,56.7857143 38.6160714,58.0133929 C38.8392857,59.21875 39.2857143,60.3348214 39.9776786,61.3839286 C40.6473214,62.4107143 41.5401786,63.2589286 42.6339286,63.9285714 C43.7276786,64.5982143 45.1785714,64.9330357 46.9866071,64.9330357 C49.4419643,64.9330357 51.5178571,64.3303571 53.2366071,63.125 C54.9553571,61.9196429 56.3616071,60.4017857 57.4553571,58.5491071 C58.5491071,56.71875 59.3303571,54.7098214 59.84375,52.5669643 C60.3348214,50.4241071 60.5803571,48.4375 60.5803571,46.6517857 C60.5803571,45.2232143 60.4464286,43.8169643 60.1785714,42.4107143 C59.9107143,41.0267857 59.4419643,39.7767857 58.75,38.6383929 C58.0803571,37.5223214 57.1428571,36.6071429 55.9598214,35.8928571 C54.7991071,35.1785714 53.3482143,34.8214286 51.6294643,34.8214286 L51.6294643,34.8214286 Z" id="Colour" fill="#000000"></path>
    </g>
</svg>