<?xml version="1.0" encoding="UTF-8"?>
<svg width="100px" height="100px" viewBox="0 0 100 100" version="1.1" xmlns="http://www.w3.org/2000/svg" xmlns:xlink="http://www.w3.org/1999/xlink">
    <title>Tagged 2</title>
    <g id="Tagged-2" stroke="none" stroke-width="1" fill="none" fill-rule="evenodd">
        <path d="M50.0066833,8.18917631e-05 C51.3358715,-0.00751921155 52.6134289,0.514300023 53.5571461,1.4503546 L53.5571461,1.4503546 L95.6126275,43.5558425 L95.6126275,43.8058751 C101.462458,49.6629895 101.462458,59.1515243 95.6126275,65.0086386 L95.6126275,65.0086386 L64.758606,95.6126275 C58.9014917,101.462458 49.4129569,101.462458 43.5558425,95.6126275 L43.5558425,95.6126275 L1.4503546,53.5571461 C0.514300023,52.6134289 -0.00751921155,51.3358715 8.18917636e-05,50.0066833 L8.18917636e-05,50.0066833 L8.18917636e-05,5.00081736 C8.18917636e-05,2.23903364 2.23903364,8.18917631e-05 5.00081736,8.18917631e-05 L5.00081736,8.18917631e-05 Z M30.0027727,20.0027727 C24.4799252,20.0027727 20.0027727,24.4799252 20.0027727,30.0027727 C20.0027727,35.5256202 24.4799252,40.0027727 30.0027727,40.0027727 C35.5256202,40.0027727 40.0027727,35.5256202 40.0027727,30.0027727 C40.0027727,24.4799252 35.5256202,20.0027727 30.0027727,20.0027727 Z" id="Shadow"></path>
        <path d="M50.0066833,8.18917631e-05 C51.3358715,-0.00751921155 52.6134289,0.514300023 53.5571461,1.4503546 L53.5571461,1.4503546 L95.6126275,43.5558425 L95.6126275,43.8058751 C101.462458,49.6629895 101.462458,59.1515243 95.6126275,65.0086386 L95.6126275,65.0086386 L64.758606,95.6126275 C58.9014917,101.462458 49.4129569,101.462458 43.5558425,95.6126275 L43.5558425,95.6126275 L1.4503546,53.5571461 C0.514300023,52.6134289 -0.00751921155,51.3358715 8.18917633e-05,50.0066833 L8.18917633e-05,50.0066833 L8.18917633e-05,5.00081736 C8.18917633e-05,2.23903364 2.23903364,8.18917631e-05 5.00081736,8.18917631e-05 L5.00081736,8.18917631e-05 Z M30.0027727,20.0027727 C24.4799252,20.0027727 20.0027727,24.4799252 20.0027727,30.0027727 C20.0027727,35.5256202 24.4799252,40.0027727 30.0027727,40.0027727 C35.5256202,40.0027727 40.0027727,35.5256202 40.0027727,30.0027727 C40.0027727,24.4799252 35.5256202,20.0027727 30.0027727,20.0027727 Z" id="Colour" fill="#000000"></path>
    </g>
</svg>