<?xml version="1.0" encoding="UTF-8"?><svg version="1.1" width="100px" height="100px" viewBox="0 0 100.0 100.0" xmlns="http://www.w3.org/2000/svg" xmlns:xlink="http://www.w3.org/1999/xlink"><defs><clipPath id="i0"><path d="M72.5222312,-2.13162821e-14 C89.5957963,-2.13162821e-14 100,13.2 100,34.4307692 L100,34.5230769 C100,55.7538462 89.5957963,69 72.5222312,69 C55.4486661,69 45,55.7538462 45,34.5230769 L45,34.4307692 C45,13.2 55.4486661,-2.13162821e-14 72.5222312,-2.13162821e-14 Z M33,1 L33,68 L17,68 L17,16 L16,16 L0,27 L0,13 L17,1 L33,1 Z M72.0222222,13 C64.9555556,13 61,20.7502714 61,34.4299674 L61,34.5233442 C61,48.2030402 64.9555556,56 72.0222222,56 C79.0888889,56 83,48.2030402 83,34.5233442 L83,34.4299674 C83,20.7502714 79.0888889,13 72.0222222,13 Z"></path></clipPath></defs><g transform="translate(0.0 16.0)"><g clip-path="url(#i0)"><polygon points="0,-2.13162821e-14 100,-2.13162821e-14 100,69 0,69 0,-2.13162821e-14" stroke="none" fill="#000000"></polygon></g></g></svg>