<?xml version="1.0" encoding="UTF-8"?>
<svg width="100px" height="100px" viewBox="0 0 100 100" version="1.1" xmlns="http://www.w3.org/2000/svg" xmlns:xlink="http://www.w3.org/1999/xlink">
    <title>Tick</title>
    <g id="Tick" stroke="none" stroke-width="1" fill="none" fill-rule="evenodd">
        <path d="M82.9289322,16.9289322 C86.8341751,13.0236893 93.1658249,13.0236893 97.0710678,16.9289322 C100.905306,20.7631707 100.97502,26.9363852 97.2802081,30.8556774 L97.0710678,31.0710678 L44.0710678,84.0710678 C40.2368293,87.9053063 34.0636148,87.9750197 30.1443226,84.2802081 L29.9289322,84.0710678 L2.92893219,57.0710678 C-0.976310729,53.1658249 -0.976310729,46.8341751 2.92893219,42.9289322 C6.76317069,39.0946937 12.9363852,39.0249803 16.8556774,42.7197919 L17.0710678,42.9289322 L37,62.857 L82.9289322,16.9289322 Z" id="Shadow"></path>
        <path d="M82.9289322,16.9289322 C86.8341751,13.0236893 93.1658249,13.0236893 97.0710678,16.9289322 C100.905306,20.7631707 100.97502,26.9363852 97.2802081,30.8556774 L97.0710678,31.0710678 L44.0710678,84.0710678 C40.2368293,87.9053063 34.0636148,87.9750197 30.1443226,84.2802081 L29.9289322,84.0710678 L2.92893219,57.0710678 C-0.976310729,53.1658249 -0.976310729,46.8341751 2.92893219,42.9289322 C6.76317069,39.0946937 12.9363852,39.0249803 16.8556774,42.7197919 L17.0710678,42.9289322 L37,62.857 L82.9289322,16.9289322 Z" id="Colour" fill="#000000"></path>
    </g>
</svg>