<?xml version="1.0" encoding="UTF-8"?>
<svg width="100px" height="100px" viewBox="0 0 100 100" version="1.1" xmlns="http://www.w3.org/2000/svg" xmlns:xlink="http://www.w3.org/1999/xlink">
    <title>Tick Circle</title>
    <g id="Tick-Circle" stroke="none" stroke-width="1" fill="none" fill-rule="evenodd">
        <path d="M50,0 C77.6142375,0 100,22.3857625 100,50 C100,77.6142375 77.6142375,100 50,100 C22.3857625,100 0,77.6142375 0,50 C0,22.3857625 22.3857625,0 50,0 Z M73.5023386,33.4315796 C71.5315544,31.4972914 68.3658677,31.5268772 66.4315796,33.4976614 L66.4315796,33.4976614 L43.4999986,56.861 L33.5684204,46.7429444 L33.3892513,46.5691305 C31.4433697,44.7721705 28.4087249,44.8011892 26.4976614,46.6768626 C24.5268772,48.6111508 24.4972914,51.7768374 26.4315796,53.7476216 L26.4315796,53.7476216 L39.9315796,67.5023386 L40.1077106,67.6733518 C42.0796321,69.4974931 45.166162,69.4404887 47.0684204,67.5023386 L47.0684204,67.5023386 L73.5684204,40.5023386 L73.7388553,40.3199522 C75.499133,38.3408254 75.413402,35.307253 73.5023386,33.4315796 Z" id="Shadow"></path>
        <path d="M50,0 C77.6142375,0 100,22.3857625 100,50 C100,77.6142375 77.6142375,100 50,100 C22.3857625,100 0,77.6142375 0,50 C0,22.3857625 22.3857625,0 50,0 Z M73.5023386,33.4315796 C71.5315544,31.4972914 68.3658677,31.5268772 66.4315796,33.4976614 L66.4315796,33.4976614 L43.4999986,56.861 L33.5684204,46.7429444 L33.3892513,46.5691305 C31.4433697,44.7721705 28.4087249,44.8011892 26.4976614,46.6768626 C24.5268772,48.6111508 24.4972914,51.7768374 26.4315796,53.7476216 L26.4315796,53.7476216 L39.9315796,67.5023386 L40.1077106,67.6733518 C42.0796321,69.4974931 45.166162,69.4404887 47.0684204,67.5023386 L47.0684204,67.5023386 L73.5684204,40.5023386 L73.7388553,40.3199522 C75.499133,38.3408254 75.413402,35.307253 73.5023386,33.4315796 Z" id="Colour" fill="#000000"></path>
    </g>
</svg>