<?xml version="1.0" encoding="UTF-8"?>
<svg width="100px" height="100px" viewBox="0 0 100 100" version="1.1" xmlns="http://www.w3.org/2000/svg" xmlns:xlink="http://www.w3.org/1999/xlink">
    <title>TikTok</title>
    <g id="TikTok" stroke="none" stroke-width="1" fill="none" fill-rule="evenodd">
        <path d="M78.5995305,19.9491492 C73.7491491,16.2918052 70.248269,10.9133581 69.0161157,4.73303344 C68.7031878,3.20751027 68.5467239,1.62331312 68.5271659,0 L52.1962448,0 L52.1962448,44.6117739 L52.1766868,69.0397027 C52.1766868,75.5720712 47.9130451,81.1069822 42.0260902,83.0627811 C40.3049872,83.6299628 38.4665362,83.9037747 36.5498532,83.7864268 C34.0855465,83.6495208 31.7972618,82.9063172 29.7827889,81.7132799 C25.5191472,79.1707412 22.6441227,74.5550557 22.5658908,69.2548406 C22.4485428,61.0013691 29.1178172,54.2538627 37.3712888,54.2538627 C38.9946019,54.2538627 40.559241,54.5276746 42.0260902,54.9970663 L42.0260902,42.8124389 L42.0260902,38.4510072 C40.4810091,38.2163114 38.9163699,38.0989634 37.3126148,38.0989634 C28.2768237,38.0989634 19.8277722,41.8540974 13.7843535,48.6211617 C9.22734196,53.725797 6.48922344,60.2581655 6.05894767,67.1034618 C5.51132396,76.0805789 8.79706619,84.6274203 15.1729707,90.9250929 C16.1117542,91.8443184 17.0896537,92.7048699 18.1262272,93.5067475 C23.5829062,97.7117152 30.2717386,100 37.3126148,100 C38.8968119,100 40.4810091,99.8826521 42.0260902,99.6479562 C48.5975747,98.6700567 54.6605514,95.6581263 59.4522588,90.9250929 C65.3392137,85.11637 68.5858399,77.3909642 68.6249559,69.1766086 L68.5467239,32.6814004 C71.3435164,34.8523372 74.4141208,36.6321142 77.719421,38.0207315 C82.8436142,40.1916683 88.2807353,41.2673577 93.8547623,41.2673577 L93.8547623,29.4152161 L93.8547623,25.0146685 C93.8743202,25.0342265 93.8156463,25.0342265 93.8156463,25.0342265 C88.1047134,25.0342265 82.8240562,23.1371015 78.5995305,19.9491492 Z" id="Shadow"></path>
        <path d="M78.5995305,19.9491492 C73.7491491,16.2918052 70.248269,10.9133581 69.0161157,4.73303344 C68.7031878,3.20751027 68.5467239,1.62331312 68.5271659,0 L52.1962448,0 L52.1962448,44.6117739 L52.1766868,69.0397027 C52.1766868,75.5720712 47.9130451,81.1069822 42.0260902,83.0627811 C40.3049872,83.6299628 38.4665362,83.9037747 36.5498532,83.7864268 C34.0855465,83.6495208 31.7972618,82.9063172 29.7827889,81.7132799 C25.5191472,79.1707412 22.6441227,74.5550557 22.5658908,69.2548406 C22.4485428,61.0013691 29.1178172,54.2538627 37.3712888,54.2538627 C38.9946019,54.2538627 40.559241,54.5276746 42.0260902,54.9970663 L42.0260902,42.8124389 L42.0260902,38.4510072 C40.4810091,38.2163114 38.9163699,38.0989634 37.3126148,38.0989634 C28.2768237,38.0989634 19.8277722,41.8540974 13.7843535,48.6211617 C9.22734196,53.725797 6.48922344,60.2581655 6.05894767,67.1034618 C5.51132396,76.0805789 8.79706619,84.6274203 15.1729707,90.9250929 C16.1117542,91.8443184 17.0896537,92.7048699 18.1262272,93.5067475 C23.5829062,97.7117152 30.2717386,100 37.3126148,100 C38.8968119,100 40.4810091,99.8826521 42.0260902,99.6479562 C48.5975747,98.6700567 54.6605514,95.6581263 59.4522588,90.9250929 C65.3392137,85.11637 68.5858399,77.3909642 68.6249559,69.1766086 L68.5467239,32.6814004 C71.3435164,34.8523372 74.4141208,36.6321142 77.719421,38.0207315 C82.8436142,40.1916683 88.2807353,41.2673577 93.8547623,41.2673577 L93.8547623,29.4152161 L93.8547623,25.0146685 C93.8743202,25.0342265 93.8156463,25.0342265 93.8156463,25.0342265 C88.1047134,25.0342265 82.8240562,23.1371015 78.5995305,19.9491492 Z" id="Colour" fill="#000000"></path>
    </g>
</svg>