<?xml version="1.0" encoding="UTF-8"?>
<svg width="100px" height="100px" viewBox="0 0 100 100" version="1.1" xmlns="http://www.w3.org/2000/svg" xmlns:xlink="http://www.w3.org/1999/xlink">
    <title>Twitter</title>
    <g id="Twitter" stroke="none" stroke-width="1" fill="none" fill-rule="evenodd">
        <path d="M100,18.5892637 C96.3208333,20.2172375 92.3666667,21.313628 88.2166667,21.8078343 C92.4541667,19.2786608 95.7083333,15.2710213 97.2375,10.4950779 C93.275,12.8373667 88.8833333,14.5400943 84.2083333,15.4579061 C80.4708333,11.4834906 75.1333333,9 69.2333333,9 C55.9875,9 46.2541667,21.317781 49.2458333,34.1048503 C32.2,33.2534865 17.0833333,25.1136177 6.9625,12.7418478 C1.5875,21.9324241 4.175,33.9553425 13.3083333,40.0436321 C9.95,39.9356542 6.78333333,39.0178425 4.02083333,37.4853876 C3.79583333,46.9583675 10.6083333,55.8208573 20.475,57.7935295 C17.5875,58.5742925 14.425,58.7570242 11.2083333,58.1423811 C13.8166667,66.2656378 21.3916667,72.1753486 30.375,72.3414684 C21.75,79.0817781 10.8833333,82.0926989 0,80.8135767 C9.07916667,86.6153097 19.8666667,90 31.45,90 C69.5416667,90 91.0625,57.9347313 89.7625,29.1752461 C93.7708333,26.2889151 97.25,22.6882691 100,18.5892637 Z" id="Shadow"></path>
        <path d="M100,18.5892637 C96.3208333,20.2172375 92.3666667,21.313628 88.2166667,21.8078343 C92.4541667,19.2786608 95.7083333,15.2710213 97.2375,10.4950779 C93.275,12.8373667 88.8833333,14.5400943 84.2083333,15.4579061 C80.4708333,11.4834906 75.1333333,9 69.2333333,9 C55.9875,9 46.2541667,21.317781 49.2458333,34.1048503 C32.2,33.2534865 17.0833333,25.1136177 6.9625,12.7418478 C1.5875,21.9324241 4.175,33.9553425 13.3083333,40.0436321 C9.95,39.9356542 6.78333333,39.0178425 4.02083333,37.4853876 C3.79583333,46.9583675 10.6083333,55.8208573 20.475,57.7935295 C17.5875,58.5742925 14.425,58.7570242 11.2083333,58.1423811 C13.8166667,66.2656378 21.3916667,72.1753486 30.375,72.3414684 C21.75,79.0817781 10.8833333,82.0926989 0,80.8135767 C9.07916667,86.6153097 19.8666667,90 31.45,90 C69.5416667,90 91.0625,57.9347313 89.7625,29.1752461 C93.7708333,26.2889151 97.25,22.6882691 100,18.5892637 Z" id="Colour" fill="#000000"></path>
    </g>
</svg>