<?xml version="1.0" encoding="UTF-8"?>
<svg width="100px" height="100px" viewBox="0 0 100 100" version="1.1" xmlns="http://www.w3.org/2000/svg" xmlns:xlink="http://www.w3.org/1999/xlink">
    <title>Uber</title>
    <g id="Uber" stroke="none" stroke-width="1" fill="none" fill-rule="evenodd">
        <g id="Shadow" transform="translate(0.000000, 33.000000)" fill="#000000">
            <path d="M5.75334042,24.7931557 C6.17592957,25.9146299 6.76099492,26.8735199 7.50864436,27.6698259 C8.25629379,28.4662398 9.14203721,29.0756874 10.1658746,29.4982765 C11.1898199,29.9208657 12.3030947,30.1321063 13.505807,30.1321063 C14.6760455,30.1321063 15.7730296,29.9126663 16.7969749,29.4737864 C17.8209202,29.0349065 18.714755,28.4173675 19.4785873,27.6210615 C20.2424197,26.8246476 20.8356843,25.8739569 21.2582735,24.7687735 C21.6808627,23.6635901 21.8921033,22.4285121 21.8921033,21.0632158 L21.8921033,0 L27.0116139,0 L27.0116139,34.1301428 L21.9408677,34.1301428 L21.9408677,30.960886 C20.8032107,32.1634903 19.4622966,33.0899067 17.9183411,33.7401352 C16.3742778,34.3901479 14.7085192,34.7152081 12.9207416,34.7152081 C11.1003825,34.7152081 9.40204228,34.3982393 7.82550531,33.7644095 C6.24907623,33.1305797 4.88377989,32.2286534 3.72993996,31.0584148 C2.57610003,29.8881762 1.66586651,28.4825306 0.999563062,26.8409384 C0.333151725,25.1994541 0,23.3711114 0,21.3556945 L0,0 L5.11951063,0 L5.11951063,21.0632158 C5.11951063,22.4285121 5.33075126,23.6716816 5.75334042,24.7931557 Z M35.8362507,0 L35.8362507,12.4330972 C36.9739078,11.2954402 38.2904397,10.3935139 39.7856307,9.72710256 C41.2808217,9.06069123 42.9061231,8.7275395 44.6613191,8.7275395 C46.4816783,8.7275395 48.188002,9.06878267 49.7808298,9.75137689 C51.3735496,10.4339711 52.7549209,11.3603875 53.9251595,12.5306261 C55.0953981,13.7008647 56.0218145,15.082236 56.7044088,16.6749559 C57.387003,18.2677836 57.7282462,19.9580324 57.7282462,21.74581 C57.7282462,23.5334797 57.387003,25.215637 56.7044088,26.7920661 C56.0218145,28.368603 55.0953981,29.7419908 53.9251595,30.9120136 C52.7549209,32.0822522 51.3735496,33.0086686 49.7808298,33.6912629 C48.188002,34.3738571 46.4815704,34.7151003 44.6613191,34.7151003 C42.9060152,34.7151003 41.2727302,34.3819485 39.7612485,33.7155372 C38.2497667,33.0492337 36.9251434,32.1471996 35.7874863,31.0095425 L35.7874863,34.1300349 L30.9117979,34.1300349 L30.9117979,0 L35.8362507,0 Z M36.3969339,25.1100167 C36.8357059,26.1502527 37.4452614,27.0603784 38.2253845,27.8405015 C39.0055076,28.6206246 39.9156332,29.2382715 40.9557614,29.6933343 C41.9959974,30.1483971 43.1173637,30.3759285 44.320076,30.3759285 C45.4903145,30.3759285 46.59539,30.1483971 47.6355182,29.6933343 C48.6756464,29.2382715 49.5775727,28.6207324 50.3416208,27.8405015 C51.1054531,27.0604862 51.7149007,26.1502527 52.1699635,25.1100167 C52.6250263,24.0698885 52.8525577,22.9485222 52.8525577,21.74581 C52.8525577,20.5430977 52.6250263,19.4135321 52.1699635,18.3571132 C51.7149007,17.3006942 51.1054531,16.3824772 50.3416208,15.6023541 C49.5776806,14.8223389 48.6757543,14.2127834 47.6355182,13.7740114 C46.5952821,13.3352393 45.4902067,13.1156915 44.320076,13.1156915 C43.1499452,13.1156915 42.0447619,13.3351314 41.0046337,13.7740114 C39.9645055,14.2128913 39.0543799,14.8223389 38.2741489,15.6023541 C37.4941337,16.3824772 36.8764868,17.3006942 36.421424,18.3571132 C35.9663612,19.4135321 35.7388297,20.5430977 35.7388297,21.74581 C35.7388297,22.9485222 35.9581618,24.0698885 36.3969339,25.1100167 Z M60.5069559,16.7238282 C61.1569686,15.163582 62.0510193,13.7903021 63.1885684,12.6038807 C64.3261176,11.4174592 65.675231,10.4829513 67.2354772,9.8003571 C68.7957234,9.11776288 70.4859721,8.77651971 72.3062234,8.77651971 C74.094001,8.77651971 75.7517761,9.10157999 77.2795486,9.75159267 C78.8072133,10.4017132 80.1236373,11.3037474 81.2288206,12.4576952 C82.334004,13.6115352 83.1954731,14.9768315 83.8129042,16.5532606 C84.4305511,18.1297976 84.7393206,19.8444285 84.7393206,21.6972613 L84.7393206,23.3062719 L64.5051003,23.3062719 C64.6676844,24.3139265 64.9927447,25.2484343 65.4802812,26.1096876 C65.9679255,26.9710488 66.5772652,27.7186982 67.3086239,28.352528 C68.0399825,28.9864657 68.8688701,29.4822015 69.7952865,29.8396276 C70.7217029,30.1971615 71.7048673,30.3760364 72.7451033,30.3760364 C75.7031195,30.3760364 78.0922533,29.1570334 79.9125045,26.7191352 L83.471769,29.3519832 C82.236583,31.0097583 80.7089184,32.3099994 78.8886671,33.2525987 C77.068308,34.195198 75.0205253,34.6665516 72.7452112,34.6665516 C70.8923784,34.6665516 69.1615646,34.3413834 67.5525539,33.6913707 C65.9435433,33.0413581 64.5458812,32.1311245 63.3594597,30.960886 C62.1730382,29.7906474 61.2385304,28.4173675 60.5559362,26.8409384 C59.8733419,25.2645093 59.5319908,23.5497705 59.5319908,21.6970455 C59.5319908,19.9418495 59.8569433,18.2840744 60.5069559,16.7238282 Z M67.3573883,14.7978488 C65.9759091,15.9517966 65.057692,17.4876605 64.6026292,19.4054407 L79.7662112,19.4054407 C79.3436221,17.4876605 78.4415879,15.9517966 77.0601086,14.7978488 C75.6786294,13.6440088 74.0615273,13.0670349 72.2088024,13.0670349 C70.3559696,13.0670349 68.7388675,13.6440088 67.3573883,14.7978488 Z M93.9541808,15.3585319 C92.9140527,16.4961889 92.3939347,18.0401444 92.3939347,19.990506 L92.3939347,34.1302507 L87.4693739,34.1302507 L87.4693739,9.2639483 L92.3450623,9.2639483 L92.3450623,12.3356763 C92.9627092,11.3280217 93.7672145,10.5316079 94.7585783,9.94654253 C95.749942,9.36136929 96.928272,9.06878267 98.2935684,9.06878267 L100,9.06878267 L100,13.6519924 L97.9522173,13.6519924 C96.3270238,13.6521003 94.994309,14.2208748 93.9541808,15.3585319 Z" id="Colour"></path>
        </g>
    </g>
</svg>