<?xml version="1.0" encoding="UTF-8"?>
<svg width="100px" height="100px" viewBox="0 0 100 100" version="1.1" xmlns="http://www.w3.org/2000/svg" xmlns:xlink="http://www.w3.org/1999/xlink">
    <title>Undo</title>
    <defs>
        <path d="M20.3949303,21.5739994 L14.4190283,16.0360416 C13.4480878,15.1361173 11.869623,15.2889159 11.1063489,16.4438353 L11.1063489,16.4438353 C10.8782153,16.7891205 10.7728844,17.2018753 10.7584077,17.6141339 L10.7584077,17.6141339 L10.0016232,38.8481812 C9.97716247,39.5278374 10.2292576,40.209478 10.7514189,40.648526 L10.7514189,40.648526 C11.2286524,41.0508626 11.8251943,41.2195364 12.4012691,41.1595084 L12.4012691,41.1595084 L33.7449886,38.9191234 C34.6280703,38.8263528 35.4153059,38.2474048 35.672393,37.4025475 L35.672393,37.4025475 C35.9229905,36.5795185 35.669897,35.7292041 35.0768495,35.1800221 L35.0768495,35.1800221 L29.701483,30.1986878 C40.2999606,20.1303501 57.1688672,20.0375795 67.8826596,30.3504942 L67.8826596,30.3504942 C78.5070956,40.5775837 79.0227674,57.6141339 69.0417979,68.462836 L69.0417979,68.462836 C65.1904836,72.6494189 60.338776,75.3710204 55.1875494,76.6043235 L55.1875494,76.6043235 C54.2280904,76.8340175 53.2586475,77.0121172 52.2827149,77.1381265 L52.2827149,77.1381265 C52.0171415,77.1723573 47.1769154,77.4615833 47.1769154,79.1909859 L47.1769154,79.1909859 C47.1769154,81.0067097 46.8659149,86.3368019 46.9193291,88.1599673 L46.9193291,88.1599673 C46.9612618,89.5931985 48.4094359,90 48.71195,90 L48.71195,90 C49.676401,90 50.6408519,89.965273 51.6033061,89.8968113 L51.6033061,89.8968113 C61.4410057,89.1948306 71.0455796,84.919942 78.2754676,77.1450719 L78.2754676,77.1450719 C93.3607389,60.923117 92.4187519,35.8100683 76.1628607,20.7460095 L76.1628607,20.7460095 C68.4058194,13.558025 58.5521455,10 48.721934,10 L48.721934,10 C38.447436,10 28.1983971,13.8859467 20.3949303,21.5739994 L20.3949303,21.5739994 Z" id="path-1"></path>
    </defs>
    <g id="Undo" stroke="none" stroke-width="1" fill="none" fill-rule="evenodd">
        <path d="M20.3949303,21.5739994 L14.4190283,16.0360416 C13.4480878,15.1361173 11.869623,15.2889159 11.1063489,16.4438353 L11.1063489,16.4438353 C10.8782153,16.7891205 10.7728844,17.2018753 10.7584077,17.6141339 L10.7584077,17.6141339 L10.0016232,38.8481812 C9.97716247,39.5278374 10.2292576,40.209478 10.7514189,40.648526 L10.7514189,40.648526 C11.2286524,41.0508626 11.8251943,41.2195364 12.4012691,41.1595084 L12.4012691,41.1595084 L33.7449886,38.9191234 C34.6280703,38.8263528 35.4153059,38.2474048 35.672393,37.4025475 L35.672393,37.4025475 C35.9229905,36.5795185 35.669897,35.7292041 35.0768495,35.1800221 L35.0768495,35.1800221 L29.701483,30.1986878 C40.2999606,20.1303501 57.1688672,20.0375795 67.8826596,30.3504942 L67.8826596,30.3504942 C78.5070956,40.5775837 79.0227674,57.6141339 69.0417979,68.462836 L69.0417979,68.462836 C65.1904836,72.6494189 60.338776,75.3710204 55.1875494,76.6043235 L55.1875494,76.6043235 C54.2280904,76.8340175 53.2586475,77.0121172 52.2827149,77.1381265 L52.2827149,77.1381265 C52.0171415,77.1723573 47.1769154,77.4615833 47.1769154,79.1909859 L47.1769154,79.1909859 C47.1769154,81.0067097 46.8659149,86.3368019 46.9193291,88.1599673 L46.9193291,88.1599673 C46.9612618,89.5931985 48.4094359,90 48.71195,90 L48.71195,90 C49.676401,90 50.6408519,89.965273 51.6033061,89.8968113 L51.6033061,89.8968113 C61.4410057,89.1948306 71.0455796,84.919942 78.2754676,77.1450719 L78.2754676,77.1450719 C93.3607389,60.923117 92.4187519,35.8100683 76.1628607,20.7460095 L76.1628607,20.7460095 C68.4058194,13.558025 58.5521455,10 48.721934,10 L48.721934,10 C38.447436,10 28.1983971,13.8859467 20.3949303,21.5739994 L20.3949303,21.5739994 Z" id="Shadow"></path>
        <mask id="mask-2" fill="white">
            <use xlink:href="#path-1"></use>
        </mask>
        <use id="Colour" fill="#000000" xlink:href="#path-1"></use>
    </g>
</svg>