<?xml version="1.0" encoding="UTF-8"?>
<svg width="100px" height="100px" viewBox="0 0 100 100" version="1.1" xmlns="http://www.w3.org/2000/svg" xmlns:xlink="http://www.w3.org/1999/xlink">
    <title>Video Camera</title>
    <g id="Video-Camera" stroke="none" stroke-width="1" fill="none" fill-rule="evenodd">
        <path d="M60.48,14 C66.8423203,14 72,19.1576797 72,25.52 L72,25.52 L71.999,33.725 L92.9887978,15.288969 C93.7285523,14.4830709 94.6721618,14 95.7,14 C98.0748244,14 100,16.5788398 100,19.76 L99.9999407,19.7905695 L100,80.24 L99.9962277,80.4834833 C99.9009774,83.5517129 98.0139315,86 95.7,86 C94.674753,86 93.7333106,85.5193617 92.9943965,84.7171199 L72,66.274 L72,74.48 C72,80.7444385 66.9997974,85.841017 60.7727758,85.9963521 L60.48,86 L11.52,86 L11.2272242,85.9963521 C5.09904421,85.8434827 0.159045691,80.9049897 0.00376435193,74.7774088 L-4.4408921e-14,74.48 L-8.52651283e-14,25.52 L0.00364786345,25.2272242 C0.156517322,19.0990442 5.09501035,14.1590457 11.2225912,14.0037644 L11.52,14 L60.48,14 Z" id="Shadow"></path>
        <path d="M60.48,14 C66.8423203,14 72,19.1576797 72,25.52 L72,25.52 L71.999,33.725 L92.9887978,15.288969 C93.7285523,14.4830709 94.6721618,14 95.7,14 C98.0748244,14 100,16.5788398 100,19.76 L99.9999407,19.7905695 L100,80.24 L99.9962277,80.4834833 C99.9009774,83.5517129 98.0139315,86 95.7,86 C94.674753,86 93.7333106,85.5193617 92.9943965,84.7171199 L72,66.274 L72,74.48 C72,80.7444385 66.9997974,85.841017 60.7727758,85.9963521 L60.48,86 L11.52,86 L11.2272242,85.9963521 C5.09904421,85.8434827 0.159045691,80.9049897 0.00376435193,74.7774088 L-5.15143483e-14,74.48 L-9.23705556e-14,25.52 L0.00364786345,25.2272242 C0.156517322,19.0990442 5.09501035,14.1590457 11.2225912,14.0037644 L11.52,14 L60.48,14 Z" id="Colour" fill="#000000"></path>
    </g>
</svg>