<?xml version="1.0" encoding="UTF-8"?>
<svg width="100px" height="100px" viewBox="0 0 100 100" version="1.1" xmlns="http://www.w3.org/2000/svg" xmlns:xlink="http://www.w3.org/1999/xlink">
    <title>Volume</title>
    <g id="Volume" stroke="none" stroke-width="1" fill="none" fill-rule="evenodd">
        <path d="M46,5 C48.209139,5 50,6.790861 50,9 L49.9998204,9.03830732 L49.9998204,9.03830732 L50,9.0382492 L50,91.4832052 L49.9695779,91.4957734 C49.7254071,93.470975 48.041265,95 46,95 C44.7568944,95 43.6462337,94.4329363 42.9125823,93.5433736 L18.7,70 L6.4,70 L6.17045255,69.9959601 C2.81833461,69.8777878 0.122212179,67.1816654 0.00403988222,63.8295475 L-1.95399252e-14,63.6 L-4.26325641e-14,36.4 L0.00403988222,36.1704525 C0.122212179,32.8183346 2.81833461,30.1222122 6.17045255,30.0040399 L6.4,30 L18.682,30 L43.3723745,5.96898878 L43.3844975,5.97350614 C44.0857622,5.36693559 45.0000299,5 46,5 Z M100,50.5 C100,69.2569809 90.1634602,85.7165148 75.3674583,95.0015241 L75,95 L71.2046529,88.1677076 C83.6994286,80.2880855 92,66.3633939 92,50.5 C92,34.4627799 83.5165217,20.4069823 70.7924057,12.5754479 L74.6806,5.57476895 C89.8582634,14.7772433 100,31.4542569 100,50.5 Z M86,50.5 C86,64.1070128 78.9410413,76.0653174 68.2853577,82.9126801 L64.3897902,75.9004721 C72.59435,70.4340321 78,61.0982947 78,50.5 C78,39.7270972 72.4147653,30.2586959 63.9820095,24.8325097 L67.8745889,17.8270068 C78.7592509,24.6289461 86,36.7188892 86,50.5 Z M72,50.5 C72,58.9615477 68.0342117,66.496836 61.8599401,71.3485597 L57.9043398,64.225442 C61.6478879,60.8401105 64,55.9447379 64,50.5 C64,44.8762097 61.4906439,39.8385109 57.5305354,36.4455073 L61.4715715,29.3520075 C67.8674143,34.1899021 72,41.8623425 72,50.5 Z" id="Shadow"></path>
        <path d="M46,5 C48.209139,5 50,6.790861 50,9 L49.9998204,9.03830732 L49.9998204,9.03830732 L50,9.0382492 L50,91.4832052 L49.9695779,91.4957734 C49.7254071,93.470975 48.041265,95 46,95 C44.7568944,95 43.6462337,94.4329363 42.9125823,93.5433736 L18.7,70 L6.4,70 L6.17045255,69.9959601 C2.81833461,69.8777878 0.122212179,67.1816654 0.00403988222,63.8295475 L1.77635684e-15,63.6 L-2.13162821e-14,36.4 L0.00403988222,36.1704525 C0.122212179,32.8183346 2.81833461,30.1222122 6.17045255,30.0040399 L6.4,30 L18.682,30 L43.3723745,5.96898878 L43.3844975,5.97350614 C44.0857622,5.36693559 45.0000299,5 46,5 Z M100,50.5 C100,69.2569809 90.1634602,85.7165148 75.3674583,95.0015241 L75,95 L71.2046529,88.1677076 C83.6994286,80.2880855 92,66.3633939 92,50.5 C92,34.4627799 83.5165217,20.4069823 70.7924057,12.5754479 L74.6806,5.57476895 C89.8582634,14.7772433 100,31.4542569 100,50.5 Z M86,50.5 C86,64.1070128 78.9410413,76.0653174 68.2853577,82.9126801 L64.3897902,75.9004721 C72.59435,70.4340321 78,61.0982947 78,50.5 C78,39.7270972 72.4147653,30.2586959 63.9820095,24.8325097 L67.8745889,17.8270068 C78.7592509,24.6289461 86,36.7188892 86,50.5 Z M72,50.5 C72,58.9615477 68.0342117,66.496836 61.8599401,71.3485597 L57.9043398,64.225442 C61.6478879,60.8401105 64,55.9447379 64,50.5 C64,44.8762097 61.4906439,39.8385109 57.5305354,36.4455073 L61.4715715,29.3520075 C67.8674143,34.1899021 72,41.8623425 72,50.5 Z" id="Colour" fill="#000000"></path>
    </g>
</svg>