<?xml version="1.0" encoding="UTF-8"?>
<svg width="100px" height="100px" viewBox="0 0 100 100" version="1.1" xmlns="http://www.w3.org/2000/svg" xmlns:xlink="http://www.w3.org/1999/xlink">
    <title>Volume Mute</title>
    <g id="Volume-Mute" stroke="none" stroke-width="1" fill="none" fill-rule="evenodd">
        <path d="M46,5 C48.209139,5 50,6.790861 50,9 L49.9998204,9.03830732 L49.9998204,9.03830732 L50,9.0382492 L50,91.4832052 L49.9695779,91.4957734 C49.7254071,93.470975 48.041265,95 46,95 C44.7568944,95 43.6462337,94.4329363 42.9125823,93.5433736 L18.7,70 L6.4,70 L6.17045255,69.9959601 C2.81833461,69.8777878 0.122212179,67.1816654 0.00403988222,63.8295475 L-1.95399252e-14,63.6 L-4.26325641e-14,36.4 L0.00403988222,36.1704525 C0.122212179,32.8183346 2.81833461,30.1222122 6.17045255,30.0040399 L6.4,30 L18.682,30 L43.3723745,5.96898878 L43.3844975,5.97350614 C44.0857622,5.36693559 45.0000299,5 46,5 Z M90.5192593,34 L90.7342033,34.0051265 C91.8082593,34.0563913 92.8673849,34.492142 93.6876214,35.3123786 C95.3827771,37.0075342 95.4357507,39.7230109 93.8465423,41.4819366 L93.6876214,41.6491028 L85.3364763,49.9994763 L93.6876214,58.3508972 C95.4374595,60.1007353 95.4374595,62.9377834 93.6876214,64.6876214 C92.8673849,65.507858 91.8082593,65.9436087 90.7342033,65.9948735 L90.5192593,66 C89.3725378,66 88.2258163,65.5625405 87.3508972,64.6876214 L78.9994763,56.3364763 L70.6491028,64.6876214 C69.8288662,65.507858 68.7697406,65.9436087 67.6956846,65.9948735 L67.4807407,66 C66.4056892,66 65.3306378,65.6155141 64.4795447,64.8465423 L64.3123786,64.6876214 C62.6172229,62.9924658 62.5642493,60.2769891 64.1534577,58.5180634 L64.3123786,58.3508972 L72.6624763,49.9994763 L64.3123786,41.6491028 C62.5625405,39.8992647 62.5625405,37.0622166 64.3123786,35.3123786 C65.1872976,34.4374595 66.3340191,34 67.4807407,34 L67.6956846,34.0051265 C68.7697406,34.0563913 69.8288662,34.492142 70.6491028,35.3123786 L78.9994763,43.6624763 L87.3508972,35.3123786 C88.2258163,34.4374595 89.3725378,34 90.5192593,34 Z" id="Shadow"></path>
        <path d="M46,5 C48.209139,5 50,6.790861 50,9 L49.9998204,9.03830732 L49.9998204,9.03830732 L50,9.0382492 L50,91.4832052 L49.9695779,91.4957734 C49.7254071,93.470975 48.041265,95 46,95 C44.7568944,95 43.6462337,94.4329363 42.9125823,93.5433736 L18.7,70 L6.4,70 L6.17045255,69.9959601 C2.81833461,69.8777878 0.122212179,67.1816654 0.00403988222,63.8295475 L1.59872116e-14,63.6 L-7.10542736e-15,36.4 L0.00403988222,36.1704525 C0.122212179,32.8183346 2.81833461,30.1222122 6.17045255,30.0040399 L6.4,30 L18.682,30 L43.3723745,5.96898878 L43.3844975,5.97350614 C44.0857622,5.36693559 45.0000299,5 46,5 Z M90.5192593,34 L90.7342033,34.0051265 C91.8082593,34.0563913 92.8673849,34.492142 93.6876214,35.3123786 C95.3827771,37.0075342 95.4357507,39.7230109 93.8465423,41.4819366 L93.6876214,41.6491028 L85.3364763,49.9994763 L93.6876214,58.3508972 C95.4374595,60.1007353 95.4374595,62.9377834 93.6876214,64.6876214 C92.8673849,65.507858 91.8082593,65.9436087 90.7342033,65.9948735 L90.5192593,66 C89.3725378,66 88.2258163,65.5625405 87.3508972,64.6876214 L78.9994763,56.3364763 L70.6491028,64.6876214 C69.8288662,65.507858 68.7697406,65.9436087 67.6956846,65.9948735 L67.4807407,66 C66.4056892,66 65.3306378,65.6155141 64.4795447,64.8465423 L64.3123786,64.6876214 C62.6172229,62.9924658 62.5642493,60.2769891 64.1534577,58.5180634 L64.3123786,58.3508972 L72.6624763,49.9994763 L64.3123786,41.6491028 C62.5625405,39.8992647 62.5625405,37.0622166 64.3123786,35.3123786 C65.1872976,34.4374595 66.3340191,34 67.4807407,34 L67.6956846,34.0051265 C68.7697406,34.0563913 69.8288662,34.492142 70.6491028,35.3123786 L78.9994763,43.6624763 L87.3508972,35.3123786 C88.2258163,34.4374595 89.3725378,34 90.5192593,34 Z" id="Colour" fill="#000000"></path>
    </g>
</svg>