<?xml version="1.0" encoding="UTF-8"?>
<svg width="100px" height="100px" viewBox="0 0 100 100" version="1.1" xmlns="http://www.w3.org/2000/svg" xmlns:xlink="http://www.w3.org/1999/xlink">
    <title>Walking</title>
    <g id="Walking" stroke="none" stroke-width="1" fill="none" fill-rule="evenodd">
        <g id="Shadow" transform="translate(22.000000, 0.000000)" fill="#000000">
            <path d="M30.4645582,19.1549015 C32.5844898,19.5835266 34.0617717,19.8325893 36.6216103,23.9349474 C39.1814489,28.0373055 42.6957446,33.7093756 45.0035606,35.2340643 C46.5421046,36.2505235 49.6011787,37.8933286 54.180783,40.1624795 C56.3022507,40.7743857 57.5277669,43.6433176 56.5895637,45.8292385 C55.6513605,48.0151594 53.7256139,48.080145 51.4582779,47.8665661 C49.1909419,47.6529872 39.987771,42.370642 37.6907689,40.5834663 C35.3937667,38.7962906 33.0753267,36.0834941 32.2272607,37.0118209 C31.3791947,37.9401477 31.1386493,54.0224742 31.1386493,54.6015439 C31.1386493,55.1806136 39.9072314,62.8938276 41.6189692,65.7408131 C42.7601278,67.6388035 43.2182584,72.1935303 42.9933612,79.4049936 C42.951393,84.2004334 42.8675623,87.5224957 42.6115195,95.1083991 C42.5403358,97.2762006 41.6468011,100 37.6907689,100 C33.7347367,100 32.5969897,97.3283672 32.5969897,95.1083991 C32.940855,79.5901092 32.6632458,71.2299062 31.7641621,70.0277899 C30.4155366,68.2246156 23.0876899,59.9111147 22.7375275,61.7023681 C22.504086,62.896537 19.9370975,74.4195753 15.0365622,96.2714828 C14.5464165,98.435968 11.7492287,100.446394 8.81893396,99.8392779 C5.88863921,99.2321617 4.77206387,96.2059359 5.2116545,94.0808412 C14.0242908,55.8741252 18.4306089,35.408 18.4306089,32.6824656 C18.4306089,31.0651827 9.7300479,33.6579398 8.81893396,36.2660517 C7.90782001,38.8741637 8.03034084,47.1314364 8.03034084,47.8665661 C8.03034084,48.6016958 7.08232249,51.8466689 3.8706063,51.8466689 C1.72946217,51.8466689 0.477012717,50.8144459 0.113257935,48.7499998 C-0.0377526449,41.7870324 -0.0377526449,37.4324572 0.113257935,35.6862742 C0.339773804,33.0669998 0.230321852,32.0317381 1.24469938,30.5453612 C2.25907691,29.0589843 4.23749864,27.6836911 5.74113529,26.9468202 C7.24477195,26.2099493 12.4011621,23.6991582 15.364735,22.5964232 C18.3283079,21.4936882 23.3514408,19.7481722 24.2926111,19.5238139 C25.2337813,19.2994556 28.3446265,18.7262763 30.4645582,19.1549015 Z M32.5,17 C37.1944204,17 41,13.1944204 41,8.5 C41,3.80557963 37.1944204,0 32.5,0 C27.8055796,0 24,3.80557963 24,8.5 C24,13.1944204 27.8055796,17 32.5,17 Z" id="Colour"></path>
        </g>
    </g>
</svg>