<?xml version="1.0" encoding="UTF-8"?>
<svg width="100px" height="100px" viewBox="0 0 100 100" version="1.1" xmlns="http://www.w3.org/2000/svg" xmlns:xlink="http://www.w3.org/1999/xlink">
    <title>Waze</title>
    <g id="Waze" stroke="none" stroke-width="1" fill="none" fill-rule="evenodd">
        <g id="Shadow">
            <path d="M44.9873003,84.9487666 C48.4135062,84.9487666 51.8397121,85.1033184 55.265918,84.8755578 C58.383603,84.7210059 61.6636674,84.4200365 64.7082817,83.6554115 C88.9190541,77.709232 101.860694,50.9310885 91.2735558,28.2851736 C84.8758064,14.6276697 73.9151951,6.84313647 58.9194551,5.2406777 C47.4229917,4.02053143 37.144374,7.45320961 28.4651937,15.2296085 C19.9402738,22.9327987 15.5235534,32.539417 15.2231514,44.0575978 C15.1500807,46.725651 15.2231514,49.4750472 15.2231514,52.1431004 C15.1419617,57.9509967 11.8700163,62.4492693 6.30852091,64.1981456 C6.23545017,64.1981456 6.08118971,64.3526975 6,64.3526975 C8.13528946,69.9979076 16.8063508,78.3111708 22.2135857,80.3691509 C29.0010458,71.063502 42.6977504,74.3497626 44.9873003,84.9487666 L44.9873003,84.9487666 Z" id="Colour-BG" fill="#FFFFFF"></path>
            <path d="M56.8512884,0.0265648621 C77.2572837,0.791519441 94.7539579,15.1384867 98.8775336,35.2063377 C102.618089,53.36994 96.9705836,68.5551022 82.5217698,80.3793469 C81.6823858,81.0629233 80.7615082,81.7546375 79.7672864,82.3649736 C79.2294287,82.7474509 79.0827402,83.0485501 79.3109223,83.6588862 C81.2178723,89.461148 78.5448825,95.8656082 73.1989029,98.6161895 C65.9378239,102.204966 57.5358346,98.5429492 55.3192089,90.7550606 C55.2458647,90.4458236 54.8628448,90.0714841 54.6346627,90.0714841 C51.4319646,89.8436253 48.1396235,89.9168657 44.7820875,89.9168657 C43.9427035,93.7335007 41.8809156,96.5573224 38.5152303,98.3069526 C34.2368167,100.520438 29.8769096,100.447198 25.8266781,97.851235 C21.6216088,95.1820317 19.7880029,91.1375379 20.0976786,86.1734709 C20.1710228,85.335276 19.9428408,85.026039 19.2582946,84.6435618 C11.8423778,80.7536863 5.9666898,75.3339018 1.9164583,68.0098686 C1.15041854,66.5613376 0.539216601,65.0314284 0.15619672,63.4282789 C-0.381660984,61.2147933 0.465872368,60.1487396 2.75584229,59.9208808 C5.51032569,59.6116438 7.95513344,58.5455901 9.17753731,55.9496272 C9.71539502,54.8021954 10.0169213,53.4350425 10.0169213,52.1329922 C10.0685339,51.0398124 10.0857381,49.9466326 10.0914729,48.8531515 L10.0972076,45.5715023 C10.1029423,44.477117 10.1201465,43.3821288 10.1717591,42.2862364 C11.0111431,29.615659 16.2837785,19.0934646 25.916321,10.8498584 C34.7746744,3.23286384 45.1651074,-0.347774613 56.8512884,0.0265648621 Z M28.3529794,15.0571085 C19.7961523,22.763619 15.3629009,32.3743782 15.0613746,43.8975237 C14.9880304,46.5667269 15.0613746,49.3173083 15.0613746,51.9865115 C14.979881,57.7969112 11.6956893,62.2971227 6.11337827,64.0467528 C6.04003403,64.0467528 5.88519621,64.2013713 5.80370262,64.2013713 C7.94698408,69.8490147 16.6504997,78.1658613 22.0779729,80.2247284 C28.8908371,70.9150684 42.638806,74.2027455 44.9369253,84.806318 C48.3759549,84.806318 51.8149844,84.9609365 55.254014,84.7330777 C58.3833679,84.5784592 61.675709,84.2773601 64.7317187,83.5124055 C89.0331077,77.563663 102.023186,50.7739771 91.3964219,28.1183011 C84.9747269,14.4549103 73.973092,6.66702163 58.9212256,5.06387214 C47.3817331,3.84319994 37.0646444,7.27735773 28.3529794,15.0571085 Z M46.9393222,51.7807631 C47.9449774,53.296139 48.9506325,54.8034545 50.2612815,56.012531 C57.5234306,62.7349966 69.426431,60.6231429 73.9930946,51.9339128 C74.5371376,50.8779859 75.2295559,50.0477534 76.5402048,50.0477534 C78.4690844,50.120298 79.5571703,52.0145179 78.7081335,53.7475276 C76.3093987,58.5112892 72.5258272,61.9853691 67.4233638,63.6458343 C65.1812473,64.3954617 62.8649432,64.6937006 61.3976759,65 C52.2725918,64.5486114 46.2469039,60.9939264 42.3809017,53.8926168 C41.4494342,52.1515466 42.306714,50.4185369 44.0789751,50.0396929 C45.158818,49.8139986 46.1644731,50.5716866 46.9393222,51.7807631 Z M44.9999887,30 C47.7668133,30 50,32.2331691 50,35 C50.0081876,37.6929392 47.7750235,40 44.9999887,40 C42.2249539,40 40,37.7668309 40,35 C40,32.2331691 42.2331641,30 44.9999887,30 Z M74.9627792,30 C77.6757651,30 79.917287,32.2149837 80,34.9592834 C80,37.7117264 77.7502068,39.9185668 75.0372208,40 C72.2415219,40 70,37.8583062 70,35.0407166 C70,32.2882736 72.1753515,30.0814332 74.9627792,30 Z" id="Colour" fill="#000000"></path>
        </g>
    </g>
</svg>