<?xml version="1.0" encoding="UTF-8"?>
<svg width="100px" height="100px" viewBox="0 0 100 100" version="1.1" xmlns="http://www.w3.org/2000/svg" xmlns:xlink="http://www.w3.org/1999/xlink">
    <title>WhatsApp</title>
    <g id="WhatsApp" stroke="none" stroke-width="1" fill="none" fill-rule="evenodd">
        <path d="M85.0191865,14.531756 C75.7473061,5.19837893 63.1248669,-0.0347310568 49.9689381,0.000173494121 C22.6548345,0.000173494121 0.42529789,22.2275094 0.415794026,49.5487409 C0.404128543,58.2440003 2.68574017,66.7885703 7.03048299,74.3205609 L0,100 L26.2686786,93.109699 C33.5333267,97.0681575 41.6744349,99.1422368 49.9475544,99.1422763 L49.9689381,99.1422763 C77.2782897,99.1422763 99.5102023,76.9127397 99.5199617,49.5915082 C99.5620503,36.4374322 94.3406588,23.8130093 85.0191865,14.531756 Z M49.9689381,90.7622498 L49.9523063,90.7622498 C42.5761094,90.7659228 35.334685,88.785692 28.9867835,85.0290391 L27.4827971,84.1380519 L11.8964611,88.2270891 L16.0591533,73.0209076 L15.0778794,71.462274 C10.9584668,64.8973189 8.77904765,57.3014749 8.79102419,49.5511168 C8.79102419,26.848763 27.2665843,8.3685005 49.9855698,8.3685005 C60.9103999,8.37480014 71.3852747,12.7207145 79.1058403,20.4501918 C86.8264059,28.179669 91.1602336,38.6595503 91.1539372,49.5843803 C91.1444265,72.2938621 72.6689159,90.7622498 49.9689381,90.7622498 Z M72.5596215,59.9150799 C71.3217433,59.2949528 65.2345188,56.3012358 64.0988071,55.8759379 C62.9630954,55.4506401 62.1386352,55.2558109 61.3141751,56.496065 C60.4897149,57.7363192 58.116125,60.5233272 57.3938314,61.3501633 C56.6715378,62.1769994 55.9492442,62.2791659 54.7113659,61.6590389 C53.4734877,61.0389118 49.484241,59.7321305 44.753693,55.5147911 C41.0733219,52.2312063 38.5761818,48.1778085 37.863392,46.9375544 C37.1506022,45.6973002 37.7873611,45.0367817 38.4074882,44.4095267 C38.9634642,43.8559266 39.6453664,42.9649394 40.2631175,42.2402699 C40.8808687,41.5156003 41.0899536,41.0023916 41.5009957,40.1755555 C41.9120378,39.3487194 41.7077048,38.6264258 41.3988292,38.0062987 C41.0899536,37.3861716 38.6118213,31.2918192 37.5806521,28.8136868 C36.5756185,26.3997054 35.5563292,26.7252128 34.7960201,26.6753175 C34.0832303,26.639678 33.2468903,26.6325501 32.4200542,26.6325501 C31.1513138,26.6657124 29.9540865,27.2272895 29.1174617,28.1816798 C27.9841259,29.421934 24.7860759,32.415651 24.7860759,38.5100034 C24.7860759,44.6043559 29.2220042,50.4919993 29.8397553,51.3188354 C30.4575064,52.1456715 38.5714298,64.6503799 50.9858515,70.0153108 C53.2914354,71.0095691 55.6476837,71.8819599 58.044846,72.6288733 C61.0100514,73.5792596 63.7091487,73.4390776 65.842766,73.1206982 C68.2187319,72.7643033 73.1678688,70.1246052 74.2014139,67.2330548 C75.2349591,64.3415043 75.2325831,61.860996 74.9142037,61.3454114 C74.5958243,60.8298268 73.7974997,60.5447109 72.5596215,59.9245838 L72.5596215,59.9150799 Z" id="Shadow"></path>
        <path d="M85.0191865,14.531756 C75.7473061,5.19837893 63.1248669,-0.0347310568 49.9689381,0.000173494121 C22.6548345,0.000173494121 0.42529789,22.2275094 0.415794026,49.5487409 C0.404128543,58.2440003 2.68574017,66.7885703 7.03048299,74.3205609 L0,100 L26.2686786,93.109699 C33.5333267,97.0681575 41.6744349,99.1422368 49.9475544,99.1422763 L49.9689381,99.1422763 C77.2782897,99.1422763 99.5102023,76.9127397 99.5199617,49.5915082 C99.5620503,36.4374322 94.3406588,23.8130093 85.0191865,14.531756 Z M49.9689381,90.7622498 L49.9523063,90.7622498 C42.5761094,90.7659228 35.334685,88.785692 28.9867835,85.0290391 L27.4827971,84.1380519 L11.8964611,88.2270891 L16.0591533,73.0209076 L15.0778794,71.462274 C10.9584668,64.8973189 8.77904765,57.3014749 8.79102419,49.5511168 C8.79102419,26.848763 27.2665843,8.3685005 49.9855698,8.3685005 C60.9103999,8.37480014 71.3852747,12.7207145 79.1058403,20.4501918 C86.8264059,28.179669 91.1602336,38.6595503 91.1539372,49.5843803 C91.1444265,72.2938621 72.6689159,90.7622498 49.9689381,90.7622498 Z M72.5596215,59.9150799 C71.3217433,59.2949528 65.2345188,56.3012358 64.0988071,55.8759379 C62.9630954,55.4506401 62.1386352,55.2558109 61.3141751,56.496065 C60.4897149,57.7363192 58.116125,60.5233272 57.3938314,61.3501633 C56.6715378,62.1769994 55.9492442,62.2791659 54.7113659,61.6590389 C53.4734877,61.0389118 49.484241,59.7321305 44.753693,55.5147911 C41.0733219,52.2312063 38.5761818,48.1778085 37.863392,46.9375544 C37.1506022,45.6973002 37.7873611,45.0367817 38.4074882,44.4095267 C38.9634642,43.8559266 39.6453664,42.9649394 40.2631175,42.2402699 C40.8808687,41.5156003 41.0899536,41.0023916 41.5009957,40.1755555 C41.9120378,39.3487194 41.7077048,38.6264258 41.3988292,38.0062987 C41.0899536,37.3861716 38.6118213,31.2918192 37.5806521,28.8136868 C36.5756185,26.3997054 35.5563292,26.7252128 34.7960201,26.6753175 C34.0832303,26.639678 33.2468903,26.6325501 32.4200542,26.6325501 C31.1513138,26.6657124 29.9540865,27.2272895 29.1174617,28.1816798 C27.9841259,29.421934 24.7860759,32.415651 24.7860759,38.5100034 C24.7860759,44.6043559 29.2220042,50.4919993 29.8397553,51.3188354 C30.4575064,52.1456715 38.5714298,64.6503799 50.9858515,70.0153108 C53.2914354,71.0095691 55.6476837,71.8819599 58.044846,72.6288733 C61.0100514,73.5792596 63.7091487,73.4390776 65.842766,73.1206982 C68.2187319,72.7643033 73.1678688,70.1246052 74.2014139,67.2330548 C75.2349591,64.3415043 75.2325831,61.860996 74.9142037,61.3454114 C74.5958243,60.8298268 73.7974997,60.5447109 72.5596215,59.9245838 L72.5596215,59.9150799 Z" id="Colour" fill="#000000"></path>
    </g>
</svg>