<?xml version="1.0" encoding="UTF-8"?>
<svg width="100px" height="100px" viewBox="0 0 100 100" version="1.1" xmlns="http://www.w3.org/2000/svg" xmlns:xlink="http://www.w3.org/1999/xlink">
    <title>Write</title>
    <g id="Write" stroke="none" stroke-width="1" fill="none" fill-rule="evenodd">
        <path d="M73.1947188,59.5263218 L85.2120609,71.5366425 C85.415262,71.7398941 85.6175631,71.9422929 85.818836,72.1437097 L86.7171907,73.0430212 C92.6541817,78.9884307 97.4926407,83.8757074 97.7697331,84.2175396 C98.8503933,85.5286662 99.5608274,87.0699907 99.8610108,88.7814615 C100.451371,92.0742911 99.1305645,95.6073271 96.4789445,97.8092192 C95.5683881,98.5698729 93.8473367,99.4406212 92.7066397,99.7108534 C91.6059673,99.9810856 89.7148119,100.061154 88.7342128,99.870991 C87.0131613,99.5407072 85.4321954,98.7900621 84.1314006,97.689116 C83.8272148,97.4409027 80.1289553,93.7785556 75.2959225,88.9516877 L73.5810966,87.2377928 C73.2888952,86.9455436 72.9937845,86.6502823 72.6961983,86.352441 L72.0978539,85.7534463 C71.8973913,85.5527201 71.695957,85.3509751 71.4936795,85.1483394 L59.5363741,73.1880616 L66.3705495,66.362196 L73.1947188,59.5263218 Z M56.8500869,-0.0238242083 L59.6399552,-0.0229453731 C59.8620272,-0.0228574575 60.0815359,-0.0227656586 60.2985119,-0.0226698163 L61.5702222,-0.0220449593 C61.7771905,-0.0219323025 61.9816876,-0.0218152819 62.1837442,-0.0216937375 L63.3670428,-0.0209089031 C76.8362495,-0.0110892648 78.6477019,0.0224667708 79.331073,0.134686404 L79.3871306,0.144499156 L79.3871306,0.144499156 L79.4391364,0.154704886 C79.4559602,0.158173147 79.4723542,0.161708185 79.4885641,0.165311281 C82.2402452,0.76582732 84.2314618,1.84675619 86.1626416,3.76840752 C88.0437909,5.65002444 89.0544084,7.48159836 89.7348241,10.2339635 C89.7537356,10.3105293 89.7709452,10.3805285 89.786635,10.4587943 L89.7968718,10.512359 C89.9454368,11.3298973 89.9493552,13.2781795 89.9849769,30.7015519 C89.9871211,32.2393019 89.9888058,33.6745658 89.9900064,35.012194 L89.9907348,35.8895347 C89.9908442,36.0333652 89.9909475,36.1760035 89.9910448,36.3174565 L89.9919178,37.9584174 C89.9919659,38.0904934 89.9920077,38.2214107 89.9920434,38.3511757 L89.9920026,40.5639512 C89.9919621,40.68013 89.9919151,40.7951965 89.9918616,40.9091574 L89.9912043,41.9051344 C89.9911116,42.0125217 89.9910124,42.1188233 89.9909065,42.224046 L89.9901915,42.8424878 C89.983037,48.2928931 89.956388,50.6358248 89.904928,50.9189252 C89.5447079,52.8305679 87.9337237,54.4619698 86.0225561,54.8623138 C83.5910705,55.3727525 81.1795972,54.0015742 80.2690409,51.59951 L80.0489064,51.0190112 L79.9988758,31.6023259 L79.9488453,12.1856407 L79.7387169,11.725245 C79.4585457,11.124729 78.8081484,10.47417 78.2077816,10.1939291 L77.7475004,9.98374852 L12.2074582,9.98374852 L11.747177,10.1939291 C11.1468102,10.47417 10.4964129,11.124729 10.2162417,11.725245 L10.0061133,12.1856407 L10.0061133,77.7419749 L10.2162417,78.2023706 C10.4964129,78.8028866 11.1468102,79.4534457 11.747177,79.7336865 L12.2074582,79.9438671 L51.0311778,80.0439531 L51.6115324,80.2641423 C55.1336843,81.5952862 56.1042773,85.8889759 53.4926817,88.5112292 C52.7722416,89.2218399 51.9217219,89.7022527 51.0011595,89.8924161 C50.7065795,89.9522676 42.4912043,89.9845873 33.6051551,89.9893755 L28.9462371,89.9893755 C20.0461954,89.9845873 11.7363704,89.9522676 11.2668836,89.8924161 C9.625881,89.6822355 7.69470113,89.0016507 6.25382081,88.1309024 C3.12190735,86.2292683 1.01061744,83.2266881 0.190116153,79.4834715 L0.184763723,79.4589817 L0.184763723,79.4589817 L0.174361207,79.4084366 L0.174361207,79.4084366 L0.164355414,79.3545757 C0.0482704912,78.6917891 0.0138996921,77.0229627 0.00394224854,63.3579427 L0.00315760916,62.1743499 C0.00303609492,61.9722431 0.00291910345,61.7676952 0.00280647464,61.5606754 L0.00218177297,60.288649 C0.00208595443,60.071619 0.00199417836,59.8520557 0.00190628466,59.6299285 L0.00102766786,56.8393667 C0.000968271573,56.5962365 0.000912117266,56.3504195 0.000859044841,56.101885 L0.000859044841,33.8257306 C0.000912117266,33.5771961 0.000968271573,33.3313791 0.00102766786,33.0882489 L0.00190628466,30.2976871 C0.00199417836,30.0755599 0.00208595443,29.8559966 0.00218177297,29.6389666 L0.00280647464,28.3669402 C0.00291910345,28.1599204 0.00303609492,27.9553725 0.00315760916,27.7532657 L0.00394224854,26.5696729 C0.0140399378,12.7121879 0.0492435257,11.191197 0.169309201,10.5456029 L0.179512394,10.4935841 C0.182979793,10.4767562 0.186513952,10.4603581 0.190116153,10.4441442 C0.790482951,7.69177897 1.87114319,5.70006744 3.79231694,3.76840752 C5.72349681,1.84675619 7.71471336,0.76582732 10.4663945,0.165311281 C10.4826044,0.161708185 10.4989984,0.158173147 10.5158222,0.154704886 L10.567828,0.144499156 L10.567828,0.144499156 L10.6238856,0.134686404 C11.3072567,0.0224667708 13.118709,-0.0110892648 26.5879157,-0.0209089031 L27.7712144,-0.0216937375 C27.9732709,-0.0218152819 28.177768,-0.0219323025 28.3847364,-0.0220449593 L29.6564467,-0.0226698163 C29.8734227,-0.0227656586 30.0929314,-0.0228574575 30.3150034,-0.0229453731 L33.1048717,-0.0238242083 C33.3479415,-0.0238836193 33.5936974,-0.0239397876 33.8421701,-0.0239928732 L56.1127884,-0.0239928732 C56.3612612,-0.0239397876 56.6070171,-0.0238836193 56.8500869,-0.0238242083 Z M51.6815752,49.9681081 C51.9517403,49.9681081 69.4324202,55.8831911 69.5725058,56.0233115 C69.6016903,56.0525033 66.4411849,59.2579874 63.1702384,62.5448037 L62.6089974,63.1084772 C62.4219394,63.2962489 62.2350954,63.4837087 62.0490399,63.6702792 L61.4938134,64.2267448 C61.4018614,64.3188519 61.3102502,64.4105922 61.2190515,64.5018937 L60.1490678,65.5718237 C57.8935958,67.8243398 56.111226,69.5849654 56.0642528,69.5849654 C56.0342345,69.5849654 55.8641306,69.19463 55.7040328,68.7142172 C55.5439349,68.2237957 54.1831035,64.2603899 52.6921926,59.8866314 C52.1374351,58.2629105 51.6200828,56.7292616 51.1891072,55.4352139 L51.0316359,54.9614693 C50.3931731,53.0367646 49.9805359,51.7426563 49.9805359,51.649553 C49.9805359,50.798822 50.8110433,49.9681081 51.6815752,49.9681081 Z" id="Shadow" transform="translate(50.000000, 49.975148) scale(1, -1) translate(-50.000000, -49.975148) "></path>
        <path d="M73.1947188,59.5263218 L85.2120609,71.5366425 C85.415262,71.7398941 85.6175631,71.9422929 85.818836,72.1437097 L86.7171907,73.0430212 C92.6541817,78.9884307 97.4926407,83.8757074 97.7697331,84.2175396 C98.8503933,85.5286662 99.5608274,87.0699907 99.8610108,88.7814615 C100.451371,92.0742911 99.1305645,95.6073271 96.4789445,97.8092192 C95.5683881,98.5698729 93.8473367,99.4406212 92.7066397,99.7108534 C91.6059673,99.9810856 89.7148119,100.061154 88.7342128,99.870991 C87.0131613,99.5407072 85.4321954,98.7900621 84.1314006,97.689116 C83.8272148,97.4409027 80.1289553,93.7785556 75.2959225,88.9516877 L73.5810966,87.2377928 C73.2888952,86.9455436 72.9937845,86.6502823 72.6961983,86.352441 L72.0978539,85.7534463 C71.8973913,85.5527201 71.695957,85.3509751 71.4936795,85.1483394 L59.5363741,73.1880616 L66.3705495,66.362196 L73.1947188,59.5263218 Z M56.8500869,-0.0238242083 L59.6399552,-0.0229453731 C59.8620272,-0.0228574575 60.0815359,-0.0227656586 60.2985119,-0.0226698163 L61.5702222,-0.0220449593 C61.7771905,-0.0219323025 61.9816876,-0.0218152819 62.1837442,-0.0216937375 L63.3670428,-0.0209089031 C76.8362495,-0.0110892648 78.6477019,0.0224667708 79.331073,0.134686404 L79.3871306,0.144499156 L79.3871306,0.144499156 L79.4391364,0.154704886 C79.4559602,0.158173147 79.4723542,0.161708185 79.4885641,0.165311281 C82.2402452,0.76582732 84.2314618,1.84675619 86.1626416,3.76840752 C88.0437909,5.65002444 89.0544084,7.48159836 89.7348241,10.2339635 C89.7537356,10.3105293 89.7709452,10.3805285 89.786635,10.4587943 L89.7968718,10.512359 C89.9454368,11.3298973 89.9493552,13.2781795 89.9849769,30.7015519 C89.9871211,32.2393019 89.9888058,33.6745658 89.9900064,35.012194 L89.9907348,35.8895347 C89.9908442,36.0333652 89.9909475,36.1760035 89.9910448,36.3174565 L89.9919178,37.9584174 C89.9919659,38.0904934 89.9920077,38.2214107 89.9920434,38.3511757 L89.9920026,40.5639512 C89.9919621,40.68013 89.9919151,40.7951965 89.9918616,40.9091574 L89.9912043,41.9051344 C89.9911116,42.0125217 89.9910124,42.1188233 89.9909065,42.224046 L89.9901915,42.8424878 C89.983037,48.2928931 89.956388,50.6358248 89.904928,50.9189252 C89.5447079,52.8305679 87.9337237,54.4619698 86.0225561,54.8623138 C83.5910705,55.3727525 81.1795972,54.0015742 80.2690409,51.59951 L80.0489064,51.0190112 L79.9988758,31.6023259 L79.9488453,12.1856407 L79.7387169,11.725245 C79.4585457,11.124729 78.8081484,10.47417 78.2077816,10.1939291 L77.7475004,9.98374852 L12.2074582,9.98374852 L11.747177,10.1939291 C11.1468102,10.47417 10.4964129,11.124729 10.2162417,11.725245 L10.0061133,12.1856407 L10.0061133,77.7419749 L10.2162417,78.2023706 C10.4964129,78.8028866 11.1468102,79.4534457 11.747177,79.7336865 L12.2074582,79.9438671 L51.0311778,80.0439531 L51.6115324,80.2641423 C55.1336843,81.5952862 56.1042773,85.8889759 53.4926817,88.5112292 C52.7722416,89.2218399 51.9217219,89.7022527 51.0011595,89.8924161 C50.7065795,89.9522676 42.4912043,89.9845873 33.6051551,89.9893755 L28.9462371,89.9893755 C20.0461954,89.9845873 11.7363704,89.9522676 11.2668836,89.8924161 C9.625881,89.6822355 7.69470113,89.0016507 6.25382081,88.1309024 C3.12190735,86.2292683 1.01061744,83.2266881 0.190116153,79.4834715 L0.184763723,79.4589817 L0.184763723,79.4589817 L0.174361207,79.4084366 L0.174361207,79.4084366 L0.164355414,79.3545757 C0.0482704912,78.6917891 0.0138996921,77.0229627 0.00394224854,63.3579427 L0.00315760916,62.1743499 C0.00303609492,61.9722431 0.00291910345,61.7676952 0.00280647464,61.5606754 L0.00218177297,60.288649 C0.00208595443,60.071619 0.00199417836,59.8520557 0.00190628466,59.6299285 L0.00102766786,56.8393667 C0.000968271573,56.5962365 0.000912117266,56.3504195 0.000859044841,56.101885 L0.000859044841,33.8257306 C0.000912117266,33.5771961 0.000968271573,33.3313791 0.00102766786,33.0882489 L0.00190628466,30.2976871 C0.00199417836,30.0755599 0.00208595443,29.8559966 0.00218177297,29.6389666 L0.00280647464,28.3669402 C0.00291910345,28.1599204 0.00303609492,27.9553725 0.00315760916,27.7532657 L0.00394224854,26.5696729 C0.0140399378,12.7121879 0.0492435257,11.191197 0.169309201,10.5456029 L0.179512394,10.4935841 C0.182979793,10.4767562 0.186513952,10.4603581 0.190116153,10.4441442 C0.790482951,7.69177897 1.87114319,5.70006744 3.79231694,3.76840752 C5.72349681,1.84675619 7.71471336,0.76582732 10.4663945,0.165311281 C10.4826044,0.161708185 10.4989984,0.158173147 10.5158222,0.154704886 L10.567828,0.144499156 L10.567828,0.144499156 L10.6238856,0.134686404 C11.3072567,0.0224667708 13.118709,-0.0110892648 26.5879157,-0.0209089031 L27.7712144,-0.0216937375 C27.9732709,-0.0218152819 28.177768,-0.0219323025 28.3847364,-0.0220449593 L29.6564467,-0.0226698163 C29.8734227,-0.0227656586 30.0929314,-0.0228574575 30.3150034,-0.0229453731 L33.1048717,-0.0238242083 C33.3479415,-0.0238836193 33.5936974,-0.0239397876 33.8421701,-0.0239928732 L56.1127884,-0.0239928732 C56.3612612,-0.0239397876 56.6070171,-0.0238836193 56.8500869,-0.0238242083 Z M51.6815752,49.9681081 C51.9517403,49.9681081 69.4324202,55.8831911 69.5725058,56.0233115 C69.6016903,56.0525033 66.4411849,59.2579874 63.1702384,62.5448037 L62.6089974,63.1084772 C62.4219394,63.2962489 62.2350954,63.4837087 62.0490399,63.6702792 L61.4938134,64.2267448 C61.4018614,64.3188519 61.3102502,64.4105922 61.2190515,64.5018937 L60.1490678,65.5718237 C57.8935958,67.8243398 56.111226,69.5849654 56.0642528,69.5849654 C56.0342345,69.5849654 55.8641306,69.19463 55.7040328,68.7142172 C55.5439349,68.2237957 54.1831035,64.2603899 52.6921926,59.8866314 C52.1374351,58.2629105 51.6200828,56.7292616 51.1891072,55.4352139 L51.0316359,54.9614693 C50.3931731,53.0367646 49.9805359,51.7426563 49.9805359,51.649553 C49.9805359,50.798822 50.8110433,49.9681081 51.6815752,49.9681081 Z" id="Colour" fill="#000000" transform="translate(50.000000, 49.975148) scale(1, -1) translate(-50.000000, -49.975148) "></path>
    </g>
</svg>