<?xml version="1.0" encoding="UTF-8"?>
<svg width="100px" height="100px" viewBox="0 0 100 100" version="1.1" xmlns="http://www.w3.org/2000/svg" xmlns:xlink="http://www.w3.org/1999/xlink">
    <title>YouTube</title>
    <g id="YouTube" stroke="none" stroke-width="1" fill="none" fill-rule="evenodd">
        <path d="M50.3256903,15.0004543 C50.3612449,15.0005301 50.3995981,15.0006184 50.4406952,15.0007215 L50.8831766,15.0021034 C56.0192826,15.0210341 82.0507357,15.2103406 89.0691917,17.1034061 C93.3718844,18.2607908 96.7600898,21.6711553 97.9102302,26.0015469 C98.575157,28.4990898 99.0285161,31.859901 99.3376246,35.2817776 L99.4016788,36.0156792 C99.9484206,42.501568 99.9955535,49.0009468 99.9996167,50.0733286 L99.9996167,50.381397 C99.9957835,51.3930536 99.9536184,57.2346119 99.4898023,63.3384467 L99.4320959,64.0718735 C99.4221327,64.1942237 99.4119947,64.3166057 99.4016788,64.438983 L99.3376246,65.1728979 C99.0285161,68.5948416 98.575157,71.9557946 97.9102302,74.4536087 C96.7600898,78.783148 93.3718844,82.1935125 89.0691917,83.3513234 C85.4819808,84.3186941 76.9279179,84.8410744 68.7355607,85.1231597 L67.6694816,85.1586075 C59.6958418,85.4144981 52.2900654,85.4489449 50.4406952,85.453582 L49.5588846,85.453582 C47.6273463,85.4487388 39.6346043,85.4113773 31.2642518,85.1231597 L30.1940828,85.0849864 C29.836968,85.0717965 29.4796073,85.0581356 29.1224388,85.0439867 L28.0519477,85.0000597 C20.9250214,84.6972305 14.0501221,84.1925154 10.9308083,83.3513234 C6.62811559,82.1935125 3.23948403,78.7835742 2.08976976,74.4531826 C1.42484302,71.9556397 0.971483875,68.5948284 0.66237537,65.1729519 L0.598321218,64.4390503 L0.598321218,64.4390503 L0.538535708,63.7050335 C0.528918999,63.5827852 0.519474017,63.4606052 0.510197695,63.33853 L0.456539157,62.6076292 C0.0775255172,57.2612025 0.0131647105,52.2592194 0.00223551687,50.7146017 L0.00066237537,50.4478612 C0.000551979475,50.4238001 0.000459982896,50.4016345 0.00038331908,50.3814008 L0.00038331908,50.0733286 C0.000459982896,50.053095 0.000551979475,50.0309294 0.00066237537,50.0068683 L0.00223551687,49.7401278 C0.0139098828,48.0901952 0.0865503816,42.4953659 0.538535708,36.749696 L0.598321218,36.0156792 L0.598321218,36.0156792 L0.66237537,35.2817776 C0.971483875,31.859901 1.42484302,28.4990898 2.08976976,26.0015469 C3.23948403,21.6711553 6.62811559,18.2607908 10.9308083,17.1034061 C14.0501221,16.2620437 20.9250214,15.7572262 28.0519477,15.4543357 L29.1224388,15.4103998 C29.4796073,15.3962481 29.836968,15.3825843 30.1940828,15.3693918 L31.2642518,15.3312107 C39.1003264,15.0613353 46.6054578,15.0113584 49.1164092,15.0021034 L49.5588846,15.0007215 C49.5999812,15.0006184 49.6383339,15.0005301 49.6738879,15.0004543 Z M39.7725287,35.3586359 L39.7725287,65.0956675 L65.9091393,50.2277909 L39.7725287,35.3586359 Z" id="Shadow"></path>
        <path d="M50.3256903,15.0004543 C50.3612449,15.0005301 50.3995981,15.0006184 50.4406952,15.0007215 L50.8831766,15.0021034 C56.0192826,15.0210341 82.0507357,15.2103406 89.0691917,17.1034061 C93.3718844,18.2607908 96.7600898,21.6711553 97.9102302,26.0015469 C98.575157,28.4990898 99.0285161,31.859901 99.3376246,35.2817776 L99.4016788,36.0156792 C99.9484206,42.501568 99.9955535,49.0009468 99.9996167,50.0733286 L99.9996167,50.381397 C99.9957835,51.3930536 99.9536184,57.2346119 99.4898023,63.3384467 L99.4320959,64.0718735 C99.4221327,64.1942237 99.4119947,64.3166057 99.4016788,64.438983 L99.3376246,65.1728979 C99.0285161,68.5948416 98.575157,71.9557946 97.9102302,74.4536087 C96.7600898,78.783148 93.3718844,82.1935125 89.0691917,83.3513234 C85.4819808,84.3186941 76.9279179,84.8410744 68.7355607,85.1231597 L67.6694816,85.1586075 C59.6958418,85.4144981 52.2900654,85.4489449 50.4406952,85.453582 L49.5588846,85.453582 C47.6273463,85.4487388 39.6346043,85.4113773 31.2642518,85.1231597 L30.1940828,85.0849864 C29.836968,85.0717965 29.4796073,85.0581356 29.1224388,85.0439867 L28.0519477,85.0000597 C20.9250214,84.6972305 14.0501221,84.1925154 10.9308083,83.3513234 C6.62811559,82.1935125 3.23948403,78.7835742 2.08976976,74.4531826 C1.42484302,71.9556397 0.971483875,68.5948284 0.66237537,65.1729519 L0.598321218,64.4390503 L0.598321218,64.4390503 L0.538535708,63.7050335 C0.528918999,63.5827852 0.519474017,63.4606052 0.510197695,63.33853 L0.456539157,62.6076292 C0.0775255172,57.2612025 0.0131647105,52.2592194 0.00223551687,50.7146017 L0.00066237537,50.4478612 C0.000551979475,50.4238001 0.000459982896,50.4016345 0.00038331908,50.3814008 L0.00038331908,50.0733286 C0.000459982896,50.053095 0.000551979475,50.0309294 0.00066237537,50.0068683 L0.00223551687,49.7401278 C0.0139098828,48.0901952 0.0865503816,42.4953659 0.538535708,36.749696 L0.598321218,36.0156792 L0.598321218,36.0156792 L0.66237537,35.2817776 C0.971483875,31.859901 1.42484302,28.4990898 2.08976976,26.0015469 C3.23948403,21.6711553 6.62811559,18.2607908 10.9308083,17.1034061 C14.0501221,16.2620437 20.9250214,15.7572262 28.0519477,15.4543357 L29.1224388,15.4103998 C29.4796073,15.3962481 29.836968,15.3825843 30.1940828,15.3693918 L31.2642518,15.3312107 C39.1003264,15.0613353 46.6054578,15.0113584 49.1164092,15.0021034 L49.5588846,15.0007215 C49.5999812,15.0006184 49.6383339,15.0005301 49.6738879,15.0004543 Z M39.7725287,35.3586359 L39.7725287,65.0956675 L65.9091393,50.2277909 L39.7725287,35.3586359 Z" id="Colour" fill="#000000"></path>
    </g>
</svg>